<?xml version="1.0" ?>
<svg baseProfile="full" height="399px" version="1.1" viewBox="-43.416000000000004 -28.866000000000003 518.832 344.232" width="600px" xmlns="http://www.w3.org/2000/svg" xmlns:ev="http://www.w3.org/2001/xml-events" xmlns:xlink="http://www.w3.org/1999/xlink">
	<defs/>
	<path d="M 286.2,228.29999999999998 L 275.0,226.1 L 245.5,220.5 L 216.0,214.79999999999998 L 207.5,213.1 L 206.9,213.0 L 206.2,212.6 L 205.7,212.2 L 205.2,211.6 L 204.79999999999998,211.1 L 204.6,210.29999999999998 L 204.4,209.7 L 204.4,209.7 L 204.4,208.9 L 204.7,208.2 L 205.0,207.5 L 208.1,202.29999999999998 L 213.6,193.29999999999998 L 160.8,181.2 L 157.1,183.8 L 129.7,202.29999999999998 L 98.0,223.6 L 42.300000000000004,261.2 L 39.1,263.40000000000003 L 32.6,267.7 L 21.0,275.7 L 20.200000000000003,276.2 L 16.6,278.6 L 14.900000000000002,279.90000000000003 L 14.5,280.2 L 13.3,280.8 L 9.700000000000003,283.3 L 9.700000000000003,283.3 L 5.800000000000004,285.90000000000003 L 5.5,286.1 L 4.800000000000004,286.40000000000003 L 4.100000000000001,286.5 L 3.3000000000000043,286.5 L 2.700000000000003,286.40000000000003 L 1.8999999999999986,286.1 L 1.3999999999999986,285.7 L 0.8999999999999986,285.1 L 0.5,284.6 L 0.10000000000000142,283.8 L 0.10000000000000142,283.3 L 0.0,283.2 L 0.0,282.40000000000003 L 0.30000000000000426,281.8 L 0.5,281.0 L 3.3000000000000043,276.0 L 9.700000000000003,264.7 L 11.400000000000002,261.2 L 27.8,231.79999999999998 L 35.9,217.0 L 37.2,214.9 L 38.9,211.79999999999998 L 39.1,211.5 L 44.2,202.29999999999998 L 45.2,200.29999999999998 L 39.9,202.29999999999998 L 39.1,202.6 L 23.5,208.2 L 22.5,208.4 L 21.8,208.4 L 21.1,208.29999999999998 L 20.400000000000002,207.9 L 19.8,207.5 L 19.3,207.0 L 18.900000000000002,206.4 L 18.700000000000003,205.7 L 18.400000000000002,205.1 L 18.5,204.29999999999998 L 18.700000000000003,203.6 L 18.900000000000002,202.9 L 19.3,202.29999999999998 L 19.400000000000002,202.29999999999998 L 39.1,178.7 L 68.7,143.3 L 85.0,123.80000000000001 L 68.6,124.5 L 66.0,124.6 L 64.6,124.6 L 61.1,124.69999999999999 L 58.400000000000006,124.80000000000001 L 56.400000000000006,125.0 L 54.6,125.1 L 54.3,125.1 L 53.8,125.1 L 43.4,125.5 L 42.5,125.5 L 41.9,125.19999999999999 L 41.300000000000004,124.80000000000001 L 40.6,124.5 L 40.300000000000004,123.80000000000001 L 39.9,123.19999999999999 L 39.6,122.6 L 39.6,121.80000000000001 L 39.7,121.0 L 39.9,120.4 L 40.300000000000004,119.80000000000001 L 40.800000000000004,119.30000000000001 L 41.300000000000004,118.80000000000001 L 41.9,118.4 L 53.3,113.80000000000001 L 98.0,95.80000000000001 L 111.0,90.7 L 99.6,84.3 L 98.0,83.5 L 78.30000000000001,72.7 L 77.80000000000001,72.3 L 77.30000000000001,71.8 L 68.6,61.5 L 59.0,50.6 L 37.300000000000004,25.300000000000004 L 33.3,20.6 L 31.0,18.1 L 30.6,17.5 L 29.3,16.200000000000003 L 26.900000000000002,13.399999999999999 L 24.400000000000002,10.300000000000004 L 20.700000000000003,6.100000000000001 L 20.400000000000002,5.899999999999999 L 20.1,5.200000000000003 L 19.900000000000002,4.5 L 19.8,3.8000000000000043 L 19.900000000000002,3.1000000000000014 L 20.1,2.3999999999999986 L 20.400000000000002,1.8000000000000043 L 20.8,1.2000000000000028 L 21.5,0.7000000000000028 L 22.1,0.3999999999999986 L 22.700000000000003,0.20000000000000284 L 23.5,0.0 L 24.3,0.20000000000000284 L 24.400000000000002,0.20000000000000284 L 24.900000000000002,0.30000000000000426 L 25.5,0.7000000000000028 L 37.0,8.0 L 39.1,9.0 L 71.0,25.300000000000004 L 98.0,39.3 L 128.6,54.9 L 129.3,55.1 L 133.8,57.5 L 137.0,59.1 L 140.3,60.800000000000004 L 142.3,61.9 L 144.1,62.800000000000004 L 144.4,62.6 L 147.2,61.9 L 152.4,60.5 L 157.1,59.2 L 189.29999999999998,50.4 L 216.0,43.2 L 217.9,42.7 L 218.7,42.6 L 222.1,41.5 L 223.7,41.2 L 245.5,35.2 L 249.4,34.2 L 264.8,25.300000000000004 L 300.3,4.800000000000004 L 304.90000000000003,2.3000000000000043 L 305.70000000000005,1.8999999999999986 L 306.3,1.8000000000000043 L 307.0,1.8000000000000043 L 307.8,1.8999999999999986 L 334.0,9.200000000000003 L 348.70000000000005,13.200000000000003 L 355.20000000000005,15.100000000000001 L 355.8,15.300000000000004 L 356.40000000000003,15.600000000000001 L 357.0,16.200000000000003 L 358.6,17.9 L 363.40000000000003,23.300000000000004 L 365.3,25.300000000000004 L 372.70000000000005,33.400000000000006 L 372.8,33.5 L 380.20000000000005,42.3 L 390.70000000000005,54.9 L 391.5,55.9 L 391.90000000000003,56.300000000000004 L 392.1,56.9 L 392.40000000000003,57.5 L 392.40000000000003,58.300000000000004 L 392.3,59.1 L 392.1,59.7 L 387.70000000000005,69.6 L 387.6,69.9 L 392.90000000000003,73.5 L 408.3,84.3 L 422.5,94.2 L 430.5,99.80000000000001 L 431.0,100.30000000000001 L 431.40000000000003,100.80000000000001 L 431.70000000000005,101.5 L 431.90000000000003,102.2 L 432.0,102.9 L 431.90000000000003,103.6 L 431.70000000000005,104.30000000000001 L 431.40000000000003,104.9 L 430.90000000000003,105.5 L 430.3,105.9 L 429.70000000000005,106.30000000000001 L 429.0,106.4 L 428.20000000000005,106.6 L 422.5,106.4 L 407.70000000000005,106.30000000000001 L 392.90000000000003,106.2 L 388.6,106.1 L 374.6,105.9 L 374.1,105.9 L 372.3,105.9 L 368.90000000000003,105.9 L 363.40000000000003,110.5 L 362.0,111.6 L 361.5,113.80000000000001 L 354.40000000000003,143.3 L 349.0,166.0 L 348.8,166.5 L 348.40000000000003,167.1 L 347.90000000000003,167.8 L 347.40000000000003,168.2 L 342.6,171.3 L 334.0,177.0 L 322.3,184.7 L 320.3,186.1 L 312.90000000000003,190.9 L 312.5,191.1 L 311.70000000000005,191.4 L 311.1,191.5 L 275.0,193.4 L 272.90000000000003,193.5 L 275.0,194.7 L 288.90000000000003,202.29999999999998 L 290.8,203.29999999999998 L 291.8,203.79999999999998 L 293.5,204.7 L 294.2,205.2 L 295.2,205.7 L 295.6,206.0 L 296.6,206.5 L 297.40000000000003,206.9 L 298.8,207.79999999999998 L 299.0,207.79999999999998 L 304.0,210.6 L 304.5,210.79999999999998 L 307.20000000000005,212.29999999999998 L 307.90000000000003,212.79999999999998 L 308.40000000000003,213.4 L 308.8,214.0 L 309.1,214.79999999999998 L 309.1,215.4 L 309.1,216.2 L 308.8,216.9 L 308.6,217.5 L 308.1,218.1 L 307.6,218.6 L 306.90000000000003,218.9 L 306.3,219.1 L 305.5,219.2 L 304.8,219.2 L 304.5,219.1 L 297.3,217.9 L 295.0,217.4 L 293.1,217.2 L 292.3,217.0 L 276.2,214.2 L 281.0,217.0 L 288.90000000000003,221.5 L 289.7,222.1 L 289.8,222.2 L 290.0,222.6 L 290.40000000000003,223.29999999999998 L 290.7,223.9 L 290.7,224.7 L 290.7,225.4 L 290.40000000000003,226.1 L 290.0,226.7 L 289.8,227.1 L 289.7,227.2 L 289.0,227.7 L 288.40000000000003,228.1 L 287.7,228.2 L 287.0,228.29999999999998 L 286.2,228.29999999999998" fill="none" stroke="#000000" stroke-width="0.432"/>
	<path d="M 93.1,118.6 L 95.9,118.5 L 98.0,118.4 L 157.1,116.30000000000001 L 216.0,114.4 L 230.7,113.9 L 233.7,113.80000000000001 L 252.1,113.2 L 252.2,113.2 L 252.6,113.0 L 252.6,113.0 L 252.6,113.0 L 252.79999999999998,112.80000000000001 L 252.79999999999998,112.80000000000001 L 252.79999999999998,112.80000000000001 L 252.79999999999998,112.80000000000001 L 272.8,84.3 L 275.0,81.2 L 283.2,69.6 L 283.2,69.5 L 283.3,69.2 L 283.3,69.2 L 283.3,69.1 L 283.3,68.8 L 283.3,68.8 L 283.2,68.5 L 283.2,68.5 L 282.90000000000003,68.2 L 275.0,61.1 L 268.1,54.9 L 251.0,39.5 L 250.79999999999998,39.3 L 250.79999999999998,39.3 L 250.5,39.3 L 250.4,39.3 L 250.29999999999998,39.1 L 250.29999999999998,39.1 L 250.29999999999998,39.1 L 249.9,39.3 L 245.5,41.0 L 216.0,53.1 L 157.1,77.1 L 139.4,84.3 L 127.5,89.2 L 125.1,90.2 L 122.9,91.1 L 121.4,91.7 L 114.4,94.5 L 112.80000000000001,95.1 L 103.2,99.1 L 98.0,101.1 L 66.5,113.80000000000001 L 56.0,118.0 L 55.7,118.2 L 55.5,118.5 L 55.5,118.5 L 55.5,118.5 L 55.5,118.5 L 55.400000000000006,118.80000000000001 L 55.400000000000006,119.0 L 55.400000000000006,119.0 L 55.400000000000006,119.0 L 55.5,119.30000000000001 L 55.6,119.6 L 55.900000000000006,119.9 L 56.1,120.0 L 56.1,120.0 L 56.1,120.0 L 56.1,120.0 L 56.5,120.0 L 68.6,119.5 L 89.30000000000001,118.80000000000001 L 93.1,118.6" fill="none" stroke="#000000" stroke-width="0.432"/>
	<path d="M 235.6,124.19999999999999 L 235.6,124.19999999999999 L 235.6,124.19999999999999 L 235.7,124.19999999999999 L 235.6,123.80000000000001 L 235.6,123.80000000000001 L 235.6,123.80000000000001 L 235.29999999999998,123.5 L 235.29999999999998,123.5 L 235.2,123.30000000000001 L 235.2,123.30000000000001 L 234.9,123.19999999999999 L 234.9,123.19999999999999 L 234.9,123.19999999999999 L 234.79999999999998,123.19999999999999 L 234.5,123.19999999999999 L 234.2,123.19999999999999 L 230.7,124.6 L 220.7,128.5 L 216.0,130.4 L 183.5,143.3 L 157.1,153.8 L 98.0,177.2 L 54.5,194.4 L 54.5,194.4 L 54.1,194.6 L 54.0,194.79999999999998 L 54.0,194.79999999999998 L 54.0,194.79999999999998 L 49.800000000000004,202.29999999999998 L 39.1,221.6 L 33.5,231.79999999999998 L 17.1,261.2 L 9.700000000000003,274.8 L 9.399999999999999,275.1 L 9.399999999999999,275.3 L 9.300000000000004,275.6 L 9.300000000000004,275.6 L 9.300000000000004,275.6 L 9.300000000000004,275.6 L 9.399999999999999,276.0 L 9.399999999999999,276.0 L 9.5,276.2 L 9.5,276.2 L 9.5,276.2 L 9.5,276.2 L 9.700000000000003,276.3 L 9.700000000000003,276.5 L 9.899999999999999,276.5 L 9.899999999999999,276.6 L 9.899999999999999,276.6 L 10.300000000000004,276.7 L 10.700000000000003,276.6 L 10.700000000000003,276.6 L 10.700000000000003,276.6 L 10.899999999999999,276.5 L 10.899999999999999,276.5 L 11.0,276.5 L 33.5,261.2 L 39.1,257.5 L 98.0,217.7 L 120.9,202.29999999999998 L 157.1,177.8 L 164.6,172.7 L 208.1,143.3 L 216.0,138.1 L 230.0,128.5 L 230.7,128.0 L 235.2,125.1 L 235.4,124.80000000000001 L 235.6,124.19999999999999" fill="none" stroke="#000000" stroke-width="0.432"/>
	<path d="M 253.79999999999998,115.5 L 245.5,121.0 L 245.29999999999998,121.2 L 234.4,128.5 L 216.0,141.0 L 212.6,143.3 L 168.9,172.7 L 165.1,175.4 L 164.8,175.6 L 164.7,175.9 L 164.7,176.4 L 164.7,176.7 L 164.7,176.7 L 165.0,177.0 L 165.0,177.0 L 165.1,177.2 L 165.5,177.3 L 166.3,177.5 L 216.0,188.79999999999998 L 219.7,189.6 L 219.7,189.6 L 221.5,189.9 L 227.9,190.9 L 228.2,191.0 L 230.7,190.79999999999998 L 245.5,190.0 L 245.79999999999998,190.0 L 247.1,189.9 L 248.5,189.7 L 249.79999999999998,189.7 L 249.9,189.7 L 250.79999999999998,189.6 L 251.4,189.6 L 252.79999999999998,189.6 L 259.7,189.2 L 260.2,189.2 L 264.6,189.0 L 275.0,188.5 L 310.20000000000005,186.6 L 310.20000000000005,186.6 L 310.70000000000005,186.4 L 310.70000000000005,186.4 L 334.0,171.2 L 343.90000000000003,164.6 L 344.1,164.5 L 344.1,164.3 L 344.40000000000003,164.0 L 344.40000000000003,164.0 L 349.3,143.3 L 356.40000000000003,113.80000000000001 L 357.5,109.4 L 357.6,109.0 L 358.0,108.7 L 363.40000000000003,104.0 L 365.0,102.80000000000001 L 365.20000000000005,102.5 L 365.20000000000005,102.5 L 365.3,102.1 L 365.3,102.1 L 365.3,101.9 L 365.3,101.6 L 365.3,101.6 L 365.3,101.6 L 365.1,101.2 L 363.40000000000003,99.30000000000001 L 363.3,99.1 L 363.0,98.7 L 361.70000000000005,97.2 L 361.3,96.7 L 359.6,94.9 L 357.1,91.7 L 356.70000000000005,91.30000000000001 L 356.1,90.6 L 356.1,90.6 L 355.8,90.2 L 355.70000000000005,89.8 L 355.8,89.3 L 355.90000000000003,88.9 L 356.1,88.8 L 356.3,88.7 L 362.3,84.3 L 363.40000000000003,83.5 L 381.70000000000005,70.5 L 381.70000000000005,70.4 L 382.0,70.0 L 382.0,70.0 L 382.20000000000005,69.6 L 386.90000000000003,59.1 L 386.90000000000003,58.9 L 387.0,58.6 L 387.0,58.300000000000004 L 387.0,58.300000000000004 L 387.0,58.300000000000004 L 387.0,58.300000000000004 L 386.8,57.9 L 386.8,57.9 L 384.3,54.9 L 369.3,37.1 L 368.90000000000003,36.7 L 363.40000000000003,34.1 L 348.70000000000005,26.8 L 348.70000000000005,26.8 L 348.3,26.700000000000003 L 348.1,26.700000000000003 L 348.1,26.700000000000003 L 348.1,26.700000000000003 L 348.1,26.700000000000003 L 347.70000000000005,26.8 L 334.0,36.3 L 286.3,69.5 L 286.1,69.7 L 275.8,84.3 L 275.0,85.5 L 263.0,102.6 L 259.3,107.7 L 257.1,111.0 L 256.90000000000003,111.30000000000001 L 256.0,112.7 L 255.1,113.80000000000001 L 254.2,115.1 L 254.2,115.1 L 253.79999999999998,115.5 L 253.79999999999998,115.5" fill="none" stroke="#000000" stroke-width="0.432"/>
	<path d="M 93.5,121.30000000000001 L 93.5,121.4 L 93.5,121.4 L 75.2,143.3 L 39.1,186.4 L 28.6,199.0 L 28.400000000000002,199.29999999999998 L 28.3,199.5 L 28.3,199.6 L 28.3,199.6 L 28.3,199.9 L 28.3,199.9 L 28.3,199.9 L 28.400000000000002,200.2 L 28.400000000000002,200.2 L 28.400000000000002,200.2 L 28.700000000000003,200.5 L 29.0,200.7 L 29.1,200.7 L 29.1,200.7 L 29.3,200.79999999999998 L 29.3,200.79999999999998 L 29.3,200.79999999999998 L 29.700000000000003,200.7 L 29.700000000000003,200.7 L 29.700000000000003,200.7 L 39.1,197.4 L 48.9,193.79999999999998 L 52.8,192.4 L 52.8,192.4 L 52.8,192.4 L 56.0,191.1 L 66.9,186.79999999999998 L 98.0,174.5 L 157.1,151.1 L 176.79999999999998,143.3 L 216.0,127.80000000000001 L 230.7,121.9 L 232.6,121.2 L 240.5,118.1 L 240.79999999999998,118.0 L 241.0,117.7 L 241.1,117.5 L 241.1,117.4 L 241.1,117.1 L 241.1,117.0 L 241.1,117.0 L 241.1,116.7 L 241.0,116.6 L 241.0,116.5 L 241.0,116.5 L 241.0,116.5 L 240.79999999999998,116.2 L 240.5,116.2 L 240.5,116.1 L 240.5,116.1 L 240.1,116.1 L 230.7,116.30000000000001 L 216.0,116.80000000000001 L 157.1,118.9 L 98.0,120.9 L 94.2,121.0 L 94.1,121.0 L 93.80000000000001,121.2 L 93.7,121.2 L 93.7,121.2 L 93.5,121.30000000000001" fill="none" stroke="#000000" stroke-width="0.432"/>
	<path d="M 90.30000000000001,58.4 L 79.1,49.3 L 50.300000000000004,25.300000000000004 L 39.1,16.0 L 37.2,14.5 L 37.0,14.399999999999999 L 36.4,14.399999999999999 L 36.2,14.399999999999999 L 35.800000000000004,14.600000000000001 L 35.800000000000004,14.600000000000001 L 35.800000000000004,14.600000000000001 L 35.6,15.300000000000004 L 35.7,15.899999999999999 L 35.800000000000004,16.0 L 39.1,19.800000000000004 L 43.800000000000004,25.300000000000004 L 49.9,32.400000000000006 L 80.9,68.2 L 81.1,68.5 L 98.0,77.9 L 109.69999999999999,84.3 L 112.80000000000001,86.0 L 115.0,87.3 L 115.4,87.4 L 115.80000000000001,87.4 L 116.19999999999999,87.1 L 120.30000000000001,84.3 L 125.69999999999999,80.5 L 125.80000000000001,80.4 L 126.0,80.2 L 126.1,80.2 L 126.1,80.2 L 126.1,80.0 L 126.1,79.8 L 126.1,79.8 L 126.1,79.8 L 126.1,79.8 L 126.1,79.5 L 126.0,79.3 L 126.0,79.3 L 126.0,79.1 L 126.0,79.1 L 125.80000000000001,79.0 L 125.6,78.9 L 125.6,78.8 L 125.6,78.8 L 98.0,63.0 L 90.5,58.6 L 90.30000000000001,58.4" fill="none" stroke="#000000" stroke-width="0.432"/>
	<path d="M 120.1,87.6 L 120.1,87.6 L 120.1,87.6 L 120.1,87.6 L 120.0,87.9 L 120.0,87.9 L 120.0,88.3 L 120.1,88.4 L 120.1,88.5 L 120.5,88.9 L 120.5,88.9 L 121.1,89.0 L 121.5,89.0 L 127.5,86.5 L 133.0,84.3 L 157.1,74.6 L 215.9,50.6 L 216.0,50.4 L 216.1,50.300000000000004 L 216.1,50.300000000000004 L 216.1,50.300000000000004 L 216.4,50.1 L 216.4,49.900000000000006 L 216.4,49.900000000000006 L 216.5,49.5 L 216.5,49.5 L 216.5,49.5 L 216.4,49.3 L 216.4,49.3 L 216.4,49.3 L 216.29999999999998,48.900000000000006 L 216.29999999999998,48.900000000000006 L 216.0,48.7 L 216.0,48.7 L 215.9,48.7 L 215.9,48.5 L 215.9,48.5 L 215.5,48.5 L 215.1,48.5 L 157.1,64.3 L 144.5,67.7 L 144.5,67.7 L 144.1,68.0 L 144.1,68.0 L 142.2,69.6 L 140.6,71.1 L 139.0,72.5 L 134.5,76.6 L 134.0,77.0 L 132.3,78.5 L 132.1,78.8 L 131.4,79.3 L 130.2,80.4 L 130.0,80.5 L 127.5,82.3 L 124.6,84.3 L 120.5,87.1 L 120.4,87.3 L 120.1,87.6" fill="none" stroke="#000000" stroke-width="0.432"/>
	<path d="M 361.8,93.1 L 361.8,93.1 L 361.8,93.2 L 361.8,93.2 L 361.90000000000003,93.5 L 361.90000000000003,93.5 L 362.0,93.7 L 363.40000000000003,95.5 L 366.5,99.1 L 367.6,100.5 L 367.70000000000005,100.6 L 368.0,100.80000000000001 L 368.0,100.80000000000001 L 368.3,101.0 L 368.40000000000003,101.0 L 368.6,101.0 L 392.90000000000003,101.2 L 401.8,101.4 L 402.20000000000005,101.2 L 402.70000000000005,100.80000000000001 L 402.8,100.6 L 402.90000000000003,100.2 L 402.8,100.0 L 402.8,99.80000000000001 L 402.5,99.6 L 402.40000000000003,99.5 L 402.40000000000003,99.5 L 402.40000000000003,99.5 L 402.0,99.30000000000001 L 400.90000000000003,99.1 L 392.90000000000003,97.5 L 363.40000000000003,92.1 L 363.0,92.1 L 362.40000000000003,92.1 L 362.3,92.2 L 362.0,92.5 L 362.0,92.5 L 361.8,92.80000000000001 L 361.8,92.80000000000001 L 361.8,93.1" fill="none" stroke="#000000" stroke-width="0.432"/>
	<path d="M 244.1,202.7 L 243.29999999999998,202.29999999999998 L 239.7,200.29999999999998 L 230.7,195.2 L 227.7,193.4 L 227.29999999999998,193.29999999999998 L 220.7,192.29999999999998 L 220.2,192.4 L 220.2,192.4 L 220.2,192.4 L 219.9,192.5 L 219.9,192.5 L 219.9,192.5 L 219.79999999999998,192.5 L 219.7,192.79999999999998 L 216.0,198.9 L 214.0,202.29999999999998 L 210.9,207.1 L 210.9,207.29999999999998 L 210.79999999999998,207.5 L 210.79999999999998,207.79999999999998 L 210.79999999999998,207.79999999999998 L 210.79999999999998,207.79999999999998 L 210.79999999999998,207.79999999999998 L 210.79999999999998,208.2 L 210.79999999999998,208.2 L 210.79999999999998,208.2 L 210.9,208.4 L 210.9,208.4 L 211.0,208.5 L 211.0,208.7 L 211.29999999999998,208.79999999999998 L 211.6,208.9 L 215.6,209.7 L 216.0,209.7 L 245.5,215.4 L 253.79999999999998,217.0 L 273.8,220.79999999999998 L 273.90000000000003,220.79999999999998 L 274.3,220.79999999999998 L 274.3,220.79999999999998 L 274.40000000000003,220.79999999999998 L 274.7,220.6 L 274.7,220.6 L 274.7,220.6 L 274.8,220.29999999999998 L 274.90000000000003,220.29999999999998 L 274.90000000000003,220.29999999999998 L 274.90000000000003,220.29999999999998 L 275.0,220.0 L 275.0,220.0 L 275.0,220.0 L 274.90000000000003,219.6 L 274.90000000000003,219.29999999999998 L 274.90000000000003,219.29999999999998 L 274.90000000000003,219.29999999999998 L 274.90000000000003,219.29999999999998 L 274.7,219.1 L 274.5,218.9 L 274.40000000000003,218.9 L 274.40000000000003,218.9 L 271.1,217.0 L 255.7,208.2 L 255.6,208.2 L 245.5,203.5 L 244.2,202.79999999999998 L 244.1,202.7" fill="none" stroke="#000000" stroke-width="0.432"/>
	<path d="M 234.9,194.7 L 234.9,194.7 L 235.29999999999998,194.9 L 235.29999999999998,194.9 L 243.4,199.5 L 243.79999999999998,199.6 L 244.29999999999998,199.5 L 244.6,199.4 L 244.79999999999998,199.1 L 245.5,198.0 L 247.5,194.9 L 248.0,194.2 L 248.1,193.9 L 248.29999999999998,193.5 L 248.29999999999998,193.5 L 248.29999999999998,193.5 L 248.29999999999998,193.5 L 248.29999999999998,193.29999999999998 L 248.29999999999998,193.29999999999998 L 248.1,192.9 L 248.1,192.9 L 248.0,192.7 L 247.9,192.7 L 247.6,192.4 L 247.1,192.29999999999998 L 245.5,192.4 L 235.79999999999998,192.9 L 235.6,193.0 L 235.29999999999998,193.2 L 235.2,193.2 L 235.2,193.2 L 234.9,193.4 L 234.9,193.4 L 234.9,193.5 L 234.79999999999998,193.79999999999998 L 234.79999999999998,193.79999999999998 L 234.79999999999998,193.79999999999998 L 234.79999999999998,193.79999999999998 L 234.79999999999998,194.2 L 234.79999999999998,194.2 L 234.79999999999998,194.2 L 234.79999999999998,194.4 L 234.9,194.4 L 234.9,194.7" fill="none" stroke="#000000" stroke-width="0.432"/>
	<path d="M 259.2,191.79999999999998 L 259.2,191.79999999999998 L 259.0,191.79999999999998 L 259.0,191.79999999999998 L 252.79999999999998,192.0 L 252.79999999999998,192.0 L 252.6,192.0 L 252.2,192.29999999999998 L 251.9,192.5 L 250.4,194.9 L 247.1,200.2 L 247.0,200.29999999999998 L 247.0,200.29999999999998 L 247.0,200.5 L 247.0,200.7 L 247.0,200.7 L 247.0,200.9 L 247.0,201.0 L 247.0,201.2 L 247.0,201.2 L 247.2,201.4 L 247.5,201.7 L 248.9,202.29999999999998 L 256.5,205.9 L 256.8,205.9 L 275.0,209.0 L 292.2,212.0 L 292.7,212.0 L 293.1,211.7 L 293.1,211.7 L 293.1,211.7 L 293.2,211.5 L 293.2,211.5 L 293.2,211.5 L 293.3,211.5 L 293.3,211.2 L 293.3,210.79999999999998 L 293.3,210.79999999999998 L 293.3,210.79999999999998 L 293.2,210.4 L 293.2,210.4 L 293.2,210.4 L 292.8,210.1 L 292.8,210.1 L 292.8,210.1 L 292.8,210.1 L 278.6,202.29999999999998 L 275.0,200.29999999999998 L 260.2,192.2 L 259.7,191.9 L 259.40000000000003,191.79999999999998 L 259.2,191.79999999999998" fill="none" stroke="#000000" stroke-width="0.432"/>
	<path d="M 306.8,6.899999999999999 L 306.5,7.0 L 274.5,25.300000000000004 L 254.1,37.1 L 254.0,37.2 L 253.7,37.5 L 253.7,37.5 L 253.7,37.5 L 253.7,37.7 L 253.6,37.900000000000006 L 253.6,37.900000000000006 L 253.6,37.900000000000006 L 253.6,38.1 L 253.7,38.2 L 253.7,38.400000000000006 L 253.7,38.400000000000006 L 253.7,38.400000000000006 L 253.7,38.400000000000006 L 254.0,38.8 L 254.2,39.0 L 254.7,39.400000000000006 L 263.90000000000003,47.8 L 271.7,54.9 L 275.0,57.800000000000004 L 280.8,63.0 L 282.90000000000003,64.9 L 284.1,65.9 L 284.40000000000003,66.2 L 284.7,66.6 L 284.8,66.6 L 285.1,66.8 L 285.2,66.8 L 285.2,66.8 L 285.2,66.8 L 285.2,66.8 L 285.7,66.8 L 285.7,66.8 L 286.1,66.7 L 286.1,66.7 L 286.1,66.7 L 286.1,66.7 L 290.3,63.800000000000004 L 334.0,33.400000000000006 L 336.6,31.5 L 338.0,30.6 L 342.90000000000003,27.200000000000003 L 343.5,26.8 L 345.5,25.300000000000004 L 347.20000000000005,24.200000000000003 L 347.3,24.0 L 348.70000000000005,22.6 L 349.6,21.6 L 350.70000000000005,20.6 L 350.90000000000003,20.200000000000003 L 350.90000000000003,20.200000000000003 L 350.90000000000003,20.200000000000003 L 351.0,20.0 L 351.0,19.800000000000004 L 351.0,19.800000000000004 L 351.0,19.800000000000004 L 351.0,19.6 L 350.90000000000003,19.300000000000004 L 350.90000000000003,19.300000000000004 L 350.90000000000003,19.300000000000004 L 350.90000000000003,19.300000000000004 L 350.70000000000005,19.1 L 350.70000000000005,19.1 L 350.5,18.9 L 350.5,18.9 L 350.20000000000005,18.800000000000004 L 348.70000000000005,18.4 L 334.0,14.200000000000003 L 307.40000000000003,6.899999999999999 L 307.3,6.899999999999999 L 306.90000000000003,6.899999999999999 L 306.90000000000003,6.899999999999999 L 306.8,6.899999999999999" fill="none" stroke="#000000" stroke-width="0.432"/>
	<path d="M 361.70000000000005,88.8 L 361.70000000000005,88.9 L 361.8,89.0 L 362.0,89.3 L 362.40000000000003,89.4 L 363.40000000000003,89.7 L 392.90000000000003,95.1 L 414.5,99.1 L 418.20000000000005,99.7 L 418.40000000000003,99.80000000000001 L 418.8,99.7 L 419.0,99.5 L 419.20000000000005,99.5 L 419.20000000000005,99.5 L 419.3,99.2 L 419.3,99.2 L 419.3,99.2 L 419.3,99.2 L 419.3,99.1 L 419.40000000000003,98.9 L 419.40000000000003,98.7 L 419.40000000000003,98.7 L 419.40000000000003,98.7 L 419.3,98.2 L 418.90000000000003,97.80000000000001 L 399.6,84.3 L 392.90000000000003,79.6 L 383.5,73.0 L 383.5,73.0 L 382.90000000000003,72.8 L 382.90000000000003,72.8 L 382.90000000000003,72.8 L 382.5,72.9 L 382.3,73.0 L 382.20000000000005,73.0 L 382.20000000000005,73.0 L 366.5,84.3 L 363.40000000000003,86.5 L 362.0,87.5 L 361.90000000000003,87.6 L 361.70000000000005,88.0 L 361.70000000000005,88.0 L 361.70000000000005,88.0 L 361.70000000000005,88.0 L 361.70000000000005,88.3 L 361.5,88.3 L 361.5,88.4 L 361.5,88.4 L 361.70000000000005,88.5 L 361.70000000000005,88.7 L 361.70000000000005,88.8" fill="none" stroke="#000000" stroke-width="0.432"/>
	<path d="M 140.2,66.3 L 127.5,59.800000000000004 L 126.30000000000001,59.2 L 124.80000000000001,58.4 L 120.1,56.0 L 117.80000000000001,54.9 L 98.0,44.7 L 60.1,25.300000000000004 L 53.1,21.700000000000003 L 52.7,21.6 L 52.1,21.700000000000003 L 51.7,22.200000000000003 L 51.6,22.5 L 51.6,22.9 L 51.6,22.9 L 51.6,22.9 L 51.7,23.1 L 51.7,23.300000000000004 L 51.7,23.300000000000004 L 51.900000000000006,23.5 L 54.2,25.300000000000004 L 91.80000000000001,56.5 L 91.9,56.5 L 98.0,60.1 L 109.30000000000001,66.6 L 115.4,70.1 L 121.9,73.8 L 122.80000000000001,74.3 L 124.4,75.3 L 125.1,75.7 L 125.80000000000001,76.1 L 126.1,76.3 L 126.69999999999999,76.6 L 127.0,76.7 L 127.5,77.1 L 128.5,77.6 L 129.0,77.7 L 129.0,77.7 L 129.1,77.7 L 129.4,77.7 L 129.4,77.7 L 129.4,77.7 L 129.4,77.7 L 129.8,77.5 L 138.5,69.6 L 140.3,68.0 L 140.6,67.7 L 140.7,67.3 L 140.7,66.9 L 140.6,66.7 L 140.6,66.7 L 140.4,66.4 L 140.2,66.3 L 140.2,66.3 L 140.2,66.3 L 140.2,66.3" fill="none" stroke="#000000" stroke-width="0.432"/>
	<path d="M 351.0,23.800000000000004 L 350.90000000000003,24.0 L 350.90000000000003,24.200000000000003 L 350.90000000000003,24.200000000000003 L 350.90000000000003,24.300000000000004 L 350.90000000000003,24.5 L 350.90000000000003,24.5 L 350.90000000000003,24.5 L 350.90000000000003,24.800000000000004 L 350.90000000000003,24.800000000000004 L 351.0,25.0 L 351.0,25.0 L 351.0,25.0 L 351.1,25.0 L 351.40000000000003,25.300000000000004 L 351.40000000000003,25.300000000000004 L 359.6,29.400000000000002 L 359.6,29.400000000000002 L 360.0,29.5 L 360.1,29.5 L 360.1,29.5 L 360.3,29.5 L 360.8,29.200000000000003 L 360.90000000000003,29.0 L 361.0,29.0 L 361.0,28.700000000000003 L 361.1,28.5 L 361.1,28.5 L 361.1,28.5 L 361.1,28.3 L 361.0,28.1 L 361.0,28.0 L 361.0,28.0 L 361.0,28.0 L 360.90000000000003,27.700000000000003 L 358.6,25.300000000000004 L 356.1,22.5 L 355.3,21.6 L 354.90000000000003,21.200000000000003 L 354.90000000000003,21.200000000000003 L 354.8,21.1 L 354.70000000000005,21.1 L 354.40000000000003,21.0 L 354.3,21.0 L 354.3,21.0 L 354.3,21.0 L 354.0,21.0 L 353.8,21.0 L 353.8,21.1 L 353.40000000000003,21.200000000000003 L 353.40000000000003,21.200000000000003 L 353.40000000000003,21.200000000000003 L 353.3,21.4 L 353.0,21.6 L 351.1,23.6 L 351.0,23.800000000000004" fill="none" stroke="#000000" stroke-width="0.432"/>
</svg>
