<?xml version="1.0" ?>
<svg baseProfile="full" height="600px" version="1.1" viewBox="-0.0065395 -0.0074395 0.07807900000000001 0.094879" width="494px" xmlns="http://www.w3.org/2000/svg" xmlns:ev="http://www.w3.org/2001/xml-events" xmlns:xlink="http://www.w3.org/1999/xlink">
	<defs/>
	<path d="M 0.015,0.0005 L 0.02,0.0005" fill="none" stroke="#000000" stroke-width="7.9e-05"/>
	<path d="M 0.02,0.0015 L 0.015,0.0015" fill="none" stroke="#000000" stroke-width="7.9e-05"/>
	<path d="M 0.015,0.0025 L 0.02,0.0025" fill="none" stroke="#000000" stroke-width="7.9e-05"/>
	<path d="M 0.02,0.0035 L 0.015,0.0035" fill="none" stroke="#000000" stroke-width="7.9e-05"/>
	<path d="M 0.015,0.0045000000000000005 L 0.02,0.0045000000000000005" fill="none" stroke="#000000" stroke-width="7.9e-05"/>
	<path d="M 0.02,0.0005 L 0.025,0.0005" fill="none" stroke="#000000" stroke-width="7.9e-05"/>
	<path d="M 0.025,0.0015 L 0.02,0.0015" fill="none" stroke="#000000" stroke-width="7.9e-05"/>
	<path d="M 0.02,0.0025 L 0.025,0.0025" fill="none" stroke="#000000" stroke-width="7.9e-05"/>
	<path d="M 0.025,0.0035 L 0.02,0.0035" fill="none" stroke="#000000" stroke-width="7.9e-05"/>
	<path d="M 0.02,0.0045000000000000005 L 0.025,0.0045000000000000005" fill="none" stroke="#000000" stroke-width="7.9e-05"/>
	<path d="M 0.025,0.0005 L 0.030000000000000002,0.0005" fill="none" stroke="#000000" stroke-width="7.9e-05"/>
	<path d="M 0.030000000000000002,0.0015 L 0.025,0.0015" fill="none" stroke="#000000" stroke-width="7.9e-05"/>
	<path d="M 0.025,0.0025 L 0.030000000000000002,0.0025" fill="none" stroke="#000000" stroke-width="7.9e-05"/>
	<path d="M 0.030000000000000002,0.0035 L 0.025,0.0035" fill="none" stroke="#000000" stroke-width="7.9e-05"/>
	<path d="M 0.025,0.0045000000000000005 L 0.030000000000000002,0.0045000000000000005" fill="none" stroke="#000000" stroke-width="7.9e-05"/>
	<path d="M 0.03,0.0005 L 0.034999999999999996,0.0005" fill="none" stroke="#000000" stroke-width="7.9e-05"/>
	<path d="M 0.034999999999999996,0.0015 L 0.029999999999999995,0.0015" fill="none" stroke="#000000" stroke-width="7.9e-05"/>
	<path d="M 0.029999999999999995,0.0025 L 0.034999999999999996,0.0025" fill="none" stroke="#000000" stroke-width="7.9e-05"/>
	<path d="M 0.034999999999999996,0.0035 L 0.029999999999999995,0.0035" fill="none" stroke="#000000" stroke-width="7.9e-05"/>
	<path d="M 0.029999999999999995,0.0045000000000000005 L 0.034999999999999996,0.0045000000000000005" fill="none" stroke="#000000" stroke-width="7.9e-05"/>
	<path d="M 0.035,0.0005 L 0.04,0.0005" fill="none" stroke="#000000" stroke-width="7.9e-05"/>
	<path d="M 0.04,0.0015 L 0.035,0.0015" fill="none" stroke="#000000" stroke-width="7.9e-05"/>
	<path d="M 0.035,0.0025 L 0.04,0.0025" fill="none" stroke="#000000" stroke-width="7.9e-05"/>
	<path d="M 0.04,0.0035 L 0.035,0.0035" fill="none" stroke="#000000" stroke-width="7.9e-05"/>
	<path d="M 0.035,0.0045000000000000005 L 0.04,0.0045000000000000005" fill="none" stroke="#000000" stroke-width="7.9e-05"/>
	<path d="M 0.04,0.0005 L 0.045,0.0005" fill="none" stroke="#000000" stroke-width="7.9e-05"/>
	<path d="M 0.045,0.0015 L 0.04,0.0015" fill="none" stroke="#000000" stroke-width="7.9e-05"/>
	<path d="M 0.04,0.0025 L 0.045,0.0025" fill="none" stroke="#000000" stroke-width="7.9e-05"/>
	<path d="M 0.045,0.0035 L 0.04,0.0035" fill="none" stroke="#000000" stroke-width="7.9e-05"/>
	<path d="M 0.04,0.0045000000000000005 L 0.045,0.0045000000000000005" fill="none" stroke="#000000" stroke-width="7.9e-05"/>
	<path d="M 0.01,0.0055 L 0.015,0.0055" fill="none" stroke="#000000" stroke-width="7.9e-05"/>
	<path d="M 0.015,0.0065 L 0.009999999999999998,0.0065" fill="none" stroke="#000000" stroke-width="7.9e-05"/>
	<path d="M 0.009999999999999998,0.0075 L 0.015,0.0075" fill="none" stroke="#000000" stroke-width="7.9e-05"/>
	<path d="M 0.015,0.0085 L 0.009999999999999998,0.0085" fill="none" stroke="#000000" stroke-width="7.9e-05"/>
	<path d="M 0.009999999999999998,0.009500000000000001 L 0.015,0.009500000000000001" fill="none" stroke="#000000" stroke-width="7.9e-05"/>
	<path d="M 0.015,0.0055 L 0.02,0.0055" fill="none" stroke="#000000" stroke-width="7.9e-05"/>
	<path d="M 0.02,0.0065 L 0.015,0.0065" fill="none" stroke="#000000" stroke-width="7.9e-05"/>
	<path d="M 0.015,0.0075 L 0.02,0.0075" fill="none" stroke="#000000" stroke-width="7.9e-05"/>
	<path d="M 0.02,0.0085 L 0.015,0.0085" fill="none" stroke="#000000" stroke-width="7.9e-05"/>
	<path d="M 0.015,0.009500000000000001 L 0.02,0.009500000000000001" fill="none" stroke="#000000" stroke-width="7.9e-05"/>
	<path d="M 0.02,0.0055 L 0.025,0.0055" fill="none" stroke="#000000" stroke-width="7.9e-05"/>
	<path d="M 0.025,0.0065 L 0.02,0.0065" fill="none" stroke="#000000" stroke-width="7.9e-05"/>
	<path d="M 0.02,0.0075 L 0.025,0.0075" fill="none" stroke="#000000" stroke-width="7.9e-05"/>
	<path d="M 0.025,0.0085 L 0.02,0.0085" fill="none" stroke="#000000" stroke-width="7.9e-05"/>
	<path d="M 0.02,0.009500000000000001 L 0.025,0.009500000000000001" fill="none" stroke="#000000" stroke-width="7.9e-05"/>
	<path d="M 0.025,0.0055 L 0.030000000000000002,0.0055" fill="none" stroke="#000000" stroke-width="7.9e-05"/>
	<path d="M 0.030000000000000002,0.0065 L 0.025,0.0065" fill="none" stroke="#000000" stroke-width="7.9e-05"/>
	<path d="M 0.025,0.0075 L 0.030000000000000002,0.0075" fill="none" stroke="#000000" stroke-width="7.9e-05"/>
	<path d="M 0.030000000000000002,0.0085 L 0.025,0.0085" fill="none" stroke="#000000" stroke-width="7.9e-05"/>
	<path d="M 0.025,0.009500000000000001 L 0.030000000000000002,0.009500000000000001" fill="none" stroke="#000000" stroke-width="7.9e-05"/>
	<path d="M 0.03,0.0055 L 0.034999999999999996,0.0055" fill="none" stroke="#000000" stroke-width="7.9e-05"/>
	<path d="M 0.034999999999999996,0.0065 L 0.029999999999999995,0.0065" fill="none" stroke="#000000" stroke-width="7.9e-05"/>
	<path d="M 0.029999999999999995,0.0075 L 0.034999999999999996,0.0075" fill="none" stroke="#000000" stroke-width="7.9e-05"/>
	<path d="M 0.034999999999999996,0.0085 L 0.029999999999999995,0.0085" fill="none" stroke="#000000" stroke-width="7.9e-05"/>
	<path d="M 0.029999999999999995,0.009500000000000001 L 0.034999999999999996,0.009500000000000001" fill="none" stroke="#000000" stroke-width="7.9e-05"/>
	<path d="M 0.035,0.0055 L 0.04,0.0055" fill="none" stroke="#000000" stroke-width="7.9e-05"/>
	<path d="M 0.04,0.0065 L 0.035,0.0065" fill="none" stroke="#000000" stroke-width="7.9e-05"/>
	<path d="M 0.035,0.0075 L 0.04,0.0075" fill="none" stroke="#000000" stroke-width="7.9e-05"/>
	<path d="M 0.04,0.0085 L 0.035,0.0085" fill="none" stroke="#000000" stroke-width="7.9e-05"/>
	<path d="M 0.035,0.009500000000000001 L 0.04,0.009500000000000001" fill="none" stroke="#000000" stroke-width="7.9e-05"/>
	<path d="M 0.04,0.0055 L 0.045,0.0055" fill="none" stroke="#000000" stroke-width="7.9e-05"/>
	<path d="M 0.045,0.0065 L 0.04,0.0065" fill="none" stroke="#000000" stroke-width="7.9e-05"/>
	<path d="M 0.04,0.0075 L 0.045,0.0075" fill="none" stroke="#000000" stroke-width="7.9e-05"/>
	<path d="M 0.045,0.0085 L 0.04,0.0085" fill="none" stroke="#000000" stroke-width="7.9e-05"/>
	<path d="M 0.04,0.009500000000000001 L 0.045,0.009500000000000001" fill="none" stroke="#000000" stroke-width="7.9e-05"/>
	<path d="M 0.045,0.0055 L 0.049999999999999996,0.0055" fill="none" stroke="#000000" stroke-width="7.9e-05"/>
	<path d="M 0.049999999999999996,0.0065 L 0.045,0.0065" fill="none" stroke="#000000" stroke-width="7.9e-05"/>
	<path d="M 0.045,0.0075 L 0.049999999999999996,0.0075" fill="none" stroke="#000000" stroke-width="7.9e-05"/>
	<path d="M 0.049999999999999996,0.0085 L 0.045,0.0085" fill="none" stroke="#000000" stroke-width="7.9e-05"/>
	<path d="M 0.045,0.009500000000000001 L 0.049999999999999996,0.009500000000000001" fill="none" stroke="#000000" stroke-width="7.9e-05"/>
	<path d="M 0.05,0.0055 L 0.055,0.0055" fill="none" stroke="#000000" stroke-width="7.9e-05"/>
	<path d="M 0.055,0.0065 L 0.05,0.0065" fill="none" stroke="#000000" stroke-width="7.9e-05"/>
	<path d="M 0.05,0.0075 L 0.055,0.0075" fill="none" stroke="#000000" stroke-width="7.9e-05"/>
	<path d="M 0.055,0.0085 L 0.05,0.0085" fill="none" stroke="#000000" stroke-width="7.9e-05"/>
	<path d="M 0.05,0.009500000000000001 L 0.055,0.009500000000000001" fill="none" stroke="#000000" stroke-width="7.9e-05"/>
	<path d="M 0.055,0.0055 L 0.06,0.0055" fill="none" stroke="#000000" stroke-width="7.9e-05"/>
	<path d="M 0.06,0.0065 L 0.055,0.0065" fill="none" stroke="#000000" stroke-width="7.9e-05"/>
	<path d="M 0.055,0.0075 L 0.06,0.0075" fill="none" stroke="#000000" stroke-width="7.9e-05"/>
	<path d="M 0.06,0.0085 L 0.055,0.0085" fill="none" stroke="#000000" stroke-width="7.9e-05"/>
	<path d="M 0.055,0.009500000000000001 L 0.06,0.009500000000000001" fill="none" stroke="#000000" stroke-width="7.9e-05"/>
	<path d="M 0.01,0.010625 L 0.015,0.010625" fill="none" stroke="#000000" stroke-width="7.9e-05"/>
	<path d="M 0.015,0.011875 L 0.009999999999999998,0.011875" fill="none" stroke="#000000" stroke-width="7.9e-05"/>
	<path d="M 0.009999999999999998,0.013125 L 0.015,0.013125" fill="none" stroke="#000000" stroke-width="7.9e-05"/>
	<path d="M 0.015,0.014374999999999999 L 0.009999999999999998,0.014374999999999999" fill="none" stroke="#000000" stroke-width="7.9e-05"/>
	<path d="M 0.015,0.010625 L 0.02,0.010625" fill="none" stroke="#000000" stroke-width="7.9e-05"/>
	<path d="M 0.02,0.011875 L 0.015,0.011875" fill="none" stroke="#000000" stroke-width="7.9e-05"/>
	<path d="M 0.015,0.013125 L 0.02,0.013125" fill="none" stroke="#000000" stroke-width="7.9e-05"/>
	<path d="M 0.02,0.014374999999999999 L 0.015,0.014374999999999999" fill="none" stroke="#000000" stroke-width="7.9e-05"/>
	<path d="M 0.02,0.010625 L 0.025,0.010625" fill="none" stroke="#000000" stroke-width="7.9e-05"/>
	<path d="M 0.025,0.011875 L 0.02,0.011875" fill="none" stroke="#000000" stroke-width="7.9e-05"/>
	<path d="M 0.02,0.013125 L 0.025,0.013125" fill="none" stroke="#000000" stroke-width="7.9e-05"/>
	<path d="M 0.025,0.014374999999999999 L 0.02,0.014374999999999999" fill="none" stroke="#000000" stroke-width="7.9e-05"/>
	<path d="M 0.025,0.01125 L 0.030000000000000002,0.01125" fill="none" stroke="#000000" stroke-width="7.9e-05"/>
	<path d="M 0.030000000000000002,0.01375 L 0.025,0.01375" fill="none" stroke="#000000" stroke-width="7.9e-05"/>
	<path d="M 0.03,0.01125 L 0.034999999999999996,0.01125" fill="none" stroke="#000000" stroke-width="7.9e-05"/>
	<path d="M 0.034999999999999996,0.01375 L 0.029999999999999995,0.01375" fill="none" stroke="#000000" stroke-width="7.9e-05"/>
	<path d="M 0.035,0.01125 L 0.04,0.01125" fill="none" stroke="#000000" stroke-width="7.9e-05"/>
	<path d="M 0.04,0.01375 L 0.035,0.01375" fill="none" stroke="#000000" stroke-width="7.9e-05"/>
	<path d="M 0.04,0.010357142857142858 L 0.045,0.010357142857142858" fill="none" stroke="#000000" stroke-width="7.9e-05"/>
	<path d="M 0.045,0.011071428571428572 L 0.04,0.011071428571428572" fill="none" stroke="#000000" stroke-width="7.9e-05"/>
	<path d="M 0.04,0.011785714285714287 L 0.045,0.011785714285714287" fill="none" stroke="#000000" stroke-width="7.9e-05"/>
	<path d="M 0.045,0.0125 L 0.04,0.0125" fill="none" stroke="#000000" stroke-width="7.9e-05"/>
	<path d="M 0.04,0.013214285714285715 L 0.045,0.013214285714285715" fill="none" stroke="#000000" stroke-width="7.9e-05"/>
	<path d="M 0.045,0.013928571428571429 L 0.04,0.013928571428571429" fill="none" stroke="#000000" stroke-width="7.9e-05"/>
	<path d="M 0.04,0.014642857142857143 L 0.045,0.014642857142857143" fill="none" stroke="#000000" stroke-width="7.9e-05"/>
	<path d="M 0.045,0.01125 L 0.049999999999999996,0.01125" fill="none" stroke="#000000" stroke-width="7.9e-05"/>
	<path d="M 0.049999999999999996,0.01375 L 0.045,0.01375" fill="none" stroke="#000000" stroke-width="7.9e-05"/>
	<path d="M 0.005,0.015625 L 0.01,0.015625" fill="none" stroke="#000000" stroke-width="7.9e-05"/>
	<path d="M 0.01,0.016875 L 0.005,0.016875" fill="none" stroke="#000000" stroke-width="7.9e-05"/>
	<path d="M 0.005,0.018125000000000002 L 0.01,0.018125000000000002" fill="none" stroke="#000000" stroke-width="7.9e-05"/>
	<path d="M 0.01,0.019375000000000003 L 0.005,0.019375000000000003" fill="none" stroke="#000000" stroke-width="7.9e-05"/>
	<path d="M 0.01,0.01625 L 0.015,0.01625" fill="none" stroke="#000000" stroke-width="7.9e-05"/>
	<path d="M 0.015,0.01875 L 0.009999999999999998,0.01875" fill="none" stroke="#000000" stroke-width="7.9e-05"/>
	<path d="M 0.015,0.015625 L 0.02,0.015625" fill="none" stroke="#000000" stroke-width="7.9e-05"/>
	<path d="M 0.02,0.016875 L 0.015,0.016875" fill="none" stroke="#000000" stroke-width="7.9e-05"/>
	<path d="M 0.015,0.018125000000000002 L 0.02,0.018125000000000002" fill="none" stroke="#000000" stroke-width="7.9e-05"/>
	<path d="M 0.02,0.019375000000000003 L 0.015,0.019375000000000003" fill="none" stroke="#000000" stroke-width="7.9e-05"/>
	<path d="M 0.02,0.01625 L 0.025,0.01625" fill="none" stroke="#000000" stroke-width="7.9e-05"/>
	<path d="M 0.025,0.01875 L 0.02,0.01875" fill="none" stroke="#000000" stroke-width="7.9e-05"/>
	<path d="M 0.025,0.01625 L 0.030000000000000002,0.01625" fill="none" stroke="#000000" stroke-width="7.9e-05"/>
	<path d="M 0.030000000000000002,0.01875 L 0.025,0.01875" fill="none" stroke="#000000" stroke-width="7.9e-05"/>
	<path d="M 0.03,0.01625 L 0.034999999999999996,0.01625" fill="none" stroke="#000000" stroke-width="7.9e-05"/>
	<path d="M 0.034999999999999996,0.01875 L 0.029999999999999995,0.01875" fill="none" stroke="#000000" stroke-width="7.9e-05"/>
	<path d="M 0.035,0.01625 L 0.04,0.01625" fill="none" stroke="#000000" stroke-width="7.9e-05"/>
	<path d="M 0.04,0.01875 L 0.035,0.01875" fill="none" stroke="#000000" stroke-width="7.9e-05"/>
	<path d="M 0.04,0.015357142857142857 L 0.045,0.015357142857142857" fill="none" stroke="#000000" stroke-width="7.9e-05"/>
	<path d="M 0.045,0.016071428571428573 L 0.04,0.016071428571428573" fill="none" stroke="#000000" stroke-width="7.9e-05"/>
	<path d="M 0.04,0.01678571428571429 L 0.045,0.01678571428571429" fill="none" stroke="#000000" stroke-width="7.9e-05"/>
	<path d="M 0.045,0.017500000000000005 L 0.04,0.017500000000000005" fill="none" stroke="#000000" stroke-width="7.9e-05"/>
	<path d="M 0.04,0.01821428571428572 L 0.045,0.01821428571428572" fill="none" stroke="#000000" stroke-width="7.9e-05"/>
	<path d="M 0.045,0.018928571428571437 L 0.04,0.018928571428571437" fill="none" stroke="#000000" stroke-width="7.9e-05"/>
	<path d="M 0.04,0.019642857142857153 L 0.045,0.019642857142857153" fill="none" stroke="#000000" stroke-width="7.9e-05"/>
	<path d="M 0.045,0.01625 L 0.049999999999999996,0.01625" fill="none" stroke="#000000" stroke-width="7.9e-05"/>
	<path d="M 0.049999999999999996,0.01875 L 0.045,0.01875" fill="none" stroke="#000000" stroke-width="7.9e-05"/>
	<path d="M 0.05,0.01625 L 0.055,0.01625" fill="none" stroke="#000000" stroke-width="7.9e-05"/>
	<path d="M 0.055,0.01875 L 0.05,0.01875" fill="none" stroke="#000000" stroke-width="7.9e-05"/>
	<path d="M 0.055,0.01625 L 0.06,0.01625" fill="none" stroke="#000000" stroke-width="7.9e-05"/>
	<path d="M 0.06,0.01875 L 0.055,0.01875" fill="none" stroke="#000000" stroke-width="7.9e-05"/>
	<path d="M 0.005,0.020625 L 0.01,0.020625" fill="none" stroke="#000000" stroke-width="7.9e-05"/>
	<path d="M 0.01,0.021875000000000002 L 0.005,0.021875000000000002" fill="none" stroke="#000000" stroke-width="7.9e-05"/>
	<path d="M 0.005,0.023125000000000003 L 0.01,0.023125000000000003" fill="none" stroke="#000000" stroke-width="7.9e-05"/>
	<path d="M 0.01,0.024375000000000004 L 0.005,0.024375000000000004" fill="none" stroke="#000000" stroke-width="7.9e-05"/>
	<path d="M 0.01,0.02125 L 0.015,0.02125" fill="none" stroke="#000000" stroke-width="7.9e-05"/>
	<path d="M 0.015,0.02375 L 0.009999999999999998,0.02375" fill="none" stroke="#000000" stroke-width="7.9e-05"/>
	<path d="M 0.015,0.020625 L 0.02,0.020625" fill="none" stroke="#000000" stroke-width="7.9e-05"/>
	<path d="M 0.02,0.021875000000000002 L 0.015,0.021875000000000002" fill="none" stroke="#000000" stroke-width="7.9e-05"/>
	<path d="M 0.015,0.023125000000000003 L 0.02,0.023125000000000003" fill="none" stroke="#000000" stroke-width="7.9e-05"/>
	<path d="M 0.02,0.024375000000000004 L 0.015,0.024375000000000004" fill="none" stroke="#000000" stroke-width="7.9e-05"/>
	<path d="M 0.02,0.020625 L 0.025,0.020625" fill="none" stroke="#000000" stroke-width="7.9e-05"/>
	<path d="M 0.025,0.021875000000000002 L 0.02,0.021875000000000002" fill="none" stroke="#000000" stroke-width="7.9e-05"/>
	<path d="M 0.02,0.023125000000000003 L 0.025,0.023125000000000003" fill="none" stroke="#000000" stroke-width="7.9e-05"/>
	<path d="M 0.025,0.024375000000000004 L 0.02,0.024375000000000004" fill="none" stroke="#000000" stroke-width="7.9e-05"/>
	<path d="M 0.025,0.02125 L 0.030000000000000002,0.02125" fill="none" stroke="#000000" stroke-width="7.9e-05"/>
	<path d="M 0.030000000000000002,0.02375 L 0.025,0.02375" fill="none" stroke="#000000" stroke-width="7.9e-05"/>
	<path d="M 0.03,0.02125 L 0.034999999999999996,0.02125" fill="none" stroke="#000000" stroke-width="7.9e-05"/>
	<path d="M 0.034999999999999996,0.02375 L 0.029999999999999995,0.02375" fill="none" stroke="#000000" stroke-width="7.9e-05"/>
	<path d="M 0.035,0.02125 L 0.04,0.02125" fill="none" stroke="#000000" stroke-width="7.9e-05"/>
	<path d="M 0.04,0.02375 L 0.035,0.02375" fill="none" stroke="#000000" stroke-width="7.9e-05"/>
	<path d="M 0.04,0.02125 L 0.045,0.02125" fill="none" stroke="#000000" stroke-width="7.9e-05"/>
	<path d="M 0.045,0.02375 L 0.04,0.02375" fill="none" stroke="#000000" stroke-width="7.9e-05"/>
	<path d="M 0.045,0.02035714285714286 L 0.049999999999999996,0.02035714285714286" fill="none" stroke="#000000" stroke-width="7.9e-05"/>
	<path d="M 0.049999999999999996,0.021071428571428574 L 0.045,0.021071428571428574" fill="none" stroke="#000000" stroke-width="7.9e-05"/>
	<path d="M 0.045,0.02178571428571429 L 0.049999999999999996,0.02178571428571429" fill="none" stroke="#000000" stroke-width="7.9e-05"/>
	<path d="M 0.049999999999999996,0.022500000000000006 L 0.045,0.022500000000000006" fill="none" stroke="#000000" stroke-width="7.9e-05"/>
	<path d="M 0.045,0.023214285714285722 L 0.049999999999999996,0.023214285714285722" fill="none" stroke="#000000" stroke-width="7.9e-05"/>
	<path d="M 0.049999999999999996,0.023928571428571438 L 0.045,0.023928571428571438" fill="none" stroke="#000000" stroke-width="7.9e-05"/>
	<path d="M 0.045,0.024642857142857154 L 0.049999999999999996,0.024642857142857154" fill="none" stroke="#000000" stroke-width="7.9e-05"/>
	<path d="M 0.05,0.02125 L 0.055,0.02125" fill="none" stroke="#000000" stroke-width="7.9e-05"/>
	<path d="M 0.055,0.02375 L 0.05,0.02375" fill="none" stroke="#000000" stroke-width="7.9e-05"/>
	<path d="M 0.055,0.02125 L 0.06,0.02125" fill="none" stroke="#000000" stroke-width="7.9e-05"/>
	<path d="M 0.06,0.02375 L 0.055,0.02375" fill="none" stroke="#000000" stroke-width="7.9e-05"/>
	<path d="M 0.06,0.02125 L 0.065,0.02125" fill="none" stroke="#000000" stroke-width="7.9e-05"/>
	<path d="M 0.065,0.02375 L 0.060000000000000005,0.02375" fill="none" stroke="#000000" stroke-width="7.9e-05"/>
	<path d="M 0.015,0.026250000000000002 L 0.02,0.026250000000000002" fill="none" stroke="#000000" stroke-width="7.9e-05"/>
	<path d="M 0.02,0.02875 L 0.015,0.02875" fill="none" stroke="#000000" stroke-width="7.9e-05"/>
	<path d="M 0.02,0.026250000000000002 L 0.025,0.026250000000000002" fill="none" stroke="#000000" stroke-width="7.9e-05"/>
	<path d="M 0.025,0.02875 L 0.02,0.02875" fill="none" stroke="#000000" stroke-width="7.9e-05"/>
	<path d="M 0.025,0.026250000000000002 L 0.030000000000000002,0.026250000000000002" fill="none" stroke="#000000" stroke-width="7.9e-05"/>
	<path d="M 0.030000000000000002,0.02875 L 0.025,0.02875" fill="none" stroke="#000000" stroke-width="7.9e-05"/>
	<path d="M 0.03,0.026250000000000002 L 0.034999999999999996,0.026250000000000002" fill="none" stroke="#000000" stroke-width="7.9e-05"/>
	<path d="M 0.034999999999999996,0.02875 L 0.029999999999999995,0.02875" fill="none" stroke="#000000" stroke-width="7.9e-05"/>
	<path d="M 0.035,0.026250000000000002 L 0.04,0.026250000000000002" fill="none" stroke="#000000" stroke-width="7.9e-05"/>
	<path d="M 0.04,0.02875 L 0.035,0.02875" fill="none" stroke="#000000" stroke-width="7.9e-05"/>
	<path d="M 0.04,0.02535714285714286 L 0.045,0.02535714285714286" fill="none" stroke="#000000" stroke-width="7.9e-05"/>
	<path d="M 0.045,0.026071428571428575 L 0.04,0.026071428571428575" fill="none" stroke="#000000" stroke-width="7.9e-05"/>
	<path d="M 0.04,0.02678571428571429 L 0.045,0.02678571428571429" fill="none" stroke="#000000" stroke-width="7.9e-05"/>
	<path d="M 0.045,0.027500000000000007 L 0.04,0.027500000000000007" fill="none" stroke="#000000" stroke-width="7.9e-05"/>
	<path d="M 0.04,0.028214285714285723 L 0.045,0.028214285714285723" fill="none" stroke="#000000" stroke-width="7.9e-05"/>
	<path d="M 0.045,0.02892857142857144 L 0.04,0.02892857142857144" fill="none" stroke="#000000" stroke-width="7.9e-05"/>
	<path d="M 0.04,0.029642857142857155 L 0.045,0.029642857142857155" fill="none" stroke="#000000" stroke-width="7.9e-05"/>
	<path d="M 0.045,0.02535714285714286 L 0.049999999999999996,0.02535714285714286" fill="none" stroke="#000000" stroke-width="7.9e-05"/>
	<path d="M 0.049999999999999996,0.026071428571428575 L 0.045,0.026071428571428575" fill="none" stroke="#000000" stroke-width="7.9e-05"/>
	<path d="M 0.045,0.02678571428571429 L 0.049999999999999996,0.02678571428571429" fill="none" stroke="#000000" stroke-width="7.9e-05"/>
	<path d="M 0.049999999999999996,0.027500000000000007 L 0.045,0.027500000000000007" fill="none" stroke="#000000" stroke-width="7.9e-05"/>
	<path d="M 0.045,0.028214285714285723 L 0.049999999999999996,0.028214285714285723" fill="none" stroke="#000000" stroke-width="7.9e-05"/>
	<path d="M 0.049999999999999996,0.02892857142857144 L 0.045,0.02892857142857144" fill="none" stroke="#000000" stroke-width="7.9e-05"/>
	<path d="M 0.045,0.029642857142857155 L 0.049999999999999996,0.029642857142857155" fill="none" stroke="#000000" stroke-width="7.9e-05"/>
	<path d="M 0.05,0.02535714285714286 L 0.055,0.02535714285714286" fill="none" stroke="#000000" stroke-width="7.9e-05"/>
	<path d="M 0.055,0.026071428571428575 L 0.05,0.026071428571428575" fill="none" stroke="#000000" stroke-width="7.9e-05"/>
	<path d="M 0.05,0.02678571428571429 L 0.055,0.02678571428571429" fill="none" stroke="#000000" stroke-width="7.9e-05"/>
	<path d="M 0.055,0.027500000000000007 L 0.05,0.027500000000000007" fill="none" stroke="#000000" stroke-width="7.9e-05"/>
	<path d="M 0.05,0.028214285714285723 L 0.055,0.028214285714285723" fill="none" stroke="#000000" stroke-width="7.9e-05"/>
	<path d="M 0.055,0.02892857142857144 L 0.05,0.02892857142857144" fill="none" stroke="#000000" stroke-width="7.9e-05"/>
	<path d="M 0.05,0.029642857142857155 L 0.055,0.029642857142857155" fill="none" stroke="#000000" stroke-width="7.9e-05"/>
	<path d="M 0.055,0.02535714285714286 L 0.06,0.02535714285714286" fill="none" stroke="#000000" stroke-width="7.9e-05"/>
	<path d="M 0.06,0.026071428571428575 L 0.055,0.026071428571428575" fill="none" stroke="#000000" stroke-width="7.9e-05"/>
	<path d="M 0.055,0.02678571428571429 L 0.06,0.02678571428571429" fill="none" stroke="#000000" stroke-width="7.9e-05"/>
	<path d="M 0.06,0.027500000000000007 L 0.055,0.027500000000000007" fill="none" stroke="#000000" stroke-width="7.9e-05"/>
	<path d="M 0.055,0.028214285714285723 L 0.06,0.028214285714285723" fill="none" stroke="#000000" stroke-width="7.9e-05"/>
	<path d="M 0.06,0.02892857142857144 L 0.055,0.02892857142857144" fill="none" stroke="#000000" stroke-width="7.9e-05"/>
	<path d="M 0.055,0.029642857142857155 L 0.06,0.029642857142857155" fill="none" stroke="#000000" stroke-width="7.9e-05"/>
	<path d="M 0.015,0.03125 L 0.02,0.03125" fill="none" stroke="#000000" stroke-width="7.9e-05"/>
	<path d="M 0.02,0.03375 L 0.015,0.03375" fill="none" stroke="#000000" stroke-width="7.9e-05"/>
	<path d="M 0.02,0.03125 L 0.025,0.03125" fill="none" stroke="#000000" stroke-width="7.9e-05"/>
	<path d="M 0.025,0.03375 L 0.02,0.03375" fill="none" stroke="#000000" stroke-width="7.9e-05"/>
	<path d="M 0.025,0.03125 L 0.030000000000000002,0.03125" fill="none" stroke="#000000" stroke-width="7.9e-05"/>
	<path d="M 0.030000000000000002,0.03375 L 0.025,0.03375" fill="none" stroke="#000000" stroke-width="7.9e-05"/>
	<path d="M 0.03,0.03125 L 0.034999999999999996,0.03125" fill="none" stroke="#000000" stroke-width="7.9e-05"/>
	<path d="M 0.034999999999999996,0.03375 L 0.029999999999999995,0.03375" fill="none" stroke="#000000" stroke-width="7.9e-05"/>
	<path d="M 0.035,0.03125 L 0.04,0.03125" fill="none" stroke="#000000" stroke-width="7.9e-05"/>
	<path d="M 0.04,0.03375 L 0.035,0.03375" fill="none" stroke="#000000" stroke-width="7.9e-05"/>
	<path d="M 0.04,0.03125 L 0.045,0.03125" fill="none" stroke="#000000" stroke-width="7.9e-05"/>
	<path d="M 0.045,0.03375 L 0.04,0.03375" fill="none" stroke="#000000" stroke-width="7.9e-05"/>
	<path d="M 0.045,0.03125 L 0.049999999999999996,0.03125" fill="none" stroke="#000000" stroke-width="7.9e-05"/>
	<path d="M 0.049999999999999996,0.03375 L 0.045,0.03375" fill="none" stroke="#000000" stroke-width="7.9e-05"/>
	<path d="M 0.05,0.03125 L 0.055,0.03125" fill="none" stroke="#000000" stroke-width="7.9e-05"/>
	<path d="M 0.055,0.03375 L 0.05,0.03375" fill="none" stroke="#000000" stroke-width="7.9e-05"/>
	<path d="M 0.01,0.035625000000000004 L 0.015,0.035625000000000004" fill="none" stroke="#000000" stroke-width="7.9e-05"/>
	<path d="M 0.015,0.036875000000000005 L 0.009999999999999998,0.036875000000000005" fill="none" stroke="#000000" stroke-width="7.9e-05"/>
	<path d="M 0.009999999999999998,0.038125000000000006 L 0.015,0.038125000000000006" fill="none" stroke="#000000" stroke-width="7.9e-05"/>
	<path d="M 0.015,0.03937500000000001 L 0.009999999999999998,0.03937500000000001" fill="none" stroke="#000000" stroke-width="7.9e-05"/>
	<path d="M 0.015,0.035625000000000004 L 0.02,0.035625000000000004" fill="none" stroke="#000000" stroke-width="7.9e-05"/>
	<path d="M 0.02,0.036875000000000005 L 0.015,0.036875000000000005" fill="none" stroke="#000000" stroke-width="7.9e-05"/>
	<path d="M 0.015,0.038125000000000006 L 0.02,0.038125000000000006" fill="none" stroke="#000000" stroke-width="7.9e-05"/>
	<path d="M 0.02,0.03937500000000001 L 0.015,0.03937500000000001" fill="none" stroke="#000000" stroke-width="7.9e-05"/>
	<path d="M 0.02,0.03541666666666667 L 0.025,0.03541666666666667" fill="none" stroke="#000000" stroke-width="7.9e-05"/>
	<path d="M 0.025,0.036250000000000004 L 0.02,0.036250000000000004" fill="none" stroke="#000000" stroke-width="7.9e-05"/>
	<path d="M 0.02,0.037083333333333336 L 0.025,0.037083333333333336" fill="none" stroke="#000000" stroke-width="7.9e-05"/>
	<path d="M 0.025,0.03791666666666667 L 0.02,0.03791666666666667" fill="none" stroke="#000000" stroke-width="7.9e-05"/>
	<path d="M 0.02,0.03875 L 0.025,0.03875" fill="none" stroke="#000000" stroke-width="7.9e-05"/>
	<path d="M 0.025,0.03958333333333333 L 0.02,0.03958333333333333" fill="none" stroke="#000000" stroke-width="7.9e-05"/>
	<path d="M 0.025,0.035625000000000004 L 0.030000000000000002,0.035625000000000004" fill="none" stroke="#000000" stroke-width="7.9e-05"/>
	<path d="M 0.030000000000000002,0.036875000000000005 L 0.025,0.036875000000000005" fill="none" stroke="#000000" stroke-width="7.9e-05"/>
	<path d="M 0.025,0.038125000000000006 L 0.030000000000000002,0.038125000000000006" fill="none" stroke="#000000" stroke-width="7.9e-05"/>
	<path d="M 0.030000000000000002,0.03937500000000001 L 0.025,0.03937500000000001" fill="none" stroke="#000000" stroke-width="7.9e-05"/>
	<path d="M 0.03,0.035625000000000004 L 0.034999999999999996,0.035625000000000004" fill="none" stroke="#000000" stroke-width="7.9e-05"/>
	<path d="M 0.034999999999999996,0.036875000000000005 L 0.029999999999999995,0.036875000000000005" fill="none" stroke="#000000" stroke-width="7.9e-05"/>
	<path d="M 0.029999999999999995,0.038125000000000006 L 0.034999999999999996,0.038125000000000006" fill="none" stroke="#000000" stroke-width="7.9e-05"/>
	<path d="M 0.034999999999999996,0.03937500000000001 L 0.029999999999999995,0.03937500000000001" fill="none" stroke="#000000" stroke-width="7.9e-05"/>
	<path d="M 0.035,0.035625000000000004 L 0.04,0.035625000000000004" fill="none" stroke="#000000" stroke-width="7.9e-05"/>
	<path d="M 0.04,0.036875000000000005 L 0.035,0.036875000000000005" fill="none" stroke="#000000" stroke-width="7.9e-05"/>
	<path d="M 0.035,0.038125000000000006 L 0.04,0.038125000000000006" fill="none" stroke="#000000" stroke-width="7.9e-05"/>
	<path d="M 0.04,0.03937500000000001 L 0.035,0.03937500000000001" fill="none" stroke="#000000" stroke-width="7.9e-05"/>
	<path d="M 0.04,0.035625000000000004 L 0.045,0.035625000000000004" fill="none" stroke="#000000" stroke-width="7.9e-05"/>
	<path d="M 0.045,0.036875000000000005 L 0.04,0.036875000000000005" fill="none" stroke="#000000" stroke-width="7.9e-05"/>
	<path d="M 0.04,0.038125000000000006 L 0.045,0.038125000000000006" fill="none" stroke="#000000" stroke-width="7.9e-05"/>
	<path d="M 0.045,0.03937500000000001 L 0.04,0.03937500000000001" fill="none" stroke="#000000" stroke-width="7.9e-05"/>
	<path d="M 0.005,0.040625 L 0.01,0.040625" fill="none" stroke="#000000" stroke-width="7.9e-05"/>
	<path d="M 0.01,0.041875 L 0.005,0.041875" fill="none" stroke="#000000" stroke-width="7.9e-05"/>
	<path d="M 0.005,0.043125000000000004 L 0.01,0.043125000000000004" fill="none" stroke="#000000" stroke-width="7.9e-05"/>
	<path d="M 0.01,0.044375000000000005 L 0.005,0.044375000000000005" fill="none" stroke="#000000" stroke-width="7.9e-05"/>
	<path d="M 0.01,0.040625 L 0.015,0.040625" fill="none" stroke="#000000" stroke-width="7.9e-05"/>
	<path d="M 0.015,0.041875 L 0.009999999999999998,0.041875" fill="none" stroke="#000000" stroke-width="7.9e-05"/>
	<path d="M 0.009999999999999998,0.043125000000000004 L 0.015,0.043125000000000004" fill="none" stroke="#000000" stroke-width="7.9e-05"/>
	<path d="M 0.015,0.044375000000000005 L 0.009999999999999998,0.044375000000000005" fill="none" stroke="#000000" stroke-width="7.9e-05"/>
	<path d="M 0.015,0.040625 L 0.02,0.040625" fill="none" stroke="#000000" stroke-width="7.9e-05"/>
	<path d="M 0.02,0.041875 L 0.015,0.041875" fill="none" stroke="#000000" stroke-width="7.9e-05"/>
	<path d="M 0.015,0.043125000000000004 L 0.02,0.043125000000000004" fill="none" stroke="#000000" stroke-width="7.9e-05"/>
	<path d="M 0.02,0.044375000000000005 L 0.015,0.044375000000000005" fill="none" stroke="#000000" stroke-width="7.9e-05"/>
	<path d="M 0.02,0.04041666666666667 L 0.025,0.04041666666666667" fill="none" stroke="#000000" stroke-width="7.9e-05"/>
	<path d="M 0.025,0.04125 L 0.02,0.04125" fill="none" stroke="#000000" stroke-width="7.9e-05"/>
	<path d="M 0.02,0.042083333333333334 L 0.025,0.042083333333333334" fill="none" stroke="#000000" stroke-width="7.9e-05"/>
	<path d="M 0.025,0.042916666666666665 L 0.02,0.042916666666666665" fill="none" stroke="#000000" stroke-width="7.9e-05"/>
	<path d="M 0.02,0.04375 L 0.025,0.04375" fill="none" stroke="#000000" stroke-width="7.9e-05"/>
	<path d="M 0.025,0.04458333333333333 L 0.02,0.04458333333333333" fill="none" stroke="#000000" stroke-width="7.9e-05"/>
	<path d="M 0.025,0.040625 L 0.030000000000000002,0.040625" fill="none" stroke="#000000" stroke-width="7.9e-05"/>
	<path d="M 0.030000000000000002,0.041875 L 0.025,0.041875" fill="none" stroke="#000000" stroke-width="7.9e-05"/>
	<path d="M 0.025,0.043125000000000004 L 0.030000000000000002,0.043125000000000004" fill="none" stroke="#000000" stroke-width="7.9e-05"/>
	<path d="M 0.030000000000000002,0.044375000000000005 L 0.025,0.044375000000000005" fill="none" stroke="#000000" stroke-width="7.9e-05"/>
	<path d="M 0.03,0.040625 L 0.034999999999999996,0.040625" fill="none" stroke="#000000" stroke-width="7.9e-05"/>
	<path d="M 0.034999999999999996,0.041875 L 0.029999999999999995,0.041875" fill="none" stroke="#000000" stroke-width="7.9e-05"/>
	<path d="M 0.029999999999999995,0.043125000000000004 L 0.034999999999999996,0.043125000000000004" fill="none" stroke="#000000" stroke-width="7.9e-05"/>
	<path d="M 0.034999999999999996,0.044375000000000005 L 0.029999999999999995,0.044375000000000005" fill="none" stroke="#000000" stroke-width="7.9e-05"/>
	<path d="M 0.035,0.04041666666666667 L 0.04,0.04041666666666667" fill="none" stroke="#000000" stroke-width="7.9e-05"/>
	<path d="M 0.04,0.04125 L 0.035,0.04125" fill="none" stroke="#000000" stroke-width="7.9e-05"/>
	<path d="M 0.035,0.042083333333333334 L 0.04,0.042083333333333334" fill="none" stroke="#000000" stroke-width="7.9e-05"/>
	<path d="M 0.04,0.042916666666666665 L 0.035,0.042916666666666665" fill="none" stroke="#000000" stroke-width="7.9e-05"/>
	<path d="M 0.035,0.04375 L 0.04,0.04375" fill="none" stroke="#000000" stroke-width="7.9e-05"/>
	<path d="M 0.04,0.04458333333333333 L 0.035,0.04458333333333333" fill="none" stroke="#000000" stroke-width="7.9e-05"/>
	<path d="M 0.04,0.040625 L 0.045,0.040625" fill="none" stroke="#000000" stroke-width="7.9e-05"/>
	<path d="M 0.045,0.041875 L 0.04,0.041875" fill="none" stroke="#000000" stroke-width="7.9e-05"/>
	<path d="M 0.04,0.043125000000000004 L 0.045,0.043125000000000004" fill="none" stroke="#000000" stroke-width="7.9e-05"/>
	<path d="M 0.045,0.044375000000000005 L 0.04,0.044375000000000005" fill="none" stroke="#000000" stroke-width="7.9e-05"/>
	<path d="M 0.045,0.040625 L 0.049999999999999996,0.040625" fill="none" stroke="#000000" stroke-width="7.9e-05"/>
	<path d="M 0.049999999999999996,0.041875 L 0.045,0.041875" fill="none" stroke="#000000" stroke-width="7.9e-05"/>
	<path d="M 0.045,0.043125000000000004 L 0.049999999999999996,0.043125000000000004" fill="none" stroke="#000000" stroke-width="7.9e-05"/>
	<path d="M 0.049999999999999996,0.044375000000000005 L 0.045,0.044375000000000005" fill="none" stroke="#000000" stroke-width="7.9e-05"/>
	<path d="M 0.05,0.040625 L 0.055,0.040625" fill="none" stroke="#000000" stroke-width="7.9e-05"/>
	<path d="M 0.055,0.041875 L 0.05,0.041875" fill="none" stroke="#000000" stroke-width="7.9e-05"/>
	<path d="M 0.05,0.043125000000000004 L 0.055,0.043125000000000004" fill="none" stroke="#000000" stroke-width="7.9e-05"/>
	<path d="M 0.055,0.044375000000000005 L 0.05,0.044375000000000005" fill="none" stroke="#000000" stroke-width="7.9e-05"/>
	<path d="M 0.0,0.045625 L 0.005,0.045625" fill="none" stroke="#000000" stroke-width="7.9e-05"/>
	<path d="M 0.005,0.046875 L 0.0,0.046875" fill="none" stroke="#000000" stroke-width="7.9e-05"/>
	<path d="M 0.0,0.048125 L 0.005,0.048125" fill="none" stroke="#000000" stroke-width="7.9e-05"/>
	<path d="M 0.005,0.049375 L 0.0,0.049375" fill="none" stroke="#000000" stroke-width="7.9e-05"/>
	<path d="M 0.005,0.045625 L 0.01,0.045625" fill="none" stroke="#000000" stroke-width="7.9e-05"/>
	<path d="M 0.01,0.046875 L 0.005,0.046875" fill="none" stroke="#000000" stroke-width="7.9e-05"/>
	<path d="M 0.005,0.048125 L 0.01,0.048125" fill="none" stroke="#000000" stroke-width="7.9e-05"/>
	<path d="M 0.01,0.049375 L 0.005,0.049375" fill="none" stroke="#000000" stroke-width="7.9e-05"/>
	<path d="M 0.01,0.045625 L 0.015,0.045625" fill="none" stroke="#000000" stroke-width="7.9e-05"/>
	<path d="M 0.015,0.046875 L 0.009999999999999998,0.046875" fill="none" stroke="#000000" stroke-width="7.9e-05"/>
	<path d="M 0.009999999999999998,0.048125 L 0.015,0.048125" fill="none" stroke="#000000" stroke-width="7.9e-05"/>
	<path d="M 0.015,0.049375 L 0.009999999999999998,0.049375" fill="none" stroke="#000000" stroke-width="7.9e-05"/>
	<path d="M 0.015,0.045625 L 0.02,0.045625" fill="none" stroke="#000000" stroke-width="7.9e-05"/>
	<path d="M 0.02,0.046875 L 0.015,0.046875" fill="none" stroke="#000000" stroke-width="7.9e-05"/>
	<path d="M 0.015,0.048125 L 0.02,0.048125" fill="none" stroke="#000000" stroke-width="7.9e-05"/>
	<path d="M 0.02,0.049375 L 0.015,0.049375" fill="none" stroke="#000000" stroke-width="7.9e-05"/>
	<path d="M 0.02,0.04541666666666667 L 0.025,0.04541666666666667" fill="none" stroke="#000000" stroke-width="7.9e-05"/>
	<path d="M 0.025,0.04625 L 0.02,0.04625" fill="none" stroke="#000000" stroke-width="7.9e-05"/>
	<path d="M 0.02,0.04708333333333333 L 0.025,0.04708333333333333" fill="none" stroke="#000000" stroke-width="7.9e-05"/>
	<path d="M 0.025,0.04791666666666666 L 0.02,0.04791666666666666" fill="none" stroke="#000000" stroke-width="7.9e-05"/>
	<path d="M 0.02,0.048749999999999995 L 0.025,0.048749999999999995" fill="none" stroke="#000000" stroke-width="7.9e-05"/>
	<path d="M 0.025,0.049583333333333326 L 0.02,0.049583333333333326" fill="none" stroke="#000000" stroke-width="7.9e-05"/>
	<path d="M 0.025,0.04541666666666667 L 0.030000000000000002,0.04541666666666667" fill="none" stroke="#000000" stroke-width="7.9e-05"/>
	<path d="M 0.030000000000000002,0.04625 L 0.025,0.04625" fill="none" stroke="#000000" stroke-width="7.9e-05"/>
	<path d="M 0.025,0.04708333333333333 L 0.030000000000000002,0.04708333333333333" fill="none" stroke="#000000" stroke-width="7.9e-05"/>
	<path d="M 0.030000000000000002,0.04791666666666666 L 0.025,0.04791666666666666" fill="none" stroke="#000000" stroke-width="7.9e-05"/>
	<path d="M 0.025,0.048749999999999995 L 0.030000000000000002,0.048749999999999995" fill="none" stroke="#000000" stroke-width="7.9e-05"/>
	<path d="M 0.030000000000000002,0.049583333333333326 L 0.025,0.049583333333333326" fill="none" stroke="#000000" stroke-width="7.9e-05"/>
	<path d="M 0.03,0.04541666666666667 L 0.034999999999999996,0.04541666666666667" fill="none" stroke="#000000" stroke-width="7.9e-05"/>
	<path d="M 0.034999999999999996,0.04625 L 0.029999999999999995,0.04625" fill="none" stroke="#000000" stroke-width="7.9e-05"/>
	<path d="M 0.029999999999999995,0.04708333333333333 L 0.034999999999999996,0.04708333333333333" fill="none" stroke="#000000" stroke-width="7.9e-05"/>
	<path d="M 0.034999999999999996,0.04791666666666666 L 0.029999999999999995,0.04791666666666666" fill="none" stroke="#000000" stroke-width="7.9e-05"/>
	<path d="M 0.029999999999999995,0.048749999999999995 L 0.034999999999999996,0.048749999999999995" fill="none" stroke="#000000" stroke-width="7.9e-05"/>
	<path d="M 0.034999999999999996,0.049583333333333326 L 0.029999999999999995,0.049583333333333326" fill="none" stroke="#000000" stroke-width="7.9e-05"/>
	<path d="M 0.035,0.04541666666666667 L 0.04,0.04541666666666667" fill="none" stroke="#000000" stroke-width="7.9e-05"/>
	<path d="M 0.04,0.04625 L 0.035,0.04625" fill="none" stroke="#000000" stroke-width="7.9e-05"/>
	<path d="M 0.035,0.04708333333333333 L 0.04,0.04708333333333333" fill="none" stroke="#000000" stroke-width="7.9e-05"/>
	<path d="M 0.04,0.04791666666666666 L 0.035,0.04791666666666666" fill="none" stroke="#000000" stroke-width="7.9e-05"/>
	<path d="M 0.035,0.048749999999999995 L 0.04,0.048749999999999995" fill="none" stroke="#000000" stroke-width="7.9e-05"/>
	<path d="M 0.04,0.049583333333333326 L 0.035,0.049583333333333326" fill="none" stroke="#000000" stroke-width="7.9e-05"/>
	<path d="M 0.04,0.045625 L 0.045,0.045625" fill="none" stroke="#000000" stroke-width="7.9e-05"/>
	<path d="M 0.045,0.046875 L 0.04,0.046875" fill="none" stroke="#000000" stroke-width="7.9e-05"/>
	<path d="M 0.04,0.048125 L 0.045,0.048125" fill="none" stroke="#000000" stroke-width="7.9e-05"/>
	<path d="M 0.045,0.049375 L 0.04,0.049375" fill="none" stroke="#000000" stroke-width="7.9e-05"/>
	<path d="M 0.045,0.045625 L 0.049999999999999996,0.045625" fill="none" stroke="#000000" stroke-width="7.9e-05"/>
	<path d="M 0.049999999999999996,0.046875 L 0.045,0.046875" fill="none" stroke="#000000" stroke-width="7.9e-05"/>
	<path d="M 0.045,0.048125 L 0.049999999999999996,0.048125" fill="none" stroke="#000000" stroke-width="7.9e-05"/>
	<path d="M 0.049999999999999996,0.049375 L 0.045,0.049375" fill="none" stroke="#000000" stroke-width="7.9e-05"/>
	<path d="M 0.05,0.045625 L 0.055,0.045625" fill="none" stroke="#000000" stroke-width="7.9e-05"/>
	<path d="M 0.055,0.046875 L 0.05,0.046875" fill="none" stroke="#000000" stroke-width="7.9e-05"/>
	<path d="M 0.05,0.048125 L 0.055,0.048125" fill="none" stroke="#000000" stroke-width="7.9e-05"/>
	<path d="M 0.055,0.049375 L 0.05,0.049375" fill="none" stroke="#000000" stroke-width="7.9e-05"/>
	<path d="M 0.055,0.045625 L 0.06,0.045625" fill="none" stroke="#000000" stroke-width="7.9e-05"/>
	<path d="M 0.06,0.046875 L 0.055,0.046875" fill="none" stroke="#000000" stroke-width="7.9e-05"/>
	<path d="M 0.055,0.048125 L 0.06,0.048125" fill="none" stroke="#000000" stroke-width="7.9e-05"/>
	<path d="M 0.06,0.049375 L 0.055,0.049375" fill="none" stroke="#000000" stroke-width="7.9e-05"/>
	<path d="M 0.0,0.051250000000000004 L 0.005,0.051250000000000004" fill="none" stroke="#000000" stroke-width="7.9e-05"/>
	<path d="M 0.005,0.053750000000000006 L 0.0,0.053750000000000006" fill="none" stroke="#000000" stroke-width="7.9e-05"/>
	<path d="M 0.005,0.051250000000000004 L 0.01,0.051250000000000004" fill="none" stroke="#000000" stroke-width="7.9e-05"/>
	<path d="M 0.01,0.053750000000000006 L 0.005,0.053750000000000006" fill="none" stroke="#000000" stroke-width="7.9e-05"/>
	<path d="M 0.01,0.050625 L 0.015,0.050625" fill="none" stroke="#000000" stroke-width="7.9e-05"/>
	<path d="M 0.015,0.051875000000000004 L 0.009999999999999998,0.051875000000000004" fill="none" stroke="#000000" stroke-width="7.9e-05"/>
	<path d="M 0.009999999999999998,0.053125000000000006 L 0.015,0.053125000000000006" fill="none" stroke="#000000" stroke-width="7.9e-05"/>
	<path d="M 0.015,0.05437500000000001 L 0.009999999999999998,0.05437500000000001" fill="none" stroke="#000000" stroke-width="7.9e-05"/>
	<path d="M 0.015,0.05041666666666667 L 0.02,0.05041666666666667" fill="none" stroke="#000000" stroke-width="7.9e-05"/>
	<path d="M 0.02,0.051250000000000004 L 0.015,0.051250000000000004" fill="none" stroke="#000000" stroke-width="7.9e-05"/>
	<path d="M 0.015,0.052083333333333336 L 0.02,0.052083333333333336" fill="none" stroke="#000000" stroke-width="7.9e-05"/>
	<path d="M 0.02,0.05291666666666667 L 0.015,0.05291666666666667" fill="none" stroke="#000000" stroke-width="7.9e-05"/>
	<path d="M 0.015,0.05375 L 0.02,0.05375" fill="none" stroke="#000000" stroke-width="7.9e-05"/>
	<path d="M 0.02,0.05458333333333333 L 0.015,0.05458333333333333" fill="none" stroke="#000000" stroke-width="7.9e-05"/>
	<path d="M 0.025,0.05041666666666667 L 0.030000000000000002,0.05041666666666667" fill="none" stroke="#000000" stroke-width="7.9e-05"/>
	<path d="M 0.030000000000000002,0.051250000000000004 L 0.025,0.051250000000000004" fill="none" stroke="#000000" stroke-width="7.9e-05"/>
	<path d="M 0.025,0.052083333333333336 L 0.030000000000000002,0.052083333333333336" fill="none" stroke="#000000" stroke-width="7.9e-05"/>
	<path d="M 0.030000000000000002,0.05291666666666667 L 0.025,0.05291666666666667" fill="none" stroke="#000000" stroke-width="7.9e-05"/>
	<path d="M 0.025,0.05375 L 0.030000000000000002,0.05375" fill="none" stroke="#000000" stroke-width="7.9e-05"/>
	<path d="M 0.030000000000000002,0.05458333333333333 L 0.025,0.05458333333333333" fill="none" stroke="#000000" stroke-width="7.9e-05"/>
	<path d="M 0.03,0.05041666666666667 L 0.034999999999999996,0.05041666666666667" fill="none" stroke="#000000" stroke-width="7.9e-05"/>
	<path d="M 0.034999999999999996,0.051250000000000004 L 0.029999999999999995,0.051250000000000004" fill="none" stroke="#000000" stroke-width="7.9e-05"/>
	<path d="M 0.029999999999999995,0.052083333333333336 L 0.034999999999999996,0.052083333333333336" fill="none" stroke="#000000" stroke-width="7.9e-05"/>
	<path d="M 0.034999999999999996,0.05291666666666667 L 0.029999999999999995,0.05291666666666667" fill="none" stroke="#000000" stroke-width="7.9e-05"/>
	<path d="M 0.029999999999999995,0.05375 L 0.034999999999999996,0.05375" fill="none" stroke="#000000" stroke-width="7.9e-05"/>
	<path d="M 0.034999999999999996,0.05458333333333333 L 0.029999999999999995,0.05458333333333333" fill="none" stroke="#000000" stroke-width="7.9e-05"/>
	<path d="M 0.04,0.05041666666666667 L 0.045,0.05041666666666667" fill="none" stroke="#000000" stroke-width="7.9e-05"/>
	<path d="M 0.045,0.051250000000000004 L 0.04,0.051250000000000004" fill="none" stroke="#000000" stroke-width="7.9e-05"/>
	<path d="M 0.04,0.052083333333333336 L 0.045,0.052083333333333336" fill="none" stroke="#000000" stroke-width="7.9e-05"/>
	<path d="M 0.045,0.05291666666666667 L 0.04,0.05291666666666667" fill="none" stroke="#000000" stroke-width="7.9e-05"/>
	<path d="M 0.04,0.05375 L 0.045,0.05375" fill="none" stroke="#000000" stroke-width="7.9e-05"/>
	<path d="M 0.045,0.05458333333333333 L 0.04,0.05458333333333333" fill="none" stroke="#000000" stroke-width="7.9e-05"/>
	<path d="M 0.045,0.050625 L 0.049999999999999996,0.050625" fill="none" stroke="#000000" stroke-width="7.9e-05"/>
	<path d="M 0.049999999999999996,0.051875000000000004 L 0.045,0.051875000000000004" fill="none" stroke="#000000" stroke-width="7.9e-05"/>
	<path d="M 0.045,0.053125000000000006 L 0.049999999999999996,0.053125000000000006" fill="none" stroke="#000000" stroke-width="7.9e-05"/>
	<path d="M 0.049999999999999996,0.05437500000000001 L 0.045,0.05437500000000001" fill="none" stroke="#000000" stroke-width="7.9e-05"/>
	<path d="M 0.05,0.051250000000000004 L 0.055,0.051250000000000004" fill="none" stroke="#000000" stroke-width="7.9e-05"/>
	<path d="M 0.055,0.053750000000000006 L 0.05,0.053750000000000006" fill="none" stroke="#000000" stroke-width="7.9e-05"/>
	<path d="M 0.055,0.051250000000000004 L 0.06,0.051250000000000004" fill="none" stroke="#000000" stroke-width="7.9e-05"/>
	<path d="M 0.06,0.053750000000000006 L 0.055,0.053750000000000006" fill="none" stroke="#000000" stroke-width="7.9e-05"/>
	<path d="M 0.0,0.05625 L 0.005,0.05625" fill="none" stroke="#000000" stroke-width="7.9e-05"/>
	<path d="M 0.005,0.058750000000000004 L 0.0,0.058750000000000004" fill="none" stroke="#000000" stroke-width="7.9e-05"/>
	<path d="M 0.005,0.05625 L 0.01,0.05625" fill="none" stroke="#000000" stroke-width="7.9e-05"/>
	<path d="M 0.01,0.058750000000000004 L 0.005,0.058750000000000004" fill="none" stroke="#000000" stroke-width="7.9e-05"/>
	<path d="M 0.01,0.05625 L 0.015,0.05625" fill="none" stroke="#000000" stroke-width="7.9e-05"/>
	<path d="M 0.015,0.058750000000000004 L 0.009999999999999998,0.058750000000000004" fill="none" stroke="#000000" stroke-width="7.9e-05"/>
	<path d="M 0.015,0.05541666666666667 L 0.02,0.05541666666666667" fill="none" stroke="#000000" stroke-width="7.9e-05"/>
	<path d="M 0.02,0.05625 L 0.015,0.05625" fill="none" stroke="#000000" stroke-width="7.9e-05"/>
	<path d="M 0.015,0.05708333333333333 L 0.02,0.05708333333333333" fill="none" stroke="#000000" stroke-width="7.9e-05"/>
	<path d="M 0.02,0.057916666666666665 L 0.015,0.057916666666666665" fill="none" stroke="#000000" stroke-width="7.9e-05"/>
	<path d="M 0.015,0.05875 L 0.02,0.05875" fill="none" stroke="#000000" stroke-width="7.9e-05"/>
	<path d="M 0.02,0.05958333333333333 L 0.015,0.05958333333333333" fill="none" stroke="#000000" stroke-width="7.9e-05"/>
	<path d="M 0.02,0.05541666666666667 L 0.025,0.05541666666666667" fill="none" stroke="#000000" stroke-width="7.9e-05"/>
	<path d="M 0.025,0.05625 L 0.02,0.05625" fill="none" stroke="#000000" stroke-width="7.9e-05"/>
	<path d="M 0.02,0.05708333333333333 L 0.025,0.05708333333333333" fill="none" stroke="#000000" stroke-width="7.9e-05"/>
	<path d="M 0.025,0.057916666666666665 L 0.02,0.057916666666666665" fill="none" stroke="#000000" stroke-width="7.9e-05"/>
	<path d="M 0.02,0.05875 L 0.025,0.05875" fill="none" stroke="#000000" stroke-width="7.9e-05"/>
	<path d="M 0.025,0.05958333333333333 L 0.02,0.05958333333333333" fill="none" stroke="#000000" stroke-width="7.9e-05"/>
	<path d="M 0.025,0.05541666666666667 L 0.030000000000000002,0.05541666666666667" fill="none" stroke="#000000" stroke-width="7.9e-05"/>
	<path d="M 0.030000000000000002,0.05625 L 0.025,0.05625" fill="none" stroke="#000000" stroke-width="7.9e-05"/>
	<path d="M 0.025,0.05708333333333333 L 0.030000000000000002,0.05708333333333333" fill="none" stroke="#000000" stroke-width="7.9e-05"/>
	<path d="M 0.030000000000000002,0.057916666666666665 L 0.025,0.057916666666666665" fill="none" stroke="#000000" stroke-width="7.9e-05"/>
	<path d="M 0.025,0.05875 L 0.030000000000000002,0.05875" fill="none" stroke="#000000" stroke-width="7.9e-05"/>
	<path d="M 0.030000000000000002,0.05958333333333333 L 0.025,0.05958333333333333" fill="none" stroke="#000000" stroke-width="7.9e-05"/>
	<path d="M 0.03,0.05541666666666667 L 0.034999999999999996,0.05541666666666667" fill="none" stroke="#000000" stroke-width="7.9e-05"/>
	<path d="M 0.034999999999999996,0.05625 L 0.029999999999999995,0.05625" fill="none" stroke="#000000" stroke-width="7.9e-05"/>
	<path d="M 0.029999999999999995,0.05708333333333333 L 0.034999999999999996,0.05708333333333333" fill="none" stroke="#000000" stroke-width="7.9e-05"/>
	<path d="M 0.034999999999999996,0.057916666666666665 L 0.029999999999999995,0.057916666666666665" fill="none" stroke="#000000" stroke-width="7.9e-05"/>
	<path d="M 0.029999999999999995,0.05875 L 0.034999999999999996,0.05875" fill="none" stroke="#000000" stroke-width="7.9e-05"/>
	<path d="M 0.034999999999999996,0.05958333333333333 L 0.029999999999999995,0.05958333333333333" fill="none" stroke="#000000" stroke-width="7.9e-05"/>
	<path d="M 0.035,0.05541666666666667 L 0.04,0.05541666666666667" fill="none" stroke="#000000" stroke-width="7.9e-05"/>
	<path d="M 0.04,0.05625 L 0.035,0.05625" fill="none" stroke="#000000" stroke-width="7.9e-05"/>
	<path d="M 0.035,0.05708333333333333 L 0.04,0.05708333333333333" fill="none" stroke="#000000" stroke-width="7.9e-05"/>
	<path d="M 0.04,0.057916666666666665 L 0.035,0.057916666666666665" fill="none" stroke="#000000" stroke-width="7.9e-05"/>
	<path d="M 0.035,0.05875 L 0.04,0.05875" fill="none" stroke="#000000" stroke-width="7.9e-05"/>
	<path d="M 0.04,0.05958333333333333 L 0.035,0.05958333333333333" fill="none" stroke="#000000" stroke-width="7.9e-05"/>
	<path d="M 0.04,0.05541666666666667 L 0.045,0.05541666666666667" fill="none" stroke="#000000" stroke-width="7.9e-05"/>
	<path d="M 0.045,0.05625 L 0.04,0.05625" fill="none" stroke="#000000" stroke-width="7.9e-05"/>
	<path d="M 0.04,0.05708333333333333 L 0.045,0.05708333333333333" fill="none" stroke="#000000" stroke-width="7.9e-05"/>
	<path d="M 0.045,0.057916666666666665 L 0.04,0.057916666666666665" fill="none" stroke="#000000" stroke-width="7.9e-05"/>
	<path d="M 0.04,0.05875 L 0.045,0.05875" fill="none" stroke="#000000" stroke-width="7.9e-05"/>
	<path d="M 0.045,0.05958333333333333 L 0.04,0.05958333333333333" fill="none" stroke="#000000" stroke-width="7.9e-05"/>
	<path d="M 0.045,0.05625 L 0.049999999999999996,0.05625" fill="none" stroke="#000000" stroke-width="7.9e-05"/>
	<path d="M 0.049999999999999996,0.058750000000000004 L 0.045,0.058750000000000004" fill="none" stroke="#000000" stroke-width="7.9e-05"/>
	<path d="M 0.05,0.05625 L 0.055,0.05625" fill="none" stroke="#000000" stroke-width="7.9e-05"/>
	<path d="M 0.055,0.058750000000000004 L 0.05,0.058750000000000004" fill="none" stroke="#000000" stroke-width="7.9e-05"/>
	<path d="M 0.055,0.05625 L 0.06,0.05625" fill="none" stroke="#000000" stroke-width="7.9e-05"/>
	<path d="M 0.06,0.058750000000000004 L 0.055,0.058750000000000004" fill="none" stroke="#000000" stroke-width="7.9e-05"/>
	<path d="M 0.0,0.06125 L 0.005,0.06125" fill="none" stroke="#000000" stroke-width="7.9e-05"/>
	<path d="M 0.005,0.06375 L 0.0,0.06375" fill="none" stroke="#000000" stroke-width="7.9e-05"/>
	<path d="M 0.005,0.06125 L 0.01,0.06125" fill="none" stroke="#000000" stroke-width="7.9e-05"/>
	<path d="M 0.01,0.06375 L 0.005,0.06375" fill="none" stroke="#000000" stroke-width="7.9e-05"/>
	<path d="M 0.015,0.06041666666666667 L 0.02,0.06041666666666667" fill="none" stroke="#000000" stroke-width="7.9e-05"/>
	<path d="M 0.02,0.06125 L 0.015,0.06125" fill="none" stroke="#000000" stroke-width="7.9e-05"/>
	<path d="M 0.015,0.06208333333333333 L 0.02,0.06208333333333333" fill="none" stroke="#000000" stroke-width="7.9e-05"/>
	<path d="M 0.02,0.06291666666666666 L 0.015,0.06291666666666666" fill="none" stroke="#000000" stroke-width="7.9e-05"/>
	<path d="M 0.015,0.06375 L 0.02,0.06375" fill="none" stroke="#000000" stroke-width="7.9e-05"/>
	<path d="M 0.02,0.06458333333333334 L 0.015,0.06458333333333334" fill="none" stroke="#000000" stroke-width="7.9e-05"/>
	<path d="M 0.02,0.06041666666666667 L 0.025,0.06041666666666667" fill="none" stroke="#000000" stroke-width="7.9e-05"/>
	<path d="M 0.025,0.06125 L 0.02,0.06125" fill="none" stroke="#000000" stroke-width="7.9e-05"/>
	<path d="M 0.02,0.06208333333333333 L 0.025,0.06208333333333333" fill="none" stroke="#000000" stroke-width="7.9e-05"/>
	<path d="M 0.025,0.06291666666666666 L 0.02,0.06291666666666666" fill="none" stroke="#000000" stroke-width="7.9e-05"/>
	<path d="M 0.02,0.06375 L 0.025,0.06375" fill="none" stroke="#000000" stroke-width="7.9e-05"/>
	<path d="M 0.025,0.06458333333333334 L 0.02,0.06458333333333334" fill="none" stroke="#000000" stroke-width="7.9e-05"/>
	<path d="M 0.025,0.06041666666666667 L 0.030000000000000002,0.06041666666666667" fill="none" stroke="#000000" stroke-width="7.9e-05"/>
	<path d="M 0.030000000000000002,0.06125 L 0.025,0.06125" fill="none" stroke="#000000" stroke-width="7.9e-05"/>
	<path d="M 0.025,0.06208333333333333 L 0.030000000000000002,0.06208333333333333" fill="none" stroke="#000000" stroke-width="7.9e-05"/>
	<path d="M 0.030000000000000002,0.06291666666666666 L 0.025,0.06291666666666666" fill="none" stroke="#000000" stroke-width="7.9e-05"/>
	<path d="M 0.025,0.06375 L 0.030000000000000002,0.06375" fill="none" stroke="#000000" stroke-width="7.9e-05"/>
	<path d="M 0.030000000000000002,0.06458333333333334 L 0.025,0.06458333333333334" fill="none" stroke="#000000" stroke-width="7.9e-05"/>
	<path d="M 0.03,0.06041666666666667 L 0.034999999999999996,0.06041666666666667" fill="none" stroke="#000000" stroke-width="7.9e-05"/>
	<path d="M 0.034999999999999996,0.06125 L 0.029999999999999995,0.06125" fill="none" stroke="#000000" stroke-width="7.9e-05"/>
	<path d="M 0.029999999999999995,0.06208333333333333 L 0.034999999999999996,0.06208333333333333" fill="none" stroke="#000000" stroke-width="7.9e-05"/>
	<path d="M 0.034999999999999996,0.06291666666666666 L 0.029999999999999995,0.06291666666666666" fill="none" stroke="#000000" stroke-width="7.9e-05"/>
	<path d="M 0.029999999999999995,0.06375 L 0.034999999999999996,0.06375" fill="none" stroke="#000000" stroke-width="7.9e-05"/>
	<path d="M 0.034999999999999996,0.06458333333333334 L 0.029999999999999995,0.06458333333333334" fill="none" stroke="#000000" stroke-width="7.9e-05"/>
	<path d="M 0.035,0.06041666666666667 L 0.04,0.06041666666666667" fill="none" stroke="#000000" stroke-width="7.9e-05"/>
	<path d="M 0.04,0.06125 L 0.035,0.06125" fill="none" stroke="#000000" stroke-width="7.9e-05"/>
	<path d="M 0.035,0.06208333333333333 L 0.04,0.06208333333333333" fill="none" stroke="#000000" stroke-width="7.9e-05"/>
	<path d="M 0.04,0.06291666666666666 L 0.035,0.06291666666666666" fill="none" stroke="#000000" stroke-width="7.9e-05"/>
	<path d="M 0.035,0.06375 L 0.04,0.06375" fill="none" stroke="#000000" stroke-width="7.9e-05"/>
	<path d="M 0.04,0.06458333333333334 L 0.035,0.06458333333333334" fill="none" stroke="#000000" stroke-width="7.9e-05"/>
	<path d="M 0.04,0.06041666666666667 L 0.045,0.06041666666666667" fill="none" stroke="#000000" stroke-width="7.9e-05"/>
	<path d="M 0.045,0.06125 L 0.04,0.06125" fill="none" stroke="#000000" stroke-width="7.9e-05"/>
	<path d="M 0.04,0.06208333333333333 L 0.045,0.06208333333333333" fill="none" stroke="#000000" stroke-width="7.9e-05"/>
	<path d="M 0.045,0.06291666666666666 L 0.04,0.06291666666666666" fill="none" stroke="#000000" stroke-width="7.9e-05"/>
	<path d="M 0.04,0.06375 L 0.045,0.06375" fill="none" stroke="#000000" stroke-width="7.9e-05"/>
	<path d="M 0.045,0.06458333333333334 L 0.04,0.06458333333333334" fill="none" stroke="#000000" stroke-width="7.9e-05"/>
	<path d="M 0.045,0.06041666666666667 L 0.049999999999999996,0.06041666666666667" fill="none" stroke="#000000" stroke-width="7.9e-05"/>
	<path d="M 0.049999999999999996,0.06125 L 0.045,0.06125" fill="none" stroke="#000000" stroke-width="7.9e-05"/>
	<path d="M 0.045,0.06208333333333333 L 0.049999999999999996,0.06208333333333333" fill="none" stroke="#000000" stroke-width="7.9e-05"/>
	<path d="M 0.049999999999999996,0.06291666666666666 L 0.045,0.06291666666666666" fill="none" stroke="#000000" stroke-width="7.9e-05"/>
	<path d="M 0.045,0.06375 L 0.049999999999999996,0.06375" fill="none" stroke="#000000" stroke-width="7.9e-05"/>
	<path d="M 0.049999999999999996,0.06458333333333334 L 0.045,0.06458333333333334" fill="none" stroke="#000000" stroke-width="7.9e-05"/>
	<path d="M 0.05,0.06125 L 0.055,0.06125" fill="none" stroke="#000000" stroke-width="7.9e-05"/>
	<path d="M 0.055,0.06375 L 0.05,0.06375" fill="none" stroke="#000000" stroke-width="7.9e-05"/>
	<path d="M 0.055,0.06125 L 0.06,0.06125" fill="none" stroke="#000000" stroke-width="7.9e-05"/>
	<path d="M 0.06,0.06375 L 0.055,0.06375" fill="none" stroke="#000000" stroke-width="7.9e-05"/>
	<path d="M 0.015,0.06541666666666666 L 0.02,0.06541666666666666" fill="none" stroke="#000000" stroke-width="7.9e-05"/>
	<path d="M 0.02,0.06625 L 0.015,0.06625" fill="none" stroke="#000000" stroke-width="7.9e-05"/>
	<path d="M 0.015,0.06708333333333334 L 0.02,0.06708333333333334" fill="none" stroke="#000000" stroke-width="7.9e-05"/>
	<path d="M 0.02,0.06791666666666668 L 0.015,0.06791666666666668" fill="none" stroke="#000000" stroke-width="7.9e-05"/>
	<path d="M 0.015,0.06875000000000002 L 0.02,0.06875000000000002" fill="none" stroke="#000000" stroke-width="7.9e-05"/>
	<path d="M 0.02,0.06958333333333336 L 0.015,0.06958333333333336" fill="none" stroke="#000000" stroke-width="7.9e-05"/>
	<path d="M 0.02,0.06541666666666666 L 0.025,0.06541666666666666" fill="none" stroke="#000000" stroke-width="7.9e-05"/>
	<path d="M 0.025,0.06625 L 0.02,0.06625" fill="none" stroke="#000000" stroke-width="7.9e-05"/>
	<path d="M 0.02,0.06708333333333334 L 0.025,0.06708333333333334" fill="none" stroke="#000000" stroke-width="7.9e-05"/>
	<path d="M 0.025,0.06791666666666668 L 0.02,0.06791666666666668" fill="none" stroke="#000000" stroke-width="7.9e-05"/>
	<path d="M 0.02,0.06875000000000002 L 0.025,0.06875000000000002" fill="none" stroke="#000000" stroke-width="7.9e-05"/>
	<path d="M 0.025,0.06958333333333336 L 0.02,0.06958333333333336" fill="none" stroke="#000000" stroke-width="7.9e-05"/>
	<path d="M 0.035,0.06541666666666666 L 0.04,0.06541666666666666" fill="none" stroke="#000000" stroke-width="7.9e-05"/>
	<path d="M 0.04,0.06625 L 0.035,0.06625" fill="none" stroke="#000000" stroke-width="7.9e-05"/>
	<path d="M 0.035,0.06708333333333334 L 0.04,0.06708333333333334" fill="none" stroke="#000000" stroke-width="7.9e-05"/>
	<path d="M 0.04,0.06791666666666668 L 0.035,0.06791666666666668" fill="none" stroke="#000000" stroke-width="7.9e-05"/>
	<path d="M 0.035,0.06875000000000002 L 0.04,0.06875000000000002" fill="none" stroke="#000000" stroke-width="7.9e-05"/>
	<path d="M 0.04,0.06958333333333336 L 0.035,0.06958333333333336" fill="none" stroke="#000000" stroke-width="7.9e-05"/>
	<path d="M 0.04,0.06541666666666666 L 0.045,0.06541666666666666" fill="none" stroke="#000000" stroke-width="7.9e-05"/>
	<path d="M 0.045,0.06625 L 0.04,0.06625" fill="none" stroke="#000000" stroke-width="7.9e-05"/>
	<path d="M 0.04,0.06708333333333334 L 0.045,0.06708333333333334" fill="none" stroke="#000000" stroke-width="7.9e-05"/>
	<path d="M 0.045,0.06791666666666668 L 0.04,0.06791666666666668" fill="none" stroke="#000000" stroke-width="7.9e-05"/>
	<path d="M 0.04,0.06875000000000002 L 0.045,0.06875000000000002" fill="none" stroke="#000000" stroke-width="7.9e-05"/>
	<path d="M 0.045,0.06958333333333336 L 0.04,0.06958333333333336" fill="none" stroke="#000000" stroke-width="7.9e-05"/>
	<path d="M 0.045,0.06541666666666666 L 0.049999999999999996,0.06541666666666666" fill="none" stroke="#000000" stroke-width="7.9e-05"/>
	<path d="M 0.049999999999999996,0.06625 L 0.045,0.06625" fill="none" stroke="#000000" stroke-width="7.9e-05"/>
	<path d="M 0.045,0.06708333333333334 L 0.049999999999999996,0.06708333333333334" fill="none" stroke="#000000" stroke-width="7.9e-05"/>
	<path d="M 0.049999999999999996,0.06791666666666668 L 0.045,0.06791666666666668" fill="none" stroke="#000000" stroke-width="7.9e-05"/>
	<path d="M 0.045,0.06875000000000002 L 0.049999999999999996,0.06875000000000002" fill="none" stroke="#000000" stroke-width="7.9e-05"/>
	<path d="M 0.049999999999999996,0.06958333333333336 L 0.045,0.06958333333333336" fill="none" stroke="#000000" stroke-width="7.9e-05"/>
	<path d="M 0.005,0.07050000000000001 L 0.01,0.07050000000000001" fill="none" stroke="#000000" stroke-width="7.9e-05"/>
	<path d="M 0.01,0.07150000000000001 L 0.005,0.07150000000000001" fill="none" stroke="#000000" stroke-width="7.9e-05"/>
	<path d="M 0.005,0.07250000000000001 L 0.01,0.07250000000000001" fill="none" stroke="#000000" stroke-width="7.9e-05"/>
	<path d="M 0.01,0.07350000000000001 L 0.005,0.07350000000000001" fill="none" stroke="#000000" stroke-width="7.9e-05"/>
	<path d="M 0.005,0.07450000000000001 L 0.01,0.07450000000000001" fill="none" stroke="#000000" stroke-width="7.9e-05"/>
	<path d="M 0.01,0.07050000000000001 L 0.015,0.07050000000000001" fill="none" stroke="#000000" stroke-width="7.9e-05"/>
	<path d="M 0.015,0.07150000000000001 L 0.009999999999999998,0.07150000000000001" fill="none" stroke="#000000" stroke-width="7.9e-05"/>
	<path d="M 0.009999999999999998,0.07250000000000001 L 0.015,0.07250000000000001" fill="none" stroke="#000000" stroke-width="7.9e-05"/>
	<path d="M 0.015,0.07350000000000001 L 0.009999999999999998,0.07350000000000001" fill="none" stroke="#000000" stroke-width="7.9e-05"/>
	<path d="M 0.009999999999999998,0.07450000000000001 L 0.015,0.07450000000000001" fill="none" stroke="#000000" stroke-width="7.9e-05"/>
	<path d="M 0.015,0.07050000000000001 L 0.02,0.07050000000000001" fill="none" stroke="#000000" stroke-width="7.9e-05"/>
	<path d="M 0.02,0.07150000000000001 L 0.015,0.07150000000000001" fill="none" stroke="#000000" stroke-width="7.9e-05"/>
	<path d="M 0.015,0.07250000000000001 L 0.02,0.07250000000000001" fill="none" stroke="#000000" stroke-width="7.9e-05"/>
	<path d="M 0.02,0.07350000000000001 L 0.015,0.07350000000000001" fill="none" stroke="#000000" stroke-width="7.9e-05"/>
	<path d="M 0.015,0.07450000000000001 L 0.02,0.07450000000000001" fill="none" stroke="#000000" stroke-width="7.9e-05"/>
	<path d="M 0.04,0.07050000000000001 L 0.045,0.07050000000000001" fill="none" stroke="#000000" stroke-width="7.9e-05"/>
	<path d="M 0.045,0.07150000000000001 L 0.04,0.07150000000000001" fill="none" stroke="#000000" stroke-width="7.9e-05"/>
	<path d="M 0.04,0.07250000000000001 L 0.045,0.07250000000000001" fill="none" stroke="#000000" stroke-width="7.9e-05"/>
	<path d="M 0.045,0.07350000000000001 L 0.04,0.07350000000000001" fill="none" stroke="#000000" stroke-width="7.9e-05"/>
	<path d="M 0.04,0.07450000000000001 L 0.045,0.07450000000000001" fill="none" stroke="#000000" stroke-width="7.9e-05"/>
	<path d="M 0.045,0.07050000000000001 L 0.049999999999999996,0.07050000000000001" fill="none" stroke="#000000" stroke-width="7.9e-05"/>
	<path d="M 0.049999999999999996,0.07150000000000001 L 0.045,0.07150000000000001" fill="none" stroke="#000000" stroke-width="7.9e-05"/>
	<path d="M 0.045,0.07250000000000001 L 0.049999999999999996,0.07250000000000001" fill="none" stroke="#000000" stroke-width="7.9e-05"/>
	<path d="M 0.049999999999999996,0.07350000000000001 L 0.045,0.07350000000000001" fill="none" stroke="#000000" stroke-width="7.9e-05"/>
	<path d="M 0.045,0.07450000000000001 L 0.049999999999999996,0.07450000000000001" fill="none" stroke="#000000" stroke-width="7.9e-05"/>
	<path d="M 0.05,0.07050000000000001 L 0.055,0.07050000000000001" fill="none" stroke="#000000" stroke-width="7.9e-05"/>
	<path d="M 0.055,0.07150000000000001 L 0.05,0.07150000000000001" fill="none" stroke="#000000" stroke-width="7.9e-05"/>
	<path d="M 0.05,0.07250000000000001 L 0.055,0.07250000000000001" fill="none" stroke="#000000" stroke-width="7.9e-05"/>
	<path d="M 0.055,0.07350000000000001 L 0.05,0.07350000000000001" fill="none" stroke="#000000" stroke-width="7.9e-05"/>
	<path d="M 0.05,0.07450000000000001 L 0.055,0.07450000000000001" fill="none" stroke="#000000" stroke-width="7.9e-05"/>
	<path d="M 0.0,0.0755 L 0.005,0.0755" fill="none" stroke="#000000" stroke-width="7.9e-05"/>
	<path d="M 0.005,0.0765 L 0.0,0.0765" fill="none" stroke="#000000" stroke-width="7.9e-05"/>
	<path d="M 0.0,0.0775 L 0.005,0.0775" fill="none" stroke="#000000" stroke-width="7.9e-05"/>
	<path d="M 0.005,0.0785 L 0.0,0.0785" fill="none" stroke="#000000" stroke-width="7.9e-05"/>
	<path d="M 0.0,0.0795 L 0.005,0.0795" fill="none" stroke="#000000" stroke-width="7.9e-05"/>
	<path d="M 0.005,0.0755 L 0.01,0.0755" fill="none" stroke="#000000" stroke-width="7.9e-05"/>
	<path d="M 0.01,0.0765 L 0.005,0.0765" fill="none" stroke="#000000" stroke-width="7.9e-05"/>
	<path d="M 0.005,0.0775 L 0.01,0.0775" fill="none" stroke="#000000" stroke-width="7.9e-05"/>
	<path d="M 0.01,0.0785 L 0.005,0.0785" fill="none" stroke="#000000" stroke-width="7.9e-05"/>
	<path d="M 0.005,0.0795 L 0.01,0.0795" fill="none" stroke="#000000" stroke-width="7.9e-05"/>
	<path d="M 0.01,0.0755 L 0.015,0.0755" fill="none" stroke="#000000" stroke-width="7.9e-05"/>
	<path d="M 0.015,0.0765 L 0.009999999999999998,0.0765" fill="none" stroke="#000000" stroke-width="7.9e-05"/>
	<path d="M 0.009999999999999998,0.0775 L 0.015,0.0775" fill="none" stroke="#000000" stroke-width="7.9e-05"/>
	<path d="M 0.015,0.0785 L 0.009999999999999998,0.0785" fill="none" stroke="#000000" stroke-width="7.9e-05"/>
	<path d="M 0.009999999999999998,0.0795 L 0.015,0.0795" fill="none" stroke="#000000" stroke-width="7.9e-05"/>
	<path d="M 0.015,0.0755 L 0.02,0.0755" fill="none" stroke="#000000" stroke-width="7.9e-05"/>
	<path d="M 0.02,0.0765 L 0.015,0.0765" fill="none" stroke="#000000" stroke-width="7.9e-05"/>
	<path d="M 0.015,0.0775 L 0.02,0.0775" fill="none" stroke="#000000" stroke-width="7.9e-05"/>
	<path d="M 0.02,0.0785 L 0.015,0.0785" fill="none" stroke="#000000" stroke-width="7.9e-05"/>
	<path d="M 0.015,0.0795 L 0.02,0.0795" fill="none" stroke="#000000" stroke-width="7.9e-05"/>
	<path d="M 0.04,0.0755 L 0.045,0.0755" fill="none" stroke="#000000" stroke-width="7.9e-05"/>
	<path d="M 0.045,0.0765 L 0.04,0.0765" fill="none" stroke="#000000" stroke-width="7.9e-05"/>
	<path d="M 0.04,0.0775 L 0.045,0.0775" fill="none" stroke="#000000" stroke-width="7.9e-05"/>
	<path d="M 0.045,0.0785 L 0.04,0.0785" fill="none" stroke="#000000" stroke-width="7.9e-05"/>
	<path d="M 0.04,0.0795 L 0.045,0.0795" fill="none" stroke="#000000" stroke-width="7.9e-05"/>
	<path d="M 0.045,0.0755 L 0.049999999999999996,0.0755" fill="none" stroke="#000000" stroke-width="7.9e-05"/>
	<path d="M 0.049999999999999996,0.0765 L 0.045,0.0765" fill="none" stroke="#000000" stroke-width="7.9e-05"/>
	<path d="M 0.045,0.0775 L 0.049999999999999996,0.0775" fill="none" stroke="#000000" stroke-width="7.9e-05"/>
	<path d="M 0.049999999999999996,0.0785 L 0.045,0.0785" fill="none" stroke="#000000" stroke-width="7.9e-05"/>
	<path d="M 0.045,0.0795 L 0.049999999999999996,0.0795" fill="none" stroke="#000000" stroke-width="7.9e-05"/>
	<path d="M 0.05,0.0755 L 0.055,0.0755" fill="none" stroke="#000000" stroke-width="7.9e-05"/>
	<path d="M 0.055,0.0765 L 0.05,0.0765" fill="none" stroke="#000000" stroke-width="7.9e-05"/>
	<path d="M 0.05,0.0775 L 0.055,0.0775" fill="none" stroke="#000000" stroke-width="7.9e-05"/>
	<path d="M 0.055,0.0785 L 0.05,0.0785" fill="none" stroke="#000000" stroke-width="7.9e-05"/>
	<path d="M 0.05,0.0795 L 0.055,0.0795" fill="none" stroke="#000000" stroke-width="7.9e-05"/>
	<path d="M 0.055,0.0755 L 0.06,0.0755" fill="none" stroke="#000000" stroke-width="7.9e-05"/>
	<path d="M 0.06,0.0765 L 0.055,0.0765" fill="none" stroke="#000000" stroke-width="7.9e-05"/>
	<path d="M 0.055,0.0775 L 0.06,0.0775" fill="none" stroke="#000000" stroke-width="7.9e-05"/>
	<path d="M 0.06,0.0785 L 0.055,0.0785" fill="none" stroke="#000000" stroke-width="7.9e-05"/>
	<path d="M 0.055,0.0795 L 0.06,0.0795" fill="none" stroke="#000000" stroke-width="7.9e-05"/>
</svg>
