<?xml version="1.0" ?>
<svg baseProfile="full" height="600px" version="1.1" viewBox="-147.00933333333333 -182.0729696969697 1755.003515151515 2187.8580606060605" width="482px" xmlns="http://www.w3.org/2000/svg" xmlns:ev="http://www.w3.org/2001/xml-events" xmlns:xlink="http://www.w3.org/1999/xlink">
	<defs/>
	<path d="M 362.72727272727275,1.0075757575757576 L 372.8030303030303,1.0075757575757576" fill="none" stroke="#000000" stroke-width="1.8216969696969696"/>
	<path d="M 372.8030303030303,3.0227272727272725 L 362.72727272727275,3.0227272727272725" fill="none" stroke="#000000" stroke-width="1.8216969696969696"/>
	<path d="M 362.72727272727275,5.037878787878787 L 372.8030303030303,5.037878787878787" fill="none" stroke="#000000" stroke-width="1.8216969696969696"/>
	<path d="M 372.8030303030303,7.053030303030303 L 362.72727272727275,7.053030303030303" fill="none" stroke="#000000" stroke-width="1.8216969696969696"/>
	<path d="M 362.72727272727275,9.068181818181818 L 372.8030303030303,9.068181818181818" fill="none" stroke="#000000" stroke-width="1.8216969696969696"/>
	<path d="M 483.6363636363636,1.0075757575757576 L 493.7121212121212,1.0075757575757576" fill="none" stroke="#000000" stroke-width="1.8216969696969696"/>
	<path d="M 493.7121212121212,3.0227272727272725 L 483.6363636363636,3.0227272727272725" fill="none" stroke="#000000" stroke-width="1.8216969696969696"/>
	<path d="M 483.6363636363636,5.037878787878787 L 493.7121212121212,5.037878787878787" fill="none" stroke="#000000" stroke-width="1.8216969696969696"/>
	<path d="M 493.7121212121212,7.053030303030303 L 483.6363636363636,7.053030303030303" fill="none" stroke="#000000" stroke-width="1.8216969696969696"/>
	<path d="M 483.6363636363636,9.068181818181818 L 493.7121212121212,9.068181818181818" fill="none" stroke="#000000" stroke-width="1.8216969696969696"/>
	<path d="M 604.5454545454545,1.0075757575757576 L 614.6212121212121,1.0075757575757576" fill="none" stroke="#000000" stroke-width="1.8216969696969696"/>
	<path d="M 614.6212121212121,3.0227272727272725 L 604.5454545454545,3.0227272727272725" fill="none" stroke="#000000" stroke-width="1.8216969696969696"/>
	<path d="M 604.5454545454545,5.037878787878787 L 614.6212121212121,5.037878787878787" fill="none" stroke="#000000" stroke-width="1.8216969696969696"/>
	<path d="M 614.6212121212121,7.053030303030303 L 604.5454545454545,7.053030303030303" fill="none" stroke="#000000" stroke-width="1.8216969696969696"/>
	<path d="M 604.5454545454545,9.068181818181818 L 614.6212121212121,9.068181818181818" fill="none" stroke="#000000" stroke-width="1.8216969696969696"/>
	<path d="M 725.4545454545455,1.0075757575757576 L 735.5303030303031,1.0075757575757576" fill="none" stroke="#000000" stroke-width="1.8216969696969696"/>
	<path d="M 735.5303030303031,3.0227272727272725 L 725.4545454545455,3.0227272727272725" fill="none" stroke="#000000" stroke-width="1.8216969696969696"/>
	<path d="M 725.4545454545455,5.037878787878787 L 735.5303030303031,5.037878787878787" fill="none" stroke="#000000" stroke-width="1.8216969696969696"/>
	<path d="M 735.5303030303031,7.053030303030303 L 725.4545454545455,7.053030303030303" fill="none" stroke="#000000" stroke-width="1.8216969696969696"/>
	<path d="M 725.4545454545455,9.068181818181818 L 735.5303030303031,9.068181818181818" fill="none" stroke="#000000" stroke-width="1.8216969696969696"/>
	<path d="M 846.3636363636364,1.0075757575757576 L 856.439393939394,1.0075757575757576" fill="none" stroke="#000000" stroke-width="1.8216969696969696"/>
	<path d="M 856.439393939394,3.0227272727272725 L 846.3636363636364,3.0227272727272725" fill="none" stroke="#000000" stroke-width="1.8216969696969696"/>
	<path d="M 846.3636363636364,5.037878787878787 L 856.439393939394,5.037878787878787" fill="none" stroke="#000000" stroke-width="1.8216969696969696"/>
	<path d="M 856.439393939394,7.053030303030303 L 846.3636363636364,7.053030303030303" fill="none" stroke="#000000" stroke-width="1.8216969696969696"/>
	<path d="M 846.3636363636364,9.068181818181818 L 856.439393939394,9.068181818181818" fill="none" stroke="#000000" stroke-width="1.8216969696969696"/>
	<path d="M 967.2727272727273,1.0075757575757576 L 977.3484848484849,1.0075757575757576" fill="none" stroke="#000000" stroke-width="1.8216969696969696"/>
	<path d="M 977.3484848484849,3.0227272727272725 L 967.2727272727273,3.0227272727272725" fill="none" stroke="#000000" stroke-width="1.8216969696969696"/>
	<path d="M 967.2727272727273,5.037878787878787 L 977.3484848484849,5.037878787878787" fill="none" stroke="#000000" stroke-width="1.8216969696969696"/>
	<path d="M 977.3484848484849,7.053030303030303 L 967.2727272727273,7.053030303030303" fill="none" stroke="#000000" stroke-width="1.8216969696969696"/>
	<path d="M 967.2727272727273,9.068181818181818 L 977.3484848484849,9.068181818181818" fill="none" stroke="#000000" stroke-width="1.8216969696969696"/>
	<path d="M 241.8181818181818,121.91666666666666 L 251.89393939393938,121.91666666666666" fill="none" stroke="#000000" stroke-width="1.8216969696969696"/>
	<path d="M 251.89393939393938,123.93181818181817 L 241.8181818181818,123.93181818181817" fill="none" stroke="#000000" stroke-width="1.8216969696969696"/>
	<path d="M 241.8181818181818,125.94696969696969 L 251.89393939393938,125.94696969696969" fill="none" stroke="#000000" stroke-width="1.8216969696969696"/>
	<path d="M 251.89393939393938,127.9621212121212 L 241.8181818181818,127.9621212121212" fill="none" stroke="#000000" stroke-width="1.8216969696969696"/>
	<path d="M 241.8181818181818,129.97727272727272 L 251.89393939393938,129.97727272727272" fill="none" stroke="#000000" stroke-width="1.8216969696969696"/>
	<path d="M 362.72727272727275,121.91666666666666 L 372.8030303030303,121.91666666666666" fill="none" stroke="#000000" stroke-width="1.8216969696969696"/>
	<path d="M 372.8030303030303,123.93181818181817 L 362.72727272727275,123.93181818181817" fill="none" stroke="#000000" stroke-width="1.8216969696969696"/>
	<path d="M 362.72727272727275,125.94696969696969 L 372.8030303030303,125.94696969696969" fill="none" stroke="#000000" stroke-width="1.8216969696969696"/>
	<path d="M 372.8030303030303,127.9621212121212 L 362.72727272727275,127.9621212121212" fill="none" stroke="#000000" stroke-width="1.8216969696969696"/>
	<path d="M 362.72727272727275,129.97727272727272 L 372.8030303030303,129.97727272727272" fill="none" stroke="#000000" stroke-width="1.8216969696969696"/>
	<path d="M 483.6363636363636,121.91666666666666 L 493.7121212121212,121.91666666666666" fill="none" stroke="#000000" stroke-width="1.8216969696969696"/>
	<path d="M 493.7121212121212,123.93181818181817 L 483.6363636363636,123.93181818181817" fill="none" stroke="#000000" stroke-width="1.8216969696969696"/>
	<path d="M 483.6363636363636,125.94696969696969 L 493.7121212121212,125.94696969696969" fill="none" stroke="#000000" stroke-width="1.8216969696969696"/>
	<path d="M 493.7121212121212,127.9621212121212 L 483.6363636363636,127.9621212121212" fill="none" stroke="#000000" stroke-width="1.8216969696969696"/>
	<path d="M 483.6363636363636,129.97727272727272 L 493.7121212121212,129.97727272727272" fill="none" stroke="#000000" stroke-width="1.8216969696969696"/>
	<path d="M 604.5454545454545,121.91666666666666 L 614.6212121212121,121.91666666666666" fill="none" stroke="#000000" stroke-width="1.8216969696969696"/>
	<path d="M 614.6212121212121,123.93181818181817 L 604.5454545454545,123.93181818181817" fill="none" stroke="#000000" stroke-width="1.8216969696969696"/>
	<path d="M 604.5454545454545,125.94696969696969 L 614.6212121212121,125.94696969696969" fill="none" stroke="#000000" stroke-width="1.8216969696969696"/>
	<path d="M 614.6212121212121,127.9621212121212 L 604.5454545454545,127.9621212121212" fill="none" stroke="#000000" stroke-width="1.8216969696969696"/>
	<path d="M 604.5454545454545,129.97727272727272 L 614.6212121212121,129.97727272727272" fill="none" stroke="#000000" stroke-width="1.8216969696969696"/>
	<path d="M 725.4545454545455,121.91666666666666 L 735.5303030303031,121.91666666666666" fill="none" stroke="#000000" stroke-width="1.8216969696969696"/>
	<path d="M 735.5303030303031,123.93181818181817 L 725.4545454545455,123.93181818181817" fill="none" stroke="#000000" stroke-width="1.8216969696969696"/>
	<path d="M 725.4545454545455,125.94696969696969 L 735.5303030303031,125.94696969696969" fill="none" stroke="#000000" stroke-width="1.8216969696969696"/>
	<path d="M 735.5303030303031,127.9621212121212 L 725.4545454545455,127.9621212121212" fill="none" stroke="#000000" stroke-width="1.8216969696969696"/>
	<path d="M 725.4545454545455,129.97727272727272 L 735.5303030303031,129.97727272727272" fill="none" stroke="#000000" stroke-width="1.8216969696969696"/>
	<path d="M 846.3636363636364,121.91666666666666 L 856.439393939394,121.91666666666666" fill="none" stroke="#000000" stroke-width="1.8216969696969696"/>
	<path d="M 856.439393939394,123.93181818181817 L 846.3636363636364,123.93181818181817" fill="none" stroke="#000000" stroke-width="1.8216969696969696"/>
	<path d="M 846.3636363636364,125.94696969696969 L 856.439393939394,125.94696969696969" fill="none" stroke="#000000" stroke-width="1.8216969696969696"/>
	<path d="M 856.439393939394,127.9621212121212 L 846.3636363636364,127.9621212121212" fill="none" stroke="#000000" stroke-width="1.8216969696969696"/>
	<path d="M 846.3636363636364,129.97727272727272 L 856.439393939394,129.97727272727272" fill="none" stroke="#000000" stroke-width="1.8216969696969696"/>
	<path d="M 967.2727272727273,121.91666666666666 L 977.3484848484849,121.91666666666666" fill="none" stroke="#000000" stroke-width="1.8216969696969696"/>
	<path d="M 977.3484848484849,123.93181818181817 L 967.2727272727273,123.93181818181817" fill="none" stroke="#000000" stroke-width="1.8216969696969696"/>
	<path d="M 967.2727272727273,125.94696969696969 L 977.3484848484849,125.94696969696969" fill="none" stroke="#000000" stroke-width="1.8216969696969696"/>
	<path d="M 977.3484848484849,127.9621212121212 L 967.2727272727273,127.9621212121212" fill="none" stroke="#000000" stroke-width="1.8216969696969696"/>
	<path d="M 967.2727272727273,129.97727272727272 L 977.3484848484849,129.97727272727272" fill="none" stroke="#000000" stroke-width="1.8216969696969696"/>
	<path d="M 1088.1818181818182,121.91666666666666 L 1098.2575757575758,121.91666666666666" fill="none" stroke="#000000" stroke-width="1.8216969696969696"/>
	<path d="M 1098.2575757575758,123.93181818181817 L 1088.1818181818182,123.93181818181817" fill="none" stroke="#000000" stroke-width="1.8216969696969696"/>
	<path d="M 1088.1818181818182,125.94696969696969 L 1098.2575757575758,125.94696969696969" fill="none" stroke="#000000" stroke-width="1.8216969696969696"/>
	<path d="M 1098.2575757575758,127.9621212121212 L 1088.1818181818182,127.9621212121212" fill="none" stroke="#000000" stroke-width="1.8216969696969696"/>
	<path d="M 1088.1818181818182,129.97727272727272 L 1098.2575757575758,129.97727272727272" fill="none" stroke="#000000" stroke-width="1.8216969696969696"/>
	<path d="M 1209.090909090909,121.91666666666666 L 1219.1666666666665,121.91666666666666" fill="none" stroke="#000000" stroke-width="1.8216969696969696"/>
	<path d="M 1219.1666666666665,123.93181818181817 L 1209.090909090909,123.93181818181817" fill="none" stroke="#000000" stroke-width="1.8216969696969696"/>
	<path d="M 1209.090909090909,125.94696969696969 L 1219.1666666666665,125.94696969696969" fill="none" stroke="#000000" stroke-width="1.8216969696969696"/>
	<path d="M 1219.1666666666665,127.9621212121212 L 1209.090909090909,127.9621212121212" fill="none" stroke="#000000" stroke-width="1.8216969696969696"/>
	<path d="M 1209.090909090909,129.97727272727272 L 1219.1666666666665,129.97727272727272" fill="none" stroke="#000000" stroke-width="1.8216969696969696"/>
	<path d="M 1330.0,121.91666666666666 L 1340.0757575757575,121.91666666666666" fill="none" stroke="#000000" stroke-width="1.8216969696969696"/>
	<path d="M 1340.0757575757575,123.93181818181817 L 1330.0,123.93181818181817" fill="none" stroke="#000000" stroke-width="1.8216969696969696"/>
	<path d="M 1330.0,125.94696969696969 L 1340.0757575757575,125.94696969696969" fill="none" stroke="#000000" stroke-width="1.8216969696969696"/>
	<path d="M 1340.0757575757575,127.9621212121212 L 1330.0,127.9621212121212" fill="none" stroke="#000000" stroke-width="1.8216969696969696"/>
	<path d="M 1330.0,129.97727272727272 L 1340.0757575757575,129.97727272727272" fill="none" stroke="#000000" stroke-width="1.8216969696969696"/>
	<path d="M 241.8181818181818,243.0776515151515 L 251.89393939393938,243.0776515151515" fill="none" stroke="#000000" stroke-width="1.8216969696969696"/>
	<path d="M 251.89393939393938,245.5965909090909 L 241.8181818181818,245.5965909090909" fill="none" stroke="#000000" stroke-width="1.8216969696969696"/>
	<path d="M 241.8181818181818,248.1155303030303 L 251.89393939393938,248.1155303030303" fill="none" stroke="#000000" stroke-width="1.8216969696969696"/>
	<path d="M 251.89393939393938,250.63446969696972 L 241.8181818181818,250.63446969696972" fill="none" stroke="#000000" stroke-width="1.8216969696969696"/>
	<path d="M 362.72727272727275,243.0776515151515 L 372.8030303030303,243.0776515151515" fill="none" stroke="#000000" stroke-width="1.8216969696969696"/>
	<path d="M 372.8030303030303,245.5965909090909 L 362.72727272727275,245.5965909090909" fill="none" stroke="#000000" stroke-width="1.8216969696969696"/>
	<path d="M 362.72727272727275,248.1155303030303 L 372.8030303030303,248.1155303030303" fill="none" stroke="#000000" stroke-width="1.8216969696969696"/>
	<path d="M 372.8030303030303,250.63446969696972 L 362.72727272727275,250.63446969696972" fill="none" stroke="#000000" stroke-width="1.8216969696969696"/>
	<path d="M 483.6363636363636,243.0776515151515 L 493.7121212121212,243.0776515151515" fill="none" stroke="#000000" stroke-width="1.8216969696969696"/>
	<path d="M 493.7121212121212,245.5965909090909 L 483.6363636363636,245.5965909090909" fill="none" stroke="#000000" stroke-width="1.8216969696969696"/>
	<path d="M 483.6363636363636,248.1155303030303 L 493.7121212121212,248.1155303030303" fill="none" stroke="#000000" stroke-width="1.8216969696969696"/>
	<path d="M 493.7121212121212,250.63446969696972 L 483.6363636363636,250.63446969696972" fill="none" stroke="#000000" stroke-width="1.8216969696969696"/>
	<path d="M 604.5454545454545,244.33712121212122 L 614.6212121212121,244.33712121212122" fill="none" stroke="#000000" stroke-width="1.8216969696969696"/>
	<path d="M 614.6212121212121,249.375 L 604.5454545454545,249.375" fill="none" stroke="#000000" stroke-width="1.8216969696969696"/>
	<path d="M 725.4545454545455,244.33712121212122 L 735.5303030303031,244.33712121212122" fill="none" stroke="#000000" stroke-width="1.8216969696969696"/>
	<path d="M 735.5303030303031,249.375 L 725.4545454545455,249.375" fill="none" stroke="#000000" stroke-width="1.8216969696969696"/>
	<path d="M 846.3636363636364,244.33712121212122 L 856.439393939394,244.33712121212122" fill="none" stroke="#000000" stroke-width="1.8216969696969696"/>
	<path d="M 856.439393939394,249.375 L 846.3636363636364,249.375" fill="none" stroke="#000000" stroke-width="1.8216969696969696"/>
	<path d="M 967.2727272727273,242.53787878787878 L 977.3484848484849,242.53787878787878" fill="none" stroke="#000000" stroke-width="1.8216969696969696"/>
	<path d="M 977.3484848484849,243.97727272727272 L 967.2727272727273,243.97727272727272" fill="none" stroke="#000000" stroke-width="1.8216969696969696"/>
	<path d="M 967.2727272727273,245.41666666666666 L 977.3484848484849,245.41666666666666" fill="none" stroke="#000000" stroke-width="1.8216969696969696"/>
	<path d="M 977.3484848484849,246.8560606060606 L 967.2727272727273,246.8560606060606" fill="none" stroke="#000000" stroke-width="1.8216969696969696"/>
	<path d="M 967.2727272727273,248.29545454545453 L 977.3484848484849,248.29545454545453" fill="none" stroke="#000000" stroke-width="1.8216969696969696"/>
	<path d="M 977.3484848484849,249.73484848484847 L 967.2727272727273,249.73484848484847" fill="none" stroke="#000000" stroke-width="1.8216969696969696"/>
	<path d="M 967.2727272727273,251.1742424242424 L 977.3484848484849,251.1742424242424" fill="none" stroke="#000000" stroke-width="1.8216969696969696"/>
	<path d="M 1088.1818181818182,244.33712121212122 L 1098.2575757575758,244.33712121212122" fill="none" stroke="#000000" stroke-width="1.8216969696969696"/>
	<path d="M 1098.2575757575758,249.375 L 1088.1818181818182,249.375" fill="none" stroke="#000000" stroke-width="1.8216969696969696"/>
	<path d="M 120.9090909090909,363.98674242424244 L 130.98484848484847,363.98674242424244" fill="none" stroke="#000000" stroke-width="1.8216969696969696"/>
	<path d="M 130.98484848484847,366.5056818181818 L 120.90909090909089,366.5056818181818" fill="none" stroke="#000000" stroke-width="1.8216969696969696"/>
	<path d="M 120.90909090909089,369.0246212121212 L 130.98484848484847,369.0246212121212" fill="none" stroke="#000000" stroke-width="1.8216969696969696"/>
	<path d="M 130.98484848484847,371.54356060606057 L 120.90909090909089,371.54356060606057" fill="none" stroke="#000000" stroke-width="1.8216969696969696"/>
	<path d="M 241.8181818181818,365.2462121212121 L 251.89393939393938,365.2462121212121" fill="none" stroke="#000000" stroke-width="1.8216969696969696"/>
	<path d="M 251.89393939393938,370.28409090909093 L 241.8181818181818,370.28409090909093" fill="none" stroke="#000000" stroke-width="1.8216969696969696"/>
	<path d="M 362.72727272727275,363.98674242424244 L 372.8030303030303,363.98674242424244" fill="none" stroke="#000000" stroke-width="1.8216969696969696"/>
	<path d="M 372.8030303030303,366.5056818181818 L 362.72727272727275,366.5056818181818" fill="none" stroke="#000000" stroke-width="1.8216969696969696"/>
	<path d="M 362.72727272727275,369.0246212121212 L 372.8030303030303,369.0246212121212" fill="none" stroke="#000000" stroke-width="1.8216969696969696"/>
	<path d="M 372.8030303030303,371.54356060606057 L 362.72727272727275,371.54356060606057" fill="none" stroke="#000000" stroke-width="1.8216969696969696"/>
	<path d="M 483.6363636363636,365.2462121212121 L 493.7121212121212,365.2462121212121" fill="none" stroke="#000000" stroke-width="1.8216969696969696"/>
	<path d="M 493.7121212121212,370.28409090909093 L 483.6363636363636,370.28409090909093" fill="none" stroke="#000000" stroke-width="1.8216969696969696"/>
	<path d="M 604.5454545454545,365.2462121212121 L 614.6212121212121,365.2462121212121" fill="none" stroke="#000000" stroke-width="1.8216969696969696"/>
	<path d="M 614.6212121212121,370.28409090909093 L 604.5454545454545,370.28409090909093" fill="none" stroke="#000000" stroke-width="1.8216969696969696"/>
	<path d="M 725.4545454545455,365.2462121212121 L 735.5303030303031,365.2462121212121" fill="none" stroke="#000000" stroke-width="1.8216969696969696"/>
	<path d="M 735.5303030303031,370.28409090909093 L 725.4545454545455,370.28409090909093" fill="none" stroke="#000000" stroke-width="1.8216969696969696"/>
	<path d="M 846.3636363636364,365.2462121212121 L 856.439393939394,365.2462121212121" fill="none" stroke="#000000" stroke-width="1.8216969696969696"/>
	<path d="M 856.439393939394,370.28409090909093 L 846.3636363636364,370.28409090909093" fill="none" stroke="#000000" stroke-width="1.8216969696969696"/>
	<path d="M 967.2727272727273,363.44696969696975 L 977.3484848484849,363.44696969696975" fill="none" stroke="#000000" stroke-width="1.8216969696969696"/>
	<path d="M 977.3484848484849,364.8863636363637 L 967.2727272727273,364.8863636363637" fill="none" stroke="#000000" stroke-width="1.8216969696969696"/>
	<path d="M 967.2727272727273,366.3257575757576 L 977.3484848484849,366.3257575757576" fill="none" stroke="#000000" stroke-width="1.8216969696969696"/>
	<path d="M 977.3484848484849,367.76515151515156 L 967.2727272727273,367.76515151515156" fill="none" stroke="#000000" stroke-width="1.8216969696969696"/>
	<path d="M 967.2727272727273,369.2045454545455 L 977.3484848484849,369.2045454545455" fill="none" stroke="#000000" stroke-width="1.8216969696969696"/>
	<path d="M 977.3484848484849,370.64393939393943 L 967.2727272727273,370.64393939393943" fill="none" stroke="#000000" stroke-width="1.8216969696969696"/>
	<path d="M 967.2727272727273,372.08333333333337 L 977.3484848484849,372.08333333333337" fill="none" stroke="#000000" stroke-width="1.8216969696969696"/>
	<path d="M 1088.1818181818182,365.2462121212121 L 1098.2575757575758,365.2462121212121" fill="none" stroke="#000000" stroke-width="1.8216969696969696"/>
	<path d="M 1098.2575757575758,370.28409090909093 L 1088.1818181818182,370.28409090909093" fill="none" stroke="#000000" stroke-width="1.8216969696969696"/>
	<path d="M 1209.090909090909,365.2462121212121 L 1219.1666666666665,365.2462121212121" fill="none" stroke="#000000" stroke-width="1.8216969696969696"/>
	<path d="M 1219.1666666666665,370.28409090909093 L 1209.090909090909,370.28409090909093" fill="none" stroke="#000000" stroke-width="1.8216969696969696"/>
	<path d="M 1330.0,365.2462121212121 L 1340.0757575757575,365.2462121212121" fill="none" stroke="#000000" stroke-width="1.8216969696969696"/>
	<path d="M 1340.0757575757575,370.28409090909093 L 1330.0,370.28409090909093" fill="none" stroke="#000000" stroke-width="1.8216969696969696"/>
	<path d="M 120.9090909090909,484.8958333333333 L 130.98484848484847,484.8958333333333" fill="none" stroke="#000000" stroke-width="1.8216969696969696"/>
	<path d="M 130.98484848484847,487.4147727272727 L 120.90909090909089,487.4147727272727" fill="none" stroke="#000000" stroke-width="1.8216969696969696"/>
	<path d="M 120.90909090909089,489.93371212121207 L 130.98484848484847,489.93371212121207" fill="none" stroke="#000000" stroke-width="1.8216969696969696"/>
	<path d="M 130.98484848484847,492.45265151515144 L 120.90909090909089,492.45265151515144" fill="none" stroke="#000000" stroke-width="1.8216969696969696"/>
	<path d="M 241.8181818181818,486.155303030303 L 251.89393939393938,486.155303030303" fill="none" stroke="#000000" stroke-width="1.8216969696969696"/>
	<path d="M 251.89393939393938,491.1931818181818 L 241.8181818181818,491.1931818181818" fill="none" stroke="#000000" stroke-width="1.8216969696969696"/>
	<path d="M 362.72727272727275,484.8958333333333 L 372.8030303030303,484.8958333333333" fill="none" stroke="#000000" stroke-width="1.8216969696969696"/>
	<path d="M 372.8030303030303,487.4147727272727 L 362.72727272727275,487.4147727272727" fill="none" stroke="#000000" stroke-width="1.8216969696969696"/>
	<path d="M 362.72727272727275,489.93371212121207 L 372.8030303030303,489.93371212121207" fill="none" stroke="#000000" stroke-width="1.8216969696969696"/>
	<path d="M 372.8030303030303,492.45265151515144 L 362.72727272727275,492.45265151515144" fill="none" stroke="#000000" stroke-width="1.8216969696969696"/>
	<path d="M 483.6363636363636,484.8958333333333 L 493.7121212121212,484.8958333333333" fill="none" stroke="#000000" stroke-width="1.8216969696969696"/>
	<path d="M 493.7121212121212,487.4147727272727 L 483.6363636363636,487.4147727272727" fill="none" stroke="#000000" stroke-width="1.8216969696969696"/>
	<path d="M 483.6363636363636,489.93371212121207 L 493.7121212121212,489.93371212121207" fill="none" stroke="#000000" stroke-width="1.8216969696969696"/>
	<path d="M 493.7121212121212,492.45265151515144 L 483.6363636363636,492.45265151515144" fill="none" stroke="#000000" stroke-width="1.8216969696969696"/>
	<path d="M 604.5454545454545,486.155303030303 L 614.6212121212121,486.155303030303" fill="none" stroke="#000000" stroke-width="1.8216969696969696"/>
	<path d="M 614.6212121212121,491.1931818181818 L 604.5454545454545,491.1931818181818" fill="none" stroke="#000000" stroke-width="1.8216969696969696"/>
	<path d="M 725.4545454545455,486.155303030303 L 735.5303030303031,486.155303030303" fill="none" stroke="#000000" stroke-width="1.8216969696969696"/>
	<path d="M 735.5303030303031,491.1931818181818 L 725.4545454545455,491.1931818181818" fill="none" stroke="#000000" stroke-width="1.8216969696969696"/>
	<path d="M 846.3636363636364,486.155303030303 L 856.439393939394,486.155303030303" fill="none" stroke="#000000" stroke-width="1.8216969696969696"/>
	<path d="M 856.439393939394,491.1931818181818 L 846.3636363636364,491.1931818181818" fill="none" stroke="#000000" stroke-width="1.8216969696969696"/>
	<path d="M 967.2727272727273,486.155303030303 L 977.3484848484849,486.155303030303" fill="none" stroke="#000000" stroke-width="1.8216969696969696"/>
	<path d="M 977.3484848484849,491.1931818181818 L 967.2727272727273,491.1931818181818" fill="none" stroke="#000000" stroke-width="1.8216969696969696"/>
	<path d="M 1088.1818181818182,484.3560606060606 L 1098.2575757575758,484.3560606060606" fill="none" stroke="#000000" stroke-width="1.8216969696969696"/>
	<path d="M 1098.2575757575758,485.79545454545456 L 1088.1818181818182,485.79545454545456" fill="none" stroke="#000000" stroke-width="1.8216969696969696"/>
	<path d="M 1088.1818181818182,487.2348484848485 L 1098.2575757575758,487.2348484848485" fill="none" stroke="#000000" stroke-width="1.8216969696969696"/>
	<path d="M 1098.2575757575758,488.67424242424244 L 1088.1818181818182,488.67424242424244" fill="none" stroke="#000000" stroke-width="1.8216969696969696"/>
	<path d="M 1088.1818181818182,490.1136363636364 L 1098.2575757575758,490.1136363636364" fill="none" stroke="#000000" stroke-width="1.8216969696969696"/>
	<path d="M 1098.2575757575758,491.5530303030303 L 1088.1818181818182,491.5530303030303" fill="none" stroke="#000000" stroke-width="1.8216969696969696"/>
	<path d="M 1088.1818181818182,492.99242424242425 L 1098.2575757575758,492.99242424242425" fill="none" stroke="#000000" stroke-width="1.8216969696969696"/>
	<path d="M 1209.090909090909,486.155303030303 L 1219.1666666666665,486.155303030303" fill="none" stroke="#000000" stroke-width="1.8216969696969696"/>
	<path d="M 1219.1666666666665,491.1931818181818 L 1209.090909090909,491.1931818181818" fill="none" stroke="#000000" stroke-width="1.8216969696969696"/>
	<path d="M 1330.0,486.155303030303 L 1340.0757575757575,486.155303030303" fill="none" stroke="#000000" stroke-width="1.8216969696969696"/>
	<path d="M 1340.0757575757575,491.1931818181818 L 1330.0,491.1931818181818" fill="none" stroke="#000000" stroke-width="1.8216969696969696"/>
	<path d="M 1450.909090909091,486.155303030303 L 1460.9848484848485,486.155303030303" fill="none" stroke="#000000" stroke-width="1.8216969696969696"/>
	<path d="M 1460.9848484848485,491.1931818181818 L 1450.909090909091,491.1931818181818" fill="none" stroke="#000000" stroke-width="1.8216969696969696"/>
	<path d="M 362.72727272727275,607.0643939393939 L 372.8030303030303,607.0643939393939" fill="none" stroke="#000000" stroke-width="1.8216969696969696"/>
	<path d="M 372.8030303030303,612.1022727272726 L 362.72727272727275,612.1022727272726" fill="none" stroke="#000000" stroke-width="1.8216969696969696"/>
	<path d="M 483.6363636363636,607.0643939393939 L 493.7121212121212,607.0643939393939" fill="none" stroke="#000000" stroke-width="1.8216969696969696"/>
	<path d="M 493.7121212121212,612.1022727272726 L 483.6363636363636,612.1022727272726" fill="none" stroke="#000000" stroke-width="1.8216969696969696"/>
	<path d="M 604.5454545454545,607.0643939393939 L 614.6212121212121,607.0643939393939" fill="none" stroke="#000000" stroke-width="1.8216969696969696"/>
	<path d="M 614.6212121212121,612.1022727272726 L 604.5454545454545,612.1022727272726" fill="none" stroke="#000000" stroke-width="1.8216969696969696"/>
	<path d="M 725.4545454545455,607.0643939393939 L 735.5303030303031,607.0643939393939" fill="none" stroke="#000000" stroke-width="1.8216969696969696"/>
	<path d="M 735.5303030303031,612.1022727272726 L 725.4545454545455,612.1022727272726" fill="none" stroke="#000000" stroke-width="1.8216969696969696"/>
	<path d="M 846.3636363636364,607.0643939393939 L 856.439393939394,607.0643939393939" fill="none" stroke="#000000" stroke-width="1.8216969696969696"/>
	<path d="M 856.439393939394,612.1022727272726 L 846.3636363636364,612.1022727272726" fill="none" stroke="#000000" stroke-width="1.8216969696969696"/>
	<path d="M 967.2727272727273,605.2651515151515 L 977.3484848484849,605.2651515151515" fill="none" stroke="#000000" stroke-width="1.8216969696969696"/>
	<path d="M 977.3484848484849,606.7045454545455 L 967.2727272727273,606.7045454545455" fill="none" stroke="#000000" stroke-width="1.8216969696969696"/>
	<path d="M 967.2727272727273,608.1439393939395 L 977.3484848484849,608.1439393939395" fill="none" stroke="#000000" stroke-width="1.8216969696969696"/>
	<path d="M 977.3484848484849,609.5833333333335 L 967.2727272727273,609.5833333333335" fill="none" stroke="#000000" stroke-width="1.8216969696969696"/>
	<path d="M 967.2727272727273,611.0227272727275 L 977.3484848484849,611.0227272727275" fill="none" stroke="#000000" stroke-width="1.8216969696969696"/>
	<path d="M 977.3484848484849,612.4621212121215 L 967.2727272727273,612.4621212121215" fill="none" stroke="#000000" stroke-width="1.8216969696969696"/>
	<path d="M 967.2727272727273,613.9015151515155 L 977.3484848484849,613.9015151515155" fill="none" stroke="#000000" stroke-width="1.8216969696969696"/>
	<path d="M 1088.1818181818182,605.2651515151515 L 1098.2575757575758,605.2651515151515" fill="none" stroke="#000000" stroke-width="1.8216969696969696"/>
	<path d="M 1098.2575757575758,606.7045454545455 L 1088.1818181818182,606.7045454545455" fill="none" stroke="#000000" stroke-width="1.8216969696969696"/>
	<path d="M 1088.1818181818182,608.1439393939395 L 1098.2575757575758,608.1439393939395" fill="none" stroke="#000000" stroke-width="1.8216969696969696"/>
	<path d="M 1098.2575757575758,609.5833333333335 L 1088.1818181818182,609.5833333333335" fill="none" stroke="#000000" stroke-width="1.8216969696969696"/>
	<path d="M 1088.1818181818182,611.0227272727275 L 1098.2575757575758,611.0227272727275" fill="none" stroke="#000000" stroke-width="1.8216969696969696"/>
	<path d="M 1098.2575757575758,612.4621212121215 L 1088.1818181818182,612.4621212121215" fill="none" stroke="#000000" stroke-width="1.8216969696969696"/>
	<path d="M 1088.1818181818182,613.9015151515155 L 1098.2575757575758,613.9015151515155" fill="none" stroke="#000000" stroke-width="1.8216969696969696"/>
	<path d="M 1209.090909090909,605.2651515151515 L 1219.1666666666665,605.2651515151515" fill="none" stroke="#000000" stroke-width="1.8216969696969696"/>
	<path d="M 1219.1666666666665,606.7045454545455 L 1209.090909090909,606.7045454545455" fill="none" stroke="#000000" stroke-width="1.8216969696969696"/>
	<path d="M 1209.090909090909,608.1439393939395 L 1219.1666666666665,608.1439393939395" fill="none" stroke="#000000" stroke-width="1.8216969696969696"/>
	<path d="M 1219.1666666666665,609.5833333333335 L 1209.090909090909,609.5833333333335" fill="none" stroke="#000000" stroke-width="1.8216969696969696"/>
	<path d="M 1209.090909090909,611.0227272727275 L 1219.1666666666665,611.0227272727275" fill="none" stroke="#000000" stroke-width="1.8216969696969696"/>
	<path d="M 1219.1666666666665,612.4621212121215 L 1209.090909090909,612.4621212121215" fill="none" stroke="#000000" stroke-width="1.8216969696969696"/>
	<path d="M 1209.090909090909,613.9015151515155 L 1219.1666666666665,613.9015151515155" fill="none" stroke="#000000" stroke-width="1.8216969696969696"/>
	<path d="M 1330.0,605.2651515151515 L 1340.0757575757575,605.2651515151515" fill="none" stroke="#000000" stroke-width="1.8216969696969696"/>
	<path d="M 1340.0757575757575,606.7045454545455 L 1330.0,606.7045454545455" fill="none" stroke="#000000" stroke-width="1.8216969696969696"/>
	<path d="M 1330.0,608.1439393939395 L 1340.0757575757575,608.1439393939395" fill="none" stroke="#000000" stroke-width="1.8216969696969696"/>
	<path d="M 1340.0757575757575,609.5833333333335 L 1330.0,609.5833333333335" fill="none" stroke="#000000" stroke-width="1.8216969696969696"/>
	<path d="M 1330.0,611.0227272727275 L 1340.0757575757575,611.0227272727275" fill="none" stroke="#000000" stroke-width="1.8216969696969696"/>
	<path d="M 1340.0757575757575,612.4621212121215 L 1330.0,612.4621212121215" fill="none" stroke="#000000" stroke-width="1.8216969696969696"/>
	<path d="M 1330.0,613.9015151515155 L 1340.0757575757575,613.9015151515155" fill="none" stroke="#000000" stroke-width="1.8216969696969696"/>
	<path d="M 362.72727272727275,727.9734848484849 L 372.8030303030303,727.9734848484849" fill="none" stroke="#000000" stroke-width="1.8216969696969696"/>
	<path d="M 372.8030303030303,733.0113636363636 L 362.72727272727275,733.0113636363636" fill="none" stroke="#000000" stroke-width="1.8216969696969696"/>
	<path d="M 483.6363636363636,727.9734848484849 L 493.7121212121212,727.9734848484849" fill="none" stroke="#000000" stroke-width="1.8216969696969696"/>
	<path d="M 493.7121212121212,733.0113636363636 L 483.6363636363636,733.0113636363636" fill="none" stroke="#000000" stroke-width="1.8216969696969696"/>
	<path d="M 604.5454545454545,727.9734848484849 L 614.6212121212121,727.9734848484849" fill="none" stroke="#000000" stroke-width="1.8216969696969696"/>
	<path d="M 614.6212121212121,733.0113636363636 L 604.5454545454545,733.0113636363636" fill="none" stroke="#000000" stroke-width="1.8216969696969696"/>
	<path d="M 725.4545454545455,727.9734848484849 L 735.5303030303031,727.9734848484849" fill="none" stroke="#000000" stroke-width="1.8216969696969696"/>
	<path d="M 735.5303030303031,733.0113636363636 L 725.4545454545455,733.0113636363636" fill="none" stroke="#000000" stroke-width="1.8216969696969696"/>
	<path d="M 846.3636363636364,727.9734848484849 L 856.439393939394,727.9734848484849" fill="none" stroke="#000000" stroke-width="1.8216969696969696"/>
	<path d="M 856.439393939394,733.0113636363636 L 846.3636363636364,733.0113636363636" fill="none" stroke="#000000" stroke-width="1.8216969696969696"/>
	<path d="M 967.2727272727273,727.9734848484849 L 977.3484848484849,727.9734848484849" fill="none" stroke="#000000" stroke-width="1.8216969696969696"/>
	<path d="M 977.3484848484849,733.0113636363636 L 967.2727272727273,733.0113636363636" fill="none" stroke="#000000" stroke-width="1.8216969696969696"/>
	<path d="M 1088.1818181818182,727.9734848484849 L 1098.2575757575758,727.9734848484849" fill="none" stroke="#000000" stroke-width="1.8216969696969696"/>
	<path d="M 1098.2575757575758,733.0113636363636 L 1088.1818181818182,733.0113636363636" fill="none" stroke="#000000" stroke-width="1.8216969696969696"/>
	<path d="M 1209.090909090909,727.9734848484849 L 1219.1666666666665,727.9734848484849" fill="none" stroke="#000000" stroke-width="1.8216969696969696"/>
	<path d="M 1219.1666666666665,733.0113636363636 L 1209.090909090909,733.0113636363636" fill="none" stroke="#000000" stroke-width="1.8216969696969696"/>
	<path d="M 241.8181818181818,847.6231060606061 L 251.89393939393938,847.6231060606061" fill="none" stroke="#000000" stroke-width="1.8216969696969696"/>
	<path d="M 251.89393939393938,850.1420454545455 L 241.8181818181818,850.1420454545455" fill="none" stroke="#000000" stroke-width="1.8216969696969696"/>
	<path d="M 241.8181818181818,852.6609848484849 L 251.89393939393938,852.6609848484849" fill="none" stroke="#000000" stroke-width="1.8216969696969696"/>
	<path d="M 251.89393939393938,855.1799242424242 L 241.8181818181818,855.1799242424242" fill="none" stroke="#000000" stroke-width="1.8216969696969696"/>
	<path d="M 362.72727272727275,847.6231060606061 L 372.8030303030303,847.6231060606061" fill="none" stroke="#000000" stroke-width="1.8216969696969696"/>
	<path d="M 372.8030303030303,850.1420454545455 L 362.72727272727275,850.1420454545455" fill="none" stroke="#000000" stroke-width="1.8216969696969696"/>
	<path d="M 362.72727272727275,852.6609848484849 L 372.8030303030303,852.6609848484849" fill="none" stroke="#000000" stroke-width="1.8216969696969696"/>
	<path d="M 372.8030303030303,855.1799242424242 L 362.72727272727275,855.1799242424242" fill="none" stroke="#000000" stroke-width="1.8216969696969696"/>
	<path d="M 483.6363636363636,847.2032828282828 L 493.7121212121212,847.2032828282828" fill="none" stroke="#000000" stroke-width="1.8216969696969696"/>
	<path d="M 493.7121212121212,848.8825757575758 L 483.6363636363636,848.8825757575758" fill="none" stroke="#000000" stroke-width="1.8216969696969696"/>
	<path d="M 483.6363636363636,850.5618686868687 L 493.7121212121212,850.5618686868687" fill="none" stroke="#000000" stroke-width="1.8216969696969696"/>
	<path d="M 493.7121212121212,852.2411616161617 L 483.6363636363636,852.2411616161617" fill="none" stroke="#000000" stroke-width="1.8216969696969696"/>
	<path d="M 483.6363636363636,853.9204545454546 L 493.7121212121212,853.9204545454546" fill="none" stroke="#000000" stroke-width="1.8216969696969696"/>
	<path d="M 493.7121212121212,855.5997474747476 L 483.6363636363636,855.5997474747476" fill="none" stroke="#000000" stroke-width="1.8216969696969696"/>
	<path d="M 604.5454545454545,847.6231060606061 L 614.6212121212121,847.6231060606061" fill="none" stroke="#000000" stroke-width="1.8216969696969696"/>
	<path d="M 614.6212121212121,850.1420454545455 L 604.5454545454545,850.1420454545455" fill="none" stroke="#000000" stroke-width="1.8216969696969696"/>
	<path d="M 604.5454545454545,852.6609848484849 L 614.6212121212121,852.6609848484849" fill="none" stroke="#000000" stroke-width="1.8216969696969696"/>
	<path d="M 614.6212121212121,855.1799242424242 L 604.5454545454545,855.1799242424242" fill="none" stroke="#000000" stroke-width="1.8216969696969696"/>
	<path d="M 725.4545454545455,847.6231060606061 L 735.5303030303031,847.6231060606061" fill="none" stroke="#000000" stroke-width="1.8216969696969696"/>
	<path d="M 735.5303030303031,850.1420454545455 L 725.4545454545455,850.1420454545455" fill="none" stroke="#000000" stroke-width="1.8216969696969696"/>
	<path d="M 725.4545454545455,852.6609848484849 L 735.5303030303031,852.6609848484849" fill="none" stroke="#000000" stroke-width="1.8216969696969696"/>
	<path d="M 735.5303030303031,855.1799242424242 L 725.4545454545455,855.1799242424242" fill="none" stroke="#000000" stroke-width="1.8216969696969696"/>
	<path d="M 846.3636363636364,847.6231060606061 L 856.439393939394,847.6231060606061" fill="none" stroke="#000000" stroke-width="1.8216969696969696"/>
	<path d="M 856.439393939394,850.1420454545455 L 846.3636363636364,850.1420454545455" fill="none" stroke="#000000" stroke-width="1.8216969696969696"/>
	<path d="M 846.3636363636364,852.6609848484849 L 856.439393939394,852.6609848484849" fill="none" stroke="#000000" stroke-width="1.8216969696969696"/>
	<path d="M 856.439393939394,855.1799242424242 L 846.3636363636364,855.1799242424242" fill="none" stroke="#000000" stroke-width="1.8216969696969696"/>
	<path d="M 967.2727272727273,847.6231060606061 L 977.3484848484849,847.6231060606061" fill="none" stroke="#000000" stroke-width="1.8216969696969696"/>
	<path d="M 977.3484848484849,850.1420454545455 L 967.2727272727273,850.1420454545455" fill="none" stroke="#000000" stroke-width="1.8216969696969696"/>
	<path d="M 967.2727272727273,852.6609848484849 L 977.3484848484849,852.6609848484849" fill="none" stroke="#000000" stroke-width="1.8216969696969696"/>
	<path d="M 977.3484848484849,855.1799242424242 L 967.2727272727273,855.1799242424242" fill="none" stroke="#000000" stroke-width="1.8216969696969696"/>
	<path d="M 120.9090909090909,968.532196969697 L 130.98484848484847,968.532196969697" fill="none" stroke="#000000" stroke-width="1.8216969696969696"/>
	<path d="M 130.98484848484847,971.0511363636364 L 120.90909090909089,971.0511363636364" fill="none" stroke="#000000" stroke-width="1.8216969696969696"/>
	<path d="M 120.90909090909089,973.5700757575758 L 130.98484848484847,973.5700757575758" fill="none" stroke="#000000" stroke-width="1.8216969696969696"/>
	<path d="M 130.98484848484847,976.0890151515151 L 120.90909090909089,976.0890151515151" fill="none" stroke="#000000" stroke-width="1.8216969696969696"/>
	<path d="M 241.8181818181818,968.532196969697 L 251.89393939393938,968.532196969697" fill="none" stroke="#000000" stroke-width="1.8216969696969696"/>
	<path d="M 251.89393939393938,971.0511363636364 L 241.8181818181818,971.0511363636364" fill="none" stroke="#000000" stroke-width="1.8216969696969696"/>
	<path d="M 241.8181818181818,973.5700757575758 L 251.89393939393938,973.5700757575758" fill="none" stroke="#000000" stroke-width="1.8216969696969696"/>
	<path d="M 251.89393939393938,976.0890151515151 L 241.8181818181818,976.0890151515151" fill="none" stroke="#000000" stroke-width="1.8216969696969696"/>
	<path d="M 362.72727272727275,968.532196969697 L 372.8030303030303,968.532196969697" fill="none" stroke="#000000" stroke-width="1.8216969696969696"/>
	<path d="M 372.8030303030303,971.0511363636364 L 362.72727272727275,971.0511363636364" fill="none" stroke="#000000" stroke-width="1.8216969696969696"/>
	<path d="M 362.72727272727275,973.5700757575758 L 372.8030303030303,973.5700757575758" fill="none" stroke="#000000" stroke-width="1.8216969696969696"/>
	<path d="M 372.8030303030303,976.0890151515151 L 362.72727272727275,976.0890151515151" fill="none" stroke="#000000" stroke-width="1.8216969696969696"/>
	<path d="M 483.6363636363636,968.1123737373737 L 493.7121212121212,968.1123737373737" fill="none" stroke="#000000" stroke-width="1.8216969696969696"/>
	<path d="M 493.7121212121212,969.7916666666666 L 483.6363636363636,969.7916666666666" fill="none" stroke="#000000" stroke-width="1.8216969696969696"/>
	<path d="M 483.6363636363636,971.4709595959596 L 493.7121212121212,971.4709595959596" fill="none" stroke="#000000" stroke-width="1.8216969696969696"/>
	<path d="M 493.7121212121212,973.1502525252525 L 483.6363636363636,973.1502525252525" fill="none" stroke="#000000" stroke-width="1.8216969696969696"/>
	<path d="M 483.6363636363636,974.8295454545455 L 493.7121212121212,974.8295454545455" fill="none" stroke="#000000" stroke-width="1.8216969696969696"/>
	<path d="M 493.7121212121212,976.5088383838385 L 483.6363636363636,976.5088383838385" fill="none" stroke="#000000" stroke-width="1.8216969696969696"/>
	<path d="M 604.5454545454545,968.532196969697 L 614.6212121212121,968.532196969697" fill="none" stroke="#000000" stroke-width="1.8216969696969696"/>
	<path d="M 614.6212121212121,971.0511363636364 L 604.5454545454545,971.0511363636364" fill="none" stroke="#000000" stroke-width="1.8216969696969696"/>
	<path d="M 604.5454545454545,973.5700757575758 L 614.6212121212121,973.5700757575758" fill="none" stroke="#000000" stroke-width="1.8216969696969696"/>
	<path d="M 614.6212121212121,976.0890151515151 L 604.5454545454545,976.0890151515151" fill="none" stroke="#000000" stroke-width="1.8216969696969696"/>
	<path d="M 725.4545454545455,968.532196969697 L 735.5303030303031,968.532196969697" fill="none" stroke="#000000" stroke-width="1.8216969696969696"/>
	<path d="M 735.5303030303031,971.0511363636364 L 725.4545454545455,971.0511363636364" fill="none" stroke="#000000" stroke-width="1.8216969696969696"/>
	<path d="M 725.4545454545455,973.5700757575758 L 735.5303030303031,973.5700757575758" fill="none" stroke="#000000" stroke-width="1.8216969696969696"/>
	<path d="M 735.5303030303031,976.0890151515151 L 725.4545454545455,976.0890151515151" fill="none" stroke="#000000" stroke-width="1.8216969696969696"/>
	<path d="M 846.3636363636364,968.1123737373737 L 856.439393939394,968.1123737373737" fill="none" stroke="#000000" stroke-width="1.8216969696969696"/>
	<path d="M 856.439393939394,969.7916666666666 L 846.3636363636364,969.7916666666666" fill="none" stroke="#000000" stroke-width="1.8216969696969696"/>
	<path d="M 846.3636363636364,971.4709595959596 L 856.439393939394,971.4709595959596" fill="none" stroke="#000000" stroke-width="1.8216969696969696"/>
	<path d="M 856.439393939394,973.1502525252525 L 846.3636363636364,973.1502525252525" fill="none" stroke="#000000" stroke-width="1.8216969696969696"/>
	<path d="M 846.3636363636364,974.8295454545455 L 856.439393939394,974.8295454545455" fill="none" stroke="#000000" stroke-width="1.8216969696969696"/>
	<path d="M 856.439393939394,976.5088383838385 L 846.3636363636364,976.5088383838385" fill="none" stroke="#000000" stroke-width="1.8216969696969696"/>
	<path d="M 967.2727272727273,968.532196969697 L 977.3484848484849,968.532196969697" fill="none" stroke="#000000" stroke-width="1.8216969696969696"/>
	<path d="M 977.3484848484849,971.0511363636364 L 967.2727272727273,971.0511363636364" fill="none" stroke="#000000" stroke-width="1.8216969696969696"/>
	<path d="M 967.2727272727273,973.5700757575758 L 977.3484848484849,973.5700757575758" fill="none" stroke="#000000" stroke-width="1.8216969696969696"/>
	<path d="M 977.3484848484849,976.0890151515151 L 967.2727272727273,976.0890151515151" fill="none" stroke="#000000" stroke-width="1.8216969696969696"/>
	<path d="M 1088.1818181818182,968.532196969697 L 1098.2575757575758,968.532196969697" fill="none" stroke="#000000" stroke-width="1.8216969696969696"/>
	<path d="M 1098.2575757575758,971.0511363636364 L 1088.1818181818182,971.0511363636364" fill="none" stroke="#000000" stroke-width="1.8216969696969696"/>
	<path d="M 1088.1818181818182,973.5700757575758 L 1098.2575757575758,973.5700757575758" fill="none" stroke="#000000" stroke-width="1.8216969696969696"/>
	<path d="M 1098.2575757575758,976.0890151515151 L 1088.1818181818182,976.0890151515151" fill="none" stroke="#000000" stroke-width="1.8216969696969696"/>
	<path d="M 1209.090909090909,968.532196969697 L 1219.1666666666665,968.532196969697" fill="none" stroke="#000000" stroke-width="1.8216969696969696"/>
	<path d="M 1219.1666666666665,971.0511363636364 L 1209.090909090909,971.0511363636364" fill="none" stroke="#000000" stroke-width="1.8216969696969696"/>
	<path d="M 1209.090909090909,973.5700757575758 L 1219.1666666666665,973.5700757575758" fill="none" stroke="#000000" stroke-width="1.8216969696969696"/>
	<path d="M 1219.1666666666665,976.0890151515151 L 1209.090909090909,976.0890151515151" fill="none" stroke="#000000" stroke-width="1.8216969696969696"/>
	<path d="M 0.0,1089.441287878788 L 10.075757575757576,1089.441287878788" fill="none" stroke="#000000" stroke-width="1.8216969696969696"/>
	<path d="M 10.075757575757576,1091.9602272727275 L 0.0,1091.9602272727275" fill="none" stroke="#000000" stroke-width="1.8216969696969696"/>
	<path d="M 0.0,1094.479166666667 L 10.075757575757576,1094.479166666667" fill="none" stroke="#000000" stroke-width="1.8216969696969696"/>
	<path d="M 10.075757575757576,1096.9981060606065 L 0.0,1096.9981060606065" fill="none" stroke="#000000" stroke-width="1.8216969696969696"/>
	<path d="M 120.9090909090909,1089.441287878788 L 130.98484848484847,1089.441287878788" fill="none" stroke="#000000" stroke-width="1.8216969696969696"/>
	<path d="M 130.98484848484847,1091.9602272727275 L 120.90909090909089,1091.9602272727275" fill="none" stroke="#000000" stroke-width="1.8216969696969696"/>
	<path d="M 120.90909090909089,1094.479166666667 L 130.98484848484847,1094.479166666667" fill="none" stroke="#000000" stroke-width="1.8216969696969696"/>
	<path d="M 130.98484848484847,1096.9981060606065 L 120.90909090909089,1096.9981060606065" fill="none" stroke="#000000" stroke-width="1.8216969696969696"/>
	<path d="M 241.8181818181818,1089.441287878788 L 251.89393939393938,1089.441287878788" fill="none" stroke="#000000" stroke-width="1.8216969696969696"/>
	<path d="M 251.89393939393938,1091.9602272727275 L 241.8181818181818,1091.9602272727275" fill="none" stroke="#000000" stroke-width="1.8216969696969696"/>
	<path d="M 241.8181818181818,1094.479166666667 L 251.89393939393938,1094.479166666667" fill="none" stroke="#000000" stroke-width="1.8216969696969696"/>
	<path d="M 251.89393939393938,1096.9981060606065 L 241.8181818181818,1096.9981060606065" fill="none" stroke="#000000" stroke-width="1.8216969696969696"/>
	<path d="M 362.72727272727275,1089.441287878788 L 372.8030303030303,1089.441287878788" fill="none" stroke="#000000" stroke-width="1.8216969696969696"/>
	<path d="M 372.8030303030303,1091.9602272727275 L 362.72727272727275,1091.9602272727275" fill="none" stroke="#000000" stroke-width="1.8216969696969696"/>
	<path d="M 362.72727272727275,1094.479166666667 L 372.8030303030303,1094.479166666667" fill="none" stroke="#000000" stroke-width="1.8216969696969696"/>
	<path d="M 372.8030303030303,1096.9981060606065 L 362.72727272727275,1096.9981060606065" fill="none" stroke="#000000" stroke-width="1.8216969696969696"/>
	<path d="M 483.6363636363636,1089.0214646464647 L 493.7121212121212,1089.0214646464647" fill="none" stroke="#000000" stroke-width="1.8216969696969696"/>
	<path d="M 493.7121212121212,1090.7007575757575 L 483.6363636363636,1090.7007575757575" fill="none" stroke="#000000" stroke-width="1.8216969696969696"/>
	<path d="M 483.6363636363636,1092.3800505050503 L 493.7121212121212,1092.3800505050503" fill="none" stroke="#000000" stroke-width="1.8216969696969696"/>
	<path d="M 493.7121212121212,1094.0593434343432 L 483.6363636363636,1094.0593434343432" fill="none" stroke="#000000" stroke-width="1.8216969696969696"/>
	<path d="M 483.6363636363636,1095.738636363636 L 493.7121212121212,1095.738636363636" fill="none" stroke="#000000" stroke-width="1.8216969696969696"/>
	<path d="M 493.7121212121212,1097.4179292929289 L 483.6363636363636,1097.4179292929289" fill="none" stroke="#000000" stroke-width="1.8216969696969696"/>
	<path d="M 604.5454545454545,1089.0214646464647 L 614.6212121212121,1089.0214646464647" fill="none" stroke="#000000" stroke-width="1.8216969696969696"/>
	<path d="M 614.6212121212121,1090.7007575757575 L 604.5454545454545,1090.7007575757575" fill="none" stroke="#000000" stroke-width="1.8216969696969696"/>
	<path d="M 604.5454545454545,1092.3800505050503 L 614.6212121212121,1092.3800505050503" fill="none" stroke="#000000" stroke-width="1.8216969696969696"/>
	<path d="M 614.6212121212121,1094.0593434343432 L 604.5454545454545,1094.0593434343432" fill="none" stroke="#000000" stroke-width="1.8216969696969696"/>
	<path d="M 604.5454545454545,1095.738636363636 L 614.6212121212121,1095.738636363636" fill="none" stroke="#000000" stroke-width="1.8216969696969696"/>
	<path d="M 614.6212121212121,1097.4179292929289 L 604.5454545454545,1097.4179292929289" fill="none" stroke="#000000" stroke-width="1.8216969696969696"/>
	<path d="M 725.4545454545455,1089.0214646464647 L 735.5303030303031,1089.0214646464647" fill="none" stroke="#000000" stroke-width="1.8216969696969696"/>
	<path d="M 735.5303030303031,1090.7007575757575 L 725.4545454545455,1090.7007575757575" fill="none" stroke="#000000" stroke-width="1.8216969696969696"/>
	<path d="M 725.4545454545455,1092.3800505050503 L 735.5303030303031,1092.3800505050503" fill="none" stroke="#000000" stroke-width="1.8216969696969696"/>
	<path d="M 735.5303030303031,1094.0593434343432 L 725.4545454545455,1094.0593434343432" fill="none" stroke="#000000" stroke-width="1.8216969696969696"/>
	<path d="M 725.4545454545455,1095.738636363636 L 735.5303030303031,1095.738636363636" fill="none" stroke="#000000" stroke-width="1.8216969696969696"/>
	<path d="M 735.5303030303031,1097.4179292929289 L 725.4545454545455,1097.4179292929289" fill="none" stroke="#000000" stroke-width="1.8216969696969696"/>
	<path d="M 846.3636363636364,1089.0214646464647 L 856.439393939394,1089.0214646464647" fill="none" stroke="#000000" stroke-width="1.8216969696969696"/>
	<path d="M 856.439393939394,1090.7007575757575 L 846.3636363636364,1090.7007575757575" fill="none" stroke="#000000" stroke-width="1.8216969696969696"/>
	<path d="M 846.3636363636364,1092.3800505050503 L 856.439393939394,1092.3800505050503" fill="none" stroke="#000000" stroke-width="1.8216969696969696"/>
	<path d="M 856.439393939394,1094.0593434343432 L 846.3636363636364,1094.0593434343432" fill="none" stroke="#000000" stroke-width="1.8216969696969696"/>
	<path d="M 846.3636363636364,1095.738636363636 L 856.439393939394,1095.738636363636" fill="none" stroke="#000000" stroke-width="1.8216969696969696"/>
	<path d="M 856.439393939394,1097.4179292929289 L 846.3636363636364,1097.4179292929289" fill="none" stroke="#000000" stroke-width="1.8216969696969696"/>
	<path d="M 967.2727272727273,1089.441287878788 L 977.3484848484849,1089.441287878788" fill="none" stroke="#000000" stroke-width="1.8216969696969696"/>
	<path d="M 977.3484848484849,1091.9602272727275 L 967.2727272727273,1091.9602272727275" fill="none" stroke="#000000" stroke-width="1.8216969696969696"/>
	<path d="M 967.2727272727273,1094.479166666667 L 977.3484848484849,1094.479166666667" fill="none" stroke="#000000" stroke-width="1.8216969696969696"/>
	<path d="M 977.3484848484849,1096.9981060606065 L 967.2727272727273,1096.9981060606065" fill="none" stroke="#000000" stroke-width="1.8216969696969696"/>
	<path d="M 1088.1818181818182,1089.441287878788 L 1098.2575757575758,1089.441287878788" fill="none" stroke="#000000" stroke-width="1.8216969696969696"/>
	<path d="M 1098.2575757575758,1091.9602272727275 L 1088.1818181818182,1091.9602272727275" fill="none" stroke="#000000" stroke-width="1.8216969696969696"/>
	<path d="M 1088.1818181818182,1094.479166666667 L 1098.2575757575758,1094.479166666667" fill="none" stroke="#000000" stroke-width="1.8216969696969696"/>
	<path d="M 1098.2575757575758,1096.9981060606065 L 1088.1818181818182,1096.9981060606065" fill="none" stroke="#000000" stroke-width="1.8216969696969696"/>
	<path d="M 1209.090909090909,1089.441287878788 L 1219.1666666666665,1089.441287878788" fill="none" stroke="#000000" stroke-width="1.8216969696969696"/>
	<path d="M 1219.1666666666665,1091.9602272727275 L 1209.090909090909,1091.9602272727275" fill="none" stroke="#000000" stroke-width="1.8216969696969696"/>
	<path d="M 1209.090909090909,1094.479166666667 L 1219.1666666666665,1094.479166666667" fill="none" stroke="#000000" stroke-width="1.8216969696969696"/>
	<path d="M 1219.1666666666665,1096.9981060606065 L 1209.090909090909,1096.9981060606065" fill="none" stroke="#000000" stroke-width="1.8216969696969696"/>
	<path d="M 1330.0,1089.441287878788 L 1340.0757575757575,1089.441287878788" fill="none" stroke="#000000" stroke-width="1.8216969696969696"/>
	<path d="M 1340.0757575757575,1091.9602272727275 L 1330.0,1091.9602272727275" fill="none" stroke="#000000" stroke-width="1.8216969696969696"/>
	<path d="M 1330.0,1094.479166666667 L 1340.0757575757575,1094.479166666667" fill="none" stroke="#000000" stroke-width="1.8216969696969696"/>
	<path d="M 1340.0757575757575,1096.9981060606065 L 1330.0,1096.9981060606065" fill="none" stroke="#000000" stroke-width="1.8216969696969696"/>
	<path d="M 0.0,1211.6098484848485 L 10.075757575757576,1211.6098484848485" fill="none" stroke="#000000" stroke-width="1.8216969696969696"/>
	<path d="M 10.075757575757576,1216.6477272727273 L 0.0,1216.6477272727273" fill="none" stroke="#000000" stroke-width="1.8216969696969696"/>
	<path d="M 120.9090909090909,1211.6098484848485 L 130.98484848484847,1211.6098484848485" fill="none" stroke="#000000" stroke-width="1.8216969696969696"/>
	<path d="M 130.98484848484847,1216.6477272727273 L 120.90909090909089,1216.6477272727273" fill="none" stroke="#000000" stroke-width="1.8216969696969696"/>
	<path d="M 241.8181818181818,1210.3503787878788 L 251.89393939393938,1210.3503787878788" fill="none" stroke="#000000" stroke-width="1.8216969696969696"/>
	<path d="M 251.89393939393938,1212.8693181818182 L 241.8181818181818,1212.8693181818182" fill="none" stroke="#000000" stroke-width="1.8216969696969696"/>
	<path d="M 241.8181818181818,1215.3882575757577 L 251.89393939393938,1215.3882575757577" fill="none" stroke="#000000" stroke-width="1.8216969696969696"/>
	<path d="M 251.89393939393938,1217.9071969696972 L 241.8181818181818,1217.9071969696972" fill="none" stroke="#000000" stroke-width="1.8216969696969696"/>
	<path d="M 362.72727272727275,1209.9305555555554 L 372.8030303030303,1209.9305555555554" fill="none" stroke="#000000" stroke-width="1.8216969696969696"/>
	<path d="M 372.8030303030303,1211.6098484848483 L 362.72727272727275,1211.6098484848483" fill="none" stroke="#000000" stroke-width="1.8216969696969696"/>
	<path d="M 362.72727272727275,1213.289141414141 L 372.8030303030303,1213.289141414141" fill="none" stroke="#000000" stroke-width="1.8216969696969696"/>
	<path d="M 372.8030303030303,1214.968434343434 L 362.72727272727275,1214.968434343434" fill="none" stroke="#000000" stroke-width="1.8216969696969696"/>
	<path d="M 362.72727272727275,1216.6477272727268 L 372.8030303030303,1216.6477272727268" fill="none" stroke="#000000" stroke-width="1.8216969696969696"/>
	<path d="M 372.8030303030303,1218.3270202020196 L 362.72727272727275,1218.3270202020196" fill="none" stroke="#000000" stroke-width="1.8216969696969696"/>
	<path d="M 604.5454545454545,1209.9305555555554 L 614.6212121212121,1209.9305555555554" fill="none" stroke="#000000" stroke-width="1.8216969696969696"/>
	<path d="M 614.6212121212121,1211.6098484848483 L 604.5454545454545,1211.6098484848483" fill="none" stroke="#000000" stroke-width="1.8216969696969696"/>
	<path d="M 604.5454545454545,1213.289141414141 L 614.6212121212121,1213.289141414141" fill="none" stroke="#000000" stroke-width="1.8216969696969696"/>
	<path d="M 614.6212121212121,1214.968434343434 L 604.5454545454545,1214.968434343434" fill="none" stroke="#000000" stroke-width="1.8216969696969696"/>
	<path d="M 604.5454545454545,1216.6477272727268 L 614.6212121212121,1216.6477272727268" fill="none" stroke="#000000" stroke-width="1.8216969696969696"/>
	<path d="M 614.6212121212121,1218.3270202020196 L 604.5454545454545,1218.3270202020196" fill="none" stroke="#000000" stroke-width="1.8216969696969696"/>
	<path d="M 725.4545454545455,1209.9305555555554 L 735.5303030303031,1209.9305555555554" fill="none" stroke="#000000" stroke-width="1.8216969696969696"/>
	<path d="M 735.5303030303031,1211.6098484848483 L 725.4545454545455,1211.6098484848483" fill="none" stroke="#000000" stroke-width="1.8216969696969696"/>
	<path d="M 725.4545454545455,1213.289141414141 L 735.5303030303031,1213.289141414141" fill="none" stroke="#000000" stroke-width="1.8216969696969696"/>
	<path d="M 735.5303030303031,1214.968434343434 L 725.4545454545455,1214.968434343434" fill="none" stroke="#000000" stroke-width="1.8216969696969696"/>
	<path d="M 725.4545454545455,1216.6477272727268 L 735.5303030303031,1216.6477272727268" fill="none" stroke="#000000" stroke-width="1.8216969696969696"/>
	<path d="M 735.5303030303031,1218.3270202020196 L 725.4545454545455,1218.3270202020196" fill="none" stroke="#000000" stroke-width="1.8216969696969696"/>
	<path d="M 967.2727272727273,1209.9305555555554 L 977.3484848484849,1209.9305555555554" fill="none" stroke="#000000" stroke-width="1.8216969696969696"/>
	<path d="M 977.3484848484849,1211.6098484848483 L 967.2727272727273,1211.6098484848483" fill="none" stroke="#000000" stroke-width="1.8216969696969696"/>
	<path d="M 967.2727272727273,1213.289141414141 L 977.3484848484849,1213.289141414141" fill="none" stroke="#000000" stroke-width="1.8216969696969696"/>
	<path d="M 977.3484848484849,1214.968434343434 L 967.2727272727273,1214.968434343434" fill="none" stroke="#000000" stroke-width="1.8216969696969696"/>
	<path d="M 967.2727272727273,1216.6477272727268 L 977.3484848484849,1216.6477272727268" fill="none" stroke="#000000" stroke-width="1.8216969696969696"/>
	<path d="M 977.3484848484849,1218.3270202020196 L 967.2727272727273,1218.3270202020196" fill="none" stroke="#000000" stroke-width="1.8216969696969696"/>
	<path d="M 1088.1818181818182,1210.3503787878788 L 1098.2575757575758,1210.3503787878788" fill="none" stroke="#000000" stroke-width="1.8216969696969696"/>
	<path d="M 1098.2575757575758,1212.8693181818182 L 1088.1818181818182,1212.8693181818182" fill="none" stroke="#000000" stroke-width="1.8216969696969696"/>
	<path d="M 1088.1818181818182,1215.3882575757577 L 1098.2575757575758,1215.3882575757577" fill="none" stroke="#000000" stroke-width="1.8216969696969696"/>
	<path d="M 1098.2575757575758,1217.9071969696972 L 1088.1818181818182,1217.9071969696972" fill="none" stroke="#000000" stroke-width="1.8216969696969696"/>
	<path d="M 1209.090909090909,1211.6098484848485 L 1219.1666666666665,1211.6098484848485" fill="none" stroke="#000000" stroke-width="1.8216969696969696"/>
	<path d="M 1219.1666666666665,1216.6477272727273 L 1209.090909090909,1216.6477272727273" fill="none" stroke="#000000" stroke-width="1.8216969696969696"/>
	<path d="M 1330.0,1211.6098484848485 L 1340.0757575757575,1211.6098484848485" fill="none" stroke="#000000" stroke-width="1.8216969696969696"/>
	<path d="M 1340.0757575757575,1216.6477272727273 L 1330.0,1216.6477272727273" fill="none" stroke="#000000" stroke-width="1.8216969696969696"/>
	<path d="M 0.0,1332.5189393939395 L 10.075757575757576,1332.5189393939395" fill="none" stroke="#000000" stroke-width="1.8216969696969696"/>
	<path d="M 10.075757575757576,1337.5568181818182 L 0.0,1337.5568181818182" fill="none" stroke="#000000" stroke-width="1.8216969696969696"/>
	<path d="M 120.9090909090909,1332.5189393939395 L 130.98484848484847,1332.5189393939395" fill="none" stroke="#000000" stroke-width="1.8216969696969696"/>
	<path d="M 130.98484848484847,1337.5568181818182 L 120.90909090909089,1337.5568181818182" fill="none" stroke="#000000" stroke-width="1.8216969696969696"/>
	<path d="M 241.8181818181818,1332.5189393939395 L 251.89393939393938,1332.5189393939395" fill="none" stroke="#000000" stroke-width="1.8216969696969696"/>
	<path d="M 251.89393939393938,1337.5568181818182 L 241.8181818181818,1337.5568181818182" fill="none" stroke="#000000" stroke-width="1.8216969696969696"/>
	<path d="M 362.72727272727275,1330.8396464646464 L 372.8030303030303,1330.8396464646464" fill="none" stroke="#000000" stroke-width="1.8216969696969696"/>
	<path d="M 372.8030303030303,1332.5189393939393 L 362.72727272727275,1332.5189393939393" fill="none" stroke="#000000" stroke-width="1.8216969696969696"/>
	<path d="M 362.72727272727275,1334.198232323232 L 372.8030303030303,1334.198232323232" fill="none" stroke="#000000" stroke-width="1.8216969696969696"/>
	<path d="M 372.8030303030303,1335.877525252525 L 362.72727272727275,1335.877525252525" fill="none" stroke="#000000" stroke-width="1.8216969696969696"/>
	<path d="M 362.72727272727275,1337.5568181818178 L 372.8030303030303,1337.5568181818178" fill="none" stroke="#000000" stroke-width="1.8216969696969696"/>
	<path d="M 372.8030303030303,1339.2361111111106 L 362.72727272727275,1339.2361111111106" fill="none" stroke="#000000" stroke-width="1.8216969696969696"/>
	<path d="M 483.6363636363636,1330.8396464646464 L 493.7121212121212,1330.8396464646464" fill="none" stroke="#000000" stroke-width="1.8216969696969696"/>
	<path d="M 493.7121212121212,1332.5189393939393 L 483.6363636363636,1332.5189393939393" fill="none" stroke="#000000" stroke-width="1.8216969696969696"/>
	<path d="M 483.6363636363636,1334.198232323232 L 493.7121212121212,1334.198232323232" fill="none" stroke="#000000" stroke-width="1.8216969696969696"/>
	<path d="M 493.7121212121212,1335.877525252525 L 483.6363636363636,1335.877525252525" fill="none" stroke="#000000" stroke-width="1.8216969696969696"/>
	<path d="M 483.6363636363636,1337.5568181818178 L 493.7121212121212,1337.5568181818178" fill="none" stroke="#000000" stroke-width="1.8216969696969696"/>
	<path d="M 493.7121212121212,1339.2361111111106 L 483.6363636363636,1339.2361111111106" fill="none" stroke="#000000" stroke-width="1.8216969696969696"/>
	<path d="M 604.5454545454545,1330.8396464646464 L 614.6212121212121,1330.8396464646464" fill="none" stroke="#000000" stroke-width="1.8216969696969696"/>
	<path d="M 614.6212121212121,1332.5189393939393 L 604.5454545454545,1332.5189393939393" fill="none" stroke="#000000" stroke-width="1.8216969696969696"/>
	<path d="M 604.5454545454545,1334.198232323232 L 614.6212121212121,1334.198232323232" fill="none" stroke="#000000" stroke-width="1.8216969696969696"/>
	<path d="M 614.6212121212121,1335.877525252525 L 604.5454545454545,1335.877525252525" fill="none" stroke="#000000" stroke-width="1.8216969696969696"/>
	<path d="M 604.5454545454545,1337.5568181818178 L 614.6212121212121,1337.5568181818178" fill="none" stroke="#000000" stroke-width="1.8216969696969696"/>
	<path d="M 614.6212121212121,1339.2361111111106 L 604.5454545454545,1339.2361111111106" fill="none" stroke="#000000" stroke-width="1.8216969696969696"/>
	<path d="M 725.4545454545455,1330.8396464646464 L 735.5303030303031,1330.8396464646464" fill="none" stroke="#000000" stroke-width="1.8216969696969696"/>
	<path d="M 735.5303030303031,1332.5189393939393 L 725.4545454545455,1332.5189393939393" fill="none" stroke="#000000" stroke-width="1.8216969696969696"/>
	<path d="M 725.4545454545455,1334.198232323232 L 735.5303030303031,1334.198232323232" fill="none" stroke="#000000" stroke-width="1.8216969696969696"/>
	<path d="M 735.5303030303031,1335.877525252525 L 725.4545454545455,1335.877525252525" fill="none" stroke="#000000" stroke-width="1.8216969696969696"/>
	<path d="M 725.4545454545455,1337.5568181818178 L 735.5303030303031,1337.5568181818178" fill="none" stroke="#000000" stroke-width="1.8216969696969696"/>
	<path d="M 735.5303030303031,1339.2361111111106 L 725.4545454545455,1339.2361111111106" fill="none" stroke="#000000" stroke-width="1.8216969696969696"/>
	<path d="M 846.3636363636364,1330.8396464646464 L 856.439393939394,1330.8396464646464" fill="none" stroke="#000000" stroke-width="1.8216969696969696"/>
	<path d="M 856.439393939394,1332.5189393939393 L 846.3636363636364,1332.5189393939393" fill="none" stroke="#000000" stroke-width="1.8216969696969696"/>
	<path d="M 846.3636363636364,1334.198232323232 L 856.439393939394,1334.198232323232" fill="none" stroke="#000000" stroke-width="1.8216969696969696"/>
	<path d="M 856.439393939394,1335.877525252525 L 846.3636363636364,1335.877525252525" fill="none" stroke="#000000" stroke-width="1.8216969696969696"/>
	<path d="M 846.3636363636364,1337.5568181818178 L 856.439393939394,1337.5568181818178" fill="none" stroke="#000000" stroke-width="1.8216969696969696"/>
	<path d="M 856.439393939394,1339.2361111111106 L 846.3636363636364,1339.2361111111106" fill="none" stroke="#000000" stroke-width="1.8216969696969696"/>
	<path d="M 967.2727272727273,1330.8396464646464 L 977.3484848484849,1330.8396464646464" fill="none" stroke="#000000" stroke-width="1.8216969696969696"/>
	<path d="M 977.3484848484849,1332.5189393939393 L 967.2727272727273,1332.5189393939393" fill="none" stroke="#000000" stroke-width="1.8216969696969696"/>
	<path d="M 967.2727272727273,1334.198232323232 L 977.3484848484849,1334.198232323232" fill="none" stroke="#000000" stroke-width="1.8216969696969696"/>
	<path d="M 977.3484848484849,1335.877525252525 L 967.2727272727273,1335.877525252525" fill="none" stroke="#000000" stroke-width="1.8216969696969696"/>
	<path d="M 967.2727272727273,1337.5568181818178 L 977.3484848484849,1337.5568181818178" fill="none" stroke="#000000" stroke-width="1.8216969696969696"/>
	<path d="M 977.3484848484849,1339.2361111111106 L 967.2727272727273,1339.2361111111106" fill="none" stroke="#000000" stroke-width="1.8216969696969696"/>
	<path d="M 1088.1818181818182,1332.5189393939395 L 1098.2575757575758,1332.5189393939395" fill="none" stroke="#000000" stroke-width="1.8216969696969696"/>
	<path d="M 1098.2575757575758,1337.5568181818182 L 1088.1818181818182,1337.5568181818182" fill="none" stroke="#000000" stroke-width="1.8216969696969696"/>
	<path d="M 1209.090909090909,1332.5189393939395 L 1219.1666666666665,1332.5189393939395" fill="none" stroke="#000000" stroke-width="1.8216969696969696"/>
	<path d="M 1219.1666666666665,1337.5568181818182 L 1209.090909090909,1337.5568181818182" fill="none" stroke="#000000" stroke-width="1.8216969696969696"/>
	<path d="M 1330.0,1332.5189393939395 L 1340.0757575757575,1332.5189393939395" fill="none" stroke="#000000" stroke-width="1.8216969696969696"/>
	<path d="M 1340.0757575757575,1337.5568181818182 L 1330.0,1337.5568181818182" fill="none" stroke="#000000" stroke-width="1.8216969696969696"/>
	<path d="M 0.0,1453.4280303030305 L 10.075757575757576,1453.4280303030305" fill="none" stroke="#000000" stroke-width="1.8216969696969696"/>
	<path d="M 10.075757575757576,1458.4659090909092 L 0.0,1458.4659090909092" fill="none" stroke="#000000" stroke-width="1.8216969696969696"/>
	<path d="M 120.9090909090909,1453.4280303030305 L 130.98484848484847,1453.4280303030305" fill="none" stroke="#000000" stroke-width="1.8216969696969696"/>
	<path d="M 130.98484848484847,1458.4659090909092 L 120.90909090909089,1458.4659090909092" fill="none" stroke="#000000" stroke-width="1.8216969696969696"/>
	<path d="M 362.72727272727275,1451.7487373737374 L 372.8030303030303,1451.7487373737374" fill="none" stroke="#000000" stroke-width="1.8216969696969696"/>
	<path d="M 372.8030303030303,1453.4280303030303 L 362.72727272727275,1453.4280303030303" fill="none" stroke="#000000" stroke-width="1.8216969696969696"/>
	<path d="M 362.72727272727275,1455.107323232323 L 372.8030303030303,1455.107323232323" fill="none" stroke="#000000" stroke-width="1.8216969696969696"/>
	<path d="M 372.8030303030303,1456.786616161616 L 362.72727272727275,1456.786616161616" fill="none" stroke="#000000" stroke-width="1.8216969696969696"/>
	<path d="M 362.72727272727275,1458.4659090909088 L 372.8030303030303,1458.4659090909088" fill="none" stroke="#000000" stroke-width="1.8216969696969696"/>
	<path d="M 372.8030303030303,1460.1452020202016 L 362.72727272727275,1460.1452020202016" fill="none" stroke="#000000" stroke-width="1.8216969696969696"/>
	<path d="M 483.6363636363636,1451.7487373737374 L 493.7121212121212,1451.7487373737374" fill="none" stroke="#000000" stroke-width="1.8216969696969696"/>
	<path d="M 493.7121212121212,1453.4280303030303 L 483.6363636363636,1453.4280303030303" fill="none" stroke="#000000" stroke-width="1.8216969696969696"/>
	<path d="M 483.6363636363636,1455.107323232323 L 493.7121212121212,1455.107323232323" fill="none" stroke="#000000" stroke-width="1.8216969696969696"/>
	<path d="M 493.7121212121212,1456.786616161616 L 483.6363636363636,1456.786616161616" fill="none" stroke="#000000" stroke-width="1.8216969696969696"/>
	<path d="M 483.6363636363636,1458.4659090909088 L 493.7121212121212,1458.4659090909088" fill="none" stroke="#000000" stroke-width="1.8216969696969696"/>
	<path d="M 493.7121212121212,1460.1452020202016 L 483.6363636363636,1460.1452020202016" fill="none" stroke="#000000" stroke-width="1.8216969696969696"/>
	<path d="M 604.5454545454545,1451.7487373737374 L 614.6212121212121,1451.7487373737374" fill="none" stroke="#000000" stroke-width="1.8216969696969696"/>
	<path d="M 614.6212121212121,1453.4280303030303 L 604.5454545454545,1453.4280303030303" fill="none" stroke="#000000" stroke-width="1.8216969696969696"/>
	<path d="M 604.5454545454545,1455.107323232323 L 614.6212121212121,1455.107323232323" fill="none" stroke="#000000" stroke-width="1.8216969696969696"/>
	<path d="M 614.6212121212121,1456.786616161616 L 604.5454545454545,1456.786616161616" fill="none" stroke="#000000" stroke-width="1.8216969696969696"/>
	<path d="M 604.5454545454545,1458.4659090909088 L 614.6212121212121,1458.4659090909088" fill="none" stroke="#000000" stroke-width="1.8216969696969696"/>
	<path d="M 614.6212121212121,1460.1452020202016 L 604.5454545454545,1460.1452020202016" fill="none" stroke="#000000" stroke-width="1.8216969696969696"/>
	<path d="M 725.4545454545455,1451.7487373737374 L 735.5303030303031,1451.7487373737374" fill="none" stroke="#000000" stroke-width="1.8216969696969696"/>
	<path d="M 735.5303030303031,1453.4280303030303 L 725.4545454545455,1453.4280303030303" fill="none" stroke="#000000" stroke-width="1.8216969696969696"/>
	<path d="M 725.4545454545455,1455.107323232323 L 735.5303030303031,1455.107323232323" fill="none" stroke="#000000" stroke-width="1.8216969696969696"/>
	<path d="M 735.5303030303031,1456.786616161616 L 725.4545454545455,1456.786616161616" fill="none" stroke="#000000" stroke-width="1.8216969696969696"/>
	<path d="M 725.4545454545455,1458.4659090909088 L 735.5303030303031,1458.4659090909088" fill="none" stroke="#000000" stroke-width="1.8216969696969696"/>
	<path d="M 735.5303030303031,1460.1452020202016 L 725.4545454545455,1460.1452020202016" fill="none" stroke="#000000" stroke-width="1.8216969696969696"/>
	<path d="M 846.3636363636364,1451.7487373737374 L 856.439393939394,1451.7487373737374" fill="none" stroke="#000000" stroke-width="1.8216969696969696"/>
	<path d="M 856.439393939394,1453.4280303030303 L 846.3636363636364,1453.4280303030303" fill="none" stroke="#000000" stroke-width="1.8216969696969696"/>
	<path d="M 846.3636363636364,1455.107323232323 L 856.439393939394,1455.107323232323" fill="none" stroke="#000000" stroke-width="1.8216969696969696"/>
	<path d="M 856.439393939394,1456.786616161616 L 846.3636363636364,1456.786616161616" fill="none" stroke="#000000" stroke-width="1.8216969696969696"/>
	<path d="M 846.3636363636364,1458.4659090909088 L 856.439393939394,1458.4659090909088" fill="none" stroke="#000000" stroke-width="1.8216969696969696"/>
	<path d="M 856.439393939394,1460.1452020202016 L 846.3636363636364,1460.1452020202016" fill="none" stroke="#000000" stroke-width="1.8216969696969696"/>
	<path d="M 967.2727272727273,1451.7487373737374 L 977.3484848484849,1451.7487373737374" fill="none" stroke="#000000" stroke-width="1.8216969696969696"/>
	<path d="M 977.3484848484849,1453.4280303030303 L 967.2727272727273,1453.4280303030303" fill="none" stroke="#000000" stroke-width="1.8216969696969696"/>
	<path d="M 967.2727272727273,1455.107323232323 L 977.3484848484849,1455.107323232323" fill="none" stroke="#000000" stroke-width="1.8216969696969696"/>
	<path d="M 977.3484848484849,1456.786616161616 L 967.2727272727273,1456.786616161616" fill="none" stroke="#000000" stroke-width="1.8216969696969696"/>
	<path d="M 967.2727272727273,1458.4659090909088 L 977.3484848484849,1458.4659090909088" fill="none" stroke="#000000" stroke-width="1.8216969696969696"/>
	<path d="M 977.3484848484849,1460.1452020202016 L 967.2727272727273,1460.1452020202016" fill="none" stroke="#000000" stroke-width="1.8216969696969696"/>
	<path d="M 1088.1818181818182,1451.7487373737374 L 1098.2575757575758,1451.7487373737374" fill="none" stroke="#000000" stroke-width="1.8216969696969696"/>
	<path d="M 1098.2575757575758,1453.4280303030303 L 1088.1818181818182,1453.4280303030303" fill="none" stroke="#000000" stroke-width="1.8216969696969696"/>
	<path d="M 1088.1818181818182,1455.107323232323 L 1098.2575757575758,1455.107323232323" fill="none" stroke="#000000" stroke-width="1.8216969696969696"/>
	<path d="M 1098.2575757575758,1456.786616161616 L 1088.1818181818182,1456.786616161616" fill="none" stroke="#000000" stroke-width="1.8216969696969696"/>
	<path d="M 1088.1818181818182,1458.4659090909088 L 1098.2575757575758,1458.4659090909088" fill="none" stroke="#000000" stroke-width="1.8216969696969696"/>
	<path d="M 1098.2575757575758,1460.1452020202016 L 1088.1818181818182,1460.1452020202016" fill="none" stroke="#000000" stroke-width="1.8216969696969696"/>
	<path d="M 1209.090909090909,1453.4280303030305 L 1219.1666666666665,1453.4280303030305" fill="none" stroke="#000000" stroke-width="1.8216969696969696"/>
	<path d="M 1219.1666666666665,1458.4659090909092 L 1209.090909090909,1458.4659090909092" fill="none" stroke="#000000" stroke-width="1.8216969696969696"/>
	<path d="M 1330.0,1453.4280303030305 L 1340.0757575757575,1453.4280303030305" fill="none" stroke="#000000" stroke-width="1.8216969696969696"/>
	<path d="M 1340.0757575757575,1458.4659090909092 L 1330.0,1458.4659090909092" fill="none" stroke="#000000" stroke-width="1.8216969696969696"/>
	<path d="M 362.72727272727275,1572.6578282828282 L 372.8030303030303,1572.6578282828282" fill="none" stroke="#000000" stroke-width="1.8216969696969696"/>
	<path d="M 372.8030303030303,1574.337121212121 L 362.72727272727275,1574.337121212121" fill="none" stroke="#000000" stroke-width="1.8216969696969696"/>
	<path d="M 362.72727272727275,1576.0164141414139 L 372.8030303030303,1576.0164141414139" fill="none" stroke="#000000" stroke-width="1.8216969696969696"/>
	<path d="M 372.8030303030303,1577.6957070707067 L 362.72727272727275,1577.6957070707067" fill="none" stroke="#000000" stroke-width="1.8216969696969696"/>
	<path d="M 362.72727272727275,1579.3749999999995 L 372.8030303030303,1579.3749999999995" fill="none" stroke="#000000" stroke-width="1.8216969696969696"/>
	<path d="M 372.8030303030303,1581.0542929292924 L 362.72727272727275,1581.0542929292924" fill="none" stroke="#000000" stroke-width="1.8216969696969696"/>
	<path d="M 483.6363636363636,1572.6578282828282 L 493.7121212121212,1572.6578282828282" fill="none" stroke="#000000" stroke-width="1.8216969696969696"/>
	<path d="M 493.7121212121212,1574.337121212121 L 483.6363636363636,1574.337121212121" fill="none" stroke="#000000" stroke-width="1.8216969696969696"/>
	<path d="M 483.6363636363636,1576.0164141414139 L 493.7121212121212,1576.0164141414139" fill="none" stroke="#000000" stroke-width="1.8216969696969696"/>
	<path d="M 493.7121212121212,1577.6957070707067 L 483.6363636363636,1577.6957070707067" fill="none" stroke="#000000" stroke-width="1.8216969696969696"/>
	<path d="M 483.6363636363636,1579.3749999999995 L 493.7121212121212,1579.3749999999995" fill="none" stroke="#000000" stroke-width="1.8216969696969696"/>
	<path d="M 493.7121212121212,1581.0542929292924 L 483.6363636363636,1581.0542929292924" fill="none" stroke="#000000" stroke-width="1.8216969696969696"/>
	<path d="M 846.3636363636364,1572.6578282828282 L 856.439393939394,1572.6578282828282" fill="none" stroke="#000000" stroke-width="1.8216969696969696"/>
	<path d="M 856.439393939394,1574.337121212121 L 846.3636363636364,1574.337121212121" fill="none" stroke="#000000" stroke-width="1.8216969696969696"/>
	<path d="M 846.3636363636364,1576.0164141414139 L 856.439393939394,1576.0164141414139" fill="none" stroke="#000000" stroke-width="1.8216969696969696"/>
	<path d="M 856.439393939394,1577.6957070707067 L 846.3636363636364,1577.6957070707067" fill="none" stroke="#000000" stroke-width="1.8216969696969696"/>
	<path d="M 846.3636363636364,1579.3749999999995 L 856.439393939394,1579.3749999999995" fill="none" stroke="#000000" stroke-width="1.8216969696969696"/>
	<path d="M 856.439393939394,1581.0542929292924 L 846.3636363636364,1581.0542929292924" fill="none" stroke="#000000" stroke-width="1.8216969696969696"/>
	<path d="M 967.2727272727273,1572.6578282828282 L 977.3484848484849,1572.6578282828282" fill="none" stroke="#000000" stroke-width="1.8216969696969696"/>
	<path d="M 977.3484848484849,1574.337121212121 L 967.2727272727273,1574.337121212121" fill="none" stroke="#000000" stroke-width="1.8216969696969696"/>
	<path d="M 967.2727272727273,1576.0164141414139 L 977.3484848484849,1576.0164141414139" fill="none" stroke="#000000" stroke-width="1.8216969696969696"/>
	<path d="M 977.3484848484849,1577.6957070707067 L 967.2727272727273,1577.6957070707067" fill="none" stroke="#000000" stroke-width="1.8216969696969696"/>
	<path d="M 967.2727272727273,1579.3749999999995 L 977.3484848484849,1579.3749999999995" fill="none" stroke="#000000" stroke-width="1.8216969696969696"/>
	<path d="M 977.3484848484849,1581.0542929292924 L 967.2727272727273,1581.0542929292924" fill="none" stroke="#000000" stroke-width="1.8216969696969696"/>
	<path d="M 1088.1818181818182,1572.6578282828282 L 1098.2575757575758,1572.6578282828282" fill="none" stroke="#000000" stroke-width="1.8216969696969696"/>
	<path d="M 1098.2575757575758,1574.337121212121 L 1088.1818181818182,1574.337121212121" fill="none" stroke="#000000" stroke-width="1.8216969696969696"/>
	<path d="M 1088.1818181818182,1576.0164141414139 L 1098.2575757575758,1576.0164141414139" fill="none" stroke="#000000" stroke-width="1.8216969696969696"/>
	<path d="M 1098.2575757575758,1577.6957070707067 L 1088.1818181818182,1577.6957070707067" fill="none" stroke="#000000" stroke-width="1.8216969696969696"/>
	<path d="M 1088.1818181818182,1579.3749999999995 L 1098.2575757575758,1579.3749999999995" fill="none" stroke="#000000" stroke-width="1.8216969696969696"/>
	<path d="M 1098.2575757575758,1581.0542929292924 L 1088.1818181818182,1581.0542929292924" fill="none" stroke="#000000" stroke-width="1.8216969696969696"/>
	<path d="M 120.9090909090909,1693.7348484848485 L 130.98484848484847,1693.7348484848485" fill="none" stroke="#000000" stroke-width="1.8216969696969696"/>
	<path d="M 130.98484848484847,1695.75 L 120.90909090909089,1695.75" fill="none" stroke="#000000" stroke-width="1.8216969696969696"/>
	<path d="M 120.90909090909089,1697.7651515151515 L 130.98484848484847,1697.7651515151515" fill="none" stroke="#000000" stroke-width="1.8216969696969696"/>
	<path d="M 130.98484848484847,1699.780303030303 L 120.90909090909089,1699.780303030303" fill="none" stroke="#000000" stroke-width="1.8216969696969696"/>
	<path d="M 120.90909090909089,1701.7954545454545 L 130.98484848484847,1701.7954545454545" fill="none" stroke="#000000" stroke-width="1.8216969696969696"/>
	<path d="M 241.8181818181818,1693.7348484848485 L 251.89393939393938,1693.7348484848485" fill="none" stroke="#000000" stroke-width="1.8216969696969696"/>
	<path d="M 251.89393939393938,1695.75 L 241.8181818181818,1695.75" fill="none" stroke="#000000" stroke-width="1.8216969696969696"/>
	<path d="M 241.8181818181818,1697.7651515151515 L 251.89393939393938,1697.7651515151515" fill="none" stroke="#000000" stroke-width="1.8216969696969696"/>
	<path d="M 251.89393939393938,1699.780303030303 L 241.8181818181818,1699.780303030303" fill="none" stroke="#000000" stroke-width="1.8216969696969696"/>
	<path d="M 241.8181818181818,1701.7954545454545 L 251.89393939393938,1701.7954545454545" fill="none" stroke="#000000" stroke-width="1.8216969696969696"/>
	<path d="M 362.72727272727275,1693.7348484848485 L 372.8030303030303,1693.7348484848485" fill="none" stroke="#000000" stroke-width="1.8216969696969696"/>
	<path d="M 372.8030303030303,1695.75 L 362.72727272727275,1695.75" fill="none" stroke="#000000" stroke-width="1.8216969696969696"/>
	<path d="M 362.72727272727275,1697.7651515151515 L 372.8030303030303,1697.7651515151515" fill="none" stroke="#000000" stroke-width="1.8216969696969696"/>
	<path d="M 372.8030303030303,1699.780303030303 L 362.72727272727275,1699.780303030303" fill="none" stroke="#000000" stroke-width="1.8216969696969696"/>
	<path d="M 362.72727272727275,1701.7954545454545 L 372.8030303030303,1701.7954545454545" fill="none" stroke="#000000" stroke-width="1.8216969696969696"/>
	<path d="M 967.2727272727273,1693.7348484848485 L 977.3484848484849,1693.7348484848485" fill="none" stroke="#000000" stroke-width="1.8216969696969696"/>
	<path d="M 977.3484848484849,1695.75 L 967.2727272727273,1695.75" fill="none" stroke="#000000" stroke-width="1.8216969696969696"/>
	<path d="M 967.2727272727273,1697.7651515151515 L 977.3484848484849,1697.7651515151515" fill="none" stroke="#000000" stroke-width="1.8216969696969696"/>
	<path d="M 977.3484848484849,1699.780303030303 L 967.2727272727273,1699.780303030303" fill="none" stroke="#000000" stroke-width="1.8216969696969696"/>
	<path d="M 967.2727272727273,1701.7954545454545 L 977.3484848484849,1701.7954545454545" fill="none" stroke="#000000" stroke-width="1.8216969696969696"/>
	<path d="M 1088.1818181818182,1693.7348484848485 L 1098.2575757575758,1693.7348484848485" fill="none" stroke="#000000" stroke-width="1.8216969696969696"/>
	<path d="M 1098.2575757575758,1695.75 L 1088.1818181818182,1695.75" fill="none" stroke="#000000" stroke-width="1.8216969696969696"/>
	<path d="M 1088.1818181818182,1697.7651515151515 L 1098.2575757575758,1697.7651515151515" fill="none" stroke="#000000" stroke-width="1.8216969696969696"/>
	<path d="M 1098.2575757575758,1699.780303030303 L 1088.1818181818182,1699.780303030303" fill="none" stroke="#000000" stroke-width="1.8216969696969696"/>
	<path d="M 1088.1818181818182,1701.7954545454545 L 1098.2575757575758,1701.7954545454545" fill="none" stroke="#000000" stroke-width="1.8216969696969696"/>
	<path d="M 1209.090909090909,1693.7348484848485 L 1219.1666666666665,1693.7348484848485" fill="none" stroke="#000000" stroke-width="1.8216969696969696"/>
	<path d="M 1219.1666666666665,1695.75 L 1209.090909090909,1695.75" fill="none" stroke="#000000" stroke-width="1.8216969696969696"/>
	<path d="M 1209.090909090909,1697.7651515151515 L 1219.1666666666665,1697.7651515151515" fill="none" stroke="#000000" stroke-width="1.8216969696969696"/>
	<path d="M 1219.1666666666665,1699.780303030303 L 1209.090909090909,1699.780303030303" fill="none" stroke="#000000" stroke-width="1.8216969696969696"/>
	<path d="M 1209.090909090909,1701.7954545454545 L 1219.1666666666665,1701.7954545454545" fill="none" stroke="#000000" stroke-width="1.8216969696969696"/>
	<path d="M 0.0,1814.6439393939393 L 10.075757575757576,1814.6439393939393" fill="none" stroke="#000000" stroke-width="1.8216969696969696"/>
	<path d="M 10.075757575757576,1816.6590909090908 L 0.0,1816.6590909090908" fill="none" stroke="#000000" stroke-width="1.8216969696969696"/>
	<path d="M 0.0,1818.6742424242423 L 10.075757575757576,1818.6742424242423" fill="none" stroke="#000000" stroke-width="1.8216969696969696"/>
	<path d="M 10.075757575757576,1820.6893939393938 L 0.0,1820.6893939393938" fill="none" stroke="#000000" stroke-width="1.8216969696969696"/>
	<path d="M 0.0,1822.7045454545453 L 10.075757575757576,1822.7045454545453" fill="none" stroke="#000000" stroke-width="1.8216969696969696"/>
	<path d="M 120.9090909090909,1814.6439393939393 L 130.98484848484847,1814.6439393939393" fill="none" stroke="#000000" stroke-width="1.8216969696969696"/>
	<path d="M 130.98484848484847,1816.6590909090908 L 120.90909090909089,1816.6590909090908" fill="none" stroke="#000000" stroke-width="1.8216969696969696"/>
	<path d="M 120.90909090909089,1818.6742424242423 L 130.98484848484847,1818.6742424242423" fill="none" stroke="#000000" stroke-width="1.8216969696969696"/>
	<path d="M 130.98484848484847,1820.6893939393938 L 120.90909090909089,1820.6893939393938" fill="none" stroke="#000000" stroke-width="1.8216969696969696"/>
	<path d="M 120.90909090909089,1822.7045454545453 L 130.98484848484847,1822.7045454545453" fill="none" stroke="#000000" stroke-width="1.8216969696969696"/>
	<path d="M 241.8181818181818,1814.6439393939393 L 251.89393939393938,1814.6439393939393" fill="none" stroke="#000000" stroke-width="1.8216969696969696"/>
	<path d="M 251.89393939393938,1816.6590909090908 L 241.8181818181818,1816.6590909090908" fill="none" stroke="#000000" stroke-width="1.8216969696969696"/>
	<path d="M 241.8181818181818,1818.6742424242423 L 251.89393939393938,1818.6742424242423" fill="none" stroke="#000000" stroke-width="1.8216969696969696"/>
	<path d="M 251.89393939393938,1820.6893939393938 L 241.8181818181818,1820.6893939393938" fill="none" stroke="#000000" stroke-width="1.8216969696969696"/>
	<path d="M 241.8181818181818,1822.7045454545453 L 251.89393939393938,1822.7045454545453" fill="none" stroke="#000000" stroke-width="1.8216969696969696"/>
	<path d="M 362.72727272727275,1814.6439393939393 L 372.8030303030303,1814.6439393939393" fill="none" stroke="#000000" stroke-width="1.8216969696969696"/>
	<path d="M 372.8030303030303,1816.6590909090908 L 362.72727272727275,1816.6590909090908" fill="none" stroke="#000000" stroke-width="1.8216969696969696"/>
	<path d="M 362.72727272727275,1818.6742424242423 L 372.8030303030303,1818.6742424242423" fill="none" stroke="#000000" stroke-width="1.8216969696969696"/>
	<path d="M 372.8030303030303,1820.6893939393938 L 362.72727272727275,1820.6893939393938" fill="none" stroke="#000000" stroke-width="1.8216969696969696"/>
	<path d="M 362.72727272727275,1822.7045454545453 L 372.8030303030303,1822.7045454545453" fill="none" stroke="#000000" stroke-width="1.8216969696969696"/>
	<path d="M 967.2727272727273,1814.6439393939393 L 977.3484848484849,1814.6439393939393" fill="none" stroke="#000000" stroke-width="1.8216969696969696"/>
	<path d="M 977.3484848484849,1816.6590909090908 L 967.2727272727273,1816.6590909090908" fill="none" stroke="#000000" stroke-width="1.8216969696969696"/>
	<path d="M 967.2727272727273,1818.6742424242423 L 977.3484848484849,1818.6742424242423" fill="none" stroke="#000000" stroke-width="1.8216969696969696"/>
	<path d="M 977.3484848484849,1820.6893939393938 L 967.2727272727273,1820.6893939393938" fill="none" stroke="#000000" stroke-width="1.8216969696969696"/>
	<path d="M 967.2727272727273,1822.7045454545453 L 977.3484848484849,1822.7045454545453" fill="none" stroke="#000000" stroke-width="1.8216969696969696"/>
	<path d="M 1088.1818181818182,1814.6439393939393 L 1098.2575757575758,1814.6439393939393" fill="none" stroke="#000000" stroke-width="1.8216969696969696"/>
	<path d="M 1098.2575757575758,1816.6590909090908 L 1088.1818181818182,1816.6590909090908" fill="none" stroke="#000000" stroke-width="1.8216969696969696"/>
	<path d="M 1088.1818181818182,1818.6742424242423 L 1098.2575757575758,1818.6742424242423" fill="none" stroke="#000000" stroke-width="1.8216969696969696"/>
	<path d="M 1098.2575757575758,1820.6893939393938 L 1088.1818181818182,1820.6893939393938" fill="none" stroke="#000000" stroke-width="1.8216969696969696"/>
	<path d="M 1088.1818181818182,1822.7045454545453 L 1098.2575757575758,1822.7045454545453" fill="none" stroke="#000000" stroke-width="1.8216969696969696"/>
	<path d="M 1209.090909090909,1814.6439393939393 L 1219.1666666666665,1814.6439393939393" fill="none" stroke="#000000" stroke-width="1.8216969696969696"/>
	<path d="M 1219.1666666666665,1816.6590909090908 L 1209.090909090909,1816.6590909090908" fill="none" stroke="#000000" stroke-width="1.8216969696969696"/>
	<path d="M 1209.090909090909,1818.6742424242423 L 1219.1666666666665,1818.6742424242423" fill="none" stroke="#000000" stroke-width="1.8216969696969696"/>
	<path d="M 1219.1666666666665,1820.6893939393938 L 1209.090909090909,1820.6893939393938" fill="none" stroke="#000000" stroke-width="1.8216969696969696"/>
	<path d="M 1209.090909090909,1822.7045454545453 L 1219.1666666666665,1822.7045454545453" fill="none" stroke="#000000" stroke-width="1.8216969696969696"/>
	<path d="M 1330.0,1814.6439393939393 L 1340.0757575757575,1814.6439393939393" fill="none" stroke="#000000" stroke-width="1.8216969696969696"/>
	<path d="M 1340.0757575757575,1816.6590909090908 L 1330.0,1816.6590909090908" fill="none" stroke="#000000" stroke-width="1.8216969696969696"/>
	<path d="M 1330.0,1818.6742424242423 L 1340.0757575757575,1818.6742424242423" fill="none" stroke="#000000" stroke-width="1.8216969696969696"/>
	<path d="M 1340.0757575757575,1820.6893939393938 L 1330.0,1820.6893939393938" fill="none" stroke="#000000" stroke-width="1.8216969696969696"/>
	<path d="M 1330.0,1822.7045454545453 L 1340.0757575757575,1822.7045454545453" fill="none" stroke="#000000" stroke-width="1.8216969696969696"/>
</svg>
