<?xml version="1.0" ?>
<svg baseProfile="full" height="600px" version="1.1" viewBox="-158.13700000000003 -179.90063636363638 1888.092181818182 2294.3467272727275" width="494px" xmlns="http://www.w3.org/2000/svg" xmlns:ev="http://www.w3.org/2001/xml-events" xmlns:xlink="http://www.w3.org/1999/xlink">
	<defs/>
	<path d="M 362.72727272727275,12.09090909090909 L 483.6363636363636,12.09090909090909" fill="none" stroke="#000000" stroke-width="1.9103636363636365"/>
	<path d="M 483.6363636363636,36.272727272727266 L 362.72727272727275,36.272727272727266" fill="none" stroke="#000000" stroke-width="1.9103636363636365"/>
	<path d="M 362.72727272727275,60.454545454545446 L 483.6363636363636,60.454545454545446" fill="none" stroke="#000000" stroke-width="1.9103636363636365"/>
	<path d="M 483.6363636363636,84.63636363636363 L 362.72727272727275,84.63636363636363" fill="none" stroke="#000000" stroke-width="1.9103636363636365"/>
	<path d="M 362.72727272727275,108.81818181818181 L 483.6363636363636,108.81818181818181" fill="none" stroke="#000000" stroke-width="1.9103636363636365"/>
	<path d="M 483.6363636363636,12.09090909090909 L 604.5454545454545,12.09090909090909" fill="none" stroke="#000000" stroke-width="1.9103636363636365"/>
	<path d="M 604.5454545454545,36.272727272727266 L 483.6363636363636,36.272727272727266" fill="none" stroke="#000000" stroke-width="1.9103636363636365"/>
	<path d="M 483.6363636363636,60.454545454545446 L 604.5454545454545,60.454545454545446" fill="none" stroke="#000000" stroke-width="1.9103636363636365"/>
	<path d="M 604.5454545454545,84.63636363636363 L 483.6363636363636,84.63636363636363" fill="none" stroke="#000000" stroke-width="1.9103636363636365"/>
	<path d="M 483.6363636363636,108.81818181818181 L 604.5454545454545,108.81818181818181" fill="none" stroke="#000000" stroke-width="1.9103636363636365"/>
	<path d="M 604.5454545454545,12.09090909090909 L 725.4545454545454,12.09090909090909" fill="none" stroke="#000000" stroke-width="1.9103636363636365"/>
	<path d="M 725.4545454545454,36.272727272727266 L 604.5454545454545,36.272727272727266" fill="none" stroke="#000000" stroke-width="1.9103636363636365"/>
	<path d="M 604.5454545454545,60.454545454545446 L 725.4545454545454,60.454545454545446" fill="none" stroke="#000000" stroke-width="1.9103636363636365"/>
	<path d="M 725.4545454545454,84.63636363636363 L 604.5454545454545,84.63636363636363" fill="none" stroke="#000000" stroke-width="1.9103636363636365"/>
	<path d="M 604.5454545454545,108.81818181818181 L 725.4545454545454,108.81818181818181" fill="none" stroke="#000000" stroke-width="1.9103636363636365"/>
	<path d="M 725.4545454545455,12.09090909090909 L 846.3636363636364,12.09090909090909" fill="none" stroke="#000000" stroke-width="1.9103636363636365"/>
	<path d="M 846.3636363636364,36.272727272727266 L 725.4545454545455,36.272727272727266" fill="none" stroke="#000000" stroke-width="1.9103636363636365"/>
	<path d="M 725.4545454545455,60.454545454545446 L 846.3636363636364,60.454545454545446" fill="none" stroke="#000000" stroke-width="1.9103636363636365"/>
	<path d="M 846.3636363636364,84.63636363636363 L 725.4545454545455,84.63636363636363" fill="none" stroke="#000000" stroke-width="1.9103636363636365"/>
	<path d="M 725.4545454545455,108.81818181818181 L 846.3636363636364,108.81818181818181" fill="none" stroke="#000000" stroke-width="1.9103636363636365"/>
	<path d="M 846.3636363636364,12.09090909090909 L 967.2727272727273,12.09090909090909" fill="none" stroke="#000000" stroke-width="1.9103636363636365"/>
	<path d="M 967.2727272727273,36.272727272727266 L 846.3636363636364,36.272727272727266" fill="none" stroke="#000000" stroke-width="1.9103636363636365"/>
	<path d="M 846.3636363636364,60.454545454545446 L 967.2727272727273,60.454545454545446" fill="none" stroke="#000000" stroke-width="1.9103636363636365"/>
	<path d="M 967.2727272727273,84.63636363636363 L 846.3636363636364,84.63636363636363" fill="none" stroke="#000000" stroke-width="1.9103636363636365"/>
	<path d="M 846.3636363636364,108.81818181818181 L 967.2727272727273,108.81818181818181" fill="none" stroke="#000000" stroke-width="1.9103636363636365"/>
	<path d="M 967.2727272727273,12.09090909090909 L 1088.1818181818182,12.09090909090909" fill="none" stroke="#000000" stroke-width="1.9103636363636365"/>
	<path d="M 1088.1818181818182,36.272727272727266 L 967.2727272727274,36.272727272727266" fill="none" stroke="#000000" stroke-width="1.9103636363636365"/>
	<path d="M 967.2727272727274,60.454545454545446 L 1088.1818181818182,60.454545454545446" fill="none" stroke="#000000" stroke-width="1.9103636363636365"/>
	<path d="M 1088.1818181818182,84.63636363636363 L 967.2727272727274,84.63636363636363" fill="none" stroke="#000000" stroke-width="1.9103636363636365"/>
	<path d="M 967.2727272727274,108.81818181818181 L 1088.1818181818182,108.81818181818181" fill="none" stroke="#000000" stroke-width="1.9103636363636365"/>
	<path d="M 241.8181818181818,133.0 L 362.72727272727275,133.0" fill="none" stroke="#000000" stroke-width="1.9103636363636365"/>
	<path d="M 362.72727272727275,157.1818181818182 L 241.81818181818184,157.1818181818182" fill="none" stroke="#000000" stroke-width="1.9103636363636365"/>
	<path d="M 241.81818181818184,181.36363636363637 L 362.72727272727275,181.36363636363637" fill="none" stroke="#000000" stroke-width="1.9103636363636365"/>
	<path d="M 362.72727272727275,205.54545454545456 L 241.81818181818184,205.54545454545456" fill="none" stroke="#000000" stroke-width="1.9103636363636365"/>
	<path d="M 241.81818181818184,229.72727272727275 L 362.72727272727275,229.72727272727275" fill="none" stroke="#000000" stroke-width="1.9103636363636365"/>
	<path d="M 362.72727272727275,133.0 L 483.6363636363636,133.0" fill="none" stroke="#000000" stroke-width="1.9103636363636365"/>
	<path d="M 483.6363636363636,157.1818181818182 L 362.72727272727275,157.1818181818182" fill="none" stroke="#000000" stroke-width="1.9103636363636365"/>
	<path d="M 362.72727272727275,181.36363636363637 L 483.6363636363636,181.36363636363637" fill="none" stroke="#000000" stroke-width="1.9103636363636365"/>
	<path d="M 483.6363636363636,205.54545454545456 L 362.72727272727275,205.54545454545456" fill="none" stroke="#000000" stroke-width="1.9103636363636365"/>
	<path d="M 362.72727272727275,229.72727272727275 L 483.6363636363636,229.72727272727275" fill="none" stroke="#000000" stroke-width="1.9103636363636365"/>
	<path d="M 483.6363636363636,133.0 L 604.5454545454545,133.0" fill="none" stroke="#000000" stroke-width="1.9103636363636365"/>
	<path d="M 604.5454545454545,157.1818181818182 L 483.6363636363636,157.1818181818182" fill="none" stroke="#000000" stroke-width="1.9103636363636365"/>
	<path d="M 483.6363636363636,181.36363636363637 L 604.5454545454545,181.36363636363637" fill="none" stroke="#000000" stroke-width="1.9103636363636365"/>
	<path d="M 604.5454545454545,205.54545454545456 L 483.6363636363636,205.54545454545456" fill="none" stroke="#000000" stroke-width="1.9103636363636365"/>
	<path d="M 483.6363636363636,229.72727272727275 L 604.5454545454545,229.72727272727275" fill="none" stroke="#000000" stroke-width="1.9103636363636365"/>
	<path d="M 604.5454545454545,133.0 L 725.4545454545454,133.0" fill="none" stroke="#000000" stroke-width="1.9103636363636365"/>
	<path d="M 725.4545454545454,157.1818181818182 L 604.5454545454545,157.1818181818182" fill="none" stroke="#000000" stroke-width="1.9103636363636365"/>
	<path d="M 604.5454545454545,181.36363636363637 L 725.4545454545454,181.36363636363637" fill="none" stroke="#000000" stroke-width="1.9103636363636365"/>
	<path d="M 725.4545454545454,205.54545454545456 L 604.5454545454545,205.54545454545456" fill="none" stroke="#000000" stroke-width="1.9103636363636365"/>
	<path d="M 604.5454545454545,229.72727272727275 L 725.4545454545454,229.72727272727275" fill="none" stroke="#000000" stroke-width="1.9103636363636365"/>
	<path d="M 725.4545454545455,133.0 L 846.3636363636364,133.0" fill="none" stroke="#000000" stroke-width="1.9103636363636365"/>
	<path d="M 846.3636363636364,157.1818181818182 L 725.4545454545455,157.1818181818182" fill="none" stroke="#000000" stroke-width="1.9103636363636365"/>
	<path d="M 725.4545454545455,181.36363636363637 L 846.3636363636364,181.36363636363637" fill="none" stroke="#000000" stroke-width="1.9103636363636365"/>
	<path d="M 846.3636363636364,205.54545454545456 L 725.4545454545455,205.54545454545456" fill="none" stroke="#000000" stroke-width="1.9103636363636365"/>
	<path d="M 725.4545454545455,229.72727272727275 L 846.3636363636364,229.72727272727275" fill="none" stroke="#000000" stroke-width="1.9103636363636365"/>
	<path d="M 846.3636363636364,133.0 L 967.2727272727273,133.0" fill="none" stroke="#000000" stroke-width="1.9103636363636365"/>
	<path d="M 967.2727272727273,157.1818181818182 L 846.3636363636364,157.1818181818182" fill="none" stroke="#000000" stroke-width="1.9103636363636365"/>
	<path d="M 846.3636363636364,181.36363636363637 L 967.2727272727273,181.36363636363637" fill="none" stroke="#000000" stroke-width="1.9103636363636365"/>
	<path d="M 967.2727272727273,205.54545454545456 L 846.3636363636364,205.54545454545456" fill="none" stroke="#000000" stroke-width="1.9103636363636365"/>
	<path d="M 846.3636363636364,229.72727272727275 L 967.2727272727273,229.72727272727275" fill="none" stroke="#000000" stroke-width="1.9103636363636365"/>
	<path d="M 967.2727272727273,133.0 L 1088.1818181818182,133.0" fill="none" stroke="#000000" stroke-width="1.9103636363636365"/>
	<path d="M 1088.1818181818182,157.1818181818182 L 967.2727272727274,157.1818181818182" fill="none" stroke="#000000" stroke-width="1.9103636363636365"/>
	<path d="M 967.2727272727274,181.36363636363637 L 1088.1818181818182,181.36363636363637" fill="none" stroke="#000000" stroke-width="1.9103636363636365"/>
	<path d="M 1088.1818181818182,205.54545454545456 L 967.2727272727274,205.54545454545456" fill="none" stroke="#000000" stroke-width="1.9103636363636365"/>
	<path d="M 967.2727272727274,229.72727272727275 L 1088.1818181818182,229.72727272727275" fill="none" stroke="#000000" stroke-width="1.9103636363636365"/>
	<path d="M 1088.1818181818182,133.0 L 1209.0909090909092,133.0" fill="none" stroke="#000000" stroke-width="1.9103636363636365"/>
	<path d="M 1209.0909090909092,157.1818181818182 L 1088.1818181818182,157.1818181818182" fill="none" stroke="#000000" stroke-width="1.9103636363636365"/>
	<path d="M 1088.1818181818182,181.36363636363637 L 1209.0909090909092,181.36363636363637" fill="none" stroke="#000000" stroke-width="1.9103636363636365"/>
	<path d="M 1209.0909090909092,205.54545454545456 L 1088.1818181818182,205.54545454545456" fill="none" stroke="#000000" stroke-width="1.9103636363636365"/>
	<path d="M 1088.1818181818182,229.72727272727275 L 1209.0909090909092,229.72727272727275" fill="none" stroke="#000000" stroke-width="1.9103636363636365"/>
	<path d="M 1209.090909090909,133.0 L 1330.0,133.0" fill="none" stroke="#000000" stroke-width="1.9103636363636365"/>
	<path d="M 1330.0,157.1818181818182 L 1209.090909090909,157.1818181818182" fill="none" stroke="#000000" stroke-width="1.9103636363636365"/>
	<path d="M 1209.090909090909,181.36363636363637 L 1330.0,181.36363636363637" fill="none" stroke="#000000" stroke-width="1.9103636363636365"/>
	<path d="M 1330.0,205.54545454545456 L 1209.090909090909,205.54545454545456" fill="none" stroke="#000000" stroke-width="1.9103636363636365"/>
	<path d="M 1209.090909090909,229.72727272727275 L 1330.0,229.72727272727275" fill="none" stroke="#000000" stroke-width="1.9103636363636365"/>
	<path d="M 1330.0,133.0 L 1450.909090909091,133.0" fill="none" stroke="#000000" stroke-width="1.9103636363636365"/>
	<path d="M 1450.909090909091,157.1818181818182 L 1330.0,157.1818181818182" fill="none" stroke="#000000" stroke-width="1.9103636363636365"/>
	<path d="M 1330.0,181.36363636363637 L 1450.909090909091,181.36363636363637" fill="none" stroke="#000000" stroke-width="1.9103636363636365"/>
	<path d="M 1450.909090909091,205.54545454545456 L 1330.0,205.54545454545456" fill="none" stroke="#000000" stroke-width="1.9103636363636365"/>
	<path d="M 1330.0,229.72727272727275 L 1450.909090909091,229.72727272727275" fill="none" stroke="#000000" stroke-width="1.9103636363636365"/>
	<path d="M 241.8181818181818,256.9318181818182 L 362.72727272727275,256.9318181818182" fill="none" stroke="#000000" stroke-width="1.9103636363636365"/>
	<path d="M 362.72727272727275,287.15909090909093 L 241.81818181818184,287.15909090909093" fill="none" stroke="#000000" stroke-width="1.9103636363636365"/>
	<path d="M 241.81818181818184,317.3863636363637 L 362.72727272727275,317.3863636363637" fill="none" stroke="#000000" stroke-width="1.9103636363636365"/>
	<path d="M 362.72727272727275,347.61363636363643 L 241.81818181818184,347.61363636363643" fill="none" stroke="#000000" stroke-width="1.9103636363636365"/>
	<path d="M 362.72727272727275,256.9318181818182 L 483.6363636363636,256.9318181818182" fill="none" stroke="#000000" stroke-width="1.9103636363636365"/>
	<path d="M 483.6363636363636,287.15909090909093 L 362.72727272727275,287.15909090909093" fill="none" stroke="#000000" stroke-width="1.9103636363636365"/>
	<path d="M 362.72727272727275,317.3863636363637 L 483.6363636363636,317.3863636363637" fill="none" stroke="#000000" stroke-width="1.9103636363636365"/>
	<path d="M 483.6363636363636,347.61363636363643 L 362.72727272727275,347.61363636363643" fill="none" stroke="#000000" stroke-width="1.9103636363636365"/>
	<path d="M 483.6363636363636,256.9318181818182 L 604.5454545454545,256.9318181818182" fill="none" stroke="#000000" stroke-width="1.9103636363636365"/>
	<path d="M 604.5454545454545,287.15909090909093 L 483.6363636363636,287.15909090909093" fill="none" stroke="#000000" stroke-width="1.9103636363636365"/>
	<path d="M 483.6363636363636,317.3863636363637 L 604.5454545454545,317.3863636363637" fill="none" stroke="#000000" stroke-width="1.9103636363636365"/>
	<path d="M 604.5454545454545,347.61363636363643 L 483.6363636363636,347.61363636363643" fill="none" stroke="#000000" stroke-width="1.9103636363636365"/>
	<path d="M 604.5454545454545,272.04545454545456 L 725.4545454545454,272.04545454545456" fill="none" stroke="#000000" stroke-width="1.9103636363636365"/>
	<path d="M 725.4545454545454,332.5 L 604.5454545454545,332.5" fill="none" stroke="#000000" stroke-width="1.9103636363636365"/>
	<path d="M 725.4545454545455,272.04545454545456 L 846.3636363636364,272.04545454545456" fill="none" stroke="#000000" stroke-width="1.9103636363636365"/>
	<path d="M 846.3636363636364,332.5 L 725.4545454545455,332.5" fill="none" stroke="#000000" stroke-width="1.9103636363636365"/>
	<path d="M 846.3636363636364,272.04545454545456 L 967.2727272727273,272.04545454545456" fill="none" stroke="#000000" stroke-width="1.9103636363636365"/>
	<path d="M 967.2727272727273,332.5 L 846.3636363636364,332.5" fill="none" stroke="#000000" stroke-width="1.9103636363636365"/>
	<path d="M 967.2727272727273,250.45454545454544 L 1088.1818181818182,250.45454545454544" fill="none" stroke="#000000" stroke-width="1.9103636363636365"/>
	<path d="M 1088.1818181818182,267.7272727272727 L 967.2727272727274,267.7272727272727" fill="none" stroke="#000000" stroke-width="1.9103636363636365"/>
	<path d="M 967.2727272727274,284.99999999999994 L 1088.1818181818182,284.99999999999994" fill="none" stroke="#000000" stroke-width="1.9103636363636365"/>
	<path d="M 1088.1818181818182,302.2727272727272 L 967.2727272727274,302.2727272727272" fill="none" stroke="#000000" stroke-width="1.9103636363636365"/>
	<path d="M 967.2727272727274,319.54545454545445 L 1088.1818181818182,319.54545454545445" fill="none" stroke="#000000" stroke-width="1.9103636363636365"/>
	<path d="M 1088.1818181818182,336.8181818181817 L 967.2727272727274,336.8181818181817" fill="none" stroke="#000000" stroke-width="1.9103636363636365"/>
	<path d="M 967.2727272727274,354.09090909090895 L 1088.1818181818182,354.09090909090895" fill="none" stroke="#000000" stroke-width="1.9103636363636365"/>
	<path d="M 1088.1818181818182,272.04545454545456 L 1209.0909090909092,272.04545454545456" fill="none" stroke="#000000" stroke-width="1.9103636363636365"/>
	<path d="M 1209.0909090909092,332.5 L 1088.1818181818182,332.5" fill="none" stroke="#000000" stroke-width="1.9103636363636365"/>
	<path d="M 120.9090909090909,377.8409090909091 L 241.8181818181818,377.8409090909091" fill="none" stroke="#000000" stroke-width="1.9103636363636365"/>
	<path d="M 241.8181818181818,408.06818181818187 L 120.9090909090909,408.06818181818187" fill="none" stroke="#000000" stroke-width="1.9103636363636365"/>
	<path d="M 120.9090909090909,438.2954545454546 L 241.8181818181818,438.2954545454546" fill="none" stroke="#000000" stroke-width="1.9103636363636365"/>
	<path d="M 241.8181818181818,468.52272727272737 L 120.9090909090909,468.52272727272737" fill="none" stroke="#000000" stroke-width="1.9103636363636365"/>
	<path d="M 241.8181818181818,392.9545454545455 L 362.72727272727275,392.9545454545455" fill="none" stroke="#000000" stroke-width="1.9103636363636365"/>
	<path d="M 362.72727272727275,453.40909090909093 L 241.81818181818184,453.40909090909093" fill="none" stroke="#000000" stroke-width="1.9103636363636365"/>
	<path d="M 362.72727272727275,377.8409090909091 L 483.6363636363636,377.8409090909091" fill="none" stroke="#000000" stroke-width="1.9103636363636365"/>
	<path d="M 483.6363636363636,408.06818181818187 L 362.72727272727275,408.06818181818187" fill="none" stroke="#000000" stroke-width="1.9103636363636365"/>
	<path d="M 362.72727272727275,438.2954545454546 L 483.6363636363636,438.2954545454546" fill="none" stroke="#000000" stroke-width="1.9103636363636365"/>
	<path d="M 483.6363636363636,468.52272727272737 L 362.72727272727275,468.52272727272737" fill="none" stroke="#000000" stroke-width="1.9103636363636365"/>
	<path d="M 483.6363636363636,392.9545454545455 L 604.5454545454545,392.9545454545455" fill="none" stroke="#000000" stroke-width="1.9103636363636365"/>
	<path d="M 604.5454545454545,453.40909090909093 L 483.6363636363636,453.40909090909093" fill="none" stroke="#000000" stroke-width="1.9103636363636365"/>
	<path d="M 604.5454545454545,392.9545454545455 L 725.4545454545454,392.9545454545455" fill="none" stroke="#000000" stroke-width="1.9103636363636365"/>
	<path d="M 725.4545454545454,453.40909090909093 L 604.5454545454545,453.40909090909093" fill="none" stroke="#000000" stroke-width="1.9103636363636365"/>
	<path d="M 725.4545454545455,392.9545454545455 L 846.3636363636364,392.9545454545455" fill="none" stroke="#000000" stroke-width="1.9103636363636365"/>
	<path d="M 846.3636363636364,453.40909090909093 L 725.4545454545455,453.40909090909093" fill="none" stroke="#000000" stroke-width="1.9103636363636365"/>
	<path d="M 846.3636363636364,392.9545454545455 L 967.2727272727273,392.9545454545455" fill="none" stroke="#000000" stroke-width="1.9103636363636365"/>
	<path d="M 967.2727272727273,453.40909090909093 L 846.3636363636364,453.40909090909093" fill="none" stroke="#000000" stroke-width="1.9103636363636365"/>
	<path d="M 967.2727272727273,371.3636363636364 L 1088.1818181818182,371.3636363636364" fill="none" stroke="#000000" stroke-width="1.9103636363636365"/>
	<path d="M 1088.1818181818182,388.6363636363636 L 967.2727272727274,388.6363636363636" fill="none" stroke="#000000" stroke-width="1.9103636363636365"/>
	<path d="M 967.2727272727274,405.9090909090909 L 1088.1818181818182,405.9090909090909" fill="none" stroke="#000000" stroke-width="1.9103636363636365"/>
	<path d="M 1088.1818181818182,423.18181818181813 L 967.2727272727274,423.18181818181813" fill="none" stroke="#000000" stroke-width="1.9103636363636365"/>
	<path d="M 967.2727272727274,440.4545454545454 L 1088.1818181818182,440.4545454545454" fill="none" stroke="#000000" stroke-width="1.9103636363636365"/>
	<path d="M 1088.1818181818182,457.72727272727263 L 967.2727272727274,457.72727272727263" fill="none" stroke="#000000" stroke-width="1.9103636363636365"/>
	<path d="M 967.2727272727274,474.9999999999999 L 1088.1818181818182,474.9999999999999" fill="none" stroke="#000000" stroke-width="1.9103636363636365"/>
	<path d="M 1088.1818181818182,392.9545454545455 L 1209.0909090909092,392.9545454545455" fill="none" stroke="#000000" stroke-width="1.9103636363636365"/>
	<path d="M 1209.0909090909092,453.40909090909093 L 1088.1818181818182,453.40909090909093" fill="none" stroke="#000000" stroke-width="1.9103636363636365"/>
	<path d="M 1209.090909090909,392.9545454545455 L 1330.0,392.9545454545455" fill="none" stroke="#000000" stroke-width="1.9103636363636365"/>
	<path d="M 1330.0,453.40909090909093 L 1209.090909090909,453.40909090909093" fill="none" stroke="#000000" stroke-width="1.9103636363636365"/>
	<path d="M 1330.0,392.9545454545455 L 1450.909090909091,392.9545454545455" fill="none" stroke="#000000" stroke-width="1.9103636363636365"/>
	<path d="M 1450.909090909091,453.40909090909093 L 1330.0,453.40909090909093" fill="none" stroke="#000000" stroke-width="1.9103636363636365"/>
	<path d="M 120.9090909090909,498.75 L 241.8181818181818,498.75" fill="none" stroke="#000000" stroke-width="1.9103636363636365"/>
	<path d="M 241.8181818181818,528.9772727272727 L 120.9090909090909,528.9772727272727" fill="none" stroke="#000000" stroke-width="1.9103636363636365"/>
	<path d="M 120.9090909090909,559.2045454545455 L 241.8181818181818,559.2045454545455" fill="none" stroke="#000000" stroke-width="1.9103636363636365"/>
	<path d="M 241.8181818181818,589.4318181818182 L 120.9090909090909,589.4318181818182" fill="none" stroke="#000000" stroke-width="1.9103636363636365"/>
	<path d="M 241.8181818181818,513.8636363636364 L 362.72727272727275,513.8636363636364" fill="none" stroke="#000000" stroke-width="1.9103636363636365"/>
	<path d="M 362.72727272727275,574.3181818181819 L 241.81818181818184,574.3181818181819" fill="none" stroke="#000000" stroke-width="1.9103636363636365"/>
	<path d="M 362.72727272727275,498.75 L 483.6363636363636,498.75" fill="none" stroke="#000000" stroke-width="1.9103636363636365"/>
	<path d="M 483.6363636363636,528.9772727272727 L 362.72727272727275,528.9772727272727" fill="none" stroke="#000000" stroke-width="1.9103636363636365"/>
	<path d="M 362.72727272727275,559.2045454545455 L 483.6363636363636,559.2045454545455" fill="none" stroke="#000000" stroke-width="1.9103636363636365"/>
	<path d="M 483.6363636363636,589.4318181818182 L 362.72727272727275,589.4318181818182" fill="none" stroke="#000000" stroke-width="1.9103636363636365"/>
	<path d="M 483.6363636363636,498.75 L 604.5454545454545,498.75" fill="none" stroke="#000000" stroke-width="1.9103636363636365"/>
	<path d="M 604.5454545454545,528.9772727272727 L 483.6363636363636,528.9772727272727" fill="none" stroke="#000000" stroke-width="1.9103636363636365"/>
	<path d="M 483.6363636363636,559.2045454545455 L 604.5454545454545,559.2045454545455" fill="none" stroke="#000000" stroke-width="1.9103636363636365"/>
	<path d="M 604.5454545454545,589.4318181818182 L 483.6363636363636,589.4318181818182" fill="none" stroke="#000000" stroke-width="1.9103636363636365"/>
	<path d="M 604.5454545454545,513.8636363636364 L 725.4545454545454,513.8636363636364" fill="none" stroke="#000000" stroke-width="1.9103636363636365"/>
	<path d="M 725.4545454545454,574.3181818181819 L 604.5454545454545,574.3181818181819" fill="none" stroke="#000000" stroke-width="1.9103636363636365"/>
	<path d="M 725.4545454545455,513.8636363636364 L 846.3636363636364,513.8636363636364" fill="none" stroke="#000000" stroke-width="1.9103636363636365"/>
	<path d="M 846.3636363636364,574.3181818181819 L 725.4545454545455,574.3181818181819" fill="none" stroke="#000000" stroke-width="1.9103636363636365"/>
	<path d="M 846.3636363636364,513.8636363636364 L 967.2727272727273,513.8636363636364" fill="none" stroke="#000000" stroke-width="1.9103636363636365"/>
	<path d="M 967.2727272727273,574.3181818181819 L 846.3636363636364,574.3181818181819" fill="none" stroke="#000000" stroke-width="1.9103636363636365"/>
	<path d="M 967.2727272727273,513.8636363636364 L 1088.1818181818182,513.8636363636364" fill="none" stroke="#000000" stroke-width="1.9103636363636365"/>
	<path d="M 1088.1818181818182,574.3181818181819 L 967.2727272727274,574.3181818181819" fill="none" stroke="#000000" stroke-width="1.9103636363636365"/>
	<path d="M 1088.1818181818182,492.27272727272725 L 1209.0909090909092,492.27272727272725" fill="none" stroke="#000000" stroke-width="1.9103636363636365"/>
	<path d="M 1209.0909090909092,509.5454545454545 L 1088.1818181818182,509.5454545454545" fill="none" stroke="#000000" stroke-width="1.9103636363636365"/>
	<path d="M 1088.1818181818182,526.8181818181818 L 1209.0909090909092,526.8181818181818" fill="none" stroke="#000000" stroke-width="1.9103636363636365"/>
	<path d="M 1209.0909090909092,544.090909090909 L 1088.1818181818182,544.090909090909" fill="none" stroke="#000000" stroke-width="1.9103636363636365"/>
	<path d="M 1088.1818181818182,561.3636363636363 L 1209.0909090909092,561.3636363636363" fill="none" stroke="#000000" stroke-width="1.9103636363636365"/>
	<path d="M 1209.0909090909092,578.6363636363635 L 1088.1818181818182,578.6363636363635" fill="none" stroke="#000000" stroke-width="1.9103636363636365"/>
	<path d="M 1088.1818181818182,595.9090909090908 L 1209.0909090909092,595.9090909090908" fill="none" stroke="#000000" stroke-width="1.9103636363636365"/>
	<path d="M 1209.090909090909,513.8636363636364 L 1330.0,513.8636363636364" fill="none" stroke="#000000" stroke-width="1.9103636363636365"/>
	<path d="M 1330.0,574.3181818181819 L 1209.090909090909,574.3181818181819" fill="none" stroke="#000000" stroke-width="1.9103636363636365"/>
	<path d="M 1330.0,513.8636363636364 L 1450.909090909091,513.8636363636364" fill="none" stroke="#000000" stroke-width="1.9103636363636365"/>
	<path d="M 1450.909090909091,574.3181818181819 L 1330.0,574.3181818181819" fill="none" stroke="#000000" stroke-width="1.9103636363636365"/>
	<path d="M 1450.909090909091,513.8636363636364 L 1571.818181818182,513.8636363636364" fill="none" stroke="#000000" stroke-width="1.9103636363636365"/>
	<path d="M 1571.818181818182,574.3181818181819 L 1450.909090909091,574.3181818181819" fill="none" stroke="#000000" stroke-width="1.9103636363636365"/>
	<path d="M 362.72727272727275,634.7727272727273 L 483.6363636363636,634.7727272727273" fill="none" stroke="#000000" stroke-width="1.9103636363636365"/>
	<path d="M 483.6363636363636,695.2272727272727 L 362.72727272727275,695.2272727272727" fill="none" stroke="#000000" stroke-width="1.9103636363636365"/>
	<path d="M 483.6363636363636,634.7727272727273 L 604.5454545454545,634.7727272727273" fill="none" stroke="#000000" stroke-width="1.9103636363636365"/>
	<path d="M 604.5454545454545,695.2272727272727 L 483.6363636363636,695.2272727272727" fill="none" stroke="#000000" stroke-width="1.9103636363636365"/>
	<path d="M 604.5454545454545,634.7727272727273 L 725.4545454545454,634.7727272727273" fill="none" stroke="#000000" stroke-width="1.9103636363636365"/>
	<path d="M 725.4545454545454,695.2272727272727 L 604.5454545454545,695.2272727272727" fill="none" stroke="#000000" stroke-width="1.9103636363636365"/>
	<path d="M 725.4545454545455,634.7727272727273 L 846.3636363636364,634.7727272727273" fill="none" stroke="#000000" stroke-width="1.9103636363636365"/>
	<path d="M 846.3636363636364,695.2272727272727 L 725.4545454545455,695.2272727272727" fill="none" stroke="#000000" stroke-width="1.9103636363636365"/>
	<path d="M 846.3636363636364,634.7727272727273 L 967.2727272727273,634.7727272727273" fill="none" stroke="#000000" stroke-width="1.9103636363636365"/>
	<path d="M 967.2727272727273,695.2272727272727 L 846.3636363636364,695.2272727272727" fill="none" stroke="#000000" stroke-width="1.9103636363636365"/>
	<path d="M 967.2727272727273,613.1818181818181 L 1088.1818181818182,613.1818181818181" fill="none" stroke="#000000" stroke-width="1.9103636363636365"/>
	<path d="M 1088.1818181818182,630.4545454545454 L 967.2727272727274,630.4545454545454" fill="none" stroke="#000000" stroke-width="1.9103636363636365"/>
	<path d="M 967.2727272727274,647.7272727272726 L 1088.1818181818182,647.7272727272726" fill="none" stroke="#000000" stroke-width="1.9103636363636365"/>
	<path d="M 1088.1818181818182,664.9999999999999 L 967.2727272727274,664.9999999999999" fill="none" stroke="#000000" stroke-width="1.9103636363636365"/>
	<path d="M 967.2727272727274,682.2727272727271 L 1088.1818181818182,682.2727272727271" fill="none" stroke="#000000" stroke-width="1.9103636363636365"/>
	<path d="M 1088.1818181818182,699.5454545454544 L 967.2727272727274,699.5454545454544" fill="none" stroke="#000000" stroke-width="1.9103636363636365"/>
	<path d="M 967.2727272727274,716.8181818181816 L 1088.1818181818182,716.8181818181816" fill="none" stroke="#000000" stroke-width="1.9103636363636365"/>
	<path d="M 1088.1818181818182,613.1818181818181 L 1209.0909090909092,613.1818181818181" fill="none" stroke="#000000" stroke-width="1.9103636363636365"/>
	<path d="M 1209.0909090909092,630.4545454545454 L 1088.1818181818182,630.4545454545454" fill="none" stroke="#000000" stroke-width="1.9103636363636365"/>
	<path d="M 1088.1818181818182,647.7272727272726 L 1209.0909090909092,647.7272727272726" fill="none" stroke="#000000" stroke-width="1.9103636363636365"/>
	<path d="M 1209.0909090909092,664.9999999999999 L 1088.1818181818182,664.9999999999999" fill="none" stroke="#000000" stroke-width="1.9103636363636365"/>
	<path d="M 1088.1818181818182,682.2727272727271 L 1209.0909090909092,682.2727272727271" fill="none" stroke="#000000" stroke-width="1.9103636363636365"/>
	<path d="M 1209.0909090909092,699.5454545454544 L 1088.1818181818182,699.5454545454544" fill="none" stroke="#000000" stroke-width="1.9103636363636365"/>
	<path d="M 1088.1818181818182,716.8181818181816 L 1209.0909090909092,716.8181818181816" fill="none" stroke="#000000" stroke-width="1.9103636363636365"/>
	<path d="M 1209.090909090909,613.1818181818181 L 1330.0,613.1818181818181" fill="none" stroke="#000000" stroke-width="1.9103636363636365"/>
	<path d="M 1330.0,630.4545454545454 L 1209.090909090909,630.4545454545454" fill="none" stroke="#000000" stroke-width="1.9103636363636365"/>
	<path d="M 1209.090909090909,647.7272727272726 L 1330.0,647.7272727272726" fill="none" stroke="#000000" stroke-width="1.9103636363636365"/>
	<path d="M 1330.0,664.9999999999999 L 1209.090909090909,664.9999999999999" fill="none" stroke="#000000" stroke-width="1.9103636363636365"/>
	<path d="M 1209.090909090909,682.2727272727271 L 1330.0,682.2727272727271" fill="none" stroke="#000000" stroke-width="1.9103636363636365"/>
	<path d="M 1330.0,699.5454545454544 L 1209.090909090909,699.5454545454544" fill="none" stroke="#000000" stroke-width="1.9103636363636365"/>
	<path d="M 1209.090909090909,716.8181818181816 L 1330.0,716.8181818181816" fill="none" stroke="#000000" stroke-width="1.9103636363636365"/>
	<path d="M 1330.0,613.1818181818181 L 1450.909090909091,613.1818181818181" fill="none" stroke="#000000" stroke-width="1.9103636363636365"/>
	<path d="M 1450.909090909091,630.4545454545454 L 1330.0,630.4545454545454" fill="none" stroke="#000000" stroke-width="1.9103636363636365"/>
	<path d="M 1330.0,647.7272727272726 L 1450.909090909091,647.7272727272726" fill="none" stroke="#000000" stroke-width="1.9103636363636365"/>
	<path d="M 1450.909090909091,664.9999999999999 L 1330.0,664.9999999999999" fill="none" stroke="#000000" stroke-width="1.9103636363636365"/>
	<path d="M 1330.0,682.2727272727271 L 1450.909090909091,682.2727272727271" fill="none" stroke="#000000" stroke-width="1.9103636363636365"/>
	<path d="M 1450.909090909091,699.5454545454544 L 1330.0,699.5454545454544" fill="none" stroke="#000000" stroke-width="1.9103636363636365"/>
	<path d="M 1330.0,716.8181818181816 L 1450.909090909091,716.8181818181816" fill="none" stroke="#000000" stroke-width="1.9103636363636365"/>
	<path d="M 362.72727272727275,755.6818181818182 L 483.6363636363636,755.6818181818182" fill="none" stroke="#000000" stroke-width="1.9103636363636365"/>
	<path d="M 483.6363636363636,816.1363636363637 L 362.72727272727275,816.1363636363637" fill="none" stroke="#000000" stroke-width="1.9103636363636365"/>
	<path d="M 483.6363636363636,755.6818181818182 L 604.5454545454545,755.6818181818182" fill="none" stroke="#000000" stroke-width="1.9103636363636365"/>
	<path d="M 604.5454545454545,816.1363636363637 L 483.6363636363636,816.1363636363637" fill="none" stroke="#000000" stroke-width="1.9103636363636365"/>
	<path d="M 604.5454545454545,755.6818181818182 L 725.4545454545454,755.6818181818182" fill="none" stroke="#000000" stroke-width="1.9103636363636365"/>
	<path d="M 725.4545454545454,816.1363636363637 L 604.5454545454545,816.1363636363637" fill="none" stroke="#000000" stroke-width="1.9103636363636365"/>
	<path d="M 725.4545454545455,755.6818181818182 L 846.3636363636364,755.6818181818182" fill="none" stroke="#000000" stroke-width="1.9103636363636365"/>
	<path d="M 846.3636363636364,816.1363636363637 L 725.4545454545455,816.1363636363637" fill="none" stroke="#000000" stroke-width="1.9103636363636365"/>
	<path d="M 846.3636363636364,755.6818181818182 L 967.2727272727273,755.6818181818182" fill="none" stroke="#000000" stroke-width="1.9103636363636365"/>
	<path d="M 967.2727272727273,816.1363636363637 L 846.3636363636364,816.1363636363637" fill="none" stroke="#000000" stroke-width="1.9103636363636365"/>
	<path d="M 967.2727272727273,755.6818181818182 L 1088.1818181818182,755.6818181818182" fill="none" stroke="#000000" stroke-width="1.9103636363636365"/>
	<path d="M 1088.1818181818182,816.1363636363637 L 967.2727272727274,816.1363636363637" fill="none" stroke="#000000" stroke-width="1.9103636363636365"/>
	<path d="M 1088.1818181818182,755.6818181818182 L 1209.0909090909092,755.6818181818182" fill="none" stroke="#000000" stroke-width="1.9103636363636365"/>
	<path d="M 1209.0909090909092,816.1363636363637 L 1088.1818181818182,816.1363636363637" fill="none" stroke="#000000" stroke-width="1.9103636363636365"/>
	<path d="M 1209.090909090909,755.6818181818182 L 1330.0,755.6818181818182" fill="none" stroke="#000000" stroke-width="1.9103636363636365"/>
	<path d="M 1330.0,816.1363636363637 L 1209.090909090909,816.1363636363637" fill="none" stroke="#000000" stroke-width="1.9103636363636365"/>
	<path d="M 241.8181818181818,861.4772727272727 L 362.72727272727275,861.4772727272727" fill="none" stroke="#000000" stroke-width="1.9103636363636365"/>
	<path d="M 362.72727272727275,891.7045454545455 L 241.81818181818184,891.7045454545455" fill="none" stroke="#000000" stroke-width="1.9103636363636365"/>
	<path d="M 241.81818181818184,921.9318181818182 L 362.72727272727275,921.9318181818182" fill="none" stroke="#000000" stroke-width="1.9103636363636365"/>
	<path d="M 362.72727272727275,952.159090909091 L 241.81818181818184,952.159090909091" fill="none" stroke="#000000" stroke-width="1.9103636363636365"/>
	<path d="M 362.72727272727275,861.4772727272727 L 483.6363636363636,861.4772727272727" fill="none" stroke="#000000" stroke-width="1.9103636363636365"/>
	<path d="M 483.6363636363636,891.7045454545455 L 362.72727272727275,891.7045454545455" fill="none" stroke="#000000" stroke-width="1.9103636363636365"/>
	<path d="M 362.72727272727275,921.9318181818182 L 483.6363636363636,921.9318181818182" fill="none" stroke="#000000" stroke-width="1.9103636363636365"/>
	<path d="M 483.6363636363636,952.159090909091 L 362.72727272727275,952.159090909091" fill="none" stroke="#000000" stroke-width="1.9103636363636365"/>
	<path d="M 483.6363636363636,856.439393939394 L 604.5454545454545,856.439393939394" fill="none" stroke="#000000" stroke-width="1.9103636363636365"/>
	<path d="M 604.5454545454545,876.5909090909091 L 483.6363636363636,876.5909090909091" fill="none" stroke="#000000" stroke-width="1.9103636363636365"/>
	<path d="M 483.6363636363636,896.7424242424242 L 604.5454545454545,896.7424242424242" fill="none" stroke="#000000" stroke-width="1.9103636363636365"/>
	<path d="M 604.5454545454545,916.8939393939394 L 483.6363636363636,916.8939393939394" fill="none" stroke="#000000" stroke-width="1.9103636363636365"/>
	<path d="M 483.6363636363636,937.0454545454545 L 604.5454545454545,937.0454545454545" fill="none" stroke="#000000" stroke-width="1.9103636363636365"/>
	<path d="M 604.5454545454545,957.1969696969696 L 483.6363636363636,957.1969696969696" fill="none" stroke="#000000" stroke-width="1.9103636363636365"/>
	<path d="M 604.5454545454545,861.4772727272727 L 725.4545454545454,861.4772727272727" fill="none" stroke="#000000" stroke-width="1.9103636363636365"/>
	<path d="M 725.4545454545454,891.7045454545455 L 604.5454545454545,891.7045454545455" fill="none" stroke="#000000" stroke-width="1.9103636363636365"/>
	<path d="M 604.5454545454545,921.9318181818182 L 725.4545454545454,921.9318181818182" fill="none" stroke="#000000" stroke-width="1.9103636363636365"/>
	<path d="M 725.4545454545454,952.159090909091 L 604.5454545454545,952.159090909091" fill="none" stroke="#000000" stroke-width="1.9103636363636365"/>
	<path d="M 725.4545454545455,861.4772727272727 L 846.3636363636364,861.4772727272727" fill="none" stroke="#000000" stroke-width="1.9103636363636365"/>
	<path d="M 846.3636363636364,891.7045454545455 L 725.4545454545455,891.7045454545455" fill="none" stroke="#000000" stroke-width="1.9103636363636365"/>
	<path d="M 725.4545454545455,921.9318181818182 L 846.3636363636364,921.9318181818182" fill="none" stroke="#000000" stroke-width="1.9103636363636365"/>
	<path d="M 846.3636363636364,952.159090909091 L 725.4545454545455,952.159090909091" fill="none" stroke="#000000" stroke-width="1.9103636363636365"/>
	<path d="M 846.3636363636364,861.4772727272727 L 967.2727272727273,861.4772727272727" fill="none" stroke="#000000" stroke-width="1.9103636363636365"/>
	<path d="M 967.2727272727273,891.7045454545455 L 846.3636363636364,891.7045454545455" fill="none" stroke="#000000" stroke-width="1.9103636363636365"/>
	<path d="M 846.3636363636364,921.9318181818182 L 967.2727272727273,921.9318181818182" fill="none" stroke="#000000" stroke-width="1.9103636363636365"/>
	<path d="M 967.2727272727273,952.159090909091 L 846.3636363636364,952.159090909091" fill="none" stroke="#000000" stroke-width="1.9103636363636365"/>
	<path d="M 967.2727272727273,861.4772727272727 L 1088.1818181818182,861.4772727272727" fill="none" stroke="#000000" stroke-width="1.9103636363636365"/>
	<path d="M 1088.1818181818182,891.7045454545455 L 967.2727272727274,891.7045454545455" fill="none" stroke="#000000" stroke-width="1.9103636363636365"/>
	<path d="M 967.2727272727274,921.9318181818182 L 1088.1818181818182,921.9318181818182" fill="none" stroke="#000000" stroke-width="1.9103636363636365"/>
	<path d="M 1088.1818181818182,952.159090909091 L 967.2727272727274,952.159090909091" fill="none" stroke="#000000" stroke-width="1.9103636363636365"/>
	<path d="M 120.9090909090909,982.3863636363636 L 241.8181818181818,982.3863636363636" fill="none" stroke="#000000" stroke-width="1.9103636363636365"/>
	<path d="M 241.8181818181818,1012.6136363636364 L 120.9090909090909,1012.6136363636364" fill="none" stroke="#000000" stroke-width="1.9103636363636365"/>
	<path d="M 120.9090909090909,1042.840909090909 L 241.8181818181818,1042.840909090909" fill="none" stroke="#000000" stroke-width="1.9103636363636365"/>
	<path d="M 241.8181818181818,1073.0681818181818 L 120.9090909090909,1073.0681818181818" fill="none" stroke="#000000" stroke-width="1.9103636363636365"/>
	<path d="M 241.8181818181818,982.3863636363636 L 362.72727272727275,982.3863636363636" fill="none" stroke="#000000" stroke-width="1.9103636363636365"/>
	<path d="M 362.72727272727275,1012.6136363636364 L 241.81818181818184,1012.6136363636364" fill="none" stroke="#000000" stroke-width="1.9103636363636365"/>
	<path d="M 241.81818181818184,1042.840909090909 L 362.72727272727275,1042.840909090909" fill="none" stroke="#000000" stroke-width="1.9103636363636365"/>
	<path d="M 362.72727272727275,1073.0681818181818 L 241.81818181818184,1073.0681818181818" fill="none" stroke="#000000" stroke-width="1.9103636363636365"/>
	<path d="M 362.72727272727275,982.3863636363636 L 483.6363636363636,982.3863636363636" fill="none" stroke="#000000" stroke-width="1.9103636363636365"/>
	<path d="M 483.6363636363636,1012.6136363636364 L 362.72727272727275,1012.6136363636364" fill="none" stroke="#000000" stroke-width="1.9103636363636365"/>
	<path d="M 362.72727272727275,1042.840909090909 L 483.6363636363636,1042.840909090909" fill="none" stroke="#000000" stroke-width="1.9103636363636365"/>
	<path d="M 483.6363636363636,1073.0681818181818 L 362.72727272727275,1073.0681818181818" fill="none" stroke="#000000" stroke-width="1.9103636363636365"/>
	<path d="M 483.6363636363636,977.3484848484849 L 604.5454545454545,977.3484848484849" fill="none" stroke="#000000" stroke-width="1.9103636363636365"/>
	<path d="M 604.5454545454545,997.5 L 483.6363636363636,997.5" fill="none" stroke="#000000" stroke-width="1.9103636363636365"/>
	<path d="M 483.6363636363636,1017.6515151515151 L 604.5454545454545,1017.6515151515151" fill="none" stroke="#000000" stroke-width="1.9103636363636365"/>
	<path d="M 604.5454545454545,1037.8030303030303 L 483.6363636363636,1037.8030303030303" fill="none" stroke="#000000" stroke-width="1.9103636363636365"/>
	<path d="M 483.6363636363636,1057.9545454545455 L 604.5454545454545,1057.9545454545455" fill="none" stroke="#000000" stroke-width="1.9103636363636365"/>
	<path d="M 604.5454545454545,1078.1060606060607 L 483.6363636363636,1078.1060606060607" fill="none" stroke="#000000" stroke-width="1.9103636363636365"/>
	<path d="M 604.5454545454545,982.3863636363636 L 725.4545454545454,982.3863636363636" fill="none" stroke="#000000" stroke-width="1.9103636363636365"/>
	<path d="M 725.4545454545454,1012.6136363636364 L 604.5454545454545,1012.6136363636364" fill="none" stroke="#000000" stroke-width="1.9103636363636365"/>
	<path d="M 604.5454545454545,1042.840909090909 L 725.4545454545454,1042.840909090909" fill="none" stroke="#000000" stroke-width="1.9103636363636365"/>
	<path d="M 725.4545454545454,1073.0681818181818 L 604.5454545454545,1073.0681818181818" fill="none" stroke="#000000" stroke-width="1.9103636363636365"/>
	<path d="M 725.4545454545455,982.3863636363636 L 846.3636363636364,982.3863636363636" fill="none" stroke="#000000" stroke-width="1.9103636363636365"/>
	<path d="M 846.3636363636364,1012.6136363636364 L 725.4545454545455,1012.6136363636364" fill="none" stroke="#000000" stroke-width="1.9103636363636365"/>
	<path d="M 725.4545454545455,1042.840909090909 L 846.3636363636364,1042.840909090909" fill="none" stroke="#000000" stroke-width="1.9103636363636365"/>
	<path d="M 846.3636363636364,1073.0681818181818 L 725.4545454545455,1073.0681818181818" fill="none" stroke="#000000" stroke-width="1.9103636363636365"/>
	<path d="M 846.3636363636364,977.3484848484849 L 967.2727272727273,977.3484848484849" fill="none" stroke="#000000" stroke-width="1.9103636363636365"/>
	<path d="M 967.2727272727273,997.5 L 846.3636363636364,997.5" fill="none" stroke="#000000" stroke-width="1.9103636363636365"/>
	<path d="M 846.3636363636364,1017.6515151515151 L 967.2727272727273,1017.6515151515151" fill="none" stroke="#000000" stroke-width="1.9103636363636365"/>
	<path d="M 967.2727272727273,1037.8030303030303 L 846.3636363636364,1037.8030303030303" fill="none" stroke="#000000" stroke-width="1.9103636363636365"/>
	<path d="M 846.3636363636364,1057.9545454545455 L 967.2727272727273,1057.9545454545455" fill="none" stroke="#000000" stroke-width="1.9103636363636365"/>
	<path d="M 967.2727272727273,1078.1060606060607 L 846.3636363636364,1078.1060606060607" fill="none" stroke="#000000" stroke-width="1.9103636363636365"/>
	<path d="M 967.2727272727273,982.3863636363636 L 1088.1818181818182,982.3863636363636" fill="none" stroke="#000000" stroke-width="1.9103636363636365"/>
	<path d="M 1088.1818181818182,1012.6136363636364 L 967.2727272727274,1012.6136363636364" fill="none" stroke="#000000" stroke-width="1.9103636363636365"/>
	<path d="M 967.2727272727274,1042.840909090909 L 1088.1818181818182,1042.840909090909" fill="none" stroke="#000000" stroke-width="1.9103636363636365"/>
	<path d="M 1088.1818181818182,1073.0681818181818 L 967.2727272727274,1073.0681818181818" fill="none" stroke="#000000" stroke-width="1.9103636363636365"/>
	<path d="M 1088.1818181818182,982.3863636363636 L 1209.0909090909092,982.3863636363636" fill="none" stroke="#000000" stroke-width="1.9103636363636365"/>
	<path d="M 1209.0909090909092,1012.6136363636364 L 1088.1818181818182,1012.6136363636364" fill="none" stroke="#000000" stroke-width="1.9103636363636365"/>
	<path d="M 1088.1818181818182,1042.840909090909 L 1209.0909090909092,1042.840909090909" fill="none" stroke="#000000" stroke-width="1.9103636363636365"/>
	<path d="M 1209.0909090909092,1073.0681818181818 L 1088.1818181818182,1073.0681818181818" fill="none" stroke="#000000" stroke-width="1.9103636363636365"/>
	<path d="M 1209.090909090909,982.3863636363636 L 1330.0,982.3863636363636" fill="none" stroke="#000000" stroke-width="1.9103636363636365"/>
	<path d="M 1330.0,1012.6136363636364 L 1209.090909090909,1012.6136363636364" fill="none" stroke="#000000" stroke-width="1.9103636363636365"/>
	<path d="M 1209.090909090909,1042.840909090909 L 1330.0,1042.840909090909" fill="none" stroke="#000000" stroke-width="1.9103636363636365"/>
	<path d="M 1330.0,1073.0681818181818 L 1209.090909090909,1073.0681818181818" fill="none" stroke="#000000" stroke-width="1.9103636363636365"/>
	<path d="M 0.0,1103.2954545454545 L 120.9090909090909,1103.2954545454545" fill="none" stroke="#000000" stroke-width="1.9103636363636365"/>
	<path d="M 120.9090909090909,1133.5227272727273 L 0.0,1133.5227272727273" fill="none" stroke="#000000" stroke-width="1.9103636363636365"/>
	<path d="M 0.0,1163.75 L 120.9090909090909,1163.75" fill="none" stroke="#000000" stroke-width="1.9103636363636365"/>
	<path d="M 120.9090909090909,1193.9772727272727 L 0.0,1193.9772727272727" fill="none" stroke="#000000" stroke-width="1.9103636363636365"/>
	<path d="M 120.9090909090909,1103.2954545454545 L 241.8181818181818,1103.2954545454545" fill="none" stroke="#000000" stroke-width="1.9103636363636365"/>
	<path d="M 241.8181818181818,1133.5227272727273 L 120.9090909090909,1133.5227272727273" fill="none" stroke="#000000" stroke-width="1.9103636363636365"/>
	<path d="M 120.9090909090909,1163.75 L 241.8181818181818,1163.75" fill="none" stroke="#000000" stroke-width="1.9103636363636365"/>
	<path d="M 241.8181818181818,1193.9772727272727 L 120.9090909090909,1193.9772727272727" fill="none" stroke="#000000" stroke-width="1.9103636363636365"/>
	<path d="M 241.8181818181818,1103.2954545454545 L 362.72727272727275,1103.2954545454545" fill="none" stroke="#000000" stroke-width="1.9103636363636365"/>
	<path d="M 362.72727272727275,1133.5227272727273 L 241.81818181818184,1133.5227272727273" fill="none" stroke="#000000" stroke-width="1.9103636363636365"/>
	<path d="M 241.81818181818184,1163.75 L 362.72727272727275,1163.75" fill="none" stroke="#000000" stroke-width="1.9103636363636365"/>
	<path d="M 362.72727272727275,1193.9772727272727 L 241.81818181818184,1193.9772727272727" fill="none" stroke="#000000" stroke-width="1.9103636363636365"/>
	<path d="M 362.72727272727275,1103.2954545454545 L 483.6363636363636,1103.2954545454545" fill="none" stroke="#000000" stroke-width="1.9103636363636365"/>
	<path d="M 483.6363636363636,1133.5227272727273 L 362.72727272727275,1133.5227272727273" fill="none" stroke="#000000" stroke-width="1.9103636363636365"/>
	<path d="M 362.72727272727275,1163.75 L 483.6363636363636,1163.75" fill="none" stroke="#000000" stroke-width="1.9103636363636365"/>
	<path d="M 483.6363636363636,1193.9772727272727 L 362.72727272727275,1193.9772727272727" fill="none" stroke="#000000" stroke-width="1.9103636363636365"/>
	<path d="M 483.6363636363636,1098.2575757575758 L 604.5454545454545,1098.2575757575758" fill="none" stroke="#000000" stroke-width="1.9103636363636365"/>
	<path d="M 604.5454545454545,1118.409090909091 L 483.6363636363636,1118.409090909091" fill="none" stroke="#000000" stroke-width="1.9103636363636365"/>
	<path d="M 483.6363636363636,1138.5606060606062 L 604.5454545454545,1138.5606060606062" fill="none" stroke="#000000" stroke-width="1.9103636363636365"/>
	<path d="M 604.5454545454545,1158.7121212121215 L 483.6363636363636,1158.7121212121215" fill="none" stroke="#000000" stroke-width="1.9103636363636365"/>
	<path d="M 483.6363636363636,1178.8636363636367 L 604.5454545454545,1178.8636363636367" fill="none" stroke="#000000" stroke-width="1.9103636363636365"/>
	<path d="M 604.5454545454545,1199.015151515152 L 483.6363636363636,1199.015151515152" fill="none" stroke="#000000" stroke-width="1.9103636363636365"/>
	<path d="M 604.5454545454545,1098.2575757575758 L 725.4545454545454,1098.2575757575758" fill="none" stroke="#000000" stroke-width="1.9103636363636365"/>
	<path d="M 725.4545454545454,1118.409090909091 L 604.5454545454545,1118.409090909091" fill="none" stroke="#000000" stroke-width="1.9103636363636365"/>
	<path d="M 604.5454545454545,1138.5606060606062 L 725.4545454545454,1138.5606060606062" fill="none" stroke="#000000" stroke-width="1.9103636363636365"/>
	<path d="M 725.4545454545454,1158.7121212121215 L 604.5454545454545,1158.7121212121215" fill="none" stroke="#000000" stroke-width="1.9103636363636365"/>
	<path d="M 604.5454545454545,1178.8636363636367 L 725.4545454545454,1178.8636363636367" fill="none" stroke="#000000" stroke-width="1.9103636363636365"/>
	<path d="M 725.4545454545454,1199.015151515152 L 604.5454545454545,1199.015151515152" fill="none" stroke="#000000" stroke-width="1.9103636363636365"/>
	<path d="M 725.4545454545455,1098.2575757575758 L 846.3636363636364,1098.2575757575758" fill="none" stroke="#000000" stroke-width="1.9103636363636365"/>
	<path d="M 846.3636363636364,1118.409090909091 L 725.4545454545455,1118.409090909091" fill="none" stroke="#000000" stroke-width="1.9103636363636365"/>
	<path d="M 725.4545454545455,1138.5606060606062 L 846.3636363636364,1138.5606060606062" fill="none" stroke="#000000" stroke-width="1.9103636363636365"/>
	<path d="M 846.3636363636364,1158.7121212121215 L 725.4545454545455,1158.7121212121215" fill="none" stroke="#000000" stroke-width="1.9103636363636365"/>
	<path d="M 725.4545454545455,1178.8636363636367 L 846.3636363636364,1178.8636363636367" fill="none" stroke="#000000" stroke-width="1.9103636363636365"/>
	<path d="M 846.3636363636364,1199.015151515152 L 725.4545454545455,1199.015151515152" fill="none" stroke="#000000" stroke-width="1.9103636363636365"/>
	<path d="M 846.3636363636364,1098.2575757575758 L 967.2727272727273,1098.2575757575758" fill="none" stroke="#000000" stroke-width="1.9103636363636365"/>
	<path d="M 967.2727272727273,1118.409090909091 L 846.3636363636364,1118.409090909091" fill="none" stroke="#000000" stroke-width="1.9103636363636365"/>
	<path d="M 846.3636363636364,1138.5606060606062 L 967.2727272727273,1138.5606060606062" fill="none" stroke="#000000" stroke-width="1.9103636363636365"/>
	<path d="M 967.2727272727273,1158.7121212121215 L 846.3636363636364,1158.7121212121215" fill="none" stroke="#000000" stroke-width="1.9103636363636365"/>
	<path d="M 846.3636363636364,1178.8636363636367 L 967.2727272727273,1178.8636363636367" fill="none" stroke="#000000" stroke-width="1.9103636363636365"/>
	<path d="M 967.2727272727273,1199.015151515152 L 846.3636363636364,1199.015151515152" fill="none" stroke="#000000" stroke-width="1.9103636363636365"/>
	<path d="M 967.2727272727273,1103.2954545454545 L 1088.1818181818182,1103.2954545454545" fill="none" stroke="#000000" stroke-width="1.9103636363636365"/>
	<path d="M 1088.1818181818182,1133.5227272727273 L 967.2727272727274,1133.5227272727273" fill="none" stroke="#000000" stroke-width="1.9103636363636365"/>
	<path d="M 967.2727272727274,1163.75 L 1088.1818181818182,1163.75" fill="none" stroke="#000000" stroke-width="1.9103636363636365"/>
	<path d="M 1088.1818181818182,1193.9772727272727 L 967.2727272727274,1193.9772727272727" fill="none" stroke="#000000" stroke-width="1.9103636363636365"/>
	<path d="M 1088.1818181818182,1103.2954545454545 L 1209.0909090909092,1103.2954545454545" fill="none" stroke="#000000" stroke-width="1.9103636363636365"/>
	<path d="M 1209.0909090909092,1133.5227272727273 L 1088.1818181818182,1133.5227272727273" fill="none" stroke="#000000" stroke-width="1.9103636363636365"/>
	<path d="M 1088.1818181818182,1163.75 L 1209.0909090909092,1163.75" fill="none" stroke="#000000" stroke-width="1.9103636363636365"/>
	<path d="M 1209.0909090909092,1193.9772727272727 L 1088.1818181818182,1193.9772727272727" fill="none" stroke="#000000" stroke-width="1.9103636363636365"/>
	<path d="M 1209.090909090909,1103.2954545454545 L 1330.0,1103.2954545454545" fill="none" stroke="#000000" stroke-width="1.9103636363636365"/>
	<path d="M 1330.0,1133.5227272727273 L 1209.090909090909,1133.5227272727273" fill="none" stroke="#000000" stroke-width="1.9103636363636365"/>
	<path d="M 1209.090909090909,1163.75 L 1330.0,1163.75" fill="none" stroke="#000000" stroke-width="1.9103636363636365"/>
	<path d="M 1330.0,1193.9772727272727 L 1209.090909090909,1193.9772727272727" fill="none" stroke="#000000" stroke-width="1.9103636363636365"/>
	<path d="M 1330.0,1103.2954545454545 L 1450.909090909091,1103.2954545454545" fill="none" stroke="#000000" stroke-width="1.9103636363636365"/>
	<path d="M 1450.909090909091,1133.5227272727273 L 1330.0,1133.5227272727273" fill="none" stroke="#000000" stroke-width="1.9103636363636365"/>
	<path d="M 1330.0,1163.75 L 1450.909090909091,1163.75" fill="none" stroke="#000000" stroke-width="1.9103636363636365"/>
	<path d="M 1450.909090909091,1193.9772727272727 L 1330.0,1193.9772727272727" fill="none" stroke="#000000" stroke-width="1.9103636363636365"/>
	<path d="M 0.0,1239.3181818181818 L 120.9090909090909,1239.3181818181818" fill="none" stroke="#000000" stroke-width="1.9103636363636365"/>
	<path d="M 120.9090909090909,1299.7727272727273 L 0.0,1299.7727272727273" fill="none" stroke="#000000" stroke-width="1.9103636363636365"/>
	<path d="M 120.9090909090909,1239.3181818181818 L 241.8181818181818,1239.3181818181818" fill="none" stroke="#000000" stroke-width="1.9103636363636365"/>
	<path d="M 241.8181818181818,1299.7727272727273 L 120.9090909090909,1299.7727272727273" fill="none" stroke="#000000" stroke-width="1.9103636363636365"/>
	<path d="M 241.8181818181818,1224.2045454545453 L 362.72727272727275,1224.2045454545453" fill="none" stroke="#000000" stroke-width="1.9103636363636365"/>
	<path d="M 362.72727272727275,1254.431818181818 L 241.81818181818184,1254.431818181818" fill="none" stroke="#000000" stroke-width="1.9103636363636365"/>
	<path d="M 241.81818181818184,1284.6590909090908 L 362.72727272727275,1284.6590909090908" fill="none" stroke="#000000" stroke-width="1.9103636363636365"/>
	<path d="M 362.72727272727275,1314.8863636363635 L 241.81818181818184,1314.8863636363635" fill="none" stroke="#000000" stroke-width="1.9103636363636365"/>
	<path d="M 362.72727272727275,1219.1666666666665 L 483.6363636363636,1219.1666666666665" fill="none" stroke="#000000" stroke-width="1.9103636363636365"/>
	<path d="M 483.6363636363636,1239.3181818181818 L 362.72727272727275,1239.3181818181818" fill="none" stroke="#000000" stroke-width="1.9103636363636365"/>
	<path d="M 362.72727272727275,1259.469696969697 L 483.6363636363636,1259.469696969697" fill="none" stroke="#000000" stroke-width="1.9103636363636365"/>
	<path d="M 483.6363636363636,1279.6212121212122 L 362.72727272727275,1279.6212121212122" fill="none" stroke="#000000" stroke-width="1.9103636363636365"/>
	<path d="M 362.72727272727275,1299.7727272727275 L 483.6363636363636,1299.7727272727275" fill="none" stroke="#000000" stroke-width="1.9103636363636365"/>
	<path d="M 483.6363636363636,1319.9242424242427 L 362.72727272727275,1319.9242424242427" fill="none" stroke="#000000" stroke-width="1.9103636363636365"/>
	<path d="M 604.5454545454545,1219.1666666666665 L 725.4545454545454,1219.1666666666665" fill="none" stroke="#000000" stroke-width="1.9103636363636365"/>
	<path d="M 725.4545454545454,1239.3181818181818 L 604.5454545454545,1239.3181818181818" fill="none" stroke="#000000" stroke-width="1.9103636363636365"/>
	<path d="M 604.5454545454545,1259.469696969697 L 725.4545454545454,1259.469696969697" fill="none" stroke="#000000" stroke-width="1.9103636363636365"/>
	<path d="M 725.4545454545454,1279.6212121212122 L 604.5454545454545,1279.6212121212122" fill="none" stroke="#000000" stroke-width="1.9103636363636365"/>
	<path d="M 604.5454545454545,1299.7727272727275 L 725.4545454545454,1299.7727272727275" fill="none" stroke="#000000" stroke-width="1.9103636363636365"/>
	<path d="M 725.4545454545454,1319.9242424242427 L 604.5454545454545,1319.9242424242427" fill="none" stroke="#000000" stroke-width="1.9103636363636365"/>
	<path d="M 725.4545454545455,1219.1666666666665 L 846.3636363636364,1219.1666666666665" fill="none" stroke="#000000" stroke-width="1.9103636363636365"/>
	<path d="M 846.3636363636364,1239.3181818181818 L 725.4545454545455,1239.3181818181818" fill="none" stroke="#000000" stroke-width="1.9103636363636365"/>
	<path d="M 725.4545454545455,1259.469696969697 L 846.3636363636364,1259.469696969697" fill="none" stroke="#000000" stroke-width="1.9103636363636365"/>
	<path d="M 846.3636363636364,1279.6212121212122 L 725.4545454545455,1279.6212121212122" fill="none" stroke="#000000" stroke-width="1.9103636363636365"/>
	<path d="M 725.4545454545455,1299.7727272727275 L 846.3636363636364,1299.7727272727275" fill="none" stroke="#000000" stroke-width="1.9103636363636365"/>
	<path d="M 846.3636363636364,1319.9242424242427 L 725.4545454545455,1319.9242424242427" fill="none" stroke="#000000" stroke-width="1.9103636363636365"/>
	<path d="M 967.2727272727273,1219.1666666666665 L 1088.1818181818182,1219.1666666666665" fill="none" stroke="#000000" stroke-width="1.9103636363636365"/>
	<path d="M 1088.1818181818182,1239.3181818181818 L 967.2727272727274,1239.3181818181818" fill="none" stroke="#000000" stroke-width="1.9103636363636365"/>
	<path d="M 967.2727272727274,1259.469696969697 L 1088.1818181818182,1259.469696969697" fill="none" stroke="#000000" stroke-width="1.9103636363636365"/>
	<path d="M 1088.1818181818182,1279.6212121212122 L 967.2727272727274,1279.6212121212122" fill="none" stroke="#000000" stroke-width="1.9103636363636365"/>
	<path d="M 967.2727272727274,1299.7727272727275 L 1088.1818181818182,1299.7727272727275" fill="none" stroke="#000000" stroke-width="1.9103636363636365"/>
	<path d="M 1088.1818181818182,1319.9242424242427 L 967.2727272727274,1319.9242424242427" fill="none" stroke="#000000" stroke-width="1.9103636363636365"/>
	<path d="M 1088.1818181818182,1224.2045454545453 L 1209.0909090909092,1224.2045454545453" fill="none" stroke="#000000" stroke-width="1.9103636363636365"/>
	<path d="M 1209.0909090909092,1254.431818181818 L 1088.1818181818182,1254.431818181818" fill="none" stroke="#000000" stroke-width="1.9103636363636365"/>
	<path d="M 1088.1818181818182,1284.6590909090908 L 1209.0909090909092,1284.6590909090908" fill="none" stroke="#000000" stroke-width="1.9103636363636365"/>
	<path d="M 1209.0909090909092,1314.8863636363635 L 1088.1818181818182,1314.8863636363635" fill="none" stroke="#000000" stroke-width="1.9103636363636365"/>
	<path d="M 1209.090909090909,1239.3181818181818 L 1330.0,1239.3181818181818" fill="none" stroke="#000000" stroke-width="1.9103636363636365"/>
	<path d="M 1330.0,1299.7727272727273 L 1209.090909090909,1299.7727272727273" fill="none" stroke="#000000" stroke-width="1.9103636363636365"/>
	<path d="M 1330.0,1239.3181818181818 L 1450.909090909091,1239.3181818181818" fill="none" stroke="#000000" stroke-width="1.9103636363636365"/>
	<path d="M 1450.909090909091,1299.7727272727273 L 1330.0,1299.7727272727273" fill="none" stroke="#000000" stroke-width="1.9103636363636365"/>
	<path d="M 0.0,1360.2272727272727 L 120.9090909090909,1360.2272727272727" fill="none" stroke="#000000" stroke-width="1.9103636363636365"/>
	<path d="M 120.9090909090909,1420.6818181818182 L 0.0,1420.6818181818182" fill="none" stroke="#000000" stroke-width="1.9103636363636365"/>
	<path d="M 120.9090909090909,1360.2272727272727 L 241.8181818181818,1360.2272727272727" fill="none" stroke="#000000" stroke-width="1.9103636363636365"/>
	<path d="M 241.8181818181818,1420.6818181818182 L 120.9090909090909,1420.6818181818182" fill="none" stroke="#000000" stroke-width="1.9103636363636365"/>
	<path d="M 241.8181818181818,1360.2272727272727 L 362.72727272727275,1360.2272727272727" fill="none" stroke="#000000" stroke-width="1.9103636363636365"/>
	<path d="M 362.72727272727275,1420.6818181818182 L 241.81818181818184,1420.6818181818182" fill="none" stroke="#000000" stroke-width="1.9103636363636365"/>
	<path d="M 362.72727272727275,1340.0757575757575 L 483.6363636363636,1340.0757575757575" fill="none" stroke="#000000" stroke-width="1.9103636363636365"/>
	<path d="M 483.6363636363636,1360.2272727272727 L 362.72727272727275,1360.2272727272727" fill="none" stroke="#000000" stroke-width="1.9103636363636365"/>
	<path d="M 362.72727272727275,1380.378787878788 L 483.6363636363636,1380.378787878788" fill="none" stroke="#000000" stroke-width="1.9103636363636365"/>
	<path d="M 483.6363636363636,1400.5303030303032 L 362.72727272727275,1400.5303030303032" fill="none" stroke="#000000" stroke-width="1.9103636363636365"/>
	<path d="M 362.72727272727275,1420.6818181818185 L 483.6363636363636,1420.6818181818185" fill="none" stroke="#000000" stroke-width="1.9103636363636365"/>
	<path d="M 483.6363636363636,1440.8333333333337 L 362.72727272727275,1440.8333333333337" fill="none" stroke="#000000" stroke-width="1.9103636363636365"/>
	<path d="M 483.6363636363636,1340.0757575757575 L 604.5454545454545,1340.0757575757575" fill="none" stroke="#000000" stroke-width="1.9103636363636365"/>
	<path d="M 604.5454545454545,1360.2272727272727 L 483.6363636363636,1360.2272727272727" fill="none" stroke="#000000" stroke-width="1.9103636363636365"/>
	<path d="M 483.6363636363636,1380.378787878788 L 604.5454545454545,1380.378787878788" fill="none" stroke="#000000" stroke-width="1.9103636363636365"/>
	<path d="M 604.5454545454545,1400.5303030303032 L 483.6363636363636,1400.5303030303032" fill="none" stroke="#000000" stroke-width="1.9103636363636365"/>
	<path d="M 483.6363636363636,1420.6818181818185 L 604.5454545454545,1420.6818181818185" fill="none" stroke="#000000" stroke-width="1.9103636363636365"/>
	<path d="M 604.5454545454545,1440.8333333333337 L 483.6363636363636,1440.8333333333337" fill="none" stroke="#000000" stroke-width="1.9103636363636365"/>
	<path d="M 604.5454545454545,1340.0757575757575 L 725.4545454545454,1340.0757575757575" fill="none" stroke="#000000" stroke-width="1.9103636363636365"/>
	<path d="M 725.4545454545454,1360.2272727272727 L 604.5454545454545,1360.2272727272727" fill="none" stroke="#000000" stroke-width="1.9103636363636365"/>
	<path d="M 604.5454545454545,1380.378787878788 L 725.4545454545454,1380.378787878788" fill="none" stroke="#000000" stroke-width="1.9103636363636365"/>
	<path d="M 725.4545454545454,1400.5303030303032 L 604.5454545454545,1400.5303030303032" fill="none" stroke="#000000" stroke-width="1.9103636363636365"/>
	<path d="M 604.5454545454545,1420.6818181818185 L 725.4545454545454,1420.6818181818185" fill="none" stroke="#000000" stroke-width="1.9103636363636365"/>
	<path d="M 725.4545454545454,1440.8333333333337 L 604.5454545454545,1440.8333333333337" fill="none" stroke="#000000" stroke-width="1.9103636363636365"/>
	<path d="M 725.4545454545455,1340.0757575757575 L 846.3636363636364,1340.0757575757575" fill="none" stroke="#000000" stroke-width="1.9103636363636365"/>
	<path d="M 846.3636363636364,1360.2272727272727 L 725.4545454545455,1360.2272727272727" fill="none" stroke="#000000" stroke-width="1.9103636363636365"/>
	<path d="M 725.4545454545455,1380.378787878788 L 846.3636363636364,1380.378787878788" fill="none" stroke="#000000" stroke-width="1.9103636363636365"/>
	<path d="M 846.3636363636364,1400.5303030303032 L 725.4545454545455,1400.5303030303032" fill="none" stroke="#000000" stroke-width="1.9103636363636365"/>
	<path d="M 725.4545454545455,1420.6818181818185 L 846.3636363636364,1420.6818181818185" fill="none" stroke="#000000" stroke-width="1.9103636363636365"/>
	<path d="M 846.3636363636364,1440.8333333333337 L 725.4545454545455,1440.8333333333337" fill="none" stroke="#000000" stroke-width="1.9103636363636365"/>
	<path d="M 846.3636363636364,1340.0757575757575 L 967.2727272727273,1340.0757575757575" fill="none" stroke="#000000" stroke-width="1.9103636363636365"/>
	<path d="M 967.2727272727273,1360.2272727272727 L 846.3636363636364,1360.2272727272727" fill="none" stroke="#000000" stroke-width="1.9103636363636365"/>
	<path d="M 846.3636363636364,1380.378787878788 L 967.2727272727273,1380.378787878788" fill="none" stroke="#000000" stroke-width="1.9103636363636365"/>
	<path d="M 967.2727272727273,1400.5303030303032 L 846.3636363636364,1400.5303030303032" fill="none" stroke="#000000" stroke-width="1.9103636363636365"/>
	<path d="M 846.3636363636364,1420.6818181818185 L 967.2727272727273,1420.6818181818185" fill="none" stroke="#000000" stroke-width="1.9103636363636365"/>
	<path d="M 967.2727272727273,1440.8333333333337 L 846.3636363636364,1440.8333333333337" fill="none" stroke="#000000" stroke-width="1.9103636363636365"/>
	<path d="M 967.2727272727273,1340.0757575757575 L 1088.1818181818182,1340.0757575757575" fill="none" stroke="#000000" stroke-width="1.9103636363636365"/>
	<path d="M 1088.1818181818182,1360.2272727272727 L 967.2727272727274,1360.2272727272727" fill="none" stroke="#000000" stroke-width="1.9103636363636365"/>
	<path d="M 967.2727272727274,1380.378787878788 L 1088.1818181818182,1380.378787878788" fill="none" stroke="#000000" stroke-width="1.9103636363636365"/>
	<path d="M 1088.1818181818182,1400.5303030303032 L 967.2727272727274,1400.5303030303032" fill="none" stroke="#000000" stroke-width="1.9103636363636365"/>
	<path d="M 967.2727272727274,1420.6818181818185 L 1088.1818181818182,1420.6818181818185" fill="none" stroke="#000000" stroke-width="1.9103636363636365"/>
	<path d="M 1088.1818181818182,1440.8333333333337 L 967.2727272727274,1440.8333333333337" fill="none" stroke="#000000" stroke-width="1.9103636363636365"/>
	<path d="M 1088.1818181818182,1360.2272727272727 L 1209.0909090909092,1360.2272727272727" fill="none" stroke="#000000" stroke-width="1.9103636363636365"/>
	<path d="M 1209.0909090909092,1420.6818181818182 L 1088.1818181818182,1420.6818181818182" fill="none" stroke="#000000" stroke-width="1.9103636363636365"/>
	<path d="M 1209.090909090909,1360.2272727272727 L 1330.0,1360.2272727272727" fill="none" stroke="#000000" stroke-width="1.9103636363636365"/>
	<path d="M 1330.0,1420.6818181818182 L 1209.090909090909,1420.6818181818182" fill="none" stroke="#000000" stroke-width="1.9103636363636365"/>
	<path d="M 1330.0,1360.2272727272727 L 1450.909090909091,1360.2272727272727" fill="none" stroke="#000000" stroke-width="1.9103636363636365"/>
	<path d="M 1450.909090909091,1420.6818181818182 L 1330.0,1420.6818181818182" fill="none" stroke="#000000" stroke-width="1.9103636363636365"/>
	<path d="M 0.0,1481.1363636363637 L 120.9090909090909,1481.1363636363637" fill="none" stroke="#000000" stroke-width="1.9103636363636365"/>
	<path d="M 120.9090909090909,1541.5909090909092 L 0.0,1541.5909090909092" fill="none" stroke="#000000" stroke-width="1.9103636363636365"/>
	<path d="M 120.9090909090909,1481.1363636363637 L 241.8181818181818,1481.1363636363637" fill="none" stroke="#000000" stroke-width="1.9103636363636365"/>
	<path d="M 241.8181818181818,1541.5909090909092 L 120.9090909090909,1541.5909090909092" fill="none" stroke="#000000" stroke-width="1.9103636363636365"/>
	<path d="M 362.72727272727275,1460.9848484848485 L 483.6363636363636,1460.9848484848485" fill="none" stroke="#000000" stroke-width="1.9103636363636365"/>
	<path d="M 483.6363636363636,1481.1363636363637 L 362.72727272727275,1481.1363636363637" fill="none" stroke="#000000" stroke-width="1.9103636363636365"/>
	<path d="M 362.72727272727275,1501.287878787879 L 483.6363636363636,1501.287878787879" fill="none" stroke="#000000" stroke-width="1.9103636363636365"/>
	<path d="M 483.6363636363636,1521.4393939393942 L 362.72727272727275,1521.4393939393942" fill="none" stroke="#000000" stroke-width="1.9103636363636365"/>
	<path d="M 362.72727272727275,1541.5909090909095 L 483.6363636363636,1541.5909090909095" fill="none" stroke="#000000" stroke-width="1.9103636363636365"/>
	<path d="M 483.6363636363636,1561.7424242424247 L 362.72727272727275,1561.7424242424247" fill="none" stroke="#000000" stroke-width="1.9103636363636365"/>
	<path d="M 483.6363636363636,1460.9848484848485 L 604.5454545454545,1460.9848484848485" fill="none" stroke="#000000" stroke-width="1.9103636363636365"/>
	<path d="M 604.5454545454545,1481.1363636363637 L 483.6363636363636,1481.1363636363637" fill="none" stroke="#000000" stroke-width="1.9103636363636365"/>
	<path d="M 483.6363636363636,1501.287878787879 L 604.5454545454545,1501.287878787879" fill="none" stroke="#000000" stroke-width="1.9103636363636365"/>
	<path d="M 604.5454545454545,1521.4393939393942 L 483.6363636363636,1521.4393939393942" fill="none" stroke="#000000" stroke-width="1.9103636363636365"/>
	<path d="M 483.6363636363636,1541.5909090909095 L 604.5454545454545,1541.5909090909095" fill="none" stroke="#000000" stroke-width="1.9103636363636365"/>
	<path d="M 604.5454545454545,1561.7424242424247 L 483.6363636363636,1561.7424242424247" fill="none" stroke="#000000" stroke-width="1.9103636363636365"/>
	<path d="M 604.5454545454545,1460.9848484848485 L 725.4545454545454,1460.9848484848485" fill="none" stroke="#000000" stroke-width="1.9103636363636365"/>
	<path d="M 725.4545454545454,1481.1363636363637 L 604.5454545454545,1481.1363636363637" fill="none" stroke="#000000" stroke-width="1.9103636363636365"/>
	<path d="M 604.5454545454545,1501.287878787879 L 725.4545454545454,1501.287878787879" fill="none" stroke="#000000" stroke-width="1.9103636363636365"/>
	<path d="M 725.4545454545454,1521.4393939393942 L 604.5454545454545,1521.4393939393942" fill="none" stroke="#000000" stroke-width="1.9103636363636365"/>
	<path d="M 604.5454545454545,1541.5909090909095 L 725.4545454545454,1541.5909090909095" fill="none" stroke="#000000" stroke-width="1.9103636363636365"/>
	<path d="M 725.4545454545454,1561.7424242424247 L 604.5454545454545,1561.7424242424247" fill="none" stroke="#000000" stroke-width="1.9103636363636365"/>
	<path d="M 725.4545454545455,1460.9848484848485 L 846.3636363636364,1460.9848484848485" fill="none" stroke="#000000" stroke-width="1.9103636363636365"/>
	<path d="M 846.3636363636364,1481.1363636363637 L 725.4545454545455,1481.1363636363637" fill="none" stroke="#000000" stroke-width="1.9103636363636365"/>
	<path d="M 725.4545454545455,1501.287878787879 L 846.3636363636364,1501.287878787879" fill="none" stroke="#000000" stroke-width="1.9103636363636365"/>
	<path d="M 846.3636363636364,1521.4393939393942 L 725.4545454545455,1521.4393939393942" fill="none" stroke="#000000" stroke-width="1.9103636363636365"/>
	<path d="M 725.4545454545455,1541.5909090909095 L 846.3636363636364,1541.5909090909095" fill="none" stroke="#000000" stroke-width="1.9103636363636365"/>
	<path d="M 846.3636363636364,1561.7424242424247 L 725.4545454545455,1561.7424242424247" fill="none" stroke="#000000" stroke-width="1.9103636363636365"/>
	<path d="M 846.3636363636364,1460.9848484848485 L 967.2727272727273,1460.9848484848485" fill="none" stroke="#000000" stroke-width="1.9103636363636365"/>
	<path d="M 967.2727272727273,1481.1363636363637 L 846.3636363636364,1481.1363636363637" fill="none" stroke="#000000" stroke-width="1.9103636363636365"/>
	<path d="M 846.3636363636364,1501.287878787879 L 967.2727272727273,1501.287878787879" fill="none" stroke="#000000" stroke-width="1.9103636363636365"/>
	<path d="M 967.2727272727273,1521.4393939393942 L 846.3636363636364,1521.4393939393942" fill="none" stroke="#000000" stroke-width="1.9103636363636365"/>
	<path d="M 846.3636363636364,1541.5909090909095 L 967.2727272727273,1541.5909090909095" fill="none" stroke="#000000" stroke-width="1.9103636363636365"/>
	<path d="M 967.2727272727273,1561.7424242424247 L 846.3636363636364,1561.7424242424247" fill="none" stroke="#000000" stroke-width="1.9103636363636365"/>
	<path d="M 967.2727272727273,1460.9848484848485 L 1088.1818181818182,1460.9848484848485" fill="none" stroke="#000000" stroke-width="1.9103636363636365"/>
	<path d="M 1088.1818181818182,1481.1363636363637 L 967.2727272727274,1481.1363636363637" fill="none" stroke="#000000" stroke-width="1.9103636363636365"/>
	<path d="M 967.2727272727274,1501.287878787879 L 1088.1818181818182,1501.287878787879" fill="none" stroke="#000000" stroke-width="1.9103636363636365"/>
	<path d="M 1088.1818181818182,1521.4393939393942 L 967.2727272727274,1521.4393939393942" fill="none" stroke="#000000" stroke-width="1.9103636363636365"/>
	<path d="M 967.2727272727274,1541.5909090909095 L 1088.1818181818182,1541.5909090909095" fill="none" stroke="#000000" stroke-width="1.9103636363636365"/>
	<path d="M 1088.1818181818182,1561.7424242424247 L 967.2727272727274,1561.7424242424247" fill="none" stroke="#000000" stroke-width="1.9103636363636365"/>
	<path d="M 1088.1818181818182,1460.9848484848485 L 1209.0909090909092,1460.9848484848485" fill="none" stroke="#000000" stroke-width="1.9103636363636365"/>
	<path d="M 1209.0909090909092,1481.1363636363637 L 1088.1818181818182,1481.1363636363637" fill="none" stroke="#000000" stroke-width="1.9103636363636365"/>
	<path d="M 1088.1818181818182,1501.287878787879 L 1209.0909090909092,1501.287878787879" fill="none" stroke="#000000" stroke-width="1.9103636363636365"/>
	<path d="M 1209.0909090909092,1521.4393939393942 L 1088.1818181818182,1521.4393939393942" fill="none" stroke="#000000" stroke-width="1.9103636363636365"/>
	<path d="M 1088.1818181818182,1541.5909090909095 L 1209.0909090909092,1541.5909090909095" fill="none" stroke="#000000" stroke-width="1.9103636363636365"/>
	<path d="M 1209.0909090909092,1561.7424242424247 L 1088.1818181818182,1561.7424242424247" fill="none" stroke="#000000" stroke-width="1.9103636363636365"/>
	<path d="M 1209.090909090909,1481.1363636363637 L 1330.0,1481.1363636363637" fill="none" stroke="#000000" stroke-width="1.9103636363636365"/>
	<path d="M 1330.0,1541.5909090909092 L 1209.090909090909,1541.5909090909092" fill="none" stroke="#000000" stroke-width="1.9103636363636365"/>
	<path d="M 1330.0,1481.1363636363637 L 1450.909090909091,1481.1363636363637" fill="none" stroke="#000000" stroke-width="1.9103636363636365"/>
	<path d="M 1450.909090909091,1541.5909090909092 L 1330.0,1541.5909090909092" fill="none" stroke="#000000" stroke-width="1.9103636363636365"/>
	<path d="M 362.72727272727275,1581.8939393939393 L 483.6363636363636,1581.8939393939393" fill="none" stroke="#000000" stroke-width="1.9103636363636365"/>
	<path d="M 483.6363636363636,1602.0454545454545 L 362.72727272727275,1602.0454545454545" fill="none" stroke="#000000" stroke-width="1.9103636363636365"/>
	<path d="M 362.72727272727275,1622.1969696969697 L 483.6363636363636,1622.1969696969697" fill="none" stroke="#000000" stroke-width="1.9103636363636365"/>
	<path d="M 483.6363636363636,1642.348484848485 L 362.72727272727275,1642.348484848485" fill="none" stroke="#000000" stroke-width="1.9103636363636365"/>
	<path d="M 362.72727272727275,1662.5000000000002 L 483.6363636363636,1662.5000000000002" fill="none" stroke="#000000" stroke-width="1.9103636363636365"/>
	<path d="M 483.6363636363636,1682.6515151515155 L 362.72727272727275,1682.6515151515155" fill="none" stroke="#000000" stroke-width="1.9103636363636365"/>
	<path d="M 483.6363636363636,1581.8939393939393 L 604.5454545454545,1581.8939393939393" fill="none" stroke="#000000" stroke-width="1.9103636363636365"/>
	<path d="M 604.5454545454545,1602.0454545454545 L 483.6363636363636,1602.0454545454545" fill="none" stroke="#000000" stroke-width="1.9103636363636365"/>
	<path d="M 483.6363636363636,1622.1969696969697 L 604.5454545454545,1622.1969696969697" fill="none" stroke="#000000" stroke-width="1.9103636363636365"/>
	<path d="M 604.5454545454545,1642.348484848485 L 483.6363636363636,1642.348484848485" fill="none" stroke="#000000" stroke-width="1.9103636363636365"/>
	<path d="M 483.6363636363636,1662.5000000000002 L 604.5454545454545,1662.5000000000002" fill="none" stroke="#000000" stroke-width="1.9103636363636365"/>
	<path d="M 604.5454545454545,1682.6515151515155 L 483.6363636363636,1682.6515151515155" fill="none" stroke="#000000" stroke-width="1.9103636363636365"/>
	<path d="M 846.3636363636364,1581.8939393939393 L 967.2727272727273,1581.8939393939393" fill="none" stroke="#000000" stroke-width="1.9103636363636365"/>
	<path d="M 967.2727272727273,1602.0454545454545 L 846.3636363636364,1602.0454545454545" fill="none" stroke="#000000" stroke-width="1.9103636363636365"/>
	<path d="M 846.3636363636364,1622.1969696969697 L 967.2727272727273,1622.1969696969697" fill="none" stroke="#000000" stroke-width="1.9103636363636365"/>
	<path d="M 967.2727272727273,1642.348484848485 L 846.3636363636364,1642.348484848485" fill="none" stroke="#000000" stroke-width="1.9103636363636365"/>
	<path d="M 846.3636363636364,1662.5000000000002 L 967.2727272727273,1662.5000000000002" fill="none" stroke="#000000" stroke-width="1.9103636363636365"/>
	<path d="M 967.2727272727273,1682.6515151515155 L 846.3636363636364,1682.6515151515155" fill="none" stroke="#000000" stroke-width="1.9103636363636365"/>
	<path d="M 967.2727272727273,1581.8939393939393 L 1088.1818181818182,1581.8939393939393" fill="none" stroke="#000000" stroke-width="1.9103636363636365"/>
	<path d="M 1088.1818181818182,1602.0454545454545 L 967.2727272727274,1602.0454545454545" fill="none" stroke="#000000" stroke-width="1.9103636363636365"/>
	<path d="M 967.2727272727274,1622.1969696969697 L 1088.1818181818182,1622.1969696969697" fill="none" stroke="#000000" stroke-width="1.9103636363636365"/>
	<path d="M 1088.1818181818182,1642.348484848485 L 967.2727272727274,1642.348484848485" fill="none" stroke="#000000" stroke-width="1.9103636363636365"/>
	<path d="M 967.2727272727274,1662.5000000000002 L 1088.1818181818182,1662.5000000000002" fill="none" stroke="#000000" stroke-width="1.9103636363636365"/>
	<path d="M 1088.1818181818182,1682.6515151515155 L 967.2727272727274,1682.6515151515155" fill="none" stroke="#000000" stroke-width="1.9103636363636365"/>
	<path d="M 1088.1818181818182,1581.8939393939393 L 1209.0909090909092,1581.8939393939393" fill="none" stroke="#000000" stroke-width="1.9103636363636365"/>
	<path d="M 1209.0909090909092,1602.0454545454545 L 1088.1818181818182,1602.0454545454545" fill="none" stroke="#000000" stroke-width="1.9103636363636365"/>
	<path d="M 1088.1818181818182,1622.1969696969697 L 1209.0909090909092,1622.1969696969697" fill="none" stroke="#000000" stroke-width="1.9103636363636365"/>
	<path d="M 1209.0909090909092,1642.348484848485 L 1088.1818181818182,1642.348484848485" fill="none" stroke="#000000" stroke-width="1.9103636363636365"/>
	<path d="M 1088.1818181818182,1662.5000000000002 L 1209.0909090909092,1662.5000000000002" fill="none" stroke="#000000" stroke-width="1.9103636363636365"/>
	<path d="M 1209.0909090909092,1682.6515151515155 L 1088.1818181818182,1682.6515151515155" fill="none" stroke="#000000" stroke-width="1.9103636363636365"/>
	<path d="M 120.9090909090909,1704.8181818181818 L 241.8181818181818,1704.8181818181818" fill="none" stroke="#000000" stroke-width="1.9103636363636365"/>
	<path d="M 241.8181818181818,1729.0 L 120.9090909090909,1729.0" fill="none" stroke="#000000" stroke-width="1.9103636363636365"/>
	<path d="M 120.9090909090909,1753.1818181818182 L 241.8181818181818,1753.1818181818182" fill="none" stroke="#000000" stroke-width="1.9103636363636365"/>
	<path d="M 241.8181818181818,1777.3636363636365 L 120.9090909090909,1777.3636363636365" fill="none" stroke="#000000" stroke-width="1.9103636363636365"/>
	<path d="M 120.9090909090909,1801.5454545454547 L 241.8181818181818,1801.5454545454547" fill="none" stroke="#000000" stroke-width="1.9103636363636365"/>
	<path d="M 241.8181818181818,1704.8181818181818 L 362.72727272727275,1704.8181818181818" fill="none" stroke="#000000" stroke-width="1.9103636363636365"/>
	<path d="M 362.72727272727275,1729.0 L 241.81818181818184,1729.0" fill="none" stroke="#000000" stroke-width="1.9103636363636365"/>
	<path d="M 241.81818181818184,1753.1818181818182 L 362.72727272727275,1753.1818181818182" fill="none" stroke="#000000" stroke-width="1.9103636363636365"/>
	<path d="M 362.72727272727275,1777.3636363636365 L 241.81818181818184,1777.3636363636365" fill="none" stroke="#000000" stroke-width="1.9103636363636365"/>
	<path d="M 241.81818181818184,1801.5454545454547 L 362.72727272727275,1801.5454545454547" fill="none" stroke="#000000" stroke-width="1.9103636363636365"/>
	<path d="M 362.72727272727275,1704.8181818181818 L 483.6363636363636,1704.8181818181818" fill="none" stroke="#000000" stroke-width="1.9103636363636365"/>
	<path d="M 483.6363636363636,1729.0 L 362.72727272727275,1729.0" fill="none" stroke="#000000" stroke-width="1.9103636363636365"/>
	<path d="M 362.72727272727275,1753.1818181818182 L 483.6363636363636,1753.1818181818182" fill="none" stroke="#000000" stroke-width="1.9103636363636365"/>
	<path d="M 483.6363636363636,1777.3636363636365 L 362.72727272727275,1777.3636363636365" fill="none" stroke="#000000" stroke-width="1.9103636363636365"/>
	<path d="M 362.72727272727275,1801.5454545454547 L 483.6363636363636,1801.5454545454547" fill="none" stroke="#000000" stroke-width="1.9103636363636365"/>
	<path d="M 967.2727272727273,1704.8181818181818 L 1088.1818181818182,1704.8181818181818" fill="none" stroke="#000000" stroke-width="1.9103636363636365"/>
	<path d="M 1088.1818181818182,1729.0 L 967.2727272727274,1729.0" fill="none" stroke="#000000" stroke-width="1.9103636363636365"/>
	<path d="M 967.2727272727274,1753.1818181818182 L 1088.1818181818182,1753.1818181818182" fill="none" stroke="#000000" stroke-width="1.9103636363636365"/>
	<path d="M 1088.1818181818182,1777.3636363636365 L 967.2727272727274,1777.3636363636365" fill="none" stroke="#000000" stroke-width="1.9103636363636365"/>
	<path d="M 967.2727272727274,1801.5454545454547 L 1088.1818181818182,1801.5454545454547" fill="none" stroke="#000000" stroke-width="1.9103636363636365"/>
	<path d="M 1088.1818181818182,1704.8181818181818 L 1209.0909090909092,1704.8181818181818" fill="none" stroke="#000000" stroke-width="1.9103636363636365"/>
	<path d="M 1209.0909090909092,1729.0 L 1088.1818181818182,1729.0" fill="none" stroke="#000000" stroke-width="1.9103636363636365"/>
	<path d="M 1088.1818181818182,1753.1818181818182 L 1209.0909090909092,1753.1818181818182" fill="none" stroke="#000000" stroke-width="1.9103636363636365"/>
	<path d="M 1209.0909090909092,1777.3636363636365 L 1088.1818181818182,1777.3636363636365" fill="none" stroke="#000000" stroke-width="1.9103636363636365"/>
	<path d="M 1088.1818181818182,1801.5454545454547 L 1209.0909090909092,1801.5454545454547" fill="none" stroke="#000000" stroke-width="1.9103636363636365"/>
	<path d="M 1209.090909090909,1704.8181818181818 L 1330.0,1704.8181818181818" fill="none" stroke="#000000" stroke-width="1.9103636363636365"/>
	<path d="M 1330.0,1729.0 L 1209.090909090909,1729.0" fill="none" stroke="#000000" stroke-width="1.9103636363636365"/>
	<path d="M 1209.090909090909,1753.1818181818182 L 1330.0,1753.1818181818182" fill="none" stroke="#000000" stroke-width="1.9103636363636365"/>
	<path d="M 1330.0,1777.3636363636365 L 1209.090909090909,1777.3636363636365" fill="none" stroke="#000000" stroke-width="1.9103636363636365"/>
	<path d="M 1209.090909090909,1801.5454545454547 L 1330.0,1801.5454545454547" fill="none" stroke="#000000" stroke-width="1.9103636363636365"/>
	<path d="M 0.0,1825.7272727272725 L 120.9090909090909,1825.7272727272725" fill="none" stroke="#000000" stroke-width="1.9103636363636365"/>
	<path d="M 120.9090909090909,1849.9090909090908 L 0.0,1849.9090909090908" fill="none" stroke="#000000" stroke-width="1.9103636363636365"/>
	<path d="M 0.0,1874.090909090909 L 120.9090909090909,1874.090909090909" fill="none" stroke="#000000" stroke-width="1.9103636363636365"/>
	<path d="M 120.9090909090909,1898.2727272727273 L 0.0,1898.2727272727273" fill="none" stroke="#000000" stroke-width="1.9103636363636365"/>
	<path d="M 0.0,1922.4545454545455 L 120.9090909090909,1922.4545454545455" fill="none" stroke="#000000" stroke-width="1.9103636363636365"/>
	<path d="M 120.9090909090909,1825.7272727272725 L 241.8181818181818,1825.7272727272725" fill="none" stroke="#000000" stroke-width="1.9103636363636365"/>
	<path d="M 241.8181818181818,1849.9090909090908 L 120.9090909090909,1849.9090909090908" fill="none" stroke="#000000" stroke-width="1.9103636363636365"/>
	<path d="M 120.9090909090909,1874.090909090909 L 241.8181818181818,1874.090909090909" fill="none" stroke="#000000" stroke-width="1.9103636363636365"/>
	<path d="M 241.8181818181818,1898.2727272727273 L 120.9090909090909,1898.2727272727273" fill="none" stroke="#000000" stroke-width="1.9103636363636365"/>
	<path d="M 120.9090909090909,1922.4545454545455 L 241.8181818181818,1922.4545454545455" fill="none" stroke="#000000" stroke-width="1.9103636363636365"/>
	<path d="M 241.8181818181818,1825.7272727272725 L 362.72727272727275,1825.7272727272725" fill="none" stroke="#000000" stroke-width="1.9103636363636365"/>
	<path d="M 362.72727272727275,1849.9090909090908 L 241.81818181818184,1849.9090909090908" fill="none" stroke="#000000" stroke-width="1.9103636363636365"/>
	<path d="M 241.81818181818184,1874.090909090909 L 362.72727272727275,1874.090909090909" fill="none" stroke="#000000" stroke-width="1.9103636363636365"/>
	<path d="M 362.72727272727275,1898.2727272727273 L 241.81818181818184,1898.2727272727273" fill="none" stroke="#000000" stroke-width="1.9103636363636365"/>
	<path d="M 241.81818181818184,1922.4545454545455 L 362.72727272727275,1922.4545454545455" fill="none" stroke="#000000" stroke-width="1.9103636363636365"/>
	<path d="M 362.72727272727275,1825.7272727272725 L 483.6363636363636,1825.7272727272725" fill="none" stroke="#000000" stroke-width="1.9103636363636365"/>
	<path d="M 483.6363636363636,1849.9090909090908 L 362.72727272727275,1849.9090909090908" fill="none" stroke="#000000" stroke-width="1.9103636363636365"/>
	<path d="M 362.72727272727275,1874.090909090909 L 483.6363636363636,1874.090909090909" fill="none" stroke="#000000" stroke-width="1.9103636363636365"/>
	<path d="M 483.6363636363636,1898.2727272727273 L 362.72727272727275,1898.2727272727273" fill="none" stroke="#000000" stroke-width="1.9103636363636365"/>
	<path d="M 362.72727272727275,1922.4545454545455 L 483.6363636363636,1922.4545454545455" fill="none" stroke="#000000" stroke-width="1.9103636363636365"/>
	<path d="M 967.2727272727273,1825.7272727272725 L 1088.1818181818182,1825.7272727272725" fill="none" stroke="#000000" stroke-width="1.9103636363636365"/>
	<path d="M 1088.1818181818182,1849.9090909090908 L 967.2727272727274,1849.9090909090908" fill="none" stroke="#000000" stroke-width="1.9103636363636365"/>
	<path d="M 967.2727272727274,1874.090909090909 L 1088.1818181818182,1874.090909090909" fill="none" stroke="#000000" stroke-width="1.9103636363636365"/>
	<path d="M 1088.1818181818182,1898.2727272727273 L 967.2727272727274,1898.2727272727273" fill="none" stroke="#000000" stroke-width="1.9103636363636365"/>
	<path d="M 967.2727272727274,1922.4545454545455 L 1088.1818181818182,1922.4545454545455" fill="none" stroke="#000000" stroke-width="1.9103636363636365"/>
	<path d="M 1088.1818181818182,1825.7272727272725 L 1209.0909090909092,1825.7272727272725" fill="none" stroke="#000000" stroke-width="1.9103636363636365"/>
	<path d="M 1209.0909090909092,1849.9090909090908 L 1088.1818181818182,1849.9090909090908" fill="none" stroke="#000000" stroke-width="1.9103636363636365"/>
	<path d="M 1088.1818181818182,1874.090909090909 L 1209.0909090909092,1874.090909090909" fill="none" stroke="#000000" stroke-width="1.9103636363636365"/>
	<path d="M 1209.0909090909092,1898.2727272727273 L 1088.1818181818182,1898.2727272727273" fill="none" stroke="#000000" stroke-width="1.9103636363636365"/>
	<path d="M 1088.1818181818182,1922.4545454545455 L 1209.0909090909092,1922.4545454545455" fill="none" stroke="#000000" stroke-width="1.9103636363636365"/>
	<path d="M 1209.090909090909,1825.7272727272725 L 1330.0,1825.7272727272725" fill="none" stroke="#000000" stroke-width="1.9103636363636365"/>
	<path d="M 1330.0,1849.9090909090908 L 1209.090909090909,1849.9090909090908" fill="none" stroke="#000000" stroke-width="1.9103636363636365"/>
	<path d="M 1209.090909090909,1874.090909090909 L 1330.0,1874.090909090909" fill="none" stroke="#000000" stroke-width="1.9103636363636365"/>
	<path d="M 1330.0,1898.2727272727273 L 1209.090909090909,1898.2727272727273" fill="none" stroke="#000000" stroke-width="1.9103636363636365"/>
	<path d="M 1209.090909090909,1922.4545454545455 L 1330.0,1922.4545454545455" fill="none" stroke="#000000" stroke-width="1.9103636363636365"/>
	<path d="M 1330.0,1825.7272727272725 L 1450.909090909091,1825.7272727272725" fill="none" stroke="#000000" stroke-width="1.9103636363636365"/>
	<path d="M 1450.909090909091,1849.9090909090908 L 1330.0,1849.9090909090908" fill="none" stroke="#000000" stroke-width="1.9103636363636365"/>
	<path d="M 1330.0,1874.090909090909 L 1450.909090909091,1874.090909090909" fill="none" stroke="#000000" stroke-width="1.9103636363636365"/>
	<path d="M 1450.909090909091,1898.2727272727273 L 1330.0,1898.2727272727273" fill="none" stroke="#000000" stroke-width="1.9103636363636365"/>
	<path d="M 1330.0,1922.4545454545455 L 1450.909090909091,1922.4545454545455" fill="none" stroke="#000000" stroke-width="1.9103636363636365"/>
</svg>
