<?xml version="1.0" ?>
<svg baseProfile="full" height="600px" version="1.1" viewBox="-13.178083333333333 -14.991719696969694 157.34101515151514 191.19556060606055" width="494px" xmlns="http://www.w3.org/2000/svg" xmlns:ev="http://www.w3.org/2001/xml-events" xmlns:xlink="http://www.w3.org/1999/xlink">
	<defs/>
	<path d="M 30.227272727272727,1.0075757575757576 L 40.303030303030305,1.0075757575757576" fill="none" stroke="#000000" stroke-width="0.15919696969696967"/>
	<path d="M 40.303030303030305,3.0227272727272725 L 30.227272727272727,3.0227272727272725" fill="none" stroke="#000000" stroke-width="0.15919696969696967"/>
	<path d="M 30.227272727272727,5.037878787878787 L 40.303030303030305,5.037878787878787" fill="none" stroke="#000000" stroke-width="0.15919696969696967"/>
	<path d="M 40.303030303030305,7.053030303030303 L 30.227272727272727,7.053030303030303" fill="none" stroke="#000000" stroke-width="0.15919696969696967"/>
	<path d="M 30.227272727272727,9.068181818181818 L 40.303030303030305,9.068181818181818" fill="none" stroke="#000000" stroke-width="0.15919696969696967"/>
	<path d="M 40.303030303030305,1.0075757575757576 L 50.37878787878788,1.0075757575757576" fill="none" stroke="#000000" stroke-width="0.15919696969696967"/>
	<path d="M 50.37878787878788,3.0227272727272725 L 40.303030303030305,3.0227272727272725" fill="none" stroke="#000000" stroke-width="0.15919696969696967"/>
	<path d="M 40.303030303030305,5.037878787878787 L 50.37878787878788,5.037878787878787" fill="none" stroke="#000000" stroke-width="0.15919696969696967"/>
	<path d="M 50.37878787878788,7.053030303030303 L 40.303030303030305,7.053030303030303" fill="none" stroke="#000000" stroke-width="0.15919696969696967"/>
	<path d="M 40.303030303030305,9.068181818181818 L 50.37878787878788,9.068181818181818" fill="none" stroke="#000000" stroke-width="0.15919696969696967"/>
	<path d="M 50.37878787878788,1.0075757575757576 L 60.45454545454546,1.0075757575757576" fill="none" stroke="#000000" stroke-width="0.15919696969696967"/>
	<path d="M 60.45454545454546,3.0227272727272725 L 50.37878787878788,3.0227272727272725" fill="none" stroke="#000000" stroke-width="0.15919696969696967"/>
	<path d="M 50.37878787878788,5.037878787878787 L 60.45454545454546,5.037878787878787" fill="none" stroke="#000000" stroke-width="0.15919696969696967"/>
	<path d="M 60.45454545454546,7.053030303030303 L 50.37878787878788,7.053030303030303" fill="none" stroke="#000000" stroke-width="0.15919696969696967"/>
	<path d="M 50.37878787878788,9.068181818181818 L 60.45454545454546,9.068181818181818" fill="none" stroke="#000000" stroke-width="0.15919696969696967"/>
	<path d="M 60.45454545454545,1.0075757575757576 L 70.53030303030303,1.0075757575757576" fill="none" stroke="#000000" stroke-width="0.15919696969696967"/>
	<path d="M 70.53030303030303,3.0227272727272725 L 60.45454545454545,3.0227272727272725" fill="none" stroke="#000000" stroke-width="0.15919696969696967"/>
	<path d="M 60.45454545454545,5.037878787878787 L 70.53030303030303,5.037878787878787" fill="none" stroke="#000000" stroke-width="0.15919696969696967"/>
	<path d="M 70.53030303030303,7.053030303030303 L 60.45454545454545,7.053030303030303" fill="none" stroke="#000000" stroke-width="0.15919696969696967"/>
	<path d="M 60.45454545454545,9.068181818181818 L 70.53030303030303,9.068181818181818" fill="none" stroke="#000000" stroke-width="0.15919696969696967"/>
	<path d="M 70.53030303030303,1.0075757575757576 L 80.60606060606061,1.0075757575757576" fill="none" stroke="#000000" stroke-width="0.15919696969696967"/>
	<path d="M 80.60606060606061,3.0227272727272725 L 70.53030303030303,3.0227272727272725" fill="none" stroke="#000000" stroke-width="0.15919696969696967"/>
	<path d="M 70.53030303030303,5.037878787878787 L 80.60606060606061,5.037878787878787" fill="none" stroke="#000000" stroke-width="0.15919696969696967"/>
	<path d="M 80.60606060606061,7.053030303030303 L 70.53030303030303,7.053030303030303" fill="none" stroke="#000000" stroke-width="0.15919696969696967"/>
	<path d="M 70.53030303030303,9.068181818181818 L 80.60606060606061,9.068181818181818" fill="none" stroke="#000000" stroke-width="0.15919696969696967"/>
	<path d="M 80.60606060606061,1.0075757575757576 L 90.68181818181819,1.0075757575757576" fill="none" stroke="#000000" stroke-width="0.15919696969696967"/>
	<path d="M 90.68181818181819,3.0227272727272725 L 80.60606060606061,3.0227272727272725" fill="none" stroke="#000000" stroke-width="0.15919696969696967"/>
	<path d="M 80.60606060606061,5.037878787878787 L 90.68181818181819,5.037878787878787" fill="none" stroke="#000000" stroke-width="0.15919696969696967"/>
	<path d="M 90.68181818181819,7.053030303030303 L 80.60606060606061,7.053030303030303" fill="none" stroke="#000000" stroke-width="0.15919696969696967"/>
	<path d="M 80.60606060606061,9.068181818181818 L 90.68181818181819,9.068181818181818" fill="none" stroke="#000000" stroke-width="0.15919696969696967"/>
	<path d="M 20.151515151515152,11.083333333333334 L 30.227272727272727,11.083333333333334" fill="none" stroke="#000000" stroke-width="0.15919696969696967"/>
	<path d="M 30.227272727272727,13.09848484848485 L 20.15151515151515,13.09848484848485" fill="none" stroke="#000000" stroke-width="0.15919696969696967"/>
	<path d="M 20.15151515151515,15.113636363636365 L 30.227272727272727,15.113636363636365" fill="none" stroke="#000000" stroke-width="0.15919696969696967"/>
	<path d="M 30.227272727272727,17.12878787878788 L 20.15151515151515,17.12878787878788" fill="none" stroke="#000000" stroke-width="0.15919696969696967"/>
	<path d="M 20.15151515151515,19.143939393939394 L 30.227272727272727,19.143939393939394" fill="none" stroke="#000000" stroke-width="0.15919696969696967"/>
	<path d="M 30.227272727272727,11.083333333333334 L 40.303030303030305,11.083333333333334" fill="none" stroke="#000000" stroke-width="0.15919696969696967"/>
	<path d="M 40.303030303030305,13.09848484848485 L 30.227272727272727,13.09848484848485" fill="none" stroke="#000000" stroke-width="0.15919696969696967"/>
	<path d="M 30.227272727272727,15.113636363636365 L 40.303030303030305,15.113636363636365" fill="none" stroke="#000000" stroke-width="0.15919696969696967"/>
	<path d="M 40.303030303030305,17.12878787878788 L 30.227272727272727,17.12878787878788" fill="none" stroke="#000000" stroke-width="0.15919696969696967"/>
	<path d="M 30.227272727272727,19.143939393939394 L 40.303030303030305,19.143939393939394" fill="none" stroke="#000000" stroke-width="0.15919696969696967"/>
	<path d="M 40.303030303030305,11.083333333333334 L 50.37878787878788,11.083333333333334" fill="none" stroke="#000000" stroke-width="0.15919696969696967"/>
	<path d="M 50.37878787878788,13.09848484848485 L 40.303030303030305,13.09848484848485" fill="none" stroke="#000000" stroke-width="0.15919696969696967"/>
	<path d="M 40.303030303030305,15.113636363636365 L 50.37878787878788,15.113636363636365" fill="none" stroke="#000000" stroke-width="0.15919696969696967"/>
	<path d="M 50.37878787878788,17.12878787878788 L 40.303030303030305,17.12878787878788" fill="none" stroke="#000000" stroke-width="0.15919696969696967"/>
	<path d="M 40.303030303030305,19.143939393939394 L 50.37878787878788,19.143939393939394" fill="none" stroke="#000000" stroke-width="0.15919696969696967"/>
	<path d="M 50.37878787878788,11.083333333333334 L 60.45454545454546,11.083333333333334" fill="none" stroke="#000000" stroke-width="0.15919696969696967"/>
	<path d="M 60.45454545454546,13.09848484848485 L 50.37878787878788,13.09848484848485" fill="none" stroke="#000000" stroke-width="0.15919696969696967"/>
	<path d="M 50.37878787878788,15.113636363636365 L 60.45454545454546,15.113636363636365" fill="none" stroke="#000000" stroke-width="0.15919696969696967"/>
	<path d="M 60.45454545454546,17.12878787878788 L 50.37878787878788,17.12878787878788" fill="none" stroke="#000000" stroke-width="0.15919696969696967"/>
	<path d="M 50.37878787878788,19.143939393939394 L 60.45454545454546,19.143939393939394" fill="none" stroke="#000000" stroke-width="0.15919696969696967"/>
	<path d="M 60.45454545454545,11.083333333333334 L 70.53030303030303,11.083333333333334" fill="none" stroke="#000000" stroke-width="0.15919696969696967"/>
	<path d="M 70.53030303030303,13.09848484848485 L 60.45454545454545,13.09848484848485" fill="none" stroke="#000000" stroke-width="0.15919696969696967"/>
	<path d="M 60.45454545454545,15.113636363636365 L 70.53030303030303,15.113636363636365" fill="none" stroke="#000000" stroke-width="0.15919696969696967"/>
	<path d="M 70.53030303030303,17.12878787878788 L 60.45454545454545,17.12878787878788" fill="none" stroke="#000000" stroke-width="0.15919696969696967"/>
	<path d="M 60.45454545454545,19.143939393939394 L 70.53030303030303,19.143939393939394" fill="none" stroke="#000000" stroke-width="0.15919696969696967"/>
	<path d="M 70.53030303030303,11.083333333333334 L 80.60606060606061,11.083333333333334" fill="none" stroke="#000000" stroke-width="0.15919696969696967"/>
	<path d="M 80.60606060606061,13.09848484848485 L 70.53030303030303,13.09848484848485" fill="none" stroke="#000000" stroke-width="0.15919696969696967"/>
	<path d="M 70.53030303030303,15.113636363636365 L 80.60606060606061,15.113636363636365" fill="none" stroke="#000000" stroke-width="0.15919696969696967"/>
	<path d="M 80.60606060606061,17.12878787878788 L 70.53030303030303,17.12878787878788" fill="none" stroke="#000000" stroke-width="0.15919696969696967"/>
	<path d="M 70.53030303030303,19.143939393939394 L 80.60606060606061,19.143939393939394" fill="none" stroke="#000000" stroke-width="0.15919696969696967"/>
	<path d="M 80.60606060606061,11.083333333333334 L 90.68181818181819,11.083333333333334" fill="none" stroke="#000000" stroke-width="0.15919696969696967"/>
	<path d="M 90.68181818181819,13.09848484848485 L 80.60606060606061,13.09848484848485" fill="none" stroke="#000000" stroke-width="0.15919696969696967"/>
	<path d="M 80.60606060606061,15.113636363636365 L 90.68181818181819,15.113636363636365" fill="none" stroke="#000000" stroke-width="0.15919696969696967"/>
	<path d="M 90.68181818181819,17.12878787878788 L 80.60606060606061,17.12878787878788" fill="none" stroke="#000000" stroke-width="0.15919696969696967"/>
	<path d="M 80.60606060606061,19.143939393939394 L 90.68181818181819,19.143939393939394" fill="none" stroke="#000000" stroke-width="0.15919696969696967"/>
	<path d="M 90.68181818181819,11.083333333333334 L 100.75757575757576,11.083333333333334" fill="none" stroke="#000000" stroke-width="0.15919696969696967"/>
	<path d="M 100.75757575757576,13.09848484848485 L 90.68181818181819,13.09848484848485" fill="none" stroke="#000000" stroke-width="0.15919696969696967"/>
	<path d="M 90.68181818181819,15.113636363636365 L 100.75757575757576,15.113636363636365" fill="none" stroke="#000000" stroke-width="0.15919696969696967"/>
	<path d="M 100.75757575757576,17.12878787878788 L 90.68181818181819,17.12878787878788" fill="none" stroke="#000000" stroke-width="0.15919696969696967"/>
	<path d="M 90.68181818181819,19.143939393939394 L 100.75757575757576,19.143939393939394" fill="none" stroke="#000000" stroke-width="0.15919696969696967"/>
	<path d="M 100.75757575757576,11.083333333333334 L 110.83333333333334,11.083333333333334" fill="none" stroke="#000000" stroke-width="0.15919696969696967"/>
	<path d="M 110.83333333333334,13.09848484848485 L 100.75757575757576,13.09848484848485" fill="none" stroke="#000000" stroke-width="0.15919696969696967"/>
	<path d="M 100.75757575757576,15.113636363636365 L 110.83333333333334,15.113636363636365" fill="none" stroke="#000000" stroke-width="0.15919696969696967"/>
	<path d="M 110.83333333333334,17.12878787878788 L 100.75757575757576,17.12878787878788" fill="none" stroke="#000000" stroke-width="0.15919696969696967"/>
	<path d="M 100.75757575757576,19.143939393939394 L 110.83333333333334,19.143939393939394" fill="none" stroke="#000000" stroke-width="0.15919696969696967"/>
	<path d="M 110.83333333333334,11.083333333333334 L 120.90909090909092,11.083333333333334" fill="none" stroke="#000000" stroke-width="0.15919696969696967"/>
	<path d="M 120.90909090909092,13.09848484848485 L 110.83333333333334,13.09848484848485" fill="none" stroke="#000000" stroke-width="0.15919696969696967"/>
	<path d="M 110.83333333333334,15.113636363636365 L 120.90909090909092,15.113636363636365" fill="none" stroke="#000000" stroke-width="0.15919696969696967"/>
	<path d="M 120.90909090909092,17.12878787878788 L 110.83333333333334,17.12878787878788" fill="none" stroke="#000000" stroke-width="0.15919696969696967"/>
	<path d="M 110.83333333333334,19.143939393939394 L 120.90909090909092,19.143939393939394" fill="none" stroke="#000000" stroke-width="0.15919696969696967"/>
	<path d="M 20.151515151515152,21.410984848484848 L 30.227272727272727,21.410984848484848" fill="none" stroke="#000000" stroke-width="0.15919696969696967"/>
	<path d="M 30.227272727272727,23.929924242424242 L 20.15151515151515,23.929924242424242" fill="none" stroke="#000000" stroke-width="0.15919696969696967"/>
	<path d="M 20.15151515151515,26.448863636363637 L 30.227272727272727,26.448863636363637" fill="none" stroke="#000000" stroke-width="0.15919696969696967"/>
	<path d="M 30.227272727272727,28.96780303030303 L 20.15151515151515,28.96780303030303" fill="none" stroke="#000000" stroke-width="0.15919696969696967"/>
	<path d="M 30.227272727272727,21.410984848484848 L 40.303030303030305,21.410984848484848" fill="none" stroke="#000000" stroke-width="0.15919696969696967"/>
	<path d="M 40.303030303030305,23.929924242424242 L 30.227272727272727,23.929924242424242" fill="none" stroke="#000000" stroke-width="0.15919696969696967"/>
	<path d="M 30.227272727272727,26.448863636363637 L 40.303030303030305,26.448863636363637" fill="none" stroke="#000000" stroke-width="0.15919696969696967"/>
	<path d="M 40.303030303030305,28.96780303030303 L 30.227272727272727,28.96780303030303" fill="none" stroke="#000000" stroke-width="0.15919696969696967"/>
	<path d="M 40.303030303030305,21.410984848484848 L 50.37878787878788,21.410984848484848" fill="none" stroke="#000000" stroke-width="0.15919696969696967"/>
	<path d="M 50.37878787878788,23.929924242424242 L 40.303030303030305,23.929924242424242" fill="none" stroke="#000000" stroke-width="0.15919696969696967"/>
	<path d="M 40.303030303030305,26.448863636363637 L 50.37878787878788,26.448863636363637" fill="none" stroke="#000000" stroke-width="0.15919696969696967"/>
	<path d="M 50.37878787878788,28.96780303030303 L 40.303030303030305,28.96780303030303" fill="none" stroke="#000000" stroke-width="0.15919696969696967"/>
	<path d="M 50.37878787878788,22.670454545454547 L 60.45454545454546,22.670454545454547" fill="none" stroke="#000000" stroke-width="0.15919696969696967"/>
	<path d="M 60.45454545454546,27.708333333333336 L 50.37878787878788,27.708333333333336" fill="none" stroke="#000000" stroke-width="0.15919696969696967"/>
	<path d="M 60.45454545454545,22.670454545454547 L 70.53030303030303,22.670454545454547" fill="none" stroke="#000000" stroke-width="0.15919696969696967"/>
	<path d="M 70.53030303030303,27.708333333333336 L 60.45454545454545,27.708333333333336" fill="none" stroke="#000000" stroke-width="0.15919696969696967"/>
	<path d="M 70.53030303030303,22.670454545454547 L 80.60606060606061,22.670454545454547" fill="none" stroke="#000000" stroke-width="0.15919696969696967"/>
	<path d="M 80.60606060606061,27.708333333333336 L 70.53030303030303,27.708333333333336" fill="none" stroke="#000000" stroke-width="0.15919696969696967"/>
	<path d="M 80.60606060606061,20.87121212121212 L 90.68181818181819,20.87121212121212" fill="none" stroke="#000000" stroke-width="0.15919696969696967"/>
	<path d="M 90.68181818181819,22.310606060606062 L 80.60606060606061,22.310606060606062" fill="none" stroke="#000000" stroke-width="0.15919696969696967"/>
	<path d="M 80.60606060606061,23.75 L 90.68181818181819,23.75" fill="none" stroke="#000000" stroke-width="0.15919696969696967"/>
	<path d="M 90.68181818181819,25.189393939393938 L 80.60606060606061,25.189393939393938" fill="none" stroke="#000000" stroke-width="0.15919696969696967"/>
	<path d="M 80.60606060606061,26.628787878787875 L 90.68181818181819,26.628787878787875" fill="none" stroke="#000000" stroke-width="0.15919696969696967"/>
	<path d="M 90.68181818181819,28.068181818181813 L 80.60606060606061,28.068181818181813" fill="none" stroke="#000000" stroke-width="0.15919696969696967"/>
	<path d="M 80.60606060606061,29.50757575757575 L 90.68181818181819,29.50757575757575" fill="none" stroke="#000000" stroke-width="0.15919696969696967"/>
	<path d="M 90.68181818181819,22.670454545454547 L 100.75757575757576,22.670454545454547" fill="none" stroke="#000000" stroke-width="0.15919696969696967"/>
	<path d="M 100.75757575757576,27.708333333333336 L 90.68181818181819,27.708333333333336" fill="none" stroke="#000000" stroke-width="0.15919696969696967"/>
	<path d="M 10.075757575757576,31.486742424242422 L 20.151515151515152,31.486742424242422" fill="none" stroke="#000000" stroke-width="0.15919696969696967"/>
	<path d="M 20.151515151515152,34.00568181818181 L 10.075757575757576,34.00568181818181" fill="none" stroke="#000000" stroke-width="0.15919696969696967"/>
	<path d="M 10.075757575757576,36.524621212121204 L 20.151515151515152,36.524621212121204" fill="none" stroke="#000000" stroke-width="0.15919696969696967"/>
	<path d="M 20.151515151515152,39.043560606060595 L 10.075757575757576,39.043560606060595" fill="none" stroke="#000000" stroke-width="0.15919696969696967"/>
	<path d="M 20.151515151515152,32.74621212121212 L 30.227272727272727,32.74621212121212" fill="none" stroke="#000000" stroke-width="0.15919696969696967"/>
	<path d="M 30.227272727272727,37.78409090909091 L 20.15151515151515,37.78409090909091" fill="none" stroke="#000000" stroke-width="0.15919696969696967"/>
	<path d="M 30.227272727272727,31.486742424242422 L 40.303030303030305,31.486742424242422" fill="none" stroke="#000000" stroke-width="0.15919696969696967"/>
	<path d="M 40.303030303030305,34.00568181818181 L 30.227272727272727,34.00568181818181" fill="none" stroke="#000000" stroke-width="0.15919696969696967"/>
	<path d="M 30.227272727272727,36.524621212121204 L 40.303030303030305,36.524621212121204" fill="none" stroke="#000000" stroke-width="0.15919696969696967"/>
	<path d="M 40.303030303030305,39.043560606060595 L 30.227272727272727,39.043560606060595" fill="none" stroke="#000000" stroke-width="0.15919696969696967"/>
	<path d="M 40.303030303030305,32.74621212121212 L 50.37878787878788,32.74621212121212" fill="none" stroke="#000000" stroke-width="0.15919696969696967"/>
	<path d="M 50.37878787878788,37.78409090909091 L 40.303030303030305,37.78409090909091" fill="none" stroke="#000000" stroke-width="0.15919696969696967"/>
	<path d="M 50.37878787878788,32.74621212121212 L 60.45454545454546,32.74621212121212" fill="none" stroke="#000000" stroke-width="0.15919696969696967"/>
	<path d="M 60.45454545454546,37.78409090909091 L 50.37878787878788,37.78409090909091" fill="none" stroke="#000000" stroke-width="0.15919696969696967"/>
	<path d="M 60.45454545454545,32.74621212121212 L 70.53030303030303,32.74621212121212" fill="none" stroke="#000000" stroke-width="0.15919696969696967"/>
	<path d="M 70.53030303030303,37.78409090909091 L 60.45454545454545,37.78409090909091" fill="none" stroke="#000000" stroke-width="0.15919696969696967"/>
	<path d="M 70.53030303030303,32.74621212121212 L 80.60606060606061,32.74621212121212" fill="none" stroke="#000000" stroke-width="0.15919696969696967"/>
	<path d="M 80.60606060606061,37.78409090909091 L 70.53030303030303,37.78409090909091" fill="none" stroke="#000000" stroke-width="0.15919696969696967"/>
	<path d="M 80.60606060606061,30.946969696969695 L 90.68181818181819,30.946969696969695" fill="none" stroke="#000000" stroke-width="0.15919696969696967"/>
	<path d="M 90.68181818181819,32.38636363636363 L 80.60606060606061,32.38636363636363" fill="none" stroke="#000000" stroke-width="0.15919696969696967"/>
	<path d="M 80.60606060606061,33.82575757575757 L 90.68181818181819,33.82575757575757" fill="none" stroke="#000000" stroke-width="0.15919696969696967"/>
	<path d="M 90.68181818181819,35.26515151515151 L 80.60606060606061,35.26515151515151" fill="none" stroke="#000000" stroke-width="0.15919696969696967"/>
	<path d="M 80.60606060606061,36.704545454545446 L 90.68181818181819,36.704545454545446" fill="none" stroke="#000000" stroke-width="0.15919696969696967"/>
	<path d="M 90.68181818181819,38.143939393939384 L 80.60606060606061,38.143939393939384" fill="none" stroke="#000000" stroke-width="0.15919696969696967"/>
	<path d="M 80.60606060606061,39.58333333333332 L 90.68181818181819,39.58333333333332" fill="none" stroke="#000000" stroke-width="0.15919696969696967"/>
	<path d="M 90.68181818181819,32.74621212121212 L 100.75757575757576,32.74621212121212" fill="none" stroke="#000000" stroke-width="0.15919696969696967"/>
	<path d="M 100.75757575757576,37.78409090909091 L 90.68181818181819,37.78409090909091" fill="none" stroke="#000000" stroke-width="0.15919696969696967"/>
	<path d="M 100.75757575757576,32.74621212121212 L 110.83333333333334,32.74621212121212" fill="none" stroke="#000000" stroke-width="0.15919696969696967"/>
	<path d="M 110.83333333333334,37.78409090909091 L 100.75757575757576,37.78409090909091" fill="none" stroke="#000000" stroke-width="0.15919696969696967"/>
	<path d="M 110.83333333333334,32.74621212121212 L 120.90909090909092,32.74621212121212" fill="none" stroke="#000000" stroke-width="0.15919696969696967"/>
	<path d="M 120.90909090909092,37.78409090909091 L 110.83333333333334,37.78409090909091" fill="none" stroke="#000000" stroke-width="0.15919696969696967"/>
	<path d="M 10.075757575757576,41.5625 L 20.151515151515152,41.5625" fill="none" stroke="#000000" stroke-width="0.15919696969696967"/>
	<path d="M 20.151515151515152,44.08143939393939 L 10.075757575757576,44.08143939393939" fill="none" stroke="#000000" stroke-width="0.15919696969696967"/>
	<path d="M 10.075757575757576,46.60037878787878 L 20.151515151515152,46.60037878787878" fill="none" stroke="#000000" stroke-width="0.15919696969696967"/>
	<path d="M 20.151515151515152,49.11931818181817 L 10.075757575757576,49.11931818181817" fill="none" stroke="#000000" stroke-width="0.15919696969696967"/>
	<path d="M 20.151515151515152,42.821969696969695 L 30.227272727272727,42.821969696969695" fill="none" stroke="#000000" stroke-width="0.15919696969696967"/>
	<path d="M 30.227272727272727,47.859848484848484 L 20.15151515151515,47.859848484848484" fill="none" stroke="#000000" stroke-width="0.15919696969696967"/>
	<path d="M 30.227272727272727,41.5625 L 40.303030303030305,41.5625" fill="none" stroke="#000000" stroke-width="0.15919696969696967"/>
	<path d="M 40.303030303030305,44.08143939393939 L 30.227272727272727,44.08143939393939" fill="none" stroke="#000000" stroke-width="0.15919696969696967"/>
	<path d="M 30.227272727272727,46.60037878787878 L 40.303030303030305,46.60037878787878" fill="none" stroke="#000000" stroke-width="0.15919696969696967"/>
	<path d="M 40.303030303030305,49.11931818181817 L 30.227272727272727,49.11931818181817" fill="none" stroke="#000000" stroke-width="0.15919696969696967"/>
	<path d="M 40.303030303030305,41.5625 L 50.37878787878788,41.5625" fill="none" stroke="#000000" stroke-width="0.15919696969696967"/>
	<path d="M 50.37878787878788,44.08143939393939 L 40.303030303030305,44.08143939393939" fill="none" stroke="#000000" stroke-width="0.15919696969696967"/>
	<path d="M 40.303030303030305,46.60037878787878 L 50.37878787878788,46.60037878787878" fill="none" stroke="#000000" stroke-width="0.15919696969696967"/>
	<path d="M 50.37878787878788,49.11931818181817 L 40.303030303030305,49.11931818181817" fill="none" stroke="#000000" stroke-width="0.15919696969696967"/>
	<path d="M 50.37878787878788,42.821969696969695 L 60.45454545454546,42.821969696969695" fill="none" stroke="#000000" stroke-width="0.15919696969696967"/>
	<path d="M 60.45454545454546,47.859848484848484 L 50.37878787878788,47.859848484848484" fill="none" stroke="#000000" stroke-width="0.15919696969696967"/>
	<path d="M 60.45454545454545,42.821969696969695 L 70.53030303030303,42.821969696969695" fill="none" stroke="#000000" stroke-width="0.15919696969696967"/>
	<path d="M 70.53030303030303,47.859848484848484 L 60.45454545454545,47.859848484848484" fill="none" stroke="#000000" stroke-width="0.15919696969696967"/>
	<path d="M 70.53030303030303,42.821969696969695 L 80.60606060606061,42.821969696969695" fill="none" stroke="#000000" stroke-width="0.15919696969696967"/>
	<path d="M 80.60606060606061,47.859848484848484 L 70.53030303030303,47.859848484848484" fill="none" stroke="#000000" stroke-width="0.15919696969696967"/>
	<path d="M 80.60606060606061,42.821969696969695 L 90.68181818181819,42.821969696969695" fill="none" stroke="#000000" stroke-width="0.15919696969696967"/>
	<path d="M 90.68181818181819,47.859848484848484 L 80.60606060606061,47.859848484848484" fill="none" stroke="#000000" stroke-width="0.15919696969696967"/>
	<path d="M 90.68181818181819,41.02272727272727 L 100.75757575757576,41.02272727272727" fill="none" stroke="#000000" stroke-width="0.15919696969696967"/>
	<path d="M 100.75757575757576,42.46212121212121 L 90.68181818181819,42.46212121212121" fill="none" stroke="#000000" stroke-width="0.15919696969696967"/>
	<path d="M 90.68181818181819,43.90151515151515 L 100.75757575757576,43.90151515151515" fill="none" stroke="#000000" stroke-width="0.15919696969696967"/>
	<path d="M 100.75757575757576,45.340909090909086 L 90.68181818181819,45.340909090909086" fill="none" stroke="#000000" stroke-width="0.15919696969696967"/>
	<path d="M 90.68181818181819,46.780303030303024 L 100.75757575757576,46.780303030303024" fill="none" stroke="#000000" stroke-width="0.15919696969696967"/>
	<path d="M 100.75757575757576,48.21969696969696 L 90.68181818181819,48.21969696969696" fill="none" stroke="#000000" stroke-width="0.15919696969696967"/>
	<path d="M 90.68181818181819,49.6590909090909 L 100.75757575757576,49.6590909090909" fill="none" stroke="#000000" stroke-width="0.15919696969696967"/>
	<path d="M 100.75757575757576,42.821969696969695 L 110.83333333333334,42.821969696969695" fill="none" stroke="#000000" stroke-width="0.15919696969696967"/>
	<path d="M 110.83333333333334,47.859848484848484 L 100.75757575757576,47.859848484848484" fill="none" stroke="#000000" stroke-width="0.15919696969696967"/>
	<path d="M 110.83333333333334,42.821969696969695 L 120.90909090909092,42.821969696969695" fill="none" stroke="#000000" stroke-width="0.15919696969696967"/>
	<path d="M 120.90909090909092,47.859848484848484 L 110.83333333333334,47.859848484848484" fill="none" stroke="#000000" stroke-width="0.15919696969696967"/>
	<path d="M 120.9090909090909,42.821969696969695 L 130.98484848484847,42.821969696969695" fill="none" stroke="#000000" stroke-width="0.15919696969696967"/>
	<path d="M 130.98484848484847,47.859848484848484 L 120.90909090909089,47.859848484848484" fill="none" stroke="#000000" stroke-width="0.15919696969696967"/>
	<path d="M 30.227272727272727,52.89772727272727 L 40.303030303030305,52.89772727272727" fill="none" stroke="#000000" stroke-width="0.15919696969696967"/>
	<path d="M 40.303030303030305,57.93560606060606 L 30.227272727272727,57.93560606060606" fill="none" stroke="#000000" stroke-width="0.15919696969696967"/>
	<path d="M 40.303030303030305,52.89772727272727 L 50.37878787878788,52.89772727272727" fill="none" stroke="#000000" stroke-width="0.15919696969696967"/>
	<path d="M 50.37878787878788,57.93560606060606 L 40.303030303030305,57.93560606060606" fill="none" stroke="#000000" stroke-width="0.15919696969696967"/>
	<path d="M 50.37878787878788,52.89772727272727 L 60.45454545454546,52.89772727272727" fill="none" stroke="#000000" stroke-width="0.15919696969696967"/>
	<path d="M 60.45454545454546,57.93560606060606 L 50.37878787878788,57.93560606060606" fill="none" stroke="#000000" stroke-width="0.15919696969696967"/>
	<path d="M 60.45454545454545,52.89772727272727 L 70.53030303030303,52.89772727272727" fill="none" stroke="#000000" stroke-width="0.15919696969696967"/>
	<path d="M 70.53030303030303,57.93560606060606 L 60.45454545454545,57.93560606060606" fill="none" stroke="#000000" stroke-width="0.15919696969696967"/>
	<path d="M 70.53030303030303,52.89772727272727 L 80.60606060606061,52.89772727272727" fill="none" stroke="#000000" stroke-width="0.15919696969696967"/>
	<path d="M 80.60606060606061,57.93560606060606 L 70.53030303030303,57.93560606060606" fill="none" stroke="#000000" stroke-width="0.15919696969696967"/>
	<path d="M 80.60606060606061,51.09848484848485 L 90.68181818181819,51.09848484848485" fill="none" stroke="#000000" stroke-width="0.15919696969696967"/>
	<path d="M 90.68181818181819,52.53787878787879 L 80.60606060606061,52.53787878787879" fill="none" stroke="#000000" stroke-width="0.15919696969696967"/>
	<path d="M 80.60606060606061,53.97727272727273 L 90.68181818181819,53.97727272727273" fill="none" stroke="#000000" stroke-width="0.15919696969696967"/>
	<path d="M 90.68181818181819,55.416666666666664 L 80.60606060606061,55.416666666666664" fill="none" stroke="#000000" stroke-width="0.15919696969696967"/>
	<path d="M 80.60606060606061,56.8560606060606 L 90.68181818181819,56.8560606060606" fill="none" stroke="#000000" stroke-width="0.15919696969696967"/>
	<path d="M 90.68181818181819,58.29545454545454 L 80.60606060606061,58.29545454545454" fill="none" stroke="#000000" stroke-width="0.15919696969696967"/>
	<path d="M 80.60606060606061,59.73484848484848 L 90.68181818181819,59.73484848484848" fill="none" stroke="#000000" stroke-width="0.15919696969696967"/>
	<path d="M 90.68181818181819,51.09848484848485 L 100.75757575757576,51.09848484848485" fill="none" stroke="#000000" stroke-width="0.15919696969696967"/>
	<path d="M 100.75757575757576,52.53787878787879 L 90.68181818181819,52.53787878787879" fill="none" stroke="#000000" stroke-width="0.15919696969696967"/>
	<path d="M 90.68181818181819,53.97727272727273 L 100.75757575757576,53.97727272727273" fill="none" stroke="#000000" stroke-width="0.15919696969696967"/>
	<path d="M 100.75757575757576,55.416666666666664 L 90.68181818181819,55.416666666666664" fill="none" stroke="#000000" stroke-width="0.15919696969696967"/>
	<path d="M 90.68181818181819,56.8560606060606 L 100.75757575757576,56.8560606060606" fill="none" stroke="#000000" stroke-width="0.15919696969696967"/>
	<path d="M 100.75757575757576,58.29545454545454 L 90.68181818181819,58.29545454545454" fill="none" stroke="#000000" stroke-width="0.15919696969696967"/>
	<path d="M 90.68181818181819,59.73484848484848 L 100.75757575757576,59.73484848484848" fill="none" stroke="#000000" stroke-width="0.15919696969696967"/>
	<path d="M 100.75757575757576,51.09848484848485 L 110.83333333333334,51.09848484848485" fill="none" stroke="#000000" stroke-width="0.15919696969696967"/>
	<path d="M 110.83333333333334,52.53787878787879 L 100.75757575757576,52.53787878787879" fill="none" stroke="#000000" stroke-width="0.15919696969696967"/>
	<path d="M 100.75757575757576,53.97727272727273 L 110.83333333333334,53.97727272727273" fill="none" stroke="#000000" stroke-width="0.15919696969696967"/>
	<path d="M 110.83333333333334,55.416666666666664 L 100.75757575757576,55.416666666666664" fill="none" stroke="#000000" stroke-width="0.15919696969696967"/>
	<path d="M 100.75757575757576,56.8560606060606 L 110.83333333333334,56.8560606060606" fill="none" stroke="#000000" stroke-width="0.15919696969696967"/>
	<path d="M 110.83333333333334,58.29545454545454 L 100.75757575757576,58.29545454545454" fill="none" stroke="#000000" stroke-width="0.15919696969696967"/>
	<path d="M 100.75757575757576,59.73484848484848 L 110.83333333333334,59.73484848484848" fill="none" stroke="#000000" stroke-width="0.15919696969696967"/>
	<path d="M 110.83333333333334,51.09848484848485 L 120.90909090909092,51.09848484848485" fill="none" stroke="#000000" stroke-width="0.15919696969696967"/>
	<path d="M 120.90909090909092,52.53787878787879 L 110.83333333333334,52.53787878787879" fill="none" stroke="#000000" stroke-width="0.15919696969696967"/>
	<path d="M 110.83333333333334,53.97727272727273 L 120.90909090909092,53.97727272727273" fill="none" stroke="#000000" stroke-width="0.15919696969696967"/>
	<path d="M 120.90909090909092,55.416666666666664 L 110.83333333333334,55.416666666666664" fill="none" stroke="#000000" stroke-width="0.15919696969696967"/>
	<path d="M 110.83333333333334,56.8560606060606 L 120.90909090909092,56.8560606060606" fill="none" stroke="#000000" stroke-width="0.15919696969696967"/>
	<path d="M 120.90909090909092,58.29545454545454 L 110.83333333333334,58.29545454545454" fill="none" stroke="#000000" stroke-width="0.15919696969696967"/>
	<path d="M 110.83333333333334,59.73484848484848 L 120.90909090909092,59.73484848484848" fill="none" stroke="#000000" stroke-width="0.15919696969696967"/>
	<path d="M 30.227272727272727,62.973484848484844 L 40.303030303030305,62.973484848484844" fill="none" stroke="#000000" stroke-width="0.15919696969696967"/>
	<path d="M 40.303030303030305,68.01136363636363 L 30.227272727272727,68.01136363636363" fill="none" stroke="#000000" stroke-width="0.15919696969696967"/>
	<path d="M 40.303030303030305,62.973484848484844 L 50.37878787878788,62.973484848484844" fill="none" stroke="#000000" stroke-width="0.15919696969696967"/>
	<path d="M 50.37878787878788,68.01136363636363 L 40.303030303030305,68.01136363636363" fill="none" stroke="#000000" stroke-width="0.15919696969696967"/>
	<path d="M 50.37878787878788,62.973484848484844 L 60.45454545454546,62.973484848484844" fill="none" stroke="#000000" stroke-width="0.15919696969696967"/>
	<path d="M 60.45454545454546,68.01136363636363 L 50.37878787878788,68.01136363636363" fill="none" stroke="#000000" stroke-width="0.15919696969696967"/>
	<path d="M 60.45454545454545,62.973484848484844 L 70.53030303030303,62.973484848484844" fill="none" stroke="#000000" stroke-width="0.15919696969696967"/>
	<path d="M 70.53030303030303,68.01136363636363 L 60.45454545454545,68.01136363636363" fill="none" stroke="#000000" stroke-width="0.15919696969696967"/>
	<path d="M 70.53030303030303,62.973484848484844 L 80.60606060606061,62.973484848484844" fill="none" stroke="#000000" stroke-width="0.15919696969696967"/>
	<path d="M 80.60606060606061,68.01136363636363 L 70.53030303030303,68.01136363636363" fill="none" stroke="#000000" stroke-width="0.15919696969696967"/>
	<path d="M 80.60606060606061,62.973484848484844 L 90.68181818181819,62.973484848484844" fill="none" stroke="#000000" stroke-width="0.15919696969696967"/>
	<path d="M 90.68181818181819,68.01136363636363 L 80.60606060606061,68.01136363636363" fill="none" stroke="#000000" stroke-width="0.15919696969696967"/>
	<path d="M 90.68181818181819,62.973484848484844 L 100.75757575757576,62.973484848484844" fill="none" stroke="#000000" stroke-width="0.15919696969696967"/>
	<path d="M 100.75757575757576,68.01136363636363 L 90.68181818181819,68.01136363636363" fill="none" stroke="#000000" stroke-width="0.15919696969696967"/>
	<path d="M 100.75757575757576,62.973484848484844 L 110.83333333333334,62.973484848484844" fill="none" stroke="#000000" stroke-width="0.15919696969696967"/>
	<path d="M 110.83333333333334,68.01136363636363 L 100.75757575757576,68.01136363636363" fill="none" stroke="#000000" stroke-width="0.15919696969696967"/>
	<path d="M 20.151515151515152,71.78977272727273 L 30.227272727272727,71.78977272727273" fill="none" stroke="#000000" stroke-width="0.15919696969696967"/>
	<path d="M 30.227272727272727,74.30871212121212 L 20.15151515151515,74.30871212121212" fill="none" stroke="#000000" stroke-width="0.15919696969696967"/>
	<path d="M 20.15151515151515,76.82765151515152 L 30.227272727272727,76.82765151515152" fill="none" stroke="#000000" stroke-width="0.15919696969696967"/>
	<path d="M 30.227272727272727,79.3465909090909 L 20.15151515151515,79.3465909090909" fill="none" stroke="#000000" stroke-width="0.15919696969696967"/>
	<path d="M 30.227272727272727,71.78977272727273 L 40.303030303030305,71.78977272727273" fill="none" stroke="#000000" stroke-width="0.15919696969696967"/>
	<path d="M 40.303030303030305,74.30871212121212 L 30.227272727272727,74.30871212121212" fill="none" stroke="#000000" stroke-width="0.15919696969696967"/>
	<path d="M 30.227272727272727,76.82765151515152 L 40.303030303030305,76.82765151515152" fill="none" stroke="#000000" stroke-width="0.15919696969696967"/>
	<path d="M 40.303030303030305,79.3465909090909 L 30.227272727272727,79.3465909090909" fill="none" stroke="#000000" stroke-width="0.15919696969696967"/>
	<path d="M 40.303030303030305,71.3699494949495 L 50.37878787878788,71.3699494949495" fill="none" stroke="#000000" stroke-width="0.15919696969696967"/>
	<path d="M 50.37878787878788,73.04924242424242 L 40.303030303030305,73.04924242424242" fill="none" stroke="#000000" stroke-width="0.15919696969696967"/>
	<path d="M 40.303030303030305,74.72853535353535 L 50.37878787878788,74.72853535353535" fill="none" stroke="#000000" stroke-width="0.15919696969696967"/>
	<path d="M 50.37878787878788,76.40782828282828 L 40.303030303030305,76.40782828282828" fill="none" stroke="#000000" stroke-width="0.15919696969696967"/>
	<path d="M 40.303030303030305,78.0871212121212 L 50.37878787878788,78.0871212121212" fill="none" stroke="#000000" stroke-width="0.15919696969696967"/>
	<path d="M 50.37878787878788,79.76641414141413 L 40.303030303030305,79.76641414141413" fill="none" stroke="#000000" stroke-width="0.15919696969696967"/>
	<path d="M 50.37878787878788,71.78977272727273 L 60.45454545454546,71.78977272727273" fill="none" stroke="#000000" stroke-width="0.15919696969696967"/>
	<path d="M 60.45454545454546,74.30871212121212 L 50.37878787878788,74.30871212121212" fill="none" stroke="#000000" stroke-width="0.15919696969696967"/>
	<path d="M 50.37878787878788,76.82765151515152 L 60.45454545454546,76.82765151515152" fill="none" stroke="#000000" stroke-width="0.15919696969696967"/>
	<path d="M 60.45454545454546,79.3465909090909 L 50.37878787878788,79.3465909090909" fill="none" stroke="#000000" stroke-width="0.15919696969696967"/>
	<path d="M 60.45454545454545,71.78977272727273 L 70.53030303030303,71.78977272727273" fill="none" stroke="#000000" stroke-width="0.15919696969696967"/>
	<path d="M 70.53030303030303,74.30871212121212 L 60.45454545454545,74.30871212121212" fill="none" stroke="#000000" stroke-width="0.15919696969696967"/>
	<path d="M 60.45454545454545,76.82765151515152 L 70.53030303030303,76.82765151515152" fill="none" stroke="#000000" stroke-width="0.15919696969696967"/>
	<path d="M 70.53030303030303,79.3465909090909 L 60.45454545454545,79.3465909090909" fill="none" stroke="#000000" stroke-width="0.15919696969696967"/>
	<path d="M 70.53030303030303,71.78977272727273 L 80.60606060606061,71.78977272727273" fill="none" stroke="#000000" stroke-width="0.15919696969696967"/>
	<path d="M 80.60606060606061,74.30871212121212 L 70.53030303030303,74.30871212121212" fill="none" stroke="#000000" stroke-width="0.15919696969696967"/>
	<path d="M 70.53030303030303,76.82765151515152 L 80.60606060606061,76.82765151515152" fill="none" stroke="#000000" stroke-width="0.15919696969696967"/>
	<path d="M 80.60606060606061,79.3465909090909 L 70.53030303030303,79.3465909090909" fill="none" stroke="#000000" stroke-width="0.15919696969696967"/>
	<path d="M 80.60606060606061,71.78977272727273 L 90.68181818181819,71.78977272727273" fill="none" stroke="#000000" stroke-width="0.15919696969696967"/>
	<path d="M 90.68181818181819,74.30871212121212 L 80.60606060606061,74.30871212121212" fill="none" stroke="#000000" stroke-width="0.15919696969696967"/>
	<path d="M 80.60606060606061,76.82765151515152 L 90.68181818181819,76.82765151515152" fill="none" stroke="#000000" stroke-width="0.15919696969696967"/>
	<path d="M 90.68181818181819,79.3465909090909 L 80.60606060606061,79.3465909090909" fill="none" stroke="#000000" stroke-width="0.15919696969696967"/>
	<path d="M 10.075757575757576,81.86553030303031 L 20.151515151515152,81.86553030303031" fill="none" stroke="#000000" stroke-width="0.15919696969696967"/>
	<path d="M 20.151515151515152,84.3844696969697 L 10.075757575757576,84.3844696969697" fill="none" stroke="#000000" stroke-width="0.15919696969696967"/>
	<path d="M 10.075757575757576,86.9034090909091 L 20.151515151515152,86.9034090909091" fill="none" stroke="#000000" stroke-width="0.15919696969696967"/>
	<path d="M 20.151515151515152,89.42234848484848 L 10.075757575757576,89.42234848484848" fill="none" stroke="#000000" stroke-width="0.15919696969696967"/>
	<path d="M 20.151515151515152,81.86553030303031 L 30.227272727272727,81.86553030303031" fill="none" stroke="#000000" stroke-width="0.15919696969696967"/>
	<path d="M 30.227272727272727,84.3844696969697 L 20.15151515151515,84.3844696969697" fill="none" stroke="#000000" stroke-width="0.15919696969696967"/>
	<path d="M 20.15151515151515,86.9034090909091 L 30.227272727272727,86.9034090909091" fill="none" stroke="#000000" stroke-width="0.15919696969696967"/>
	<path d="M 30.227272727272727,89.42234848484848 L 20.15151515151515,89.42234848484848" fill="none" stroke="#000000" stroke-width="0.15919696969696967"/>
	<path d="M 30.227272727272727,81.86553030303031 L 40.303030303030305,81.86553030303031" fill="none" stroke="#000000" stroke-width="0.15919696969696967"/>
	<path d="M 40.303030303030305,84.3844696969697 L 30.227272727272727,84.3844696969697" fill="none" stroke="#000000" stroke-width="0.15919696969696967"/>
	<path d="M 30.227272727272727,86.9034090909091 L 40.303030303030305,86.9034090909091" fill="none" stroke="#000000" stroke-width="0.15919696969696967"/>
	<path d="M 40.303030303030305,89.42234848484848 L 30.227272727272727,89.42234848484848" fill="none" stroke="#000000" stroke-width="0.15919696969696967"/>
	<path d="M 40.303030303030305,81.44570707070707 L 50.37878787878788,81.44570707070707" fill="none" stroke="#000000" stroke-width="0.15919696969696967"/>
	<path d="M 50.37878787878788,83.125 L 40.303030303030305,83.125" fill="none" stroke="#000000" stroke-width="0.15919696969696967"/>
	<path d="M 40.303030303030305,84.80429292929293 L 50.37878787878788,84.80429292929293" fill="none" stroke="#000000" stroke-width="0.15919696969696967"/>
	<path d="M 50.37878787878788,86.48358585858585 L 40.303030303030305,86.48358585858585" fill="none" stroke="#000000" stroke-width="0.15919696969696967"/>
	<path d="M 40.303030303030305,88.16287878787878 L 50.37878787878788,88.16287878787878" fill="none" stroke="#000000" stroke-width="0.15919696969696967"/>
	<path d="M 50.37878787878788,89.84217171717171 L 40.303030303030305,89.84217171717171" fill="none" stroke="#000000" stroke-width="0.15919696969696967"/>
	<path d="M 50.37878787878788,81.86553030303031 L 60.45454545454546,81.86553030303031" fill="none" stroke="#000000" stroke-width="0.15919696969696967"/>
	<path d="M 60.45454545454546,84.3844696969697 L 50.37878787878788,84.3844696969697" fill="none" stroke="#000000" stroke-width="0.15919696969696967"/>
	<path d="M 50.37878787878788,86.9034090909091 L 60.45454545454546,86.9034090909091" fill="none" stroke="#000000" stroke-width="0.15919696969696967"/>
	<path d="M 60.45454545454546,89.42234848484848 L 50.37878787878788,89.42234848484848" fill="none" stroke="#000000" stroke-width="0.15919696969696967"/>
	<path d="M 60.45454545454545,81.86553030303031 L 70.53030303030303,81.86553030303031" fill="none" stroke="#000000" stroke-width="0.15919696969696967"/>
	<path d="M 70.53030303030303,84.3844696969697 L 60.45454545454545,84.3844696969697" fill="none" stroke="#000000" stroke-width="0.15919696969696967"/>
	<path d="M 60.45454545454545,86.9034090909091 L 70.53030303030303,86.9034090909091" fill="none" stroke="#000000" stroke-width="0.15919696969696967"/>
	<path d="M 70.53030303030303,89.42234848484848 L 60.45454545454545,89.42234848484848" fill="none" stroke="#000000" stroke-width="0.15919696969696967"/>
	<path d="M 70.53030303030303,81.44570707070707 L 80.60606060606061,81.44570707070707" fill="none" stroke="#000000" stroke-width="0.15919696969696967"/>
	<path d="M 80.60606060606061,83.125 L 70.53030303030303,83.125" fill="none" stroke="#000000" stroke-width="0.15919696969696967"/>
	<path d="M 70.53030303030303,84.80429292929293 L 80.60606060606061,84.80429292929293" fill="none" stroke="#000000" stroke-width="0.15919696969696967"/>
	<path d="M 80.60606060606061,86.48358585858585 L 70.53030303030303,86.48358585858585" fill="none" stroke="#000000" stroke-width="0.15919696969696967"/>
	<path d="M 70.53030303030303,88.16287878787878 L 80.60606060606061,88.16287878787878" fill="none" stroke="#000000" stroke-width="0.15919696969696967"/>
	<path d="M 80.60606060606061,89.84217171717171 L 70.53030303030303,89.84217171717171" fill="none" stroke="#000000" stroke-width="0.15919696969696967"/>
	<path d="M 80.60606060606061,81.86553030303031 L 90.68181818181819,81.86553030303031" fill="none" stroke="#000000" stroke-width="0.15919696969696967"/>
	<path d="M 90.68181818181819,84.3844696969697 L 80.60606060606061,84.3844696969697" fill="none" stroke="#000000" stroke-width="0.15919696969696967"/>
	<path d="M 80.60606060606061,86.9034090909091 L 90.68181818181819,86.9034090909091" fill="none" stroke="#000000" stroke-width="0.15919696969696967"/>
	<path d="M 90.68181818181819,89.42234848484848 L 80.60606060606061,89.42234848484848" fill="none" stroke="#000000" stroke-width="0.15919696969696967"/>
	<path d="M 90.68181818181819,81.86553030303031 L 100.75757575757576,81.86553030303031" fill="none" stroke="#000000" stroke-width="0.15919696969696967"/>
	<path d="M 100.75757575757576,84.3844696969697 L 90.68181818181819,84.3844696969697" fill="none" stroke="#000000" stroke-width="0.15919696969696967"/>
	<path d="M 90.68181818181819,86.9034090909091 L 100.75757575757576,86.9034090909091" fill="none" stroke="#000000" stroke-width="0.15919696969696967"/>
	<path d="M 100.75757575757576,89.42234848484848 L 90.68181818181819,89.42234848484848" fill="none" stroke="#000000" stroke-width="0.15919696969696967"/>
	<path d="M 100.75757575757576,81.86553030303031 L 110.83333333333334,81.86553030303031" fill="none" stroke="#000000" stroke-width="0.15919696969696967"/>
	<path d="M 110.83333333333334,84.3844696969697 L 100.75757575757576,84.3844696969697" fill="none" stroke="#000000" stroke-width="0.15919696969696967"/>
	<path d="M 100.75757575757576,86.9034090909091 L 110.83333333333334,86.9034090909091" fill="none" stroke="#000000" stroke-width="0.15919696969696967"/>
	<path d="M 110.83333333333334,89.42234848484848 L 100.75757575757576,89.42234848484848" fill="none" stroke="#000000" stroke-width="0.15919696969696967"/>
	<path d="M 0.0,91.94128787878789 L 10.075757575757576,91.94128787878789" fill="none" stroke="#000000" stroke-width="0.15919696969696967"/>
	<path d="M 10.075757575757576,94.46022727272728 L 0.0,94.46022727272728" fill="none" stroke="#000000" stroke-width="0.15919696969696967"/>
	<path d="M 0.0,96.97916666666667 L 10.075757575757576,96.97916666666667" fill="none" stroke="#000000" stroke-width="0.15919696969696967"/>
	<path d="M 10.075757575757576,99.49810606060606 L 0.0,99.49810606060606" fill="none" stroke="#000000" stroke-width="0.15919696969696967"/>
	<path d="M 10.075757575757576,91.94128787878789 L 20.151515151515152,91.94128787878789" fill="none" stroke="#000000" stroke-width="0.15919696969696967"/>
	<path d="M 20.151515151515152,94.46022727272728 L 10.075757575757576,94.46022727272728" fill="none" stroke="#000000" stroke-width="0.15919696969696967"/>
	<path d="M 10.075757575757576,96.97916666666667 L 20.151515151515152,96.97916666666667" fill="none" stroke="#000000" stroke-width="0.15919696969696967"/>
	<path d="M 20.151515151515152,99.49810606060606 L 10.075757575757576,99.49810606060606" fill="none" stroke="#000000" stroke-width="0.15919696969696967"/>
	<path d="M 20.151515151515152,91.94128787878789 L 30.227272727272727,91.94128787878789" fill="none" stroke="#000000" stroke-width="0.15919696969696967"/>
	<path d="M 30.227272727272727,94.46022727272728 L 20.15151515151515,94.46022727272728" fill="none" stroke="#000000" stroke-width="0.15919696969696967"/>
	<path d="M 20.15151515151515,96.97916666666667 L 30.227272727272727,96.97916666666667" fill="none" stroke="#000000" stroke-width="0.15919696969696967"/>
	<path d="M 30.227272727272727,99.49810606060606 L 20.15151515151515,99.49810606060606" fill="none" stroke="#000000" stroke-width="0.15919696969696967"/>
	<path d="M 30.227272727272727,91.94128787878789 L 40.303030303030305,91.94128787878789" fill="none" stroke="#000000" stroke-width="0.15919696969696967"/>
	<path d="M 40.303030303030305,94.46022727272728 L 30.227272727272727,94.46022727272728" fill="none" stroke="#000000" stroke-width="0.15919696969696967"/>
	<path d="M 30.227272727272727,96.97916666666667 L 40.303030303030305,96.97916666666667" fill="none" stroke="#000000" stroke-width="0.15919696969696967"/>
	<path d="M 40.303030303030305,99.49810606060606 L 30.227272727272727,99.49810606060606" fill="none" stroke="#000000" stroke-width="0.15919696969696967"/>
	<path d="M 40.303030303030305,91.52146464646465 L 50.37878787878788,91.52146464646465" fill="none" stroke="#000000" stroke-width="0.15919696969696967"/>
	<path d="M 50.37878787878788,93.20075757575758 L 40.303030303030305,93.20075757575758" fill="none" stroke="#000000" stroke-width="0.15919696969696967"/>
	<path d="M 40.303030303030305,94.8800505050505 L 50.37878787878788,94.8800505050505" fill="none" stroke="#000000" stroke-width="0.15919696969696967"/>
	<path d="M 50.37878787878788,96.55934343434343 L 40.303030303030305,96.55934343434343" fill="none" stroke="#000000" stroke-width="0.15919696969696967"/>
	<path d="M 40.303030303030305,98.23863636363636 L 50.37878787878788,98.23863636363636" fill="none" stroke="#000000" stroke-width="0.15919696969696967"/>
	<path d="M 50.37878787878788,99.91792929292929 L 40.303030303030305,99.91792929292929" fill="none" stroke="#000000" stroke-width="0.15919696969696967"/>
	<path d="M 50.37878787878788,91.52146464646465 L 60.45454545454546,91.52146464646465" fill="none" stroke="#000000" stroke-width="0.15919696969696967"/>
	<path d="M 60.45454545454546,93.20075757575758 L 50.37878787878788,93.20075757575758" fill="none" stroke="#000000" stroke-width="0.15919696969696967"/>
	<path d="M 50.37878787878788,94.8800505050505 L 60.45454545454546,94.8800505050505" fill="none" stroke="#000000" stroke-width="0.15919696969696967"/>
	<path d="M 60.45454545454546,96.55934343434343 L 50.37878787878788,96.55934343434343" fill="none" stroke="#000000" stroke-width="0.15919696969696967"/>
	<path d="M 50.37878787878788,98.23863636363636 L 60.45454545454546,98.23863636363636" fill="none" stroke="#000000" stroke-width="0.15919696969696967"/>
	<path d="M 60.45454545454546,99.91792929292929 L 50.37878787878788,99.91792929292929" fill="none" stroke="#000000" stroke-width="0.15919696969696967"/>
	<path d="M 60.45454545454545,91.52146464646465 L 70.53030303030303,91.52146464646465" fill="none" stroke="#000000" stroke-width="0.15919696969696967"/>
	<path d="M 70.53030303030303,93.20075757575758 L 60.45454545454545,93.20075757575758" fill="none" stroke="#000000" stroke-width="0.15919696969696967"/>
	<path d="M 60.45454545454545,94.8800505050505 L 70.53030303030303,94.8800505050505" fill="none" stroke="#000000" stroke-width="0.15919696969696967"/>
	<path d="M 70.53030303030303,96.55934343434343 L 60.45454545454545,96.55934343434343" fill="none" stroke="#000000" stroke-width="0.15919696969696967"/>
	<path d="M 60.45454545454545,98.23863636363636 L 70.53030303030303,98.23863636363636" fill="none" stroke="#000000" stroke-width="0.15919696969696967"/>
	<path d="M 70.53030303030303,99.91792929292929 L 60.45454545454545,99.91792929292929" fill="none" stroke="#000000" stroke-width="0.15919696969696967"/>
	<path d="M 70.53030303030303,91.52146464646465 L 80.60606060606061,91.52146464646465" fill="none" stroke="#000000" stroke-width="0.15919696969696967"/>
	<path d="M 80.60606060606061,93.20075757575758 L 70.53030303030303,93.20075757575758" fill="none" stroke="#000000" stroke-width="0.15919696969696967"/>
	<path d="M 70.53030303030303,94.8800505050505 L 80.60606060606061,94.8800505050505" fill="none" stroke="#000000" stroke-width="0.15919696969696967"/>
	<path d="M 80.60606060606061,96.55934343434343 L 70.53030303030303,96.55934343434343" fill="none" stroke="#000000" stroke-width="0.15919696969696967"/>
	<path d="M 70.53030303030303,98.23863636363636 L 80.60606060606061,98.23863636363636" fill="none" stroke="#000000" stroke-width="0.15919696969696967"/>
	<path d="M 80.60606060606061,99.91792929292929 L 70.53030303030303,99.91792929292929" fill="none" stroke="#000000" stroke-width="0.15919696969696967"/>
	<path d="M 80.60606060606061,91.94128787878789 L 90.68181818181819,91.94128787878789" fill="none" stroke="#000000" stroke-width="0.15919696969696967"/>
	<path d="M 90.68181818181819,94.46022727272728 L 80.60606060606061,94.46022727272728" fill="none" stroke="#000000" stroke-width="0.15919696969696967"/>
	<path d="M 80.60606060606061,96.97916666666667 L 90.68181818181819,96.97916666666667" fill="none" stroke="#000000" stroke-width="0.15919696969696967"/>
	<path d="M 90.68181818181819,99.49810606060606 L 80.60606060606061,99.49810606060606" fill="none" stroke="#000000" stroke-width="0.15919696969696967"/>
	<path d="M 90.68181818181819,91.94128787878789 L 100.75757575757576,91.94128787878789" fill="none" stroke="#000000" stroke-width="0.15919696969696967"/>
	<path d="M 100.75757575757576,94.46022727272728 L 90.68181818181819,94.46022727272728" fill="none" stroke="#000000" stroke-width="0.15919696969696967"/>
	<path d="M 90.68181818181819,96.97916666666667 L 100.75757575757576,96.97916666666667" fill="none" stroke="#000000" stroke-width="0.15919696969696967"/>
	<path d="M 100.75757575757576,99.49810606060606 L 90.68181818181819,99.49810606060606" fill="none" stroke="#000000" stroke-width="0.15919696969696967"/>
	<path d="M 100.75757575757576,91.94128787878789 L 110.83333333333334,91.94128787878789" fill="none" stroke="#000000" stroke-width="0.15919696969696967"/>
	<path d="M 110.83333333333334,94.46022727272728 L 100.75757575757576,94.46022727272728" fill="none" stroke="#000000" stroke-width="0.15919696969696967"/>
	<path d="M 100.75757575757576,96.97916666666667 L 110.83333333333334,96.97916666666667" fill="none" stroke="#000000" stroke-width="0.15919696969696967"/>
	<path d="M 110.83333333333334,99.49810606060606 L 100.75757575757576,99.49810606060606" fill="none" stroke="#000000" stroke-width="0.15919696969696967"/>
	<path d="M 110.83333333333334,91.94128787878789 L 120.90909090909092,91.94128787878789" fill="none" stroke="#000000" stroke-width="0.15919696969696967"/>
	<path d="M 120.90909090909092,94.46022727272728 L 110.83333333333334,94.46022727272728" fill="none" stroke="#000000" stroke-width="0.15919696969696967"/>
	<path d="M 110.83333333333334,96.97916666666667 L 120.90909090909092,96.97916666666667" fill="none" stroke="#000000" stroke-width="0.15919696969696967"/>
	<path d="M 120.90909090909092,99.49810606060606 L 110.83333333333334,99.49810606060606" fill="none" stroke="#000000" stroke-width="0.15919696969696967"/>
	<path d="M 0.0,103.27651515151516 L 10.075757575757576,103.27651515151516" fill="none" stroke="#000000" stroke-width="0.15919696969696967"/>
	<path d="M 10.075757575757576,108.31439393939394 L 0.0,108.31439393939394" fill="none" stroke="#000000" stroke-width="0.15919696969696967"/>
	<path d="M 10.075757575757576,103.27651515151516 L 20.151515151515152,103.27651515151516" fill="none" stroke="#000000" stroke-width="0.15919696969696967"/>
	<path d="M 20.151515151515152,108.31439393939394 L 10.075757575757576,108.31439393939394" fill="none" stroke="#000000" stroke-width="0.15919696969696967"/>
	<path d="M 20.151515151515152,102.01704545454547 L 30.227272727272727,102.01704545454547" fill="none" stroke="#000000" stroke-width="0.15919696969696967"/>
	<path d="M 30.227272727272727,104.53598484848486 L 20.15151515151515,104.53598484848486" fill="none" stroke="#000000" stroke-width="0.15919696969696967"/>
	<path d="M 20.15151515151515,107.05492424242425 L 30.227272727272727,107.05492424242425" fill="none" stroke="#000000" stroke-width="0.15919696969696967"/>
	<path d="M 30.227272727272727,109.57386363636364 L 20.15151515151515,109.57386363636364" fill="none" stroke="#000000" stroke-width="0.15919696969696967"/>
	<path d="M 30.227272727272727,101.59722222222223 L 40.303030303030305,101.59722222222223" fill="none" stroke="#000000" stroke-width="0.15919696969696967"/>
	<path d="M 40.303030303030305,103.27651515151516 L 30.227272727272727,103.27651515151516" fill="none" stroke="#000000" stroke-width="0.15919696969696967"/>
	<path d="M 30.227272727272727,104.95580808080808 L 40.303030303030305,104.95580808080808" fill="none" stroke="#000000" stroke-width="0.15919696969696967"/>
	<path d="M 40.303030303030305,106.63510101010101 L 30.227272727272727,106.63510101010101" fill="none" stroke="#000000" stroke-width="0.15919696969696967"/>
	<path d="M 30.227272727272727,108.31439393939394 L 40.303030303030305,108.31439393939394" fill="none" stroke="#000000" stroke-width="0.15919696969696967"/>
	<path d="M 40.303030303030305,109.99368686868686 L 30.227272727272727,109.99368686868686" fill="none" stroke="#000000" stroke-width="0.15919696969696967"/>
	<path d="M 50.37878787878788,101.59722222222223 L 60.45454545454546,101.59722222222223" fill="none" stroke="#000000" stroke-width="0.15919696969696967"/>
	<path d="M 60.45454545454546,103.27651515151516 L 50.37878787878788,103.27651515151516" fill="none" stroke="#000000" stroke-width="0.15919696969696967"/>
	<path d="M 50.37878787878788,104.95580808080808 L 60.45454545454546,104.95580808080808" fill="none" stroke="#000000" stroke-width="0.15919696969696967"/>
	<path d="M 60.45454545454546,106.63510101010101 L 50.37878787878788,106.63510101010101" fill="none" stroke="#000000" stroke-width="0.15919696969696967"/>
	<path d="M 50.37878787878788,108.31439393939394 L 60.45454545454546,108.31439393939394" fill="none" stroke="#000000" stroke-width="0.15919696969696967"/>
	<path d="M 60.45454545454546,109.99368686868686 L 50.37878787878788,109.99368686868686" fill="none" stroke="#000000" stroke-width="0.15919696969696967"/>
	<path d="M 60.45454545454545,101.59722222222223 L 70.53030303030303,101.59722222222223" fill="none" stroke="#000000" stroke-width="0.15919696969696967"/>
	<path d="M 70.53030303030303,103.27651515151516 L 60.45454545454545,103.27651515151516" fill="none" stroke="#000000" stroke-width="0.15919696969696967"/>
	<path d="M 60.45454545454545,104.95580808080808 L 70.53030303030303,104.95580808080808" fill="none" stroke="#000000" stroke-width="0.15919696969696967"/>
	<path d="M 70.53030303030303,106.63510101010101 L 60.45454545454545,106.63510101010101" fill="none" stroke="#000000" stroke-width="0.15919696969696967"/>
	<path d="M 60.45454545454545,108.31439393939394 L 70.53030303030303,108.31439393939394" fill="none" stroke="#000000" stroke-width="0.15919696969696967"/>
	<path d="M 70.53030303030303,109.99368686868686 L 60.45454545454545,109.99368686868686" fill="none" stroke="#000000" stroke-width="0.15919696969696967"/>
	<path d="M 80.60606060606061,101.59722222222223 L 90.68181818181819,101.59722222222223" fill="none" stroke="#000000" stroke-width="0.15919696969696967"/>
	<path d="M 90.68181818181819,103.27651515151516 L 80.60606060606061,103.27651515151516" fill="none" stroke="#000000" stroke-width="0.15919696969696967"/>
	<path d="M 80.60606060606061,104.95580808080808 L 90.68181818181819,104.95580808080808" fill="none" stroke="#000000" stroke-width="0.15919696969696967"/>
	<path d="M 90.68181818181819,106.63510101010101 L 80.60606060606061,106.63510101010101" fill="none" stroke="#000000" stroke-width="0.15919696969696967"/>
	<path d="M 80.60606060606061,108.31439393939394 L 90.68181818181819,108.31439393939394" fill="none" stroke="#000000" stroke-width="0.15919696969696967"/>
	<path d="M 90.68181818181819,109.99368686868686 L 80.60606060606061,109.99368686868686" fill="none" stroke="#000000" stroke-width="0.15919696969696967"/>
	<path d="M 90.68181818181819,102.01704545454547 L 100.75757575757576,102.01704545454547" fill="none" stroke="#000000" stroke-width="0.15919696969696967"/>
	<path d="M 100.75757575757576,104.53598484848486 L 90.68181818181819,104.53598484848486" fill="none" stroke="#000000" stroke-width="0.15919696969696967"/>
	<path d="M 90.68181818181819,107.05492424242425 L 100.75757575757576,107.05492424242425" fill="none" stroke="#000000" stroke-width="0.15919696969696967"/>
	<path d="M 100.75757575757576,109.57386363636364 L 90.68181818181819,109.57386363636364" fill="none" stroke="#000000" stroke-width="0.15919696969696967"/>
	<path d="M 100.75757575757576,103.27651515151516 L 110.83333333333334,103.27651515151516" fill="none" stroke="#000000" stroke-width="0.15919696969696967"/>
	<path d="M 110.83333333333334,108.31439393939394 L 100.75757575757576,108.31439393939394" fill="none" stroke="#000000" stroke-width="0.15919696969696967"/>
	<path d="M 110.83333333333334,103.27651515151516 L 120.90909090909092,103.27651515151516" fill="none" stroke="#000000" stroke-width="0.15919696969696967"/>
	<path d="M 120.90909090909092,108.31439393939394 L 110.83333333333334,108.31439393939394" fill="none" stroke="#000000" stroke-width="0.15919696969696967"/>
	<path d="M 0.0,113.35227272727273 L 10.075757575757576,113.35227272727273" fill="none" stroke="#000000" stroke-width="0.15919696969696967"/>
	<path d="M 10.075757575757576,118.39015151515152 L 0.0,118.39015151515152" fill="none" stroke="#000000" stroke-width="0.15919696969696967"/>
	<path d="M 10.075757575757576,113.35227272727273 L 20.151515151515152,113.35227272727273" fill="none" stroke="#000000" stroke-width="0.15919696969696967"/>
	<path d="M 20.151515151515152,118.39015151515152 L 10.075757575757576,118.39015151515152" fill="none" stroke="#000000" stroke-width="0.15919696969696967"/>
	<path d="M 20.151515151515152,113.35227272727273 L 30.227272727272727,113.35227272727273" fill="none" stroke="#000000" stroke-width="0.15919696969696967"/>
	<path d="M 30.227272727272727,118.39015151515152 L 20.15151515151515,118.39015151515152" fill="none" stroke="#000000" stroke-width="0.15919696969696967"/>
	<path d="M 30.227272727272727,111.6729797979798 L 40.303030303030305,111.6729797979798" fill="none" stroke="#000000" stroke-width="0.15919696969696967"/>
	<path d="M 40.303030303030305,113.35227272727273 L 30.227272727272727,113.35227272727273" fill="none" stroke="#000000" stroke-width="0.15919696969696967"/>
	<path d="M 30.227272727272727,115.03156565656566 L 40.303030303030305,115.03156565656566" fill="none" stroke="#000000" stroke-width="0.15919696969696967"/>
	<path d="M 40.303030303030305,116.71085858585859 L 30.227272727272727,116.71085858585859" fill="none" stroke="#000000" stroke-width="0.15919696969696967"/>
	<path d="M 30.227272727272727,118.39015151515152 L 40.303030303030305,118.39015151515152" fill="none" stroke="#000000" stroke-width="0.15919696969696967"/>
	<path d="M 40.303030303030305,120.06944444444444 L 30.227272727272727,120.06944444444444" fill="none" stroke="#000000" stroke-width="0.15919696969696967"/>
	<path d="M 40.303030303030305,111.6729797979798 L 50.37878787878788,111.6729797979798" fill="none" stroke="#000000" stroke-width="0.15919696969696967"/>
	<path d="M 50.37878787878788,113.35227272727273 L 40.303030303030305,113.35227272727273" fill="none" stroke="#000000" stroke-width="0.15919696969696967"/>
	<path d="M 40.303030303030305,115.03156565656566 L 50.37878787878788,115.03156565656566" fill="none" stroke="#000000" stroke-width="0.15919696969696967"/>
	<path d="M 50.37878787878788,116.71085858585859 L 40.303030303030305,116.71085858585859" fill="none" stroke="#000000" stroke-width="0.15919696969696967"/>
	<path d="M 40.303030303030305,118.39015151515152 L 50.37878787878788,118.39015151515152" fill="none" stroke="#000000" stroke-width="0.15919696969696967"/>
	<path d="M 50.37878787878788,120.06944444444444 L 40.303030303030305,120.06944444444444" fill="none" stroke="#000000" stroke-width="0.15919696969696967"/>
	<path d="M 50.37878787878788,111.6729797979798 L 60.45454545454546,111.6729797979798" fill="none" stroke="#000000" stroke-width="0.15919696969696967"/>
	<path d="M 60.45454545454546,113.35227272727273 L 50.37878787878788,113.35227272727273" fill="none" stroke="#000000" stroke-width="0.15919696969696967"/>
	<path d="M 50.37878787878788,115.03156565656566 L 60.45454545454546,115.03156565656566" fill="none" stroke="#000000" stroke-width="0.15919696969696967"/>
	<path d="M 60.45454545454546,116.71085858585859 L 50.37878787878788,116.71085858585859" fill="none" stroke="#000000" stroke-width="0.15919696969696967"/>
	<path d="M 50.37878787878788,118.39015151515152 L 60.45454545454546,118.39015151515152" fill="none" stroke="#000000" stroke-width="0.15919696969696967"/>
	<path d="M 60.45454545454546,120.06944444444444 L 50.37878787878788,120.06944444444444" fill="none" stroke="#000000" stroke-width="0.15919696969696967"/>
	<path d="M 60.45454545454545,111.6729797979798 L 70.53030303030303,111.6729797979798" fill="none" stroke="#000000" stroke-width="0.15919696969696967"/>
	<path d="M 70.53030303030303,113.35227272727273 L 60.45454545454545,113.35227272727273" fill="none" stroke="#000000" stroke-width="0.15919696969696967"/>
	<path d="M 60.45454545454545,115.03156565656566 L 70.53030303030303,115.03156565656566" fill="none" stroke="#000000" stroke-width="0.15919696969696967"/>
	<path d="M 70.53030303030303,116.71085858585859 L 60.45454545454545,116.71085858585859" fill="none" stroke="#000000" stroke-width="0.15919696969696967"/>
	<path d="M 60.45454545454545,118.39015151515152 L 70.53030303030303,118.39015151515152" fill="none" stroke="#000000" stroke-width="0.15919696969696967"/>
	<path d="M 70.53030303030303,120.06944444444444 L 60.45454545454545,120.06944444444444" fill="none" stroke="#000000" stroke-width="0.15919696969696967"/>
	<path d="M 70.53030303030303,111.6729797979798 L 80.60606060606061,111.6729797979798" fill="none" stroke="#000000" stroke-width="0.15919696969696967"/>
	<path d="M 80.60606060606061,113.35227272727273 L 70.53030303030303,113.35227272727273" fill="none" stroke="#000000" stroke-width="0.15919696969696967"/>
	<path d="M 70.53030303030303,115.03156565656566 L 80.60606060606061,115.03156565656566" fill="none" stroke="#000000" stroke-width="0.15919696969696967"/>
	<path d="M 80.60606060606061,116.71085858585859 L 70.53030303030303,116.71085858585859" fill="none" stroke="#000000" stroke-width="0.15919696969696967"/>
	<path d="M 70.53030303030303,118.39015151515152 L 80.60606060606061,118.39015151515152" fill="none" stroke="#000000" stroke-width="0.15919696969696967"/>
	<path d="M 80.60606060606061,120.06944444444444 L 70.53030303030303,120.06944444444444" fill="none" stroke="#000000" stroke-width="0.15919696969696967"/>
	<path d="M 80.60606060606061,111.6729797979798 L 90.68181818181819,111.6729797979798" fill="none" stroke="#000000" stroke-width="0.15919696969696967"/>
	<path d="M 90.68181818181819,113.35227272727273 L 80.60606060606061,113.35227272727273" fill="none" stroke="#000000" stroke-width="0.15919696969696967"/>
	<path d="M 80.60606060606061,115.03156565656566 L 90.68181818181819,115.03156565656566" fill="none" stroke="#000000" stroke-width="0.15919696969696967"/>
	<path d="M 90.68181818181819,116.71085858585859 L 80.60606060606061,116.71085858585859" fill="none" stroke="#000000" stroke-width="0.15919696969696967"/>
	<path d="M 80.60606060606061,118.39015151515152 L 90.68181818181819,118.39015151515152" fill="none" stroke="#000000" stroke-width="0.15919696969696967"/>
	<path d="M 90.68181818181819,120.06944444444444 L 80.60606060606061,120.06944444444444" fill="none" stroke="#000000" stroke-width="0.15919696969696967"/>
	<path d="M 90.68181818181819,113.35227272727273 L 100.75757575757576,113.35227272727273" fill="none" stroke="#000000" stroke-width="0.15919696969696967"/>
	<path d="M 100.75757575757576,118.39015151515152 L 90.68181818181819,118.39015151515152" fill="none" stroke="#000000" stroke-width="0.15919696969696967"/>
	<path d="M 100.75757575757576,113.35227272727273 L 110.83333333333334,113.35227272727273" fill="none" stroke="#000000" stroke-width="0.15919696969696967"/>
	<path d="M 110.83333333333334,118.39015151515152 L 100.75757575757576,118.39015151515152" fill="none" stroke="#000000" stroke-width="0.15919696969696967"/>
	<path d="M 110.83333333333334,113.35227272727273 L 120.90909090909092,113.35227272727273" fill="none" stroke="#000000" stroke-width="0.15919696969696967"/>
	<path d="M 120.90909090909092,118.39015151515152 L 110.83333333333334,118.39015151515152" fill="none" stroke="#000000" stroke-width="0.15919696969696967"/>
	<path d="M 0.0,123.4280303030303 L 10.075757575757576,123.4280303030303" fill="none" stroke="#000000" stroke-width="0.15919696969696967"/>
	<path d="M 10.075757575757576,128.4659090909091 L 0.0,128.4659090909091" fill="none" stroke="#000000" stroke-width="0.15919696969696967"/>
	<path d="M 10.075757575757576,123.4280303030303 L 20.151515151515152,123.4280303030303" fill="none" stroke="#000000" stroke-width="0.15919696969696967"/>
	<path d="M 20.151515151515152,128.4659090909091 L 10.075757575757576,128.4659090909091" fill="none" stroke="#000000" stroke-width="0.15919696969696967"/>
	<path d="M 30.227272727272727,121.74873737373737 L 40.303030303030305,121.74873737373737" fill="none" stroke="#000000" stroke-width="0.15919696969696967"/>
	<path d="M 40.303030303030305,123.4280303030303 L 30.227272727272727,123.4280303030303" fill="none" stroke="#000000" stroke-width="0.15919696969696967"/>
	<path d="M 30.227272727272727,125.10732323232322 L 40.303030303030305,125.10732323232322" fill="none" stroke="#000000" stroke-width="0.15919696969696967"/>
	<path d="M 40.303030303030305,126.78661616161615 L 30.227272727272727,126.78661616161615" fill="none" stroke="#000000" stroke-width="0.15919696969696967"/>
	<path d="M 30.227272727272727,128.4659090909091 L 40.303030303030305,128.4659090909091" fill="none" stroke="#000000" stroke-width="0.15919696969696967"/>
	<path d="M 40.303030303030305,130.14520202020202 L 30.227272727272727,130.14520202020202" fill="none" stroke="#000000" stroke-width="0.15919696969696967"/>
	<path d="M 40.303030303030305,121.74873737373737 L 50.37878787878788,121.74873737373737" fill="none" stroke="#000000" stroke-width="0.15919696969696967"/>
	<path d="M 50.37878787878788,123.4280303030303 L 40.303030303030305,123.4280303030303" fill="none" stroke="#000000" stroke-width="0.15919696969696967"/>
	<path d="M 40.303030303030305,125.10732323232322 L 50.37878787878788,125.10732323232322" fill="none" stroke="#000000" stroke-width="0.15919696969696967"/>
	<path d="M 50.37878787878788,126.78661616161615 L 40.303030303030305,126.78661616161615" fill="none" stroke="#000000" stroke-width="0.15919696969696967"/>
	<path d="M 40.303030303030305,128.4659090909091 L 50.37878787878788,128.4659090909091" fill="none" stroke="#000000" stroke-width="0.15919696969696967"/>
	<path d="M 50.37878787878788,130.14520202020202 L 40.303030303030305,130.14520202020202" fill="none" stroke="#000000" stroke-width="0.15919696969696967"/>
	<path d="M 50.37878787878788,121.74873737373737 L 60.45454545454546,121.74873737373737" fill="none" stroke="#000000" stroke-width="0.15919696969696967"/>
	<path d="M 60.45454545454546,123.4280303030303 L 50.37878787878788,123.4280303030303" fill="none" stroke="#000000" stroke-width="0.15919696969696967"/>
	<path d="M 50.37878787878788,125.10732323232322 L 60.45454545454546,125.10732323232322" fill="none" stroke="#000000" stroke-width="0.15919696969696967"/>
	<path d="M 60.45454545454546,126.78661616161615 L 50.37878787878788,126.78661616161615" fill="none" stroke="#000000" stroke-width="0.15919696969696967"/>
	<path d="M 50.37878787878788,128.4659090909091 L 60.45454545454546,128.4659090909091" fill="none" stroke="#000000" stroke-width="0.15919696969696967"/>
	<path d="M 60.45454545454546,130.14520202020202 L 50.37878787878788,130.14520202020202" fill="none" stroke="#000000" stroke-width="0.15919696969696967"/>
	<path d="M 60.45454545454545,121.74873737373737 L 70.53030303030303,121.74873737373737" fill="none" stroke="#000000" stroke-width="0.15919696969696967"/>
	<path d="M 70.53030303030303,123.4280303030303 L 60.45454545454545,123.4280303030303" fill="none" stroke="#000000" stroke-width="0.15919696969696967"/>
	<path d="M 60.45454545454545,125.10732323232322 L 70.53030303030303,125.10732323232322" fill="none" stroke="#000000" stroke-width="0.15919696969696967"/>
	<path d="M 70.53030303030303,126.78661616161615 L 60.45454545454545,126.78661616161615" fill="none" stroke="#000000" stroke-width="0.15919696969696967"/>
	<path d="M 60.45454545454545,128.4659090909091 L 70.53030303030303,128.4659090909091" fill="none" stroke="#000000" stroke-width="0.15919696969696967"/>
	<path d="M 70.53030303030303,130.14520202020202 L 60.45454545454545,130.14520202020202" fill="none" stroke="#000000" stroke-width="0.15919696969696967"/>
	<path d="M 70.53030303030303,121.74873737373737 L 80.60606060606061,121.74873737373737" fill="none" stroke="#000000" stroke-width="0.15919696969696967"/>
	<path d="M 80.60606060606061,123.4280303030303 L 70.53030303030303,123.4280303030303" fill="none" stroke="#000000" stroke-width="0.15919696969696967"/>
	<path d="M 70.53030303030303,125.10732323232322 L 80.60606060606061,125.10732323232322" fill="none" stroke="#000000" stroke-width="0.15919696969696967"/>
	<path d="M 80.60606060606061,126.78661616161615 L 70.53030303030303,126.78661616161615" fill="none" stroke="#000000" stroke-width="0.15919696969696967"/>
	<path d="M 70.53030303030303,128.4659090909091 L 80.60606060606061,128.4659090909091" fill="none" stroke="#000000" stroke-width="0.15919696969696967"/>
	<path d="M 80.60606060606061,130.14520202020202 L 70.53030303030303,130.14520202020202" fill="none" stroke="#000000" stroke-width="0.15919696969696967"/>
	<path d="M 80.60606060606061,121.74873737373737 L 90.68181818181819,121.74873737373737" fill="none" stroke="#000000" stroke-width="0.15919696969696967"/>
	<path d="M 90.68181818181819,123.4280303030303 L 80.60606060606061,123.4280303030303" fill="none" stroke="#000000" stroke-width="0.15919696969696967"/>
	<path d="M 80.60606060606061,125.10732323232322 L 90.68181818181819,125.10732323232322" fill="none" stroke="#000000" stroke-width="0.15919696969696967"/>
	<path d="M 90.68181818181819,126.78661616161615 L 80.60606060606061,126.78661616161615" fill="none" stroke="#000000" stroke-width="0.15919696969696967"/>
	<path d="M 80.60606060606061,128.4659090909091 L 90.68181818181819,128.4659090909091" fill="none" stroke="#000000" stroke-width="0.15919696969696967"/>
	<path d="M 90.68181818181819,130.14520202020202 L 80.60606060606061,130.14520202020202" fill="none" stroke="#000000" stroke-width="0.15919696969696967"/>
	<path d="M 90.68181818181819,121.74873737373737 L 100.75757575757576,121.74873737373737" fill="none" stroke="#000000" stroke-width="0.15919696969696967"/>
	<path d="M 100.75757575757576,123.4280303030303 L 90.68181818181819,123.4280303030303" fill="none" stroke="#000000" stroke-width="0.15919696969696967"/>
	<path d="M 90.68181818181819,125.10732323232322 L 100.75757575757576,125.10732323232322" fill="none" stroke="#000000" stroke-width="0.15919696969696967"/>
	<path d="M 100.75757575757576,126.78661616161615 L 90.68181818181819,126.78661616161615" fill="none" stroke="#000000" stroke-width="0.15919696969696967"/>
	<path d="M 90.68181818181819,128.4659090909091 L 100.75757575757576,128.4659090909091" fill="none" stroke="#000000" stroke-width="0.15919696969696967"/>
	<path d="M 100.75757575757576,130.14520202020202 L 90.68181818181819,130.14520202020202" fill="none" stroke="#000000" stroke-width="0.15919696969696967"/>
	<path d="M 100.75757575757576,123.4280303030303 L 110.83333333333334,123.4280303030303" fill="none" stroke="#000000" stroke-width="0.15919696969696967"/>
	<path d="M 110.83333333333334,128.4659090909091 L 100.75757575757576,128.4659090909091" fill="none" stroke="#000000" stroke-width="0.15919696969696967"/>
	<path d="M 110.83333333333334,123.4280303030303 L 120.90909090909092,123.4280303030303" fill="none" stroke="#000000" stroke-width="0.15919696969696967"/>
	<path d="M 120.90909090909092,128.4659090909091 L 110.83333333333334,128.4659090909091" fill="none" stroke="#000000" stroke-width="0.15919696969696967"/>
	<path d="M 30.227272727272727,131.82449494949498 L 40.303030303030305,131.82449494949498" fill="none" stroke="#000000" stroke-width="0.15919696969696967"/>
	<path d="M 40.303030303030305,133.5037878787879 L 30.227272727272727,133.5037878787879" fill="none" stroke="#000000" stroke-width="0.15919696969696967"/>
	<path d="M 30.227272727272727,135.18308080808083 L 40.303030303030305,135.18308080808083" fill="none" stroke="#000000" stroke-width="0.15919696969696967"/>
	<path d="M 40.303030303030305,136.86237373737376 L 30.227272727272727,136.86237373737376" fill="none" stroke="#000000" stroke-width="0.15919696969696967"/>
	<path d="M 30.227272727272727,138.54166666666669 L 40.303030303030305,138.54166666666669" fill="none" stroke="#000000" stroke-width="0.15919696969696967"/>
	<path d="M 40.303030303030305,140.2209595959596 L 30.227272727272727,140.2209595959596" fill="none" stroke="#000000" stroke-width="0.15919696969696967"/>
	<path d="M 40.303030303030305,131.82449494949498 L 50.37878787878788,131.82449494949498" fill="none" stroke="#000000" stroke-width="0.15919696969696967"/>
	<path d="M 50.37878787878788,133.5037878787879 L 40.303030303030305,133.5037878787879" fill="none" stroke="#000000" stroke-width="0.15919696969696967"/>
	<path d="M 40.303030303030305,135.18308080808083 L 50.37878787878788,135.18308080808083" fill="none" stroke="#000000" stroke-width="0.15919696969696967"/>
	<path d="M 50.37878787878788,136.86237373737376 L 40.303030303030305,136.86237373737376" fill="none" stroke="#000000" stroke-width="0.15919696969696967"/>
	<path d="M 40.303030303030305,138.54166666666669 L 50.37878787878788,138.54166666666669" fill="none" stroke="#000000" stroke-width="0.15919696969696967"/>
	<path d="M 50.37878787878788,140.2209595959596 L 40.303030303030305,140.2209595959596" fill="none" stroke="#000000" stroke-width="0.15919696969696967"/>
	<path d="M 70.53030303030303,131.82449494949498 L 80.60606060606061,131.82449494949498" fill="none" stroke="#000000" stroke-width="0.15919696969696967"/>
	<path d="M 80.60606060606061,133.5037878787879 L 70.53030303030303,133.5037878787879" fill="none" stroke="#000000" stroke-width="0.15919696969696967"/>
	<path d="M 70.53030303030303,135.18308080808083 L 80.60606060606061,135.18308080808083" fill="none" stroke="#000000" stroke-width="0.15919696969696967"/>
	<path d="M 80.60606060606061,136.86237373737376 L 70.53030303030303,136.86237373737376" fill="none" stroke="#000000" stroke-width="0.15919696969696967"/>
	<path d="M 70.53030303030303,138.54166666666669 L 80.60606060606061,138.54166666666669" fill="none" stroke="#000000" stroke-width="0.15919696969696967"/>
	<path d="M 80.60606060606061,140.2209595959596 L 70.53030303030303,140.2209595959596" fill="none" stroke="#000000" stroke-width="0.15919696969696967"/>
	<path d="M 80.60606060606061,131.82449494949498 L 90.68181818181819,131.82449494949498" fill="none" stroke="#000000" stroke-width="0.15919696969696967"/>
	<path d="M 90.68181818181819,133.5037878787879 L 80.60606060606061,133.5037878787879" fill="none" stroke="#000000" stroke-width="0.15919696969696967"/>
	<path d="M 80.60606060606061,135.18308080808083 L 90.68181818181819,135.18308080808083" fill="none" stroke="#000000" stroke-width="0.15919696969696967"/>
	<path d="M 90.68181818181819,136.86237373737376 L 80.60606060606061,136.86237373737376" fill="none" stroke="#000000" stroke-width="0.15919696969696967"/>
	<path d="M 80.60606060606061,138.54166666666669 L 90.68181818181819,138.54166666666669" fill="none" stroke="#000000" stroke-width="0.15919696969696967"/>
	<path d="M 90.68181818181819,140.2209595959596 L 80.60606060606061,140.2209595959596" fill="none" stroke="#000000" stroke-width="0.15919696969696967"/>
	<path d="M 90.68181818181819,131.82449494949498 L 100.75757575757576,131.82449494949498" fill="none" stroke="#000000" stroke-width="0.15919696969696967"/>
	<path d="M 100.75757575757576,133.5037878787879 L 90.68181818181819,133.5037878787879" fill="none" stroke="#000000" stroke-width="0.15919696969696967"/>
	<path d="M 90.68181818181819,135.18308080808083 L 100.75757575757576,135.18308080808083" fill="none" stroke="#000000" stroke-width="0.15919696969696967"/>
	<path d="M 100.75757575757576,136.86237373737376 L 90.68181818181819,136.86237373737376" fill="none" stroke="#000000" stroke-width="0.15919696969696967"/>
	<path d="M 90.68181818181819,138.54166666666669 L 100.75757575757576,138.54166666666669" fill="none" stroke="#000000" stroke-width="0.15919696969696967"/>
	<path d="M 100.75757575757576,140.2209595959596 L 90.68181818181819,140.2209595959596" fill="none" stroke="#000000" stroke-width="0.15919696969696967"/>
	<path d="M 10.075757575757576,142.0681818181818 L 20.151515151515152,142.0681818181818" fill="none" stroke="#000000" stroke-width="0.15919696969696967"/>
	<path d="M 20.151515151515152,144.08333333333331 L 10.075757575757576,144.08333333333331" fill="none" stroke="#000000" stroke-width="0.15919696969696967"/>
	<path d="M 10.075757575757576,146.09848484848482 L 20.151515151515152,146.09848484848482" fill="none" stroke="#000000" stroke-width="0.15919696969696967"/>
	<path d="M 20.151515151515152,148.11363636363632 L 10.075757575757576,148.11363636363632" fill="none" stroke="#000000" stroke-width="0.15919696969696967"/>
	<path d="M 10.075757575757576,150.12878787878782 L 20.151515151515152,150.12878787878782" fill="none" stroke="#000000" stroke-width="0.15919696969696967"/>
	<path d="M 20.151515151515152,142.0681818181818 L 30.227272727272727,142.0681818181818" fill="none" stroke="#000000" stroke-width="0.15919696969696967"/>
	<path d="M 30.227272727272727,144.08333333333331 L 20.15151515151515,144.08333333333331" fill="none" stroke="#000000" stroke-width="0.15919696969696967"/>
	<path d="M 20.15151515151515,146.09848484848482 L 30.227272727272727,146.09848484848482" fill="none" stroke="#000000" stroke-width="0.15919696969696967"/>
	<path d="M 30.227272727272727,148.11363636363632 L 20.15151515151515,148.11363636363632" fill="none" stroke="#000000" stroke-width="0.15919696969696967"/>
	<path d="M 20.15151515151515,150.12878787878782 L 30.227272727272727,150.12878787878782" fill="none" stroke="#000000" stroke-width="0.15919696969696967"/>
	<path d="M 30.227272727272727,142.0681818181818 L 40.303030303030305,142.0681818181818" fill="none" stroke="#000000" stroke-width="0.15919696969696967"/>
	<path d="M 40.303030303030305,144.08333333333331 L 30.227272727272727,144.08333333333331" fill="none" stroke="#000000" stroke-width="0.15919696969696967"/>
	<path d="M 30.227272727272727,146.09848484848482 L 40.303030303030305,146.09848484848482" fill="none" stroke="#000000" stroke-width="0.15919696969696967"/>
	<path d="M 40.303030303030305,148.11363636363632 L 30.227272727272727,148.11363636363632" fill="none" stroke="#000000" stroke-width="0.15919696969696967"/>
	<path d="M 30.227272727272727,150.12878787878782 L 40.303030303030305,150.12878787878782" fill="none" stroke="#000000" stroke-width="0.15919696969696967"/>
	<path d="M 80.60606060606061,142.0681818181818 L 90.68181818181819,142.0681818181818" fill="none" stroke="#000000" stroke-width="0.15919696969696967"/>
	<path d="M 90.68181818181819,144.08333333333331 L 80.60606060606061,144.08333333333331" fill="none" stroke="#000000" stroke-width="0.15919696969696967"/>
	<path d="M 80.60606060606061,146.09848484848482 L 90.68181818181819,146.09848484848482" fill="none" stroke="#000000" stroke-width="0.15919696969696967"/>
	<path d="M 90.68181818181819,148.11363636363632 L 80.60606060606061,148.11363636363632" fill="none" stroke="#000000" stroke-width="0.15919696969696967"/>
	<path d="M 80.60606060606061,150.12878787878782 L 90.68181818181819,150.12878787878782" fill="none" stroke="#000000" stroke-width="0.15919696969696967"/>
	<path d="M 90.68181818181819,142.0681818181818 L 100.75757575757576,142.0681818181818" fill="none" stroke="#000000" stroke-width="0.15919696969696967"/>
	<path d="M 100.75757575757576,144.08333333333331 L 90.68181818181819,144.08333333333331" fill="none" stroke="#000000" stroke-width="0.15919696969696967"/>
	<path d="M 90.68181818181819,146.09848484848482 L 100.75757575757576,146.09848484848482" fill="none" stroke="#000000" stroke-width="0.15919696969696967"/>
	<path d="M 100.75757575757576,148.11363636363632 L 90.68181818181819,148.11363636363632" fill="none" stroke="#000000" stroke-width="0.15919696969696967"/>
	<path d="M 90.68181818181819,150.12878787878782 L 100.75757575757576,150.12878787878782" fill="none" stroke="#000000" stroke-width="0.15919696969696967"/>
	<path d="M 100.75757575757576,142.0681818181818 L 110.83333333333334,142.0681818181818" fill="none" stroke="#000000" stroke-width="0.15919696969696967"/>
	<path d="M 110.83333333333334,144.08333333333331 L 100.75757575757576,144.08333333333331" fill="none" stroke="#000000" stroke-width="0.15919696969696967"/>
	<path d="M 100.75757575757576,146.09848484848482 L 110.83333333333334,146.09848484848482" fill="none" stroke="#000000" stroke-width="0.15919696969696967"/>
	<path d="M 110.83333333333334,148.11363636363632 L 100.75757575757576,148.11363636363632" fill="none" stroke="#000000" stroke-width="0.15919696969696967"/>
	<path d="M 100.75757575757576,150.12878787878782 L 110.83333333333334,150.12878787878782" fill="none" stroke="#000000" stroke-width="0.15919696969696967"/>
	<path d="M 0.0,152.1439393939394 L 10.075757575757576,152.1439393939394" fill="none" stroke="#000000" stroke-width="0.15919696969696967"/>
	<path d="M 10.075757575757576,154.1590909090909 L 0.0,154.1590909090909" fill="none" stroke="#000000" stroke-width="0.15919696969696967"/>
	<path d="M 0.0,156.1742424242424 L 10.075757575757576,156.1742424242424" fill="none" stroke="#000000" stroke-width="0.15919696969696967"/>
	<path d="M 10.075757575757576,158.1893939393939 L 0.0,158.1893939393939" fill="none" stroke="#000000" stroke-width="0.15919696969696967"/>
	<path d="M 0.0,160.2045454545454 L 10.075757575757576,160.2045454545454" fill="none" stroke="#000000" stroke-width="0.15919696969696967"/>
	<path d="M 10.075757575757576,152.1439393939394 L 20.151515151515152,152.1439393939394" fill="none" stroke="#000000" stroke-width="0.15919696969696967"/>
	<path d="M 20.151515151515152,154.1590909090909 L 10.075757575757576,154.1590909090909" fill="none" stroke="#000000" stroke-width="0.15919696969696967"/>
	<path d="M 10.075757575757576,156.1742424242424 L 20.151515151515152,156.1742424242424" fill="none" stroke="#000000" stroke-width="0.15919696969696967"/>
	<path d="M 20.151515151515152,158.1893939393939 L 10.075757575757576,158.1893939393939" fill="none" stroke="#000000" stroke-width="0.15919696969696967"/>
	<path d="M 10.075757575757576,160.2045454545454 L 20.151515151515152,160.2045454545454" fill="none" stroke="#000000" stroke-width="0.15919696969696967"/>
	<path d="M 20.151515151515152,152.1439393939394 L 30.227272727272727,152.1439393939394" fill="none" stroke="#000000" stroke-width="0.15919696969696967"/>
	<path d="M 30.227272727272727,154.1590909090909 L 20.15151515151515,154.1590909090909" fill="none" stroke="#000000" stroke-width="0.15919696969696967"/>
	<path d="M 20.15151515151515,156.1742424242424 L 30.227272727272727,156.1742424242424" fill="none" stroke="#000000" stroke-width="0.15919696969696967"/>
	<path d="M 30.227272727272727,158.1893939393939 L 20.15151515151515,158.1893939393939" fill="none" stroke="#000000" stroke-width="0.15919696969696967"/>
	<path d="M 20.15151515151515,160.2045454545454 L 30.227272727272727,160.2045454545454" fill="none" stroke="#000000" stroke-width="0.15919696969696967"/>
	<path d="M 30.227272727272727,152.1439393939394 L 40.303030303030305,152.1439393939394" fill="none" stroke="#000000" stroke-width="0.15919696969696967"/>
	<path d="M 40.303030303030305,154.1590909090909 L 30.227272727272727,154.1590909090909" fill="none" stroke="#000000" stroke-width="0.15919696969696967"/>
	<path d="M 30.227272727272727,156.1742424242424 L 40.303030303030305,156.1742424242424" fill="none" stroke="#000000" stroke-width="0.15919696969696967"/>
	<path d="M 40.303030303030305,158.1893939393939 L 30.227272727272727,158.1893939393939" fill="none" stroke="#000000" stroke-width="0.15919696969696967"/>
	<path d="M 30.227272727272727,160.2045454545454 L 40.303030303030305,160.2045454545454" fill="none" stroke="#000000" stroke-width="0.15919696969696967"/>
	<path d="M 80.60606060606061,152.1439393939394 L 90.68181818181819,152.1439393939394" fill="none" stroke="#000000" stroke-width="0.15919696969696967"/>
	<path d="M 90.68181818181819,154.1590909090909 L 80.60606060606061,154.1590909090909" fill="none" stroke="#000000" stroke-width="0.15919696969696967"/>
	<path d="M 80.60606060606061,156.1742424242424 L 90.68181818181819,156.1742424242424" fill="none" stroke="#000000" stroke-width="0.15919696969696967"/>
	<path d="M 90.68181818181819,158.1893939393939 L 80.60606060606061,158.1893939393939" fill="none" stroke="#000000" stroke-width="0.15919696969696967"/>
	<path d="M 80.60606060606061,160.2045454545454 L 90.68181818181819,160.2045454545454" fill="none" stroke="#000000" stroke-width="0.15919696969696967"/>
	<path d="M 90.68181818181819,152.1439393939394 L 100.75757575757576,152.1439393939394" fill="none" stroke="#000000" stroke-width="0.15919696969696967"/>
	<path d="M 100.75757575757576,154.1590909090909 L 90.68181818181819,154.1590909090909" fill="none" stroke="#000000" stroke-width="0.15919696969696967"/>
	<path d="M 90.68181818181819,156.1742424242424 L 100.75757575757576,156.1742424242424" fill="none" stroke="#000000" stroke-width="0.15919696969696967"/>
	<path d="M 100.75757575757576,158.1893939393939 L 90.68181818181819,158.1893939393939" fill="none" stroke="#000000" stroke-width="0.15919696969696967"/>
	<path d="M 90.68181818181819,160.2045454545454 L 100.75757575757576,160.2045454545454" fill="none" stroke="#000000" stroke-width="0.15919696969696967"/>
	<path d="M 100.75757575757576,152.1439393939394 L 110.83333333333334,152.1439393939394" fill="none" stroke="#000000" stroke-width="0.15919696969696967"/>
	<path d="M 110.83333333333334,154.1590909090909 L 100.75757575757576,154.1590909090909" fill="none" stroke="#000000" stroke-width="0.15919696969696967"/>
	<path d="M 100.75757575757576,156.1742424242424 L 110.83333333333334,156.1742424242424" fill="none" stroke="#000000" stroke-width="0.15919696969696967"/>
	<path d="M 110.83333333333334,158.1893939393939 L 100.75757575757576,158.1893939393939" fill="none" stroke="#000000" stroke-width="0.15919696969696967"/>
	<path d="M 100.75757575757576,160.2045454545454 L 110.83333333333334,160.2045454545454" fill="none" stroke="#000000" stroke-width="0.15919696969696967"/>
	<path d="M 110.83333333333334,152.1439393939394 L 120.90909090909092,152.1439393939394" fill="none" stroke="#000000" stroke-width="0.15919696969696967"/>
	<path d="M 120.90909090909092,154.1590909090909 L 110.83333333333334,154.1590909090909" fill="none" stroke="#000000" stroke-width="0.15919696969696967"/>
	<path d="M 110.83333333333334,156.1742424242424 L 120.90909090909092,156.1742424242424" fill="none" stroke="#000000" stroke-width="0.15919696969696967"/>
	<path d="M 120.90909090909092,158.1893939393939 L 110.83333333333334,158.1893939393939" fill="none" stroke="#000000" stroke-width="0.15919696969696967"/>
	<path d="M 110.83333333333334,160.2045454545454 L 120.90909090909092,160.2045454545454" fill="none" stroke="#000000" stroke-width="0.15919696969696967"/>
</svg>
